<svg id="Capa_1" enable-background="new 0 0 512 512" viewBox="0 0 512 512" xmlns="http://www.w3.org/2000/svg" xmlns:xlink="http://www.w3.org/1999/xlink"><linearGradient id="lg1"><stop offset="0" stop-color="#fef0ae"/><stop offset="1" stop-color="#fac600"/></linearGradient><linearGradient id="SVGID_1_" gradientTransform="matrix(0 1 1 0 0 0)" gradientUnits="userSpaceOnUse" x1="55.94" x2="99.502" xlink:href="#lg1" y1="76.415" y2="126.963"/><linearGradient id="lg2"><stop offset="0" stop-color="#fe9738" stop-opacity="0"/><stop offset="1" stop-color="#fe9738"/></linearGradient><linearGradient id="SVGID_00000054964215744302022510000006639130094015488438_" gradientTransform="matrix(0 1 1 0 0 0)" gradientUnits="userSpaceOnUse" x1="54.917" x2="79.871" xlink:href="#lg2" y1="86.005" y2="86.005"/><linearGradient id="SVGID_00000041260300336233062760000009643962282900542358_" gradientTransform="matrix(0 1 1 0 0 0)" gradientUnits="userSpaceOnUse" x1="55.94" x2="99.502" xlink:href="#lg1" y1="376.996" y2="427.544"/><linearGradient id="SVGID_00000041281408394225790720000002773302802450921145_" gradientTransform="matrix(0 1 1 0 0 0)" gradientUnits="userSpaceOnUse" x1="54.917" x2="79.871" xlink:href="#lg2" y1="386.586" y2="386.586"/><linearGradient id="SVGID_00000055693467389591855620000002049014210517435561_" gradientTransform="matrix(0 1 1 0 0 0)" gradientUnits="userSpaceOnUse" x1="55.94" x2="99.502" xlink:href="#lg1" y1="176.608" y2="227.156"/><linearGradient id="SVGID_00000125573907134073848180000014176194794667706523_" gradientTransform="matrix(0 1 1 0 0 0)" gradientUnits="userSpaceOnUse" x1="54.917" x2="79.871" xlink:href="#lg2" y1="186.198" y2="186.198"/><linearGradient id="SVGID_00000034079737532365222570000006197148431404643485_" gradientTransform="matrix(0 1 1 0 0 0)" gradientUnits="userSpaceOnUse" x1="55.94" x2="99.502" xlink:href="#lg1" y1="276.802" y2="327.35"/><linearGradient id="SVGID_00000046316215816345580840000017105070297883047299_" gradientTransform="matrix(0 1 1 0 0 0)" gradientUnits="userSpaceOnUse" x1="54.917" x2="79.871" xlink:href="#lg2" y1="286.392" y2="286.392"/><linearGradient id="SVGID_00000161617532887516206490000007059875198541068964_" gradientTransform="matrix(0 1 1 0 0 0)" gradientUnits="userSpaceOnUse" x1="162.627" x2="498.497" y1="134.665" y2="470.534"><stop offset="0" stop-color="#b3dafe"/><stop offset="1" stop-color="#0182fc"/></linearGradient><linearGradient id="lg3"><stop offset="0" stop-color="#314dc9" stop-opacity="0"/><stop offset=".2761" stop-color="#304bc4" stop-opacity=".276"/><stop offset=".5628" stop-color="#2b45b8" stop-opacity=".563"/><stop offset=".8535" stop-color="#243ba3" stop-opacity=".854"/><stop offset="1" stop-color="#1f3596"/></linearGradient><linearGradient id="SVGID_00000122683953172866090720000005012270588539583379_" gradientTransform="matrix(0 1 1 0 0 0)" gradientUnits="userSpaceOnUse" x1="403.061" x2="506.001" xlink:href="#lg3" y1="256" y2="256"/><linearGradient id="SVGID_00000090253137343315832460000011111931650491687341_" gradientTransform="matrix(0 1 1 0 0 0)" gradientUnits="userSpaceOnUse" x1="283.962" x2="283.962" xlink:href="#lg3" y1="433.943" y2="515.219"/><linearGradient id="SVGID_00000091735719780426066450000016495278886602292398_" gradientUnits="userSpaceOnUse" x1="365.362" x2="245.6" xlink:href="#lg3" y1="426.118" y2="252.177"/><linearGradient id="lg4"><stop offset="0" stop-color="#f5fbff"/><stop offset="1" stop-color="#dbd5ef"/></linearGradient><linearGradient id="SVGID_00000178885235644037678600000005542120701286469552_" gradientTransform="matrix(0 1 1 0 0 0)" gradientUnits="userSpaceOnUse" x1="164.54" x2="471.434" xlink:href="#lg4" y1="145.132" y2="452.026"/><linearGradient id="lg5"><stop offset="0" stop-color="#dbd5ef" stop-opacity="0"/><stop offset=".2853" stop-color="#d9d2ee" stop-opacity=".285"/><stop offset=".4739" stop-color="#d4c9e9" stop-opacity=".474"/><stop offset=".6346" stop-color="#cbbae2" stop-opacity=".635"/><stop offset=".7795" stop-color="#bfa5d7" stop-opacity=".78"/><stop offset=".9126" stop-color="#af8aca" stop-opacity=".913"/><stop offset="1" stop-color="#a274bf"/></linearGradient><linearGradient id="SVGID_00000138542339388722944720000009933422825247097015_" gradientUnits="userSpaceOnUse" x1="225.987" x2="139.73" xlink:href="#lg5" y1="127.982" y2="67.388"/><linearGradient id="SVGID_00000116209987353133159230000012813132202852267165_" gradientUnits="userSpaceOnUse" x1="304.704" x2="217.734" xlink:href="#lg5" y1="150.915" y2="93.172"/><linearGradient id="SVGID_00000018951099145930904470000008206625055423718826_" gradientTransform="matrix(0 1 1 0 0 0)" gradientUnits="userSpaceOnUse" x1="384.232" x2="478.291" xlink:href="#lg5" y1="256" y2="256"/><linearGradient id="SVGID_00000101794466272513888640000002793980309266799535_" gradientTransform="matrix(0 1 1 0 0 0)" gradientUnits="userSpaceOnUse" x1="275.408" x2="275.408" xlink:href="#lg5" y1="418.592" y2="492.856"/><linearGradient id="SVGID_00000108997206573818427540000005936319096021393569_" gradientUnits="userSpaceOnUse" x1="405.146" x2="298.928" xlink:href="#lg5" y1="169.071" y2="99.923"/><linearGradient id="SVGID_00000100367325320625293430000014314693916035945630_" gradientUnits="userSpaceOnUse" x1="483.956" x2="405.54" xlink:href="#lg5" y1="170.386" y2="116.207"/><linearGradient id="SVGID_00000049943635435901766630000006520983681619164326_" gradientTransform="matrix(0 1 1 0 0 0)" gradientUnits="userSpaceOnUse" x1="174.97" x2="103.463" xlink:href="#lg4" y1="131.703" y2="90.881"/><linearGradient id="SVGID_00000075849556697163606690000013726320912676516750_" gradientTransform="matrix(0 1 1 0 0 0)" gradientUnits="userSpaceOnUse" x1="63.672" x2="107.233" xlink:href="#lg1" y1="69.751" y2="120.299"/><linearGradient id="SVGID_00000093137374377232339940000010816301242399404932_" gradientTransform="matrix(0 1 1 0 0 0)" gradientUnits="userSpaceOnUse" x1="113.615" x2="141.518" xlink:href="#lg2" y1="116.779" y2="116.779"/><linearGradient id="SVGID_00000109719080633306846320000002052902330201183406_" gradientTransform="matrix(0 1 1 0 0 0)" gradientUnits="userSpaceOnUse" x1="106.805" x2="105.161" xlink:href="#lg2" y1="103.19" y2="85.929"/><linearGradient id="SVGID_00000015349737681735648180000013771332222374347966_" gradientTransform="matrix(0 1 1 0 0 0)" gradientUnits="userSpaceOnUse" x1="82.601" x2="82.601" xlink:href="#lg2" y1="127.883" y2="144.404"/><linearGradient id="SVGID_00000120555092686018095200000016818192172664838296_" gradientTransform="matrix(0 1 1 0 0 0)" gradientUnits="userSpaceOnUse" x1="174.97" x2="103.463" xlink:href="#lg4" y1="231.897" y2="191.075"/><linearGradient id="SVGID_00000013905072998732193730000005779642327348233865_" gradientTransform="matrix(0 1 1 0 0 0)" gradientUnits="userSpaceOnUse" x1="63.672" x2="107.233" xlink:href="#lg1" y1="169.945" y2="220.493"/><linearGradient id="SVGID_00000048482928308848207140000008712618119152004787_" gradientTransform="matrix(0 1 1 0 0 0)" gradientUnits="userSpaceOnUse" x1="113.615" x2="141.518" xlink:href="#lg2" y1="216.973" y2="216.973"/><linearGradient id="SVGID_00000110464809550356528480000010429795200463258555_" gradientTransform="matrix(0 1 1 0 0 0)" gradientUnits="userSpaceOnUse" x1="106.805" x2="105.161" xlink:href="#lg2" y1="203.383" y2="186.123"/><linearGradient id="SVGID_00000090276238094448497300000000865754572470240644_" gradientTransform="matrix(0 1 1 0 0 0)" gradientUnits="userSpaceOnUse" x1="82.601" x2="82.601" xlink:href="#lg2" y1="228.077" y2="244.597"/><linearGradient id="SVGID_00000158731906332336163500000010312240140124312450_" gradientTransform="matrix(0 1 1 0 0 0)" gradientUnits="userSpaceOnUse" x1="174.97" x2="103.463" xlink:href="#lg4" y1="332.09" y2="291.268"/><linearGradient id="SVGID_00000153698504570961195460000015148252653511033486_" gradientTransform="matrix(0 1 1 0 0 0)" gradientUnits="userSpaceOnUse" x1="63.672" x2="107.233" xlink:href="#lg1" y1="270.139" y2="320.687"/><linearGradient id="SVGID_00000078041324015481740490000017399237267157870745_" gradientTransform="matrix(0 1 1 0 0 0)" gradientUnits="userSpaceOnUse" x1="113.615" x2="141.518" xlink:href="#lg2" y1="317.166" y2="317.166"/><linearGradient id="SVGID_00000105393189099420643980000016901995220027495606_" gradientTransform="matrix(0 1 1 0 0 0)" gradientUnits="userSpaceOnUse" x1="106.805" x2="105.161" xlink:href="#lg2" y1="303.577" y2="286.317"/><linearGradient id="SVGID_00000094612174648572317550000011645589376065563560_" gradientTransform="matrix(0 1 1 0 0 0)" gradientUnits="userSpaceOnUse" x1="82.601" x2="82.601" xlink:href="#lg2" y1="328.271" y2="344.791"/><linearGradient id="SVGID_00000065777151765158151100000005303956264787736978_" gradientTransform="matrix(0 1 1 0 0 0)" gradientUnits="userSpaceOnUse" x1="174.97" x2="103.463" xlink:href="#lg4" y1="432.284" y2="391.462"/><linearGradient id="SVGID_00000040557800781297296090000013906144284192897671_" gradientTransform="matrix(0 1 1 0 0 0)" gradientUnits="userSpaceOnUse" x1="63.672" x2="107.233" xlink:href="#lg1" y1="370.332" y2="420.88"/><linearGradient id="SVGID_00000018942347542977348320000009197906862641393029_" gradientTransform="matrix(0 1 1 0 0 0)" gradientUnits="userSpaceOnUse" x1="113.615" x2="141.518" xlink:href="#lg2" y1="417.36" y2="417.36"/><linearGradient id="SVGID_00000067227423124733348200000000402322561478915994_" gradientTransform="matrix(0 1 1 0 0 0)" gradientUnits="userSpaceOnUse" x1="106.805" x2="105.161" xlink:href="#lg2" y1="403.771" y2="386.51"/><linearGradient id="SVGID_00000089548985200772108680000009954151170219787696_" gradientTransform="matrix(0 1 1 0 0 0)" gradientUnits="userSpaceOnUse" x1="82.601" x2="82.601" xlink:href="#lg2" y1="428.464" y2="444.985"/><linearGradient id="SVGID_00000091013239667311302090000011719197766180451002_" gradientUnits="userSpaceOnUse" x1="34.46" x2="110.504" xlink:href="#lg5" y1="123.207" y2="257.51"/><linearGradient id="SVGID_00000116222460373148076290000000110378798063558275_" gradientUnits="userSpaceOnUse" x1="95.939" x2="140.572" xlink:href="#lg5" y1="226.643" y2="226.643"/><linearGradient id="SVGID_00000065040120732267128020000005395632425544898696_" gradientUnits="userSpaceOnUse" x1="93.026" x2="93.026" xlink:href="#lg5" y1="226.509" y2="256.565"/><linearGradient id="SVGID_00000068660659057631850310000017504005470629112737_" gradientUnits="userSpaceOnUse" x1="143.109" x2="219.153" xlink:href="#lg5" y1="123.207" y2="257.51"/><linearGradient id="SVGID_00000110453156610313602910000012460173990736957880_" gradientUnits="userSpaceOnUse" x1="204.588" x2="249.221" xlink:href="#lg5" y1="226.643" y2="226.643"/><linearGradient id="SVGID_00000133503976322105380480000010637016481101719192_" gradientUnits="userSpaceOnUse" x1="201.676" x2="201.676" xlink:href="#lg5" y1="226.509" y2="256.565"/><linearGradient id="SVGID_00000147187603524529329570000004401450881584988070_" gradientUnits="userSpaceOnUse" x1="251.758" x2="327.802" xlink:href="#lg5" y1="123.207" y2="257.51"/><linearGradient id="SVGID_00000008137468857584450890000012612312763282306217_" gradientUnits="userSpaceOnUse" x1="313.237" x2="357.87" xlink:href="#lg5" y1="226.643" y2="226.643"/><linearGradient id="SVGID_00000152249354876126893720000006886558247603286440_" gradientUnits="userSpaceOnUse" x1="310.325" x2="310.325" xlink:href="#lg5" y1="226.509" y2="256.565"/><linearGradient id="SVGID_00000033336045125828719910000003968322788664717238_" gradientUnits="userSpaceOnUse" x1="360.407" x2="436.451" xlink:href="#lg5" y1="123.207" y2="257.51"/><linearGradient id="SVGID_00000162346511568519069340000011543735244612914321_" gradientUnits="userSpaceOnUse" x1="421.886" x2="466.519" xlink:href="#lg5" y1="226.643" y2="226.643"/><linearGradient id="SVGID_00000094586925008694600580000001635011435409513132_" gradientUnits="userSpaceOnUse" x1="418.974" x2="418.974" xlink:href="#lg5" y1="226.509" y2="256.565"/><linearGradient id="SVGID_00000001621937079665713720000010182216708525004672_" gradientUnits="userSpaceOnUse" x1="34.46" x2="110.504" xlink:href="#lg5" y1="206.122" y2="340.425"/><linearGradient id="SVGID_00000083809401059131331960000002052807272785354903_" gradientUnits="userSpaceOnUse" x1="95.939" x2="140.572" xlink:href="#lg5" y1="309.558" y2="309.558"/><linearGradient id="SVGID_00000124137404245899234840000000013525055142623653_" gradientUnits="userSpaceOnUse" x1="93.026" x2="93.026" xlink:href="#lg5" y1="309.423" y2="339.479"/><linearGradient id="SVGID_00000119082275029767896740000005308097532460032435_" gradientUnits="userSpaceOnUse" x1="143.109" x2="219.153" xlink:href="#lg5" y1="206.122" y2="340.425"/><linearGradient id="SVGID_00000095305455507600628790000000245695592924357788_" gradientUnits="userSpaceOnUse" x1="204.588" x2="249.221" xlink:href="#lg5" y1="309.558" y2="309.558"/><linearGradient id="SVGID_00000001651755042974868890000016459202879190878080_" gradientUnits="userSpaceOnUse" x1="201.676" x2="201.676" xlink:href="#lg5" y1="309.423" y2="339.479"/><linearGradient id="SVGID_00000180349978725645612990000014682179287088625853_" gradientUnits="userSpaceOnUse" x1="251.758" x2="327.802" xlink:href="#lg5" y1="206.122" y2="340.425"/><linearGradient id="SVGID_00000142859414762543915830000014262609941037006486_" gradientUnits="userSpaceOnUse" x1="313.237" x2="357.87" xlink:href="#lg5" y1="309.558" y2="309.558"/><linearGradient id="SVGID_00000085208860272796056120000004624542576390634909_" gradientUnits="userSpaceOnUse" x1="310.325" x2="310.325" xlink:href="#lg5" y1="309.423" y2="339.479"/><linearGradient id="SVGID_00000170246657135812548890000009347673863649849012_" gradientUnits="userSpaceOnUse" x1="360.407" x2="436.451" xlink:href="#lg5" y1="206.122" y2="340.425"/><linearGradient id="SVGID_00000125574326643371732650000017475689401670138268_" gradientUnits="userSpaceOnUse" x1="421.886" x2="466.519" xlink:href="#lg5" y1="309.558" y2="309.558"/><linearGradient id="SVGID_00000116950629964144744880000008245181422668854695_" gradientUnits="userSpaceOnUse" x1="418.974" x2="418.974" xlink:href="#lg5" y1="309.423" y2="339.479"/><linearGradient id="SVGID_00000065775185486525140430000014082002095256824235_" gradientUnits="userSpaceOnUse" x1="34.46" x2="110.504" xlink:href="#lg5" y1="289.037" y2="423.34"/><linearGradient id="SVGID_00000103970234103080847980000015293254480656064402_" gradientUnits="userSpaceOnUse" x1="95.939" x2="140.572" xlink:href="#lg5" y1="392.473" y2="392.473"/><linearGradient id="SVGID_00000037675664937538435340000009571348261330090933_" gradientUnits="userSpaceOnUse" x1="93.026" x2="93.026" xlink:href="#lg5" y1="392.338" y2="422.394"/><linearGradient id="SVGID_00000111895652597023535580000016137492321018348179_" gradientUnits="userSpaceOnUse" x1="143.109" x2="219.153" y1="289.037" y2="423.34"><stop offset="0" stop-color="#ffa1ae"/><stop offset="1" stop-color="#ff4565"/></linearGradient><linearGradient id="lg6"><stop offset="0" stop-color="#fe0364" stop-opacity="0"/><stop offset=".2343" stop-color="#f90362" stop-opacity=".234"/><stop offset=".5173" stop-color="#ea035b" stop-opacity=".517"/><stop offset=".8243" stop-color="#d20250" stop-opacity=".824"/><stop offset="1" stop-color="#c00148"/></linearGradient><linearGradient id="SVGID_00000039812495975387383470000004218196573515363970_" gradientUnits="userSpaceOnUse" x1="204.588" x2="249.221" xlink:href="#lg6" y1="392.473" y2="392.473"/><linearGradient id="SVGID_00000035511984293116999660000010541532905603229327_" gradientUnits="userSpaceOnUse" x1="201.676" x2="201.676" xlink:href="#lg6" y1="392.338" y2="422.394"/><linearGradient id="SVGID_00000133519162708585259900000011350424325935392155_" gradientUnits="userSpaceOnUse" x1="251.758" x2="327.802" xlink:href="#lg5" y1="289.037" y2="423.34"/><linearGradient id="SVGID_00000115505017966374943410000003382829741703356313_" gradientUnits="userSpaceOnUse" x1="313.237" x2="357.87" xlink:href="#lg5" y1="392.473" y2="392.473"/><linearGradient id="SVGID_00000170988918308460102850000007811475180400071583_" gradientUnits="userSpaceOnUse" x1="310.325" x2="310.325" xlink:href="#lg5" y1="392.338" y2="422.394"/><linearGradient id="SVGID_00000011719756918301453220000014794902916447890619_" gradientUnits="userSpaceOnUse" x1="360.407" x2="436.451" xlink:href="#lg5" y1="289.037" y2="423.34"/><linearGradient id="SVGID_00000101062779593305453280000012109918283038506420_" gradientUnits="userSpaceOnUse" x1="421.886" x2="466.519" xlink:href="#lg5" y1="392.473" y2="392.473"/><linearGradient id="SVGID_00000005231022681017504210000009251700359490067370_" gradientUnits="userSpaceOnUse" x1="418.974" x2="418.974" xlink:href="#lg5" y1="392.338" y2="422.394"/><g><g><g><path d="m107.351 150.451c-24.34 0-42.694-29.169-42.694-67.85s18.354-67.85 42.694-67.85 42.694 29.169 42.694 67.85-18.354 67.85-42.694 67.85zm0-28.825c3.453 0 13.869-13.841 13.869-39.025 0-25.185-10.417-39.026-13.869-39.026-3.453 0-13.869 13.841-13.869 39.026s10.417 39.025 13.869 39.025z" fill="url(#SVGID_1_)"/></g><path d="m71.995 43.575h35.356c-3.453 0-13.869 13.841-13.869 39.026 0 7.767.993 14.451 2.464 19.987h-29.543c-1.134-6.273-1.745-12.97-1.745-19.987 0-14.761 2.679-28.128 7.337-39.026z" fill="url(#SVGID_00000054964215744302022510000006639130094015488438_)"/><g><path d="m407.932 150.451c-24.34 0-42.694-29.169-42.694-67.85s18.354-67.85 42.694-67.85 42.694 29.169 42.694 67.85-18.354 67.85-42.694 67.85zm0-28.825c3.453 0 13.869-13.841 13.869-39.025 0-25.185-10.417-39.026-13.869-39.026s-13.869 13.841-13.869 39.026 10.417 39.025 13.869 39.025z" fill="url(#SVGID_00000041260300336233062760000009643962282900542358_)"/></g><path d="m372.576 43.575h35.356c-3.453 0-13.869 13.841-13.869 39.026 0 7.767.993 14.451 2.464 19.987h-29.543c-1.134-6.273-1.745-12.97-1.745-19.987 0-14.761 2.679-28.128 7.337-39.026z" fill="url(#SVGID_00000041281408394225790720000002773302802450921145_)"/><g><path d="m207.545 150.451c-24.34 0-42.694-29.169-42.694-67.85s18.354-67.85 42.694-67.85 42.694 29.169 42.694 67.85-18.354 67.85-42.694 67.85zm0-28.825c3.453 0 13.869-13.841 13.869-39.025 0-25.185-10.417-39.026-13.869-39.026-3.453 0-13.869 13.841-13.869 39.026s10.416 39.025 13.869 39.025z" fill="url(#SVGID_00000055693467389591855620000002049014210517435561_)"/></g><path d="m172.189 43.575h35.356c-3.453 0-13.869 13.841-13.869 39.026 0 7.767.993 14.451 2.464 19.987h-29.543c-1.134-6.273-1.745-12.97-1.745-19.987-.001-14.761 2.679-28.128 7.337-39.026z" fill="url(#SVGID_00000125573907134073848180000014176194794667706523_)"/><g><path d="m307.739 150.451c-24.34 0-42.694-29.169-42.694-67.85s18.354-67.85 42.694-67.85 42.694 29.169 42.694 67.85-18.355 67.85-42.694 67.85zm0-28.825c3.453 0 13.869-13.841 13.869-39.025 0-25.185-10.417-39.026-13.869-39.026s-13.869 13.841-13.869 39.026c-.001 25.185 10.416 39.025 13.869 39.025z" fill="url(#SVGID_00000034079737532365222570000006197148431404643485_)"/></g><path d="m272.382 43.575h35.356c-3.453 0-13.869 13.841-13.869 39.026 0 7.767.993 14.451 2.464 19.987h-29.543c-1.134-6.273-1.745-12.97-1.745-19.987 0-14.761 2.679-28.128 7.337-39.026z" fill="url(#SVGID_00000046316215816345580840000017105070297883047299_)"/><g><path d="m512 449.471v-331.018c0-26.387-21.391-47.778-47.778-47.778h-416.444c-26.387 0-47.778 21.391-47.778 47.778v331.018c0 26.387 21.391 47.778 47.778 47.778h416.444c26.387 0 47.778-21.391 47.778-47.778z" fill="url(#SVGID_00000161617532887516206490000007059875198541068964_)"/><path d="m0 449.471v-237.108h512v237.108c0 26.387-21.391 47.778-47.778 47.778h-416.444c-26.387 0-47.778-21.391-47.778-47.778z" fill="url(#SVGID_00000122683953172866090720000005012270588539583379_)"/><path d="m262.313 70.675h201.909c26.387 0 47.778 21.391 47.778 47.778v331.018c0 26.387-21.391 47.778-47.778 47.778h-201.909z" fill="url(#SVGID_00000090253137343315832460000011111931650491687341_)"/></g><path d="m479.02 96.206-441.393 363.82 37.223 37.223h389.372c26.387 0 47.778-21.391 47.778-47.778v-320.284z" fill="url(#SVGID_00000091735719780426066450000016495278886602292398_)"/><g><path d="m489.915 426.638v-302.461c0-24.111-19.545-43.656-43.656-43.656h-380.518c-24.111 0-43.656 19.545-43.656 43.656v302.461c0 24.111 19.545 43.656 43.656 43.656h380.517c24.111 0 43.657-19.545 43.657-43.656z" fill="url(#SVGID_00000178885235644037678600000005542120701286469552_)"/><path d="m446.259 470.294h-34.622l-320.738-320.738 11.327-11.327c15.305-15.305 23.904-36.063 23.904-57.708h320.129c24.111 0 43.656 19.545 43.656 43.656v302.461c0 24.111-19.546 43.656-43.656 43.656z" fill="url(#SVGID_00000138542339388722944720000009933422825247097015_)"/><path d="m489.915 124.177v302.461c0 6.358-1.37 12.392-3.814 17.84l-294.922-294.922 11.327-11.327c15.305-15.305 23.904-36.063 23.904-57.708h219.849c24.11 0 43.656 19.546 43.656 43.656z" fill="url(#SVGID_00000116209987353133159230000012813132202852267165_)"/><path d="m22.085 426.638v-216.653h467.829v216.653c0 24.111-19.545 43.656-43.656 43.656h-380.517c-24.11 0-43.656-19.545-43.656-43.656z" fill="url(#SVGID_00000018951099145930904470000008206625055423718826_)"/><path d="m261.768 80.521h184.49c24.111 0 43.656 19.545 43.656 43.656v302.461c0 24.111-19.545 43.656-43.656 43.656h-184.49z" fill="url(#SVGID_00000101794466272513888640000002793980309266799535_)"/><path d="m489.915 124.177v223.835l-198.456-198.456 11.327-11.327c15.305-15.305 23.903-36.063 23.903-57.708h119.57c24.11 0 43.656 19.546 43.656 43.656z" fill="url(#SVGID_00000108997206573818427540000005936319096021393569_)"/><path d="m489.915 124.177v123.555l-98.176-98.176 11.327-11.327c15.305-15.305 23.903-36.063 23.903-57.708h19.29c24.11 0 43.656 19.546 43.656 43.656z" fill="url(#SVGID_00000100367325320625293430000014314693916035945630_)"/></g><g><path d="m107.351 156.15c13.164 0 23.836-10.672 23.836-23.836s-10.672-23.836-23.836-23.836c-3.126 0-6.112.602-8.848 1.696l-13.246 31.101c3.542 8.723 12.1 14.875 22.094 14.875z" fill="url(#SVGID_00000049943635435901766630000006520983681619164326_)"/><g><path d="m107.348 150.449c8.209 0 15.738-3.321 22.114-9.212 12.521-11.553 20.58-33.01 20.58-58.64 0-.692-.011-1.384-.023-2.075-.081-4.381-.392-8.636-.922-12.729h-29.193c.715 3.816 1.176 8.071 1.28 12.729.023.68.034 1.372.034 2.075 0 11.749-2.26 21.019-5.027 27.579-3.171 7.506-6.999 11.449-8.843 11.449-1.845 0-5.673-3.943-8.843-11.449-8.786 3.517-14.989 12.095-14.989 22.137 0 3.171.623 6.191 1.752 8.959 6.365 5.868 13.882 9.177 22.08 9.177z" fill="url(#SVGID_00000075849556697163606690000013726320912676516750_)"/></g><g><path d="m107.348 150.449c8.209 0 15.738-3.321 22.114-9.212 12.521-11.553 20.58-33.01 20.58-58.64 0-.692-.011-1.384-.023-2.075-.081-4.381-.392-8.636-.922-12.729h-29.193c.715 3.816 1.176 8.071 1.28 12.729.023.68.034 1.372.034 2.075 0 11.749-2.26 21.019-5.027 27.579-3.171 7.506-6.999 11.449-8.843 11.449-1.845 0-5.673-3.943-8.843-11.449-8.786 3.517-14.989 12.095-14.989 22.137 0 3.171.623 6.191 1.752 8.959 6.365 5.868 13.882 9.177 22.08 9.177z" fill="url(#SVGID_00000093137374377232339940000010816301242399404932_)"/></g><g><path d="m107.348 150.449c8.209 0 15.738-3.321 22.114-9.212 12.521-11.553 20.58-33.01 20.58-58.64 0-.692-.011-1.384-.023-2.075-.081-4.381-.392-8.636-.922-12.729h-29.193c.715 3.816 1.176 8.071 1.28 12.729.023.68.034 1.372.034 2.075 0 11.749-2.26 21.019-5.027 27.579-3.171 7.506-6.999 11.449-8.843 11.449-1.845 0-5.673-3.943-8.843-11.449-8.786 3.517-14.989 12.095-14.989 22.137 0 3.171.623 6.191 1.752 8.959 6.365 5.868 13.882 9.177 22.08 9.177z" fill="url(#SVGID_00000109719080633306846320000002052902330201183406_)"/></g></g><path d="m108.222 121.394c4.06-1.872 12.998-15.459 12.998-38.793s-8.938-36.921-12.998-38.793v-29.024c23.903.69 41.823 29.602 41.823 67.817s-17.92 67.127-41.823 67.817z" fill="url(#SVGID_00000015349737681735648180000013771332222374347966_)"/><g><path d="m207.545 156.15c13.164 0 23.836-10.672 23.836-23.836s-10.672-23.836-23.836-23.836c-3.126 0-6.112.602-8.848 1.696l-13.246 31.101c3.542 8.723 12.1 14.875 22.094 14.875z" fill="url(#SVGID_00000120555092686018095200000016818192172664838296_)"/><g><path d="m207.541 150.449c8.209 0 15.738-3.321 22.114-9.212 12.521-11.553 20.58-33.01 20.58-58.64 0-.692-.011-1.384-.023-2.075-.081-4.381-.392-8.636-.922-12.729h-29.193c.715 3.816 1.176 8.071 1.28 12.729.023.68.034 1.372.034 2.075 0 11.749-2.26 21.019-5.027 27.579-3.171 7.506-6.999 11.449-8.843 11.449-1.845 0-5.673-3.943-8.843-11.449-8.786 3.517-14.989 12.095-14.989 22.137 0 3.171.623 6.191 1.752 8.959 6.365 5.868 13.883 9.177 22.08 9.177z" fill="url(#SVGID_00000013905072998732193730000005779642327348233865_)"/></g><g><path d="m207.541 150.449c8.209 0 15.738-3.321 22.114-9.212 12.521-11.553 20.58-33.01 20.58-58.64 0-.692-.011-1.384-.023-2.075-.081-4.381-.392-8.636-.922-12.729h-29.193c.715 3.816 1.176 8.071 1.28 12.729.023.68.034 1.372.034 2.075 0 11.749-2.26 21.019-5.027 27.579-3.171 7.506-6.999 11.449-8.843 11.449-1.845 0-5.673-3.943-8.843-11.449-8.786 3.517-14.989 12.095-14.989 22.137 0 3.171.623 6.191 1.752 8.959 6.365 5.868 13.883 9.177 22.08 9.177z" fill="url(#SVGID_00000048482928308848207140000008712618119152004787_)"/></g><g><path d="m207.541 150.449c8.209 0 15.738-3.321 22.114-9.212 12.521-11.553 20.58-33.01 20.58-58.64 0-.692-.011-1.384-.023-2.075-.081-4.381-.392-8.636-.922-12.729h-29.193c.715 3.816 1.176 8.071 1.28 12.729.023.68.034 1.372.034 2.075 0 11.749-2.26 21.019-5.027 27.579-3.171 7.506-6.999 11.449-8.843 11.449-1.845 0-5.673-3.943-8.843-11.449-8.786 3.517-14.989 12.095-14.989 22.137 0 3.171.623 6.191 1.752 8.959 6.365 5.868 13.883 9.177 22.08 9.177z" fill="url(#SVGID_00000110464809550356528480000010429795200463258555_)"/></g></g><path d="m208.416 121.394c4.06-1.872 12.999-15.459 12.999-38.793s-8.938-36.921-12.999-38.793v-29.024c23.903.69 41.823 29.602 41.823 67.817s-17.92 67.127-41.823 67.817z" fill="url(#SVGID_00000090276238094448497300000000865754572470240644_)"/><g><path d="m307.739 156.15c13.164 0 23.836-10.672 23.836-23.836s-10.672-23.836-23.836-23.836c-3.126 0-6.112.602-8.848 1.696l-13.246 31.101c3.542 8.723 12.099 14.875 22.094 14.875z" fill="url(#SVGID_00000158731906332336163500000010312240140124312450_)"/><g><path d="m307.735 150.449c8.209 0 15.738-3.321 22.114-9.212 12.521-11.553 20.58-33.01 20.58-58.64 0-.692-.011-1.384-.023-2.075-.081-4.381-.392-8.636-.922-12.729h-29.193c.715 3.816 1.176 8.071 1.28 12.729.023.68.034 1.372.034 2.075 0 11.749-2.26 21.019-5.027 27.579-3.171 7.506-6.999 11.449-8.843 11.449-1.845 0-5.673-3.943-8.843-11.449-8.786 3.517-14.989 12.095-14.989 22.137 0 3.171.622 6.191 1.752 8.959 6.365 5.868 13.882 9.177 22.08 9.177z" fill="url(#SVGID_00000153698504570961195460000015148252653511033486_)"/></g><g><path d="m307.735 150.449c8.209 0 15.738-3.321 22.114-9.212 12.521-11.553 20.58-33.01 20.58-58.64 0-.692-.011-1.384-.023-2.075-.081-4.381-.392-8.636-.922-12.729h-29.193c.715 3.816 1.176 8.071 1.28 12.729.023.68.034 1.372.034 2.075 0 11.749-2.26 21.019-5.027 27.579-3.171 7.506-6.999 11.449-8.843 11.449-1.845 0-5.673-3.943-8.843-11.449-8.786 3.517-14.989 12.095-14.989 22.137 0 3.171.622 6.191 1.752 8.959 6.365 5.868 13.882 9.177 22.08 9.177z" fill="url(#SVGID_00000078041324015481740490000017399237267157870745_)"/></g><g><path d="m307.735 150.449c8.209 0 15.738-3.321 22.114-9.212 12.521-11.553 20.58-33.01 20.58-58.64 0-.692-.011-1.384-.023-2.075-.081-4.381-.392-8.636-.922-12.729h-29.193c.715 3.816 1.176 8.071 1.28 12.729.023.68.034 1.372.034 2.075 0 11.749-2.26 21.019-5.027 27.579-3.171 7.506-6.999 11.449-8.843 11.449-1.845 0-5.673-3.943-8.843-11.449-8.786 3.517-14.989 12.095-14.989 22.137 0 3.171.622 6.191 1.752 8.959 6.365 5.868 13.882 9.177 22.08 9.177z" fill="url(#SVGID_00000105393189099420643980000016901995220027495606_)"/></g></g><path d="m308.61 121.394c4.06-1.872 12.999-15.459 12.999-38.793s-8.938-36.921-12.999-38.793v-29.024c23.903.69 41.823 29.602 41.823 67.817s-17.92 67.127-41.823 67.817z" fill="url(#SVGID_00000094612174648572317550000011645589376065563560_)"/><g><path d="m407.932 156.15c13.164 0 23.836-10.672 23.836-23.836s-10.672-23.836-23.836-23.836c-3.126 0-6.112.602-8.848 1.696l-13.246 31.101c3.542 8.723 12.1 14.875 22.094 14.875z" fill="url(#SVGID_00000065777151765158151100000005303956264787736978_)"/><g><path d="m407.929 150.449c8.209 0 15.738-3.321 22.114-9.212 12.521-11.553 20.58-33.01 20.58-58.64 0-.692-.011-1.384-.023-2.075-.081-4.381-.392-8.636-.922-12.729h-29.193c.715 3.816 1.176 8.071 1.28 12.729.023.68.034 1.372.034 2.075 0 11.749-2.26 21.019-5.027 27.579-3.171 7.506-6.999 11.449-8.843 11.449-1.845 0-5.673-3.943-8.843-11.449-8.786 3.517-14.989 12.095-14.989 22.137 0 3.171.622 6.191 1.752 8.959 6.365 5.868 13.882 9.177 22.08 9.177z" fill="url(#SVGID_00000040557800781297296090000013906144284192897671_)"/></g><g><path d="m407.929 150.449c8.209 0 15.738-3.321 22.114-9.212 12.521-11.553 20.58-33.01 20.58-58.64 0-.692-.011-1.384-.023-2.075-.081-4.381-.392-8.636-.922-12.729h-29.193c.715 3.816 1.176 8.071 1.28 12.729.023.68.034 1.372.034 2.075 0 11.749-2.26 21.019-5.027 27.579-3.171 7.506-6.999 11.449-8.843 11.449-1.845 0-5.673-3.943-8.843-11.449-8.786 3.517-14.989 12.095-14.989 22.137 0 3.171.622 6.191 1.752 8.959 6.365 5.868 13.882 9.177 22.08 9.177z" fill="url(#SVGID_00000018942347542977348320000009197906862641393029_)"/></g><g><path d="m407.929 150.449c8.209 0 15.738-3.321 22.114-9.212 12.521-11.553 20.58-33.01 20.58-58.64 0-.692-.011-1.384-.023-2.075-.081-4.381-.392-8.636-.922-12.729h-29.193c.715 3.816 1.176 8.071 1.28 12.729.023.68.034 1.372.034 2.075 0 11.749-2.26 21.019-5.027 27.579-3.171 7.506-6.999 11.449-8.843 11.449-1.845 0-5.673-3.943-8.843-11.449-8.786 3.517-14.989 12.095-14.989 22.137 0 3.171.622 6.191 1.752 8.959 6.365 5.868 13.882 9.177 22.08 9.177z" fill="url(#SVGID_00000067227423124733348200000000402322561478915994_)"/></g></g><path d="m408.803 121.394c4.06-1.872 12.999-15.459 12.999-38.793s-8.938-36.921-12.999-38.793v-29.024c23.903.69 41.823 29.602 41.823 67.817s-17.92 67.127-41.823 67.817z" fill="url(#SVGID_00000089548985200772108680000009954151170219787696_)"/></g><g><g><g><path d="m118.648 255.063h-51.243c-10.351 0-18.742-8.391-18.742-18.742v-19.355c0-10.351 8.391-18.742 18.742-18.742h51.243c10.351 0 18.742 8.391 18.742 18.742v19.355c0 10.351-8.391 18.742-18.742 18.742z" fill="url(#SVGID_00000091013239667311302090000011719197766180451002_)"/><path d="m118.648 198.224h-46.681v56.838h46.681c10.351 0 18.742-8.391 18.742-18.742v-19.355c0-10.35-8.391-18.741-18.742-18.741z" fill="url(#SVGID_00000116222460373148076290000000110378798063558275_)"/><path d="m48.663 219.368v16.953c0 10.351 8.391 18.742 18.742 18.742h51.243c10.351 0 18.742-8.391 18.742-18.742v-16.953z" fill="url(#SVGID_00000065040120732267128020000005395632425544898696_)"/></g><g><path d="m227.297 255.063h-51.243c-10.351 0-18.742-8.391-18.742-18.742v-19.355c0-10.351 8.391-18.742 18.742-18.742h51.243c10.351 0 18.742 8.391 18.742 18.742v19.355c0 10.351-8.391 18.742-18.742 18.742z" fill="url(#SVGID_00000068660659057631850310000017504005470629112737_)"/><path d="m227.297 198.224h-46.681v56.838h46.681c10.351 0 18.742-8.391 18.742-18.742v-19.355c0-10.35-8.391-18.741-18.742-18.741z" fill="url(#SVGID_00000110453156610313602910000012460173990736957880_)"/><path d="m157.312 219.368v16.953c0 10.351 8.391 18.742 18.742 18.742h51.243c10.351 0 18.742-8.391 18.742-18.742v-16.953z" fill="url(#SVGID_00000133503976322105380480000010637016481101719192_)"/></g><g><path d="m335.946 255.063h-51.243c-10.351 0-18.742-8.391-18.742-18.742v-19.355c0-10.351 8.391-18.742 18.742-18.742h51.243c10.351 0 18.742 8.391 18.742 18.742v19.355c0 10.351-8.391 18.742-18.742 18.742z" fill="url(#SVGID_00000147187603524529329570000004401450881584988070_)"/><path d="m335.946 198.224h-46.681v56.838h46.681c10.351 0 18.742-8.391 18.742-18.742v-19.355c0-10.35-8.391-18.741-18.742-18.741z" fill="url(#SVGID_00000008137468857584450890000012612312763282306217_)"/><path d="m265.961 219.368v16.953c0 10.351 8.391 18.742 18.742 18.742h51.243c10.351 0 18.742-8.391 18.742-18.742v-16.953z" fill="url(#SVGID_00000152249354876126893720000006886558247603286440_)"/></g><g><path d="m444.595 255.063h-51.243c-10.351 0-18.742-8.391-18.742-18.742v-19.355c0-10.351 8.391-18.742 18.742-18.742h51.243c10.351 0 18.742 8.391 18.742 18.742v19.355c0 10.351-8.391 18.742-18.742 18.742z" fill="url(#SVGID_00000033336045125828719910000003968322788664717238_)"/><path d="m444.595 198.224h-46.681v56.838h46.681c10.351 0 18.742-8.391 18.742-18.742v-19.355c0-10.35-8.391-18.741-18.742-18.741z" fill="url(#SVGID_00000162346511568519069340000011543735244612914321_)"/><path d="m374.61 219.368v16.953c0 10.351 8.391 18.742 18.742 18.742h51.243c10.351 0 18.742-8.391 18.742-18.742v-16.953z" fill="url(#SVGID_00000094586925008694600580000001635011435409513132_)"/></g></g><g><g><path d="m118.648 337.977h-51.243c-10.351 0-18.742-8.391-18.742-18.742v-19.355c0-10.351 8.391-18.742 18.742-18.742h51.243c10.351 0 18.742 8.391 18.742 18.742v19.355c0 10.351-8.391 18.742-18.742 18.742z" fill="url(#SVGID_00000001621937079665713720000010182216708525004672_)"/><path d="m118.648 281.139h-46.681v56.838h46.681c10.351 0 18.742-8.391 18.742-18.742v-19.355c0-10.35-8.391-18.741-18.742-18.741z" fill="url(#SVGID_00000083809401059131331960000002052807272785354903_)"/><path d="m48.663 302.283v16.953c0 10.351 8.391 18.742 18.742 18.742h51.243c10.351 0 18.742-8.391 18.742-18.742v-16.953z" fill="url(#SVGID_00000124137404245899234840000000013525055142623653_)"/></g><g><path d="m227.297 337.977h-51.243c-10.351 0-18.742-8.391-18.742-18.742v-19.355c0-10.351 8.391-18.742 18.742-18.742h51.243c10.351 0 18.742 8.391 18.742 18.742v19.355c0 10.351-8.391 18.742-18.742 18.742z" fill="url(#SVGID_00000119082275029767896740000005308097532460032435_)"/><path d="m227.297 281.139h-46.681v56.838h46.681c10.351 0 18.742-8.391 18.742-18.742v-19.355c0-10.35-8.391-18.741-18.742-18.741z" fill="url(#SVGID_00000095305455507600628790000000245695592924357788_)"/><path d="m157.312 302.283v16.953c0 10.351 8.391 18.742 18.742 18.742h51.243c10.351 0 18.742-8.391 18.742-18.742v-16.953z" fill="url(#SVGID_00000001651755042974868890000016459202879190878080_)"/></g><g><path d="m335.946 337.977h-51.243c-10.351 0-18.742-8.391-18.742-18.742v-19.355c0-10.351 8.391-18.742 18.742-18.742h51.243c10.351 0 18.742 8.391 18.742 18.742v19.355c0 10.351-8.391 18.742-18.742 18.742z" fill="url(#SVGID_00000180349978725645612990000014682179287088625853_)"/><path d="m335.946 281.139h-46.681v56.838h46.681c10.351 0 18.742-8.391 18.742-18.742v-19.355c0-10.35-8.391-18.741-18.742-18.741z" fill="url(#SVGID_00000142859414762543915830000014262609941037006486_)"/><path d="m265.961 302.283v16.953c0 10.351 8.391 18.742 18.742 18.742h51.243c10.351 0 18.742-8.391 18.742-18.742v-16.953z" fill="url(#SVGID_00000085208860272796056120000004624542576390634909_)"/></g><g><path d="m444.595 337.977h-51.243c-10.351 0-18.742-8.391-18.742-18.742v-19.355c0-10.351 8.391-18.742 18.742-18.742h51.243c10.351 0 18.742 8.391 18.742 18.742v19.355c0 10.351-8.391 18.742-18.742 18.742z" fill="url(#SVGID_00000170246657135812548890000009347673863649849012_)"/><path d="m444.595 281.139h-46.681v56.838h46.681c10.351 0 18.742-8.391 18.742-18.742v-19.355c0-10.35-8.391-18.741-18.742-18.741z" fill="url(#SVGID_00000125574326643371732650000017475689401670138268_)"/><path d="m374.61 302.283v16.953c0 10.351 8.391 18.742 18.742 18.742h51.243c10.351 0 18.742-8.391 18.742-18.742v-16.953z" fill="url(#SVGID_00000116950629964144744880000008245181422668854695_)"/></g></g><g><g><path d="m118.648 420.892h-51.243c-10.351 0-18.742-8.391-18.742-18.742v-19.355c0-10.351 8.391-18.742 18.742-18.742h51.243c10.351 0 18.742 8.391 18.742 18.742v19.355c0 10.351-8.391 18.742-18.742 18.742z" fill="url(#SVGID_00000065775185486525140430000014082002095256824235_)"/><path d="m118.648 364.054h-46.681v56.838h46.681c10.351 0 18.742-8.391 18.742-18.742v-19.355c0-10.35-8.391-18.741-18.742-18.741z" fill="url(#SVGID_00000103970234103080847980000015293254480656064402_)"/><path d="m48.663 385.197v16.953c0 10.351 8.391 18.742 18.742 18.742h51.243c10.351 0 18.742-8.391 18.742-18.742v-16.953z" fill="url(#SVGID_00000037675664937538435340000009571348261330090933_)"/></g><g><path d="m227.297 420.892h-51.243c-10.351 0-18.742-8.391-18.742-18.742v-19.355c0-10.351 8.391-18.742 18.742-18.742h51.243c10.351 0 18.742 8.391 18.742 18.742v19.355c0 10.351-8.391 18.742-18.742 18.742z" fill="url(#SVGID_00000111895652597023535580000016137492321018348179_)"/><path d="m227.297 364.054h-46.681v56.838h46.681c10.351 0 18.742-8.391 18.742-18.742v-19.355c0-10.35-8.391-18.741-18.742-18.741z" fill="url(#SVGID_00000039812495975387383470000004218196573515363970_)"/><path d="m157.312 385.197v16.953c0 10.351 8.391 18.742 18.742 18.742h51.243c10.351 0 18.742-8.391 18.742-18.742v-16.953z" fill="url(#SVGID_00000035511984293116999660000010541532905603229327_)"/></g><g><path d="m335.946 420.892h-51.243c-10.351 0-18.742-8.391-18.742-18.742v-19.355c0-10.351 8.391-18.742 18.742-18.742h51.243c10.351 0 18.742 8.391 18.742 18.742v19.355c0 10.351-8.391 18.742-18.742 18.742z" fill="url(#SVGID_00000133519162708585259900000011350424325935392155_)"/><path d="m335.946 364.054h-46.681v56.838h46.681c10.351 0 18.742-8.391 18.742-18.742v-19.355c0-10.35-8.391-18.741-18.742-18.741z" fill="url(#SVGID_00000115505017966374943410000003382829741703356313_)"/><path d="m265.961 385.197v16.953c0 10.351 8.391 18.742 18.742 18.742h51.243c10.351 0 18.742-8.391 18.742-18.742v-16.953z" fill="url(#SVGID_00000170988918308460102850000007811475180400071583_)"/></g><g><path d="m444.595 420.892h-51.243c-10.351 0-18.742-8.391-18.742-18.742v-19.355c0-10.351 8.391-18.742 18.742-18.742h51.243c10.351 0 18.742 8.391 18.742 18.742v19.355c0 10.351-8.391 18.742-18.742 18.742z" fill="url(#SVGID_00000011719756918301453220000014794902916447890619_)"/><path d="m444.595 364.054h-46.681v56.838h46.681c10.351 0 18.742-8.391 18.742-18.742v-19.355c0-10.35-8.391-18.741-18.742-18.741z" fill="url(#SVGID_00000101062779593305453280000012109918283038506420_)"/><path d="m374.61 385.197v16.953c0 10.351 8.391 18.742 18.742 18.742h51.243c10.351 0 18.742-8.391 18.742-18.742v-16.953z" fill="url(#SVGID_00000005231022681017504210000009251700359490067370_)"/></g></g></g></g><g/><g/><g/><g/><g/><g/><g/><g/><g/><g/><g/><g/><g/><g/><g/></svg>