<svg height="512pt" viewBox="-11 0 512 512.00046" width="512pt" xmlns="http://www.w3.org/2000/svg"><path d="m94.050781 459.984375 377.304688-99.101563c12.007812-28.917968 18.648437-60.625 18.648437-93.882812 0-135.308594-109.691406-245-245.003906-245-135.308594 0-245 109.6875-245 245 0 78.367188 36.796875 148.136719 94.050781 192.984375zm0 0" fill="#3a0f8d"/><path d="m378.917969 10.242188c-1.96875-7.34375-9.582031-11.738282-16.925781-9.773438l-314.34375 84.230469c-7.34375 1.964843-11.738282 9.582031-9.773438 16.921875l103.855469 387.597656c31.386719 14.609375 66.371093 22.78125 103.269531 22.78125 102.90625 0 190.980469-63.453125 227.269531-153.359375zm0 0" fill="#ccebff"/><path d="m130.929688 62.382812-83.28125 22.316407c-7.34375 1.964843-11.738282 9.582031-9.773438 16.921875l93.054688 347.28125zm0 0" fill="#b8dff4"/><path d="m445.238281 47.992188c0-7.601563-6.21875-13.816407-13.816406-13.816407h-325.4375c-7.597656 0-13.816406 6.214844-13.816406 13.816407v410.488281c41.902343 33.484375 95.023437 53.519531 152.832031 53.519531 82.730469 0 155.878906-41.007812 200.238281-103.804688zm0 0" fill="#e6fcff"/><path d="m183.46875 47.992188c0-7.601563 6.21875-13.816407 13.820312-13.816407h-91.304687c-7.597656 0-13.816406 6.214844-13.816406 13.816407v410.488281c26.496093 21.175781 57.484375 36.960937 91.300781 45.714843zm0 0" fill="#ccebff"/><path d="m397.855469 122.824219c-4.492188 0-8.136719 3.640625-8.136719 8.132812v46.03125h-69.832031v-46.03125c0-4.492187-3.640625-8.132812-8.132813-8.132812-4.492187 0-8.132812 3.640625-8.132812 8.132812v46.03125h-69.835938v-46.03125c0-4.492187-3.640625-8.132812-8.132812-8.132812-4.492188 0-8.132813 3.640625-8.132813 8.132812v46.03125h-69.835937v-46.03125c0-4.492187-3.640625-8.132812-8.132813-8.132812-4.492187 0-8.132812 3.640625-8.132812 8.132812v351.652344c0 .542969.054687 1.074219.15625 1.59375 4.417969 2.308594 8.90625 4.496094 13.476562 6.539063h199.894531c10.546876-4.71875 20.695313-10.164063 30.390626-16.269532h-55.453126v-33.980468h69.835938v24.199218c5.605469-4.113281 11.035156-8.449218 16.265625-13.011718v-320.722657c.003906-4.488281-3.636719-8.132812-8.128906-8.132812zm-180.335938 351.648437h-69.832031v-33.980468h69.832031zm0-50.246094h-69.832031v-33.179687h69.832031zm0-49.449218h-69.832031v-33.179688h69.832031zm0-49.445313h-69.832031v-33.179687h69.832031zm0-49.449219h-69.832031v-33.179687h69.832031zm0-49.449218h-69.832031v-33.179688h69.832031zm86.101563 248.039062h-69.832032v-33.980468h69.832032zm0-50.246094h-69.832032v-33.179687h69.832032zm0-49.449218h-69.832032v-33.179688h69.832032zm0-49.445313h-69.832032v-33.179687h69.832032zm0-49.449219h-69.832032v-33.179687h69.832032zm0-49.449218h-69.832032v-33.179688h69.832032zm86.097656 197.792968h-69.832031v-33.179687h69.832031zm0-49.449218h-69.832031v-33.179688h69.832031zm0-49.445313h-69.832031v-33.179687h69.832031zm0-49.449219h-69.832031v-33.179687h69.832031zm0-49.449218h-69.832031v-33.179688h69.832031zm0 0" fill="#ccebff"/><path d="m183.46875 490.742188v-16.269532h-35.78125v-33.980468h35.78125v-16.265626h-35.78125v-33.179687h35.78125v-16.269531h-35.78125v-33.179688h35.78125v-16.265625h-35.78125v-33.179687h35.78125v-16.269532h-35.78125v-33.179687h35.78125v-16.269531h-35.78125v-33.179688h35.78125v-16.265625h-35.78125v-46.03125c0-4.492187-3.640625-8.132812-8.136719-8.132812-4.492187 0-8.132812 3.640625-8.132812 8.132812v351.648438c0 .539062.054687 1.0625.152343 1.570312.507813.265625 1.015626.527344 1.523438.789063 1.207031.621094 2.417969 1.234375 3.636719 1.835937.960937.472657 1.921875.945313 2.886719 1.402344 1.078124.519531 2.167968 1.019531 3.257812 1.523437.742188.339844 1.484375.679688 2.234375 1.015626zm0 0" fill="#b8dff4"/><path d="m167.8125 335.929688c-19.875-34.425782-63.898438-46.222657-98.324219-26.34375-34.425781 19.875-46.222656 63.898437-26.34375 98.324218 19.875 34.425782 63.898438 46.222656 98.324219 26.34375 34.425781-19.875 46.21875-63.898437 26.34375-98.324218zm0 0" fill="#ffe600"/><path d="m144.152344 415.550781c-1.753906-3.039062-1.996094-6.523437-.980469-9.613281l-48.171875-83.433594c-3.179688-.667968-6.078125-2.621094-7.832031-5.65625-2.996094-5.191406-1.609375-11.695312 3.003906-15.265625-7.089844 1.542969-14.0625 4.1875-20.683594 8.011719-34.425781 19.875-46.222656 63.898438-26.34375 98.324219 19.875 34.429687 63.898438 46.226562 98.324219 26.347656 6.449219-3.722656 12.105469-8.292969 16.90625-13.488281-5.28125 1.886718-11.316406-.195313-14.222656-5.226563zm0 0" fill="#f4b500"/><path d="m150.605469 345.863281c-14.390625-24.921875-46.257813-33.460937-71.183594-19.070312-24.921875 14.390625-33.460937 46.257812-19.070313 71.179687 14.390626 24.925782 46.257813 33.464844 71.179688 19.074219 24.925781-14.390625 33.464844-46.257813 19.074219-71.183594zm0 0" fill="#f4b500"/><path d="m84.457031 384.070312c-11.980469-20.75-8.058593-46.300781 7.96875-62.585937-4.449219 1.152344-8.824219 2.90625-13 5.316406-24.921875 14.390625-33.460937 46.261719-19.070312 71.183594s46.257812 33.464844 71.179687 19.074219c4.175782-2.414063 7.882813-5.320313 11.105469-8.597656-22.117187 5.734374-46.207031-3.644532-58.183594-24.390626zm0 0" fill="#ee9d00"/><path d="m253.277344 291.996094c-19.875-34.425782-63.898438-46.222656-98.324219-26.34375-34.425781 19.875-46.222656 63.894531-26.34375 98.324218 19.875 34.425782 63.898437 46.21875 98.324219 26.34375 34.425781-19.878906 46.222656-63.898437 26.34375-98.324218zm0 0" fill="#ffe600"/><path d="m229.621094 371.613281c-1.753906-3.035156-1.996094-6.523437-.980469-9.613281l-48.171875-83.433594c-3.183594-.664062-6.082031-2.617187-7.835938-5.65625-2.996093-5.191406-1.605468-11.695312 3.003907-15.265625-7.085938 1.546875-14.058594 4.191407-20.679688 8.011719-34.425781 19.878906-46.222656 63.898438-26.347656 98.328125 19.878906 34.425781 63.902344 46.222656 98.328125 26.347656 6.449219-3.722656 12.105469-8.296875 16.90625-13.492187-5.28125 1.886718-11.320312-.195313-14.222656-5.226563zm0 0" fill="#f9ce00"/><path d="m236.070312 301.929688c-14.390624-24.921876-46.257812-33.460938-71.179687-19.070313-24.921875 14.386719-33.460937 46.257813-19.074219 71.179687 14.390625 24.921876 46.257813 33.460938 71.183594 19.070313 24.921875-14.386719 33.460938-46.257813 19.070312-71.179687zm0 0" fill="#f4b500"/><path d="m169.925781 340.132812c-11.980469-20.75-8.058593-46.300781 7.96875-62.585937-4.453125 1.15625-8.824219 2.90625-13 5.320313-24.921875 14.386718-33.464843 46.257812-19.074219 71.179687 14.390626 24.921875 46.261719 33.464844 71.183594 19.074219 4.175782-2.410156 7.878906-5.320313 11.105469-8.597656-22.117187 5.734374-46.207031-3.644532-58.183594-24.390626zm0 0" fill="#ee9d00"/><path d="m398.777344 90.082031h-183.425782v46.371094h190.671876v-39.128906c0-4-3.246094-7.242188-7.246094-7.242188zm0 0" fill="#8cecf8"/><path d="m138.628906 90.082031c-4 0-7.242187 3.242188-7.242187 7.242188v39.128906h86.132812v-46.371094zm0 0" fill="#51e0f4"/><path d="m183.46875 90.082031h-44.839844c-4 0-7.246094 3.242188-7.246094 7.242188v39.128906h52.085938zm0 0" fill="#15d4f0"/><path d="m438.238281 146.59375c-.011719 1.0625-.140625 2.140625-.429687 3.214844l-4.347656 16.230468c.796874 2.003907.980468 4.273438.367187 6.511719l-28.347656 102.96875c-1.246094 4.527344 1.414062 9.207031 5.941406 10.453125.019531.003906.039063.011719.054687.015625 4.511719 1.207031 9.15625-1.449219 10.398438-5.953125l28.34375-102.980468c3.289062-11.980469-1.921875-24.257813-11.980469-30.460938zm0 0" fill="#7c9dfc"/><path d="m435.601562 207.636719c-4.703124 0-8.585937-3.484375-9.230468-8.007813l-20.890625 75.890625c-1.246094 4.527344 1.414062 9.207031 5.941406 10.453125.019531.003906.039063.011719.054687.015625 4.511719 1.207031 9.15625-1.449219 10.398438-5.953125l20.832031-75.691406c-1.710937 2.011719-4.257812 3.292969-7.105469 3.292969zm0 0" fill="#5f83fa"/><path d="m353.070312 323.875 32.234376-120.304688 30.773437 8.246094-32.234375 120.304688zm0 0" fill="#7c9dfc"/><path d="m375.917969 300.191406c-7.199219-1.929687-12.03125-8.273437-12.378907-15.339844l-10.457031 39.019532 30.773438 8.246094 10.457031-39.019532c-3.835938 5.945313-11.191406 9.023438-18.394531 7.09375zm0 0" fill="#5f83fa"/><path d="m409.46875 136.539062 19.21875 5.152344c.46875.125.921875.277344 1.363281.449219l8.363281-30.371094c1.679688-6.113281-1.910156-12.429687-8.019531-14.113281-.027343-.003906-.054687-.011719-.078125-.019531-6.085937-1.632813-12.359375 1.953125-14.03125 8.039062l-8.410156 30.550781c.53125.074219 1.0625.171876 1.59375.3125zm0 0" fill="#7c9dfc"/><path d="m427.457031 120.554688c-6.386719 0-11.628906-4.882813-12.210937-11.113282l-7.375 26.785156c.53125.074219 1.066406.167969 1.597656.3125l19.21875 5.152344c.46875.125.921875.277344 1.363281.449219l7.34375-26.683594c-2.226562 3.082031-5.84375 5.097657-9.9375 5.097657zm0 0" fill="#5f83fa"/><path d="m333.730469 457.648438c-4.535157-1.214844-7.226563-5.875-6.011719-10.410157l5.617188-20.960937c1.214843-4.535156 5.875-7.226563 10.410156-6.011719 4.535156 1.21875 7.226562 5.878906 6.011718 10.414063l-5.617187 20.960937c-1.214844 4.53125-5.875 7.222656-10.410156 6.007813zm0 0" fill="#4e2aa5"/><path d="m348.160156 436.636719c7.453125-10.5625 14.992188-27.253907 16.460938-32.734375l19.597656-73.132813-30.773438-8.246093-19.597656 73.132812c-1.46875 5.480469-3.28125 23.707031-2.109375 36.578125zm0 0" fill="#5f83fa"/><path d="m409.039062 215.03125-19.21875-5.152344c-6.9375-1.859375-11.054687-8.988281-9.195312-15.925781l15.011719-56.027344c1.859375-6.9375 8.988281-11.054687 15.925781-9.195312l19.21875 5.148437c6.9375 1.859375 11.054688 8.992188 9.195312 15.929688l-15.011718 56.023437c-1.859375 6.9375-8.988282 11.054688-15.925782 9.199219zm0 0" fill="#5f83fa"/><path d="m401.886719 203.273438 16.824219-62.789063c1.359374-5.070313 6.570312-8.078125 11.640624-6.71875l.429688.113281-19.21875-5.148437c-6.9375-1.859375-14.070312 2.257812-15.929688 9.195312l-15.007812 56.027344c-1.859375 6.9375 2.257812 14.066406 9.195312 15.925781l18.789063 5.035156c-5.070313-1.359374-8.078125-6.570312-6.722656-11.640624zm0 0" fill="#4070ea"/></svg>