<?xml version="1.0" encoding="UTF-8" standalone="no"?>
<!-- Generator: Adobe Illustrator 19.0.0, SVG Export Plug-In . SVG Version: 6.00 Build 0)  -->

<svg
   version="1.1"
   id="Capa_1"
   x="0px"
   y="0px"
   viewBox="0 0 447.243 447.243"
   style="enable-background:new 0 0 447.243 447.243;"
   xml:space="preserve"
   sodipodi:docname="arrow.svg"
   inkscape:version="1.3.2 (091e20e, 2023-11-25)"
   xmlns:inkscape="http://www.inkscape.org/namespaces/inkscape"
   xmlns:sodipodi="http://sodipodi.sourceforge.net/DTD/sodipodi-0.dtd"
   xmlns="http://www.w3.org/2000/svg"
   xmlns:svg="http://www.w3.org/2000/svg"><defs
   id="defs17" /><sodipodi:namedview
   id="namedview17"
   pagecolor="#505050"
   bordercolor="#eeeeee"
   borderopacity="1"
   inkscape:showpageshadow="0"
   inkscape:pageopacity="0"
   inkscape:pagecheckerboard="0"
   inkscape:deskcolor="#505050"
   inkscape:zoom="0.52767733"
   inkscape:cx="223.62151"
   inkscape:cy="223.62151"
   inkscape:window-width="1440"
   inkscape:window-height="449"
   inkscape:window-x="0"
   inkscape:window-y="25"
   inkscape:window-maximized="0"
   inkscape:current-layer="Capa_1" />
<g
   id="g2"
   style="fill:#ffffff;fill-opacity:1"
   transform="matrix(-1,0,0,1,447.24223,0)">
	<g
   id="g1"
   style="fill:#ffffff;fill-opacity:1">
		<path
   d="m 420.361,192.229 c -1.83,-0.297 -3.682,-0.434 -5.535,-0.41 H 99.305 l 6.88,-3.2 c 6.725,-3.183 12.843,-7.515 18.08,-12.8 l 88.48,-88.48 c 11.653,-11.124 13.611,-29.019 4.64,-42.4 -10.441,-14.259 -30.464,-17.355 -44.724,-6.914 -1.152,0.844 -2.247,1.764 -3.276,2.754 l -160,160 c -12.504,12.49 -12.515,32.751 -0.025,45.255 0.008,0.008 0.017,0.017 0.025,0.025 l 160,160 c 12.514,12.479 32.775,12.451 45.255,-0.063 0.982,-0.985 1.899,-2.033 2.745,-3.137 8.971,-13.381 7.013,-31.276 -4.64,-42.4 l -88.32,-88.64 c -4.695,-4.7 -10.093,-8.641 -16,-11.68 l -9.6,-4.32 h 314.24 c 16.347,0.607 30.689,-10.812 33.76,-26.88 2.829,-17.445 -9.019,-33.88 -26.464,-36.71 z"
   id="path1"
   style="fill:#ffffff;fill-opacity:1" />
	</g>
</g>
<g
   id="g3">
</g>
<g
   id="g4">
</g>
<g
   id="g5">
</g>
<g
   id="g6">
</g>
<g
   id="g7">
</g>
<g
   id="g8">
</g>
<g
   id="g9">
</g>
<g
   id="g10">
</g>
<g
   id="g11">
</g>
<g
   id="g12">
</g>
<g
   id="g13">
</g>
<g
   id="g14">
</g>
<g
   id="g15">
</g>
<g
   id="g16">
</g>
<g
   id="g17">
</g>
</svg>
