<?xml version="1.0" encoding="UTF-8" standalone="no"?>
<!-- Generator: Adobe Illustrator 19.0.0, SVG Export Plug-In . SVG Version: 6.00 Build 0)  -->

<svg
   version="1.1"
   id="Capa_1"
   x="0px"
   y="0px"
   viewBox="0 0 511.989 511.989"
   style="enable-background:new 0 0 511.989 511.989;"
   xml:space="preserve"
   sodipodi:docname="boxing-gloves.svg"
   inkscape:version="1.3.2 (091e20e, 2023-11-25)"
   xmlns:inkscape="http://www.inkscape.org/namespaces/inkscape"
   xmlns:sodipodi="http://sodipodi.sourceforge.net/DTD/sodipodi-0.dtd"
   xmlns="http://www.w3.org/2000/svg"
   xmlns:svg="http://www.w3.org/2000/svg"><defs
   id="defs22" /><sodipodi:namedview
   id="namedview22"
   pagecolor="#505050"
   bordercolor="#eeeeee"
   borderopacity="1"
   inkscape:showpageshadow="0"
   inkscape:pageopacity="0"
   inkscape:pagecheckerboard="0"
   inkscape:deskcolor="#505050"
   inkscape:zoom="0.29194586"
   inkscape:cx="65.080561"
   inkscape:cy="220.93138"
   inkscape:window-width="1440"
   inkscape:window-height="838"
   inkscape:window-x="0"
   inkscape:window-y="25"
   inkscape:window-maximized="0"
   inkscape:current-layer="Capa_1" />
<path
   style="fill:#455a64"
   d="m 114.1853,248.4703 149.333,149.333 c 4.164,4.165 4.164,10.917 0,15.083 l -80.853,80.853 c -24.313,24.324 -63.742,24.333 -88.065999,0.019 -0.006,-0.006 -0.013,-0.013 -0.019,-0.019 l -76.331,-76.331 c -24.3240002,-24.313 -24.3330002,-63.742 -0.019,-88.066 0.006,-0.007 0.013,-0.013 0.019,-0.019 l 80.832,-80.832 c 4.153999,-4.177 10.907999,-4.195 15.084999,-0.04 0.006,0.006 0.012,0.013 0.019,0.019 z"
   id="path1" />
<g
   id="g3"
   transform="matrix(0,-1,-1,0,511.9883,511.9883)">
	<path
   style="fill:#cfd8dc"
   d="m 117.321,448.001 c -2.831,0.005 -5.548,-1.115 -7.552,-3.115 L 67.102,402.219 c -4.093,-4.237 -3.976,-10.99 0.262,-15.083 4.134,-3.993 10.687,-3.993 14.821,0 l 42.667,42.667 c 4.159,4.172 4.149,10.926 -0.024,15.085 -1.994,1.988 -4.692,3.107 -7.507,3.113 z"
   id="path2" />
	<path
   style="fill:#cfd8dc"
   d="m 159.987,426.667 c -2.831,0.005 -5.548,-1.115 -7.552,-3.115 l -64,-64 c -4.093,-4.237 -3.975,-10.99 0.262,-15.083 4.134,-3.993 10.687,-3.993 14.821,0 l 64,64 c 4.159,4.172 4.149,10.926 -0.024,15.085 -1.993,1.988 -4.692,3.107 -7.507,3.113 z"
   id="path3" />
</g>
<path
   style="fill:#f44336"
   d="m 234.6543,32.001302 v 0 h 10.667 c -0.027,-2.657 0.94,-5.228 2.709,-7.211 16.364,-16.0180005 38.392,-24.92800051 61.291,-24.78900051 38.677,0 202.667,67.56300051 202.667,202.66699851 0,134.016 -185.472,224 -224,224 -54.229,0 -191.999999,-128 -191.999999,-192 0,-62.784 36.842999,-213.332998 127.999999,-213.332998 5.89,-10e-4 10.666,4.775 10.666,10.666 z"
   id="path4" />
<g
   id="g7"
   transform="matrix(0,-1,-1,0,511.9883,511.9883)">
	<path
   style="fill:#c62828"
   d="m 373.321,320.001 c -2.831,0.005 -5.548,-1.115 -7.552,-3.115 -21.699,-22.204 -27.826,-55.32 -15.509,-83.819 8.208,-23.676 30.028,-39.95 55.061,-41.067 51.2,0 85.333,57.771 85.333,96 0,5.891 -4.776,10.667 -10.667,10.667 -5.891,0 -10.667,-4.776 -10.667,-10.667 0,-29.376 -27.477,-74.667 -64,-74.667 -16.297,1.393 -30.198,12.359 -35.349,27.883 -8.901,20.537 -4.613,44.41 10.88,60.565 4.171,4.16 4.179,10.914 0.019,15.085 -2,2.007 -4.716,3.134 -7.549,3.135 z"
   id="path5" />
	<path
   style="fill:#c62828"
   d="M 351.987,298.667 C 305.054,298.667 213.32,192.768 213.32,160 c 4.254,-36.086 21.127,-69.507 47.637,-94.357 4.984,-3.146 11.574,-1.656 14.72,3.328 3.146,4.984 1.656,11.574 -3.328,14.72 -20.254,20.856 -33.441,47.55 -37.696,76.309 0,18.837 80.512,117.333 117.333,117.333 5.891,0 10.667,4.776 10.667,10.667 10e-4,5.892 -4.775,10.667 -10.666,10.667 z"
   id="path6" />
	<path
   style="fill:#c62828"
   d="m 236.937,126.827 c -3.509,0.003 -6.796,-1.72 -8.789,-4.608 l -12.949,-18.816 c -3.173,-4.963 -1.722,-11.559 3.241,-14.733 4.724,-3.02 10.979,-1.868 14.317,2.637 l 12.949,18.816 c 3.346,4.848 2.128,11.492 -2.72,14.838 -1.778,1.227 -3.887,1.885 -6.048,1.888 v -0.022 z"
   id="path7" />
</g>
<g
   id="g8">
</g>
<g
   id="g9">
</g>
<g
   id="g10">
</g>
<g
   id="g11">
</g>
<g
   id="g12">
</g>
<g
   id="g13">
</g>
<g
   id="g14">
</g>
<g
   id="g15">
</g>
<g
   id="g16">
</g>
<g
   id="g17">
</g>
<g
   id="g18">
</g>
<g
   id="g19">
</g>
<g
   id="g20">
</g>
<g
   id="g21">
</g>
<g
   id="g22">
</g>
</svg>
