<?xml version="1.0" encoding="UTF-8" standalone="no"?>
<svg
   height="512pt"
   viewBox="-61 0 512 512"
   width="512pt"
   version="1.1"
   id="svg3"
   sodipodi:docname="boxing-glove.svg"
   inkscape:version="1.3.2 (091e20e, 2023-11-25)"
   xmlns:inkscape="http://www.inkscape.org/namespaces/inkscape"
   xmlns:sodipodi="http://sodipodi.sourceforge.net/DTD/sodipodi-0.dtd"
   xmlns="http://www.w3.org/2000/svg"
   xmlns:svg="http://www.w3.org/2000/svg">
  <defs
     id="defs3" />
  <sodipodi:namedview
     id="namedview3"
     pagecolor="#505050"
     bordercolor="#eeeeee"
     borderopacity="1"
     inkscape:showpageshadow="0"
     inkscape:pageopacity="0"
     inkscape:pagecheckerboard="0"
     inkscape:deskcolor="#505050"
     inkscape:document-units="pt"
     inkscape:zoom="0.43828868"
     inkscape:cx="253.25774"
     inkscape:cy="472.29146"
     inkscape:window-width="1440"
     inkscape:window-height="847"
     inkscape:window-x="0"
     inkscape:window-y="25"
     inkscape:window-maximized="0"
     inkscape:current-layer="svg3" />
  <path
     d="M 404.69174,81.407459 371.98253,48.698248 c -61.16474,-61.164736 -161.3916,-60.45763 -222.55633,0.707107 -14.35206,14.352058 -21.9728,32.723024 -23.6135,51.522125 l 70.8985,70.8985 c 15.63645,15.63645 20.57515,37.76116 15.31328,57.73969 l 16.50653,16.50652 c 29.28968,29.28969 76.77632,29.28969 106.06601,0 l 10.6066,-10.6066 21.21321,21.2132 -10.6066,10.60661 c -41.00391,41.0039 -107.48852,41.0039 -148.49243,0 l -10.6066,-10.60661 c -23.39805,23.39806 -61.45476,23.39806 -84.85281,0 l -42.42641,-42.4264 21.213204,-21.21321 42.426406,42.42641 c 11.69488,11.69488 30.73152,11.69488 42.42641,0 11.69488,-11.69488 11.69488,-30.73152 0,-42.42641 l -65.45986,-65.45985 c -22.425781,-22.42579 -58.786538,-22.42579 -81.212319,0 -10.769568,10.76956 -16.818646,25.37574 -16.815884,40.60339 l -0.0028,73.49768 192.846803,192.8468 c 61.85527,-17.0921 118.1034,-49.53615 163.80018,-95.23292 L 403.9846,303.9638 c 61.26417,-61.26418 61.96852,-161.29493 0.7071,-222.556341 z m 0,0"
     id="path1"
     style="fill:#ffffff;fill-opacity:1" />
  <path
     d="m 5.79237,277.892 -64.346717,64.34671 74.516901,74.5169 c 2.159991,-15.62264 8.957607,-30.71218 20.942514,-42.69709 11.984908,-11.98491 27.781563,-19.48963 43.404203,-21.64962 z m 0,0"
     id="path2"
     style="fill:#ffffff;fill-opacity:1" />
  <path
     d="m 58.118272,395.27172 c -17.572708,17.57271 -17.572708,46.0669 0,63.63961 l 53.033008,53.03301 64.34672,-64.34672 -53.03301,-53.033 c -17.57271,-17.57271 -46.77401,-16.86561 -64.346718,0.7071 z m 0,0"
     id="path3"
     style="fill:#ffffff;fill-opacity:1" />
</svg>
