<svg id="FILLED_COLOR" viewBox="0 0 128 128" xmlns="http://www.w3.org/2000/svg"><g><path d="m51.53 20v21.8a4.56 4.56 0 0 0 4.56 4.56h33.91l10.14 9v-9h5.86a4.57 4.57 0 0 0 4.56-4.56v-21.8a4.57 4.57 0 0 0 -4.56-4.59h-49.91a4.56 4.56 0 0 0 -4.56 4.59z" fill="#4e91f2"/><path d="m87.79 14.29v21.83a4.56 4.56 0 0 1 -4.56 4.56h-33.9l-10.15 9v-9h-5.87a4.56 4.56 0 0 1 -4.56-4.56v-21.83a4.56 4.56 0 0 1 4.56-4.56h49.92a4.56 4.56 0 0 1 4.56 4.56z" fill="#4bd8bd"/><g><g><g><path d="m64.51 98.56a2 2 0 1 1 -2-2 2 2 0 0 1 2 2z" fill="#4e91f2"/><g><path d="m21.43 50.32h2.24v24.07h-2.24z" fill="#c5d0f3"/><path d="m25.15 49.46a2.6 2.6 0 1 1 -2.6-2.61 2.6 2.6 0 0 1 2.6 2.61z" fill="#4bd8bd"/></g><rect fill="#c5d0f3" height="22.7" rx="3" width="54.96" x="10.93" y="65.4"/><rect fill="#e2e7f3" height="32.13" rx="5" width="45.76" x="15.53" y="60.69"/><rect fill="#c5d0f3" height="18.12" rx="5" width="33.98" x="21.43" y="67.7"/><g fill="#fff"><path d="m34.34 76.76a4.1 4.1 0 1 1 -4.09-4.1 4.09 4.09 0 0 1 4.09 4.1z"/><path d="m50.67 76.76a4.09 4.09 0 1 1 -4.09-4.1 4.09 4.09 0 0 1 4.09 4.1z"/></g><g fill="#a5b8f3"><path d="m7.3 75.35v2.81a2.24 2.24 0 0 0 2.25 2.24h1.38v-7.29h-1.38a2.24 2.24 0 0 0 -2.25 2.24z"/><path d="m69.53 78.16v-2.81a2.24 2.24 0 0 0 -2.25-2.24h-1.38v7.29h1.38a2.24 2.24 0 0 0 2.25-2.24z"/></g></g><path d="m22.48 92.82h31.88v3.98h-31.88z" fill="#c5d0f3"/><path d="m55.28 95.92h-33.73a3.09 3.09 0 0 0 -3 3.18v19h39.72v-19a3.09 3.09 0 0 0 -2.99-3.18z" fill="#e2e7f3"/></g><g><ellipse cx="100.05" cy="81.36" fill="#742f84" rx="20.65" ry="21.81"/><g><path d="m117.35 111.21v5.88a1.18 1.18 0 0 1 -1.18 1.18h-32.38a1.19 1.19 0 0 1 -1.19-1.18v-5.88a12 12 0 0 1 12-12h10.73a12 12 0 0 1 12.02 12z" fill="#e2e7f3"/><path d="m105.1 99.2-5.12 3.97-5.12-3.97v-4.92h10.24z" fill="#fcaa86"/><g><g fill="#fcaa86"><path d="m89.15 82a3.17 3.17 0 1 1 -3.15-3.2 3.17 3.17 0 0 1 3.15 3.2z"/><path d="m117.13 82a3.16 3.16 0 1 1 -3.13-3.2 3.16 3.16 0 0 1 3.13 3.2z"/></g><path d="m114 78.82v4a14 14 0 1 1 -28 0v-4s13.31 0 19.67-7.76c-.01 0 2.52 6.53 8.33 7.76z" fill="#ffc6ad"/></g></g><g fill="#edf1f8"><path d="m94.86 97.58-3.64 1.62 2.92 8.64 5.84-4.67z"/><path d="m105.1 97.58 3.64 1.62-2.92 8.64-5.84-4.67z"/></g></g></g></g><g><path d="m33.31 41.18h5.37v8.55a.5.5 0 0 0 .83.37l10-8.92h1.49v.62a5.07 5.07 0 0 0 5.06 5.06h33.75l10 8.92a.5.5 0 0 0 .83-.37v-8.55h5.36a5.07 5.07 0 0 0 5.06-5.06v-10.2a.5.5 0 0 0 -1 0v10.2a4.06 4.06 0 0 1 -4.06 4.06h-5.88a.5.5 0 0 0 -.5.5v7.93l-9.29-8.29a.51.51 0 0 0 -.33-.13h-33.91a4.06 4.06 0 0 1 -4.09-4.07v-.62h31.2a5.07 5.07 0 0 0 4.46-2.7h16.14a.5.5 0 0 0 0-1h-15.72a5.15 5.15 0 0 0 .21-1.36v-4.74h15.54a.5.5 0 1 0 0-1h-15.54v-6.09h15.54a.5.5 0 0 0 0-1h-15.54v-7.38h17.71a4.06 4.06 0 0 1 4.08 4.09v2.51a.5.5 0 1 0 1 0v-2.51a5.07 5.07 0 0 0 -5.08-5.09h-17.71v-.62a5.07 5.07 0 0 0 -5.06-5.06h-23.66a.5.5 0 0 0 0 1h23.66a4.06 4.06 0 0 1 4.06 4.06v21.83a4.07 4.07 0 0 1 -4.06 4.06h-33.9a.51.51 0 0 0 -.33.13l-9.32 8.3v-7.93a.5.5 0 0 0 -.5-.5h-5.87a4.06 4.06 0 0 1 -4.06-4.06v-21.83a4.06 4.06 0 0 1 4.06-4.06h3.06a.5.5 0 0 0 0-1h-3.06a5.07 5.07 0 0 0 -5.06 5.06v21.83a5.07 5.07 0 0 0 5.06 5.06z"/><path d="m45.49 10.23h5a.5.5 0 0 0 0-1h-5a.5.5 0 0 0 0 1z"/><path d="m35 18.11a.5.5 0 0 0 .5.5h22.77a.5.5 0 0 0 0-1h-22.77a.5.5 0 0 0 -.5.5z"/><path d="m81.05 24.71h-45.55a.5.5 0 0 0 -.5.5.5.5 0 0 0 .5.5h45.55a.5.5 0 0 0 .5-.5.5.5 0 0 0 -.5-.5z"/><path d="m81.05 31.8h-45.55a.5.5 0 0 0 0 1h45.55a.5.5 0 0 0 0-1z"/><path d="m50.4 67.2h-24a5.5 5.5 0 0 0 -5.5 5.5v8.12a5.5 5.5 0 0 0 5.5 5.5h24a5.5 5.5 0 0 0 5.5-5.5v-8.12a5.5 5.5 0 0 0 -5.5-5.5zm4.5 13.62a4.5 4.5 0 0 1 -4.5 4.5h-24a4.5 4.5 0 0 1 -4.5-4.5v-8.14a4.5 4.5 0 0 1 4.5-4.48h24a4.49 4.49 0 0 1 4.5 4.5z"/><path d="m30.25 72.16a4.6 4.6 0 1 0 4.59 4.6 4.61 4.61 0 0 0 -4.59-4.6zm0 8.19a3.6 3.6 0 1 1 3.59-3.59 3.6 3.6 0 0 1 -3.59 3.59z"/><path d="m46.58 72.16a4.6 4.6 0 1 0 4.59 4.6 4.6 4.6 0 0 0 -4.59-4.6zm0 8.19a3.6 3.6 0 1 1 3.59-3.59 3.59 3.59 0 0 1 -3.59 3.59z"/><path d="m67.28 72.61h-.88v-4.21a3.5 3.5 0 0 0 -3.5-3.5h-1.17a5.5 5.5 0 0 0 -5.44-4.71h-32.12v-8.1a3.1 3.1 0 1 0 -3.24 0v8.1h-.4a5.49 5.49 0 0 0 -5.43 4.71h-1.17a3.5 3.5 0 0 0 -3.5 3.5v4.21h-.88a2.75 2.75 0 0 0 -2.75 2.74v2.81a2.75 2.75 0 0 0 2.75 2.74h.88v4.21a3.5 3.5 0 0 0 3.5 3.5h1.17a5.49 5.49 0 0 0 5.43 4.71h1.47v2.1h-.43a3.6 3.6 0 0 0 -3.49 3.68v19a.5.5 0 0 0 .5.5h39.69a.5.5 0 0 0 .5-.5v-19a3.6 3.6 0 0 0 -3.49-3.68h-.43v-2.1h1.44a5.5 5.5 0 0 0 5.44-4.71h1.17a3.5 3.5 0 0 0 3.5-3.5v-4.21h.81v10.42a4.31 4.31 0 0 1 -1.25 3l-2.08 2.08a2.55 2.55 0 1 0 .7.7l2.08-2.08a5.22 5.22 0 0 0 1.55-3.74v-10.55a2.74 2.74 0 0 0 1.79-2.57v-2.81a2.75 2.75 0 0 0 -2.72-2.74zm-4.81 27.49a1.55 1.55 0 1 1 0-3.09 1.52 1.52 0 0 1 1.08.45 1.54 1.54 0 0 1 -1.09 2.63zm-39.92-52.75a2.11 2.11 0 1 1 -2.1 2.11 2.11 2.11 0 0 1 2.1-2.11zm-.62 5.15a3.23 3.23 0 0 0 1.24 0v7.69h-1.24zm-12.38 27.4a1.75 1.75 0 0 1 -1.75-1.74v-2.81a1.75 1.75 0 0 1 1.75-1.74h.88v6.29zm1.88 5.21v-16.71a2.5 2.5 0 0 1 2.5-2.5h1.07v21.71h-1.1a2.5 2.5 0 0 1 -2.47-2.5zm46.34 14v18.53h-38.71v-18.54a2.59 2.59 0 0 1 2.49-2.68h33.73a2.59 2.59 0 0 1 2.49 2.68zm-3.92-3.68h-30.85v-2.1h30.85zm2.44-3.1h-35.76a4.51 4.51 0 0 1 -4.5-4.5v-22.14a4.51 4.51 0 0 1 4.5-4.5h35.76a4.5 4.5 0 0 1 4.5 4.5v22.13a4.5 4.5 0 0 1 -4.5 4.5zm6.61-4.71h-1.11v-21.72h1.11a2.5 2.5 0 0 1 2.5 2.5v16.71a2.5 2.5 0 0 1 -2.5 2.5zm6.1-9.46a1.74 1.74 0 0 1 -1.39 1.7 2.07 2.07 0 0 1 -.35 0h-.86v-6.25h.88a1.75 1.75 0 0 1 1.72 1.74z"/><path d="m44.15 107.73-1.35-.73 1.35-.7a2 2 0 0 0 -1.87-3.59l-1.84 1v-2.08a2 2 0 0 0 -4 0v2.08l-1.84-1a2 2 0 1 0 -1.87 3.59l1.27.7-1.35.71a2 2 0 0 0 -.86 2.72 2 2 0 0 0 2.73.87l1.84-1v2.08a2 2 0 0 0 4 0v-2.09l1.84 1a2 2 0 0 0 2.73-.87 2 2 0 0 0 -.78-2.69zm-6.76-1.32 1-.54 1 .53v1.24l-1 .54-1-.54zm5.36-2.79a1 1 0 0 1 .94 1.81l-3.25 1.69v-2.3zm-5.36-2a1 1 0 0 1 2 0v3.66c-.12 0-2.18-1.13-2-1.06zm-4.25 3.82a1 1 0 1 1 1-1.81l3.24 1.69-2.21 1.15zm1 5a1 1 0 0 1 -1.44-.44 1 1 0 0 1 .44-1.37l3.25-1.69v2.3zm5.35 2a1 1 0 0 1 -2 0v-3.67l2 1.06zm4.63-2.44a1 1 0 0 1 -1.37.44l-3.25-1.69 2.21-1.15 2 1a1 1 0 0 1 .41 1.4z"/><path d="m111.32 100.22a22.69 22.69 0 0 0 9.88-18.86c0-12.3-9.49-22.31-21.15-22.31s-21.15 10.01-21.15 22.31a22.68 22.68 0 0 0 9.81 18.82 12.52 12.52 0 0 0 -6.61 11v5.88a1.69 1.69 0 0 0 1.69 1.68h32.38a1.68 1.68 0 0 0 1.68-1.68v-5.88a12.55 12.55 0 0 0 -6.53-10.96zm-31.42-18.86c0-11.75 9-21.31 20.15-21.31s20.15 9.56 20.15 21.31a21.64 21.64 0 0 1 -9.93 18.36c-.34-.15-.69-.28-1-.4a.48.48 0 0 0 -.28-.57l-3.34-1.49v-1.09a14.47 14.47 0 0 0 8.6-10.57 3.65 3.65 0 0 0 -.23-7.3c-5.36-1.22-7.81-7.36-7.83-7.42a.51.51 0 0 0 -.86-.14c-5.63 6.88-17.08 7.52-19 7.57h-.33a3.65 3.65 0 0 0 -.23 7.3 14.57 14.57 0 0 0 8.6 10.57v1.09l-3.37 1.48a.48.48 0 0 0 -.28.57c-.32.11-.64.22-1 .36a21.61 21.61 0 0 1 -9.82-18.32zm20.1 21.07-4.62-5v-.86a14.4 14.4 0 0 0 4.62.77 14.58 14.58 0 0 0 4.62-.76v.85zm-8.14-3 2.89-1.28 4.52 4.93-4.88 3.92zm-6.25-14.85a2.65 2.65 0 0 1 -.12-5.23v3.46a12.94 12.94 0 0 0 .12 1.77zm.88-1.77v-3.5c2.46-.08 13.1-.8 19-7.33.85 1.75 3.35 6 8 7.24v3.59a13.49 13.49 0 1 1 -27 0zm28-3.46a2.65 2.65 0 0 1 -.12 5.23 12.94 12.94 0 0 0 .12-1.77zm-9.24 18.84 2.89 1.28-2.57 7.53-4.86-3.88zm-22.15 18.9v-5.88a11.51 11.51 0 0 1 8-10.94l2.57 7.73a.5.5 0 0 0 .78.23l5-4v13.56h-9.19v-5.09a.5.5 0 0 0 -.5-.5.51.51 0 0 0 -.5.5v5.09h-5.47a.7.7 0 0 1 -.69-.7zm33.75 0a.69.69 0 0 1 -.68.68h-5.47v-5.09a.51.51 0 0 0 -.5-.5.5.5 0 0 0 -.5.5v5.09h-9.22v-13.56l5 4a.5.5 0 0 0 .78-.23l2.62-7.73a11.52 11.52 0 0 1 7.94 10.94z"/><path d="m94.14 84.94a.5.5 0 0 0 .5-.5v-1.44a.5.5 0 0 0 -.5-.5.5.5 0 0 0 -.5.5v1.4a.51.51 0 0 0 .5.54z"/><path d="m105.82 84.94a.51.51 0 0 0 .5-.5v-1.44a.5.5 0 0 0 -.5-.5.5.5 0 0 0 -.5.5v1.4a.5.5 0 0 0 .5.54z"/><path d="m100 91.42a3.45 3.45 0 0 0 2.31-1 .5.5 0 1 0 -.67-.74 2.15 2.15 0 0 1 -3.28 0 .5.5 0 0 0 -.71 0 .5.5 0 0 0 0 .71 3.45 3.45 0 0 0 2.35 1.03z"/></g></svg>