<?xml version="1.0" encoding="UTF-8" standalone="no"?>
<svg
   id="svg3404"
   height="512"
   viewBox="0 0 16.933333 16.933333"
   width="512"
   version="1.1"
   sodipodi:docname="chat.svg"
   inkscape:version="1.3.2 (091e20e, 2023-11-25)"
   xmlns:inkscape="http://www.inkscape.org/namespaces/inkscape"
   xmlns:sodipodi="http://sodipodi.sourceforge.net/DTD/sodipodi-0.dtd"
   xmlns="http://www.w3.org/2000/svg"
   xmlns:svg="http://www.w3.org/2000/svg">
  <defs
     id="defs1" />
  <sodipodi:namedview
     id="namedview1"
     pagecolor="#505050"
     bordercolor="#eeeeee"
     borderopacity="1"
     inkscape:showpageshadow="0"
     inkscape:pageopacity="0"
     inkscape:pagecheckerboard="0"
     inkscape:deskcolor="#505050"
     inkscape:zoom="0.4609375"
     inkscape:cx="256"
     inkscape:cy="256"
     inkscape:window-width="1440"
     inkscape:window-height="449"
     inkscape:window-x="0"
     inkscape:window-y="25"
     inkscape:window-maximized="0"
     inkscape:current-layer="svg3404" />
  <path
     id="comm-17_chat"
     d="m4.2126504.52894725c-2.0315977 0-3.67192175 1.64797845-3.6752264 3.68297885l-.008255 5.0901277c-.003201 1.9452012 1.5044023 3.5190432 3.4101271 3.6571422v3.180167a.26460979.26460891 0 0 0 .4521676.187069l3.3326149-3.340881h5.0053794c2.031598 0 3.674711-1.647579 3.674711-3.6829782v-5.0901282c-.000014-2.0347013-1.634858-3.68349735-3.666456-3.68349735zm1.6086878 5.43532745c.4352343 0 .7932367.3585501.793234.79375-.0000079.4351998-.3580077.7937499-.793234.7937499s-.7937447-.3585501-.79375-.7937499c-.0000026-.4351999.3585184-.79375.79375-.79375zm2.6453173 0c.4352317 0 .7937527.3585501.79375.79375-.0000053.4351998-.3585236.7937499-.79375.7937499-.4352289 0-.7937447-.3585501-.7937499-.7937499-.0000027-.4351999.358513-.79375.7937499-.79375zm2.6463495 0c.435234 0 .793755.3585501.79375.79375-.000005.4351998-.358524.7937499-.79375.7937499-.435224 0-.794261-.3585501-.794266-.7937499-.000003-.4351999.359034-.79375.794266-.79375z"
     font-variant-ligatures="normal"
     font-variant-position="normal"
     font-variant-caps="normal"
     font-variant-numeric="normal"
     font-variant-alternates="normal"
     font-feature-settings="normal"
     text-indent="0"
     text-align="start"
     text-decoration-line="none"
     text-decoration-style="solid"
     text-decoration-color="rgb(0,0,0)"
     text-transform="none"
     text-orientation="mixed"
     white-space="normal"
     shape-padding="0"
     isolation="auto"
     mix-blend-mode="normal"
     solid-color="rgb(0,0,0)"
     solid-opacity="1"
     vector-effect="none"
     paint-order="fill markers stroke"
     style="fill:#ffffff;fill-opacity:1" />
</svg>
