<svg id="Capa_1" enable-background="new 0 0 512 512" height="512" viewBox="0 0 512 512" width="512" xmlns="http://www.w3.org/2000/svg"><g><g><path d="m426.496 233.227c-8.284 0-15-6.716-15-15v-140c0-8.284 6.716-15 15-15s15 6.716 15 15v140c0 8.284-6.716 15-15 15z" fill="#00347b"/></g><g><path d="m85.503 233.227c-8.284 0-15-6.716-15-15v-140c0-8.284 6.716-15 15-15s15 6.716 15 15v140c0 8.284-6.716 15-15 15z" fill="#00429d"/></g><g><path d="m418.986 451.75h-62.993c-8.284 0-15-6.716-15-15s6.716-15 15-15h62.993c34.157 0 63.014-28.165 63.014-61.502v-107.998c0-8.284 6.716-15 15-15s15 6.716 15 15v107.997c0 49.6-42.595 91.503-93.014 91.503z" fill="#00429d"/></g><path d="m99 164.971h-54c-24.813 0-45 20.187-45 45v61c0 24.813 20.187 45 45 45h54c8.284 0 15-6.716 15-15v-121c0-8.284-6.716-15-15-15z" fill="#4793ff"/><path d="m467 164.971h-54c-8.284 0-15 6.716-15 15v121c0 8.284 6.716 15 15 15h54c24.813 0 45-20.187 45-45v-61c0-24.813-20.187-45-45-45z" fill="#525cdd"/><g><path d="m394.421 94.95c-36.876-36.241-86.034-56.2-138.421-56.2-52.425 0-101.6 19.961-138.463 56.207-37.103 36.481-57.537 85.418-57.537 137.796v28.994c0 54.59 44.413 99.003 99.003 99.003h193.994c54.591 0 99.003-44.413 99.003-99.003v-28.994c0-52.373-20.448-101.312-57.579-137.803z" fill="#f0f5fa"/></g><path d="m394.421 94.95c-36.876-36.241-86.034-56.2-138.421-56.2v322h96.997c54.591 0 99.003-44.413 99.003-99.003v-28.994c0-52.373-20.448-101.312-57.579-137.803z" fill="#d7e3f0"/><g><g><path d="m317.5 136.75h-123c-49.35 0-89.5 40.149-89.5 89.5 0 49.35 40.149 89.5 89.5 89.5h123c49.35 0 89.5-40.149 89.5-89.5s-40.15-89.5-89.5-89.5z" fill="#d7e3f0"/></g></g><path d="m317.5 136.75h-61.5v179h61.5c49.35 0 89.5-40.149 89.5-89.5s-40.15-89.5-89.5-89.5z" fill="#a0b6db"/><g><path clip-rule="evenodd" d="m317.5 166.75h-123c-32.725 0-59.5 26.775-59.5 59.5 0 32.725 26.775 59.5 59.5 59.5h123c32.725 0 59.5-26.774 59.5-59.5 0-32.726-26.775-59.5-59.5-59.5z" fill="#00429d" fill-rule="evenodd"/></g><path clip-rule="evenodd" d="m317.5 166.75h-61.5v119h61.5c32.725 0 59.5-26.774 59.5-59.5 0-32.726-26.775-59.5-59.5-59.5z" fill="#00347b" fill-rule="evenodd"/><g><g><path d="m197.836 246.749c-8.284 0-15-6.716-15-15v-11c0-8.284 6.716-15 15-15s15 6.716 15 15v11c0 8.284-6.715 15-15 15z" fill="#4793ff"/></g></g><g><g><path d="m314.163 246.749c-8.284 0-15-6.716-15-15v-11c0-8.284 6.716-15 15-15s15 6.716 15 15v11c0 8.284-6.716 15-15 15z" fill="#525cdd"/></g></g><path d="m334 398.25h-33c-20.678 0-37.5 16.822-37.5 37.5s16.822 37.5 37.5 37.5h33c20.678 0 37.5-16.823 37.5-37.5s-16.822-37.5-37.5-37.5z" fill="#00347b"/></g></svg>