<?xml version="1.0" encoding="UTF-8" standalone="no"?>
<svg
   height="512"
   viewBox="0 0 512 512"
   width="512"
   version="1.1"
   id="svg2"
   sodipodi:docname="close.svg"
   inkscape:version="1.3.2 (091e20e, 2023-11-25)"
   xmlns:inkscape="http://www.inkscape.org/namespaces/inkscape"
   xmlns:sodipodi="http://sodipodi.sourceforge.net/DTD/sodipodi-0.dtd"
   xmlns="http://www.w3.org/2000/svg"
   xmlns:svg="http://www.w3.org/2000/svg">
  <defs
     id="defs2" />
  <sodipodi:namedview
     id="namedview2"
     pagecolor="#505050"
     bordercolor="#eeeeee"
     borderopacity="1"
     inkscape:showpageshadow="0"
     inkscape:pageopacity="0"
     inkscape:pagecheckerboard="0"
     inkscape:deskcolor="#505050"
     inkscape:zoom="0.36472723"
     inkscape:cx="246.75975"
     inkscape:cy="257.72685"
     inkscape:window-width="1440"
     inkscape:window-height="847"
     inkscape:window-x="0"
     inkscape:window-y="25"
     inkscape:window-maximized="0"
     inkscape:current-layer="svg2" />
  <g
     id="_02_User"
     data-name="02 User"
     style="fill:#ffffff;fill-opacity:1"
     transform="matrix(0.78123577,0,0,0.78123577,60.31803,54.834779)">
    <path
       d="M 25,512 A 25,25 0 0 1 7.32,469.32 l 462,-462 a 25.003296,25.003296 0 0 1 35.36,35.36 l -462,462 A 24.93,24.93 0 0 1 25,512 Z"
       id="path1"
       style="fill:#ffffff;fill-opacity:1" />
    <path
       d="m 487,512 a 24.93,24.93 0 0 1 -17.68,-7.32 l -462,-462 A 25.003296,25.003296 0 0 1 42.68,7.32 l 462,462 A 25,25 0 0 1 487,512 Z"
       id="path2"
       style="fill:#ffffff;fill-opacity:1" />
  </g>
</svg>
