<svg id="Layer_1" enable-background="new 0 0 512 512" viewBox="0 0 512 512" xmlns="http://www.w3.org/2000/svg"><g><g><path clip-rule="evenodd" d="m95.241 271.819h99.238c39.935 30.817 79.87 61.634 119.806 92.451 16.111 12.443 20.533 34.622 11.381 52.104l118.674-57.554c20.533-9.941 45.454-1.303 55.395 19.231 9.941 20.499 1.303 45.454-19.231 55.395-212.291 102.94-171.259 106.814-385.264-4.833v-156.794z" fill="#ffcebf" fill-rule="evenodd"/></g><g><path d="m205.071 359.849-8.056-6.205-12.409 16.077 86.246 66.57c11.278 8.673 25.024 11.964 38.118 10.284 13.129-1.714 25.641-8.364 34.313-19.608 1.474-1.954 2.811-3.942 3.976-5.999 1.268-2.228 2.297-4.388 3.154-6.479l5.108-12.615-29.857 14.5c-5.142 5.69-12.032 9.118-19.231 10.044-7.987 1.028-16.351-.96-23.138-6.205z" fill="#ffb09e"/></g><g><path clip-rule="evenodd" d="m8.137 243.368h87.103v213.73h-87.103z" fill="#435469" fill-rule="evenodd"/></g><g><path clip-rule="evenodd" d="m495.827 217.59c19.436-33.662-41.375-105.134-135.78-159.638-94.404-54.504-186.684-71.404-206.12-37.776-10.764 18.682-21.527 37.33-32.325 55.978-19.436 33.662 41.375 105.134 135.78 159.638s186.684 71.438 206.121 37.776c10.763-18.682 21.561-37.33 32.324-55.978z" fill="#fe9923" fill-rule="evenodd"/></g><g><path clip-rule="evenodd" d="m360.047 57.952c-94.404-54.504-186.684-71.404-206.12-37.776-19.436 33.662 41.341 105.134 135.78 159.638 94.405 54.504 186.684 71.438 206.121 37.776s-41.376-105.134-135.781-159.638z" fill="#fecd3d" fill-rule="evenodd"/></g><g><path clip-rule="evenodd" d="m343.593 86.438c-75.105-43.363-144.383-63.999-154.736-46.071-10.318 17.928 42.163 67.599 117.269 110.962s144.384 63.999 154.736 46.071c10.353-17.928-42.129-67.599-117.269-110.962z" fill="#fea832" fill-rule="evenodd"/></g><g><path d="m160.988 114.718-17.208 29.789c-4.113-5.039-7.781-9.975-10.969-14.809l13.54-23.447zm14.706 62.765c4.148 3.702 8.501 7.439 13.026 11.141l16.385-28.418-14.603-8.398zm48.642 37.673c4.628 3.119 9.324 6.17 14.157 9.221l15.631-27.115-14.603-8.399zm52.345 31.297c5.073 2.64 10.112 5.211 15.083 7.61l15.186-26.258-14.603-8.467zm55.875 25.229c5.485 2.057 10.867 3.942 16.18 5.69l14.809-25.675-14.603-8.399zm60.674 16.866c6.41 1.028 12.546 1.714 18.305 2.057l13.506-23.413-14.603-8.467z" fill="#c85929"/></g><g><path d="m480.162.5v23.721h23.687v16.934h-23.687v23.687h-16.934v-23.687h-23.721v-16.934h23.721v-23.721z" fill="#fea832"/></g><g><path d="m48.793 106.628v23.687h23.721v16.934h-23.721v23.721h-16.934v-23.721h-23.722v-16.934h23.722v-23.687z" fill="#fea832"/></g></g></svg>