<svg id="Layer_1" enable-background="new 0 0 468 468" height="512" viewBox="0 0 468 468" width="512" xmlns="http://www.w3.org/2000/svg"><g><g><g><g><g><path d="m279.154 60.865v-13.33l-8.685-1.269c-.645-2.333-1.567-4.549-2.729-6.612l5.249-7.065-9.387-9.426-7.036 5.271c-2.054-1.167-4.261-2.092-6.584-2.74l-1.263-8.721h-13.275l-1.263 8.721c-2.323.648-4.53 1.573-6.584 2.74l-7.036-5.271-9.387 9.426 5.249 7.065c-1.162 2.063-2.084 4.279-2.729 6.612l-8.685 1.269v13.33l8.685 1.269c.645 2.333 1.567 4.549 2.729 6.612l-5.249 7.065 9.387 9.426 7.036-5.271c2.054 1.167 4.261 2.092 6.584 2.74l1.263 8.721h13.275l1.263-8.721c2.323-.648 4.53-1.573 6.584-2.74l7.036 5.271 9.387-9.426-5.249-7.065c1.162-2.063 2.084-4.279 2.729-6.612z" fill="#f0e8f9"/></g></g></g><g><g><g><g><circle cx="242.082" cy="54.2" fill="#fff" r="19.667"/></g></g></g></g></g><g><g><g><g><g><path d="m0 29.586h177.213v119.765h-177.213z" fill="#865acc"/></g></g></g></g><g><g><g><g><path d="m0 29.586h12v119.765h-12z" fill="#6a42ba"/></g></g></g></g><g><g><g><g><g><path d="m26.133 49.494h124.947v79.947h-124.947z" fill="#fff"/></g></g></g></g><g><g><g><g><path d="m38.133 67.442v-17.948h-12v79.947h124.947v-12h-62.947c-27.614.001-50-22.385-50-49.999z" fill="#f0e8f9"/></g></g></g></g><g><g><g><path d="m151.08 129.442v-60.761l-54.875 42.414-42.463-33.564-27.609 26.056v25.855z" fill="#61ceac"/></g></g></g><g><g><g><path d="m88.133 117.442c-20.26 0-37.693-12.057-45.548-29.381l-16.452 15.526v25.855h124.947v-12z" fill="#52c1a1"/></g></g></g><g><g><g><ellipse cx="99.375" cy="74.448" fill="#ffc31a" rx="10.768" ry="10.764"/></g></g></g></g><g><g><g><path d="m0 .605h177.213v28.981h-177.213z" fill="#ffc31a"/></g></g></g><g><g><g><g><path d="m0 .605h12v28.981h-12z" fill="#ffaf00"/></g></g></g></g></g><g><g><g><g><g><path d="m41.712 135.871h384.576v261.845h-384.576z" fill="#f0e8f9"/></g></g></g><path d="m442.862 397.717v-266.14c0-5.874-4.762-10.636-10.636-10.636h-396.452c-5.874 0-10.636 4.762-10.636 10.636v266.14h-19.987v20.465c0 17.623 14.286 31.909 31.909 31.909h393.88c17.623 0 31.909-14.286 31.909-31.909v-20.465zm-401.15-261.846h384.576v261.845h-384.576z" fill="#131c46"/><g><g><g><path d="m262.973 424.637h-58.032c-8.811 0-15.955-7.143-15.955-15.955v-10.966h89.941v10.966c0 8.812-7.143 15.955-15.954 15.955z" fill="#0b1226"/></g></g></g></g><g><g><g><g><g><path d="m92.691 224.186h282.619v143.52h-282.619z" fill="#fff"/></g></g></g><g><g><g><g><path d="m214.677 280.145h-96.079c-1.175 0-2.127-.952-2.127-2.127s.952-2.127 2.127-2.127h96.079c1.175 0 2.127.953 2.127 2.127s-.952 2.127-2.127 2.127z" fill="#e2d2f7"/></g></g></g><g><g><g><path d="m287.221 280.145h-33.898c-1.175 0-2.127-.952-2.127-2.127s.952-2.127 2.127-2.127h33.898c1.175 0 2.127.953 2.127 2.127s-.952 2.127-2.127 2.127z" fill="#e2d2f7"/></g></g></g><g><g><g><path d="m214.677 310.125h-96.079c-1.175 0-2.127-.952-2.127-2.127s.952-2.127 2.127-2.127h96.079c1.175 0 2.127.952 2.127 2.127s-.952 2.127-2.127 2.127z" fill="#e2d2f7"/></g></g></g><g><g><g><path d="m349.402 310.125h-96.079c-1.175 0-2.127-.952-2.127-2.127s.952-2.127 2.127-2.127h96.079c1.175 0 2.127.952 2.127 2.127.001 1.175-.952 2.127-2.127 2.127z" fill="#e2d2f7"/></g></g></g><g><g><g><path d="m214.677 340.105h-96.079c-1.175 0-2.127-.952-2.127-2.127s.952-2.127 2.127-2.127h96.079c1.175 0 2.127.952 2.127 2.127s-.952 2.127-2.127 2.127z" fill="#e2d2f7"/></g></g></g><g><g><g><path d="m328.676 340.105h-75.353c-1.175 0-2.127-.952-2.127-2.127s.952-2.127 2.127-2.127h75.353c1.175 0 2.127.952 2.127 2.127s-.952 2.127-2.127 2.127z" fill="#e2d2f7"/></g></g></g></g><g><g><g><path d="m83.279 207.812h301.442v40.226h-301.442z" fill="#e2d2f7"/></g></g></g><g><g><g><path d="m236.388 230.052h-91.678c-1.175 0-2.127-.952-2.127-2.127s.952-2.127 2.127-2.127h91.678c1.175 0 2.127.952 2.127 2.127s-.952 2.127-2.127 2.127z" fill="#131c46"/></g></g></g><g><g><g><path d="m83.279 207.812h41.855v40.09h-41.855z" fill="#865acc"/></g></g></g><path d="m116.556 237.277-8.492-8.492c2.564-3.828 1.992-9.365-1.342-12.58 0-.001 0 0 0-.001-1.903-1.902-4.433-2.95-7.123-2.95-5.416-.112-10.185 4.66-10.073 10.074-.27 7.722 9.203 12.873 15.53 8.465l8.492 8.492c.831.831 2.177.831 3.008 0 .831-.83.831-2.177 0-3.008zm-21.071-9.834c-1.099-1.099-1.705-2.56-1.705-4.114-.065-3.128 2.691-5.884 5.819-5.82 1.555 0 3.016.606 4.115 1.705v.001c2.258 2.166 2.257 6.063 0 8.23-2.165 2.256-6.063 2.257-8.229-.002z" fill="#fff"/></g><g><g><g><path d="m41.712 135.871h384.576v41.96h-384.576z" fill="#fff"/></g></g></g><g><g><g><g><circle cx="63.27" cy="156.851" fill="#ffc31a" r="8.392"/></g></g></g><g><g><g><circle cx="92.642" cy="156.851" fill="#61ceac" r="8.392"/></g></g></g><g><g><g><circle cx="122.014" cy="156.851" fill="#f955af" r="8.392"/></g></g></g></g></g></g><g><g><g><g><g><path d="m292.073 112.291h175.927v109.771h-175.927z" fill="#f955af"/></g></g></g><g><g><g><g><path d="m304.073 112.291h-12v109.771h175.927v-12h-113.927c-27.614 0-50-22.386-50-50z" fill="#f7199e"/></g></g></g></g><g><g><g><g><circle cx="380.036" cy="167.176" fill="#fff" r="30.299"/></g></g></g><g><g><g><path d="m364.473 170.64 22.728 13.122c2.667 1.54 6-.385 6-3.464v-26.244c0-3.079-3.333-5.004-6-3.464l-22.728 13.122c-2.666 1.54-2.666 5.389 0 6.928z" fill="#e2d2f7"/></g></g></g></g></g><g><g><g><path d="m292.073 83.31h175.927v28.981h-175.927z" fill="#ffc31a"/></g></g></g><g><g><g><g><path d="m292.073 83.31h12v28.981h-12z" fill="#ffaf00"/></g></g></g></g></g><g><g><g><g><path d="m66.471 358.774-10.104-9.066c-1.603-1.438-3.68-2.233-5.833-2.233h-36.558c-7.719-.001-13.976 6.257-13.976 13.975v67.935h151.054v-54.445c0-7.722-6.263-13.981-13.985-13.976l-64.76.042c-2.154.002-4.234-.793-5.838-2.232z" fill="#ff8f33"/></g></g></g><g><g><g><path d="m25.976 347.474h-12c-7.719 0-13.976 6.258-13.976 13.976v67.935h12v-67.935c0-7.718 6.257-13.976 13.976-13.976z" fill="#ff740d"/></g></g></g><g><g><g><path d="m134.036 467.395h-117.018c-9.399 0-17.018-7.619-17.018-17.018v-61.078h151.054v61.078c.001 9.399-7.619 17.018-17.018 17.018z" fill="#ffc31a"/></g></g></g><g><g><g><g><path d="m62 455.395c-27.614 0-50-22.386-50-50v-16.096h-12v62.096c0 8.837 7.163 16 16 16h119.054c7.603 0 13.954-5.308 15.583-12.417-1.153.264-2.349.417-3.583.417z" fill="#ffaf00"/></g></g></g></g><g><g><g><path d="m129.087 448.108h-22.832c-1.175 0-2.127-.952-2.127-2.127s.952-2.127 2.127-2.127h22.832c1.175 0 2.127.952 2.127 2.127s-.952 2.127-2.127 2.127z" fill="#fff"/></g></g></g><g><g><g><path d="m129.087 426.694h-37.101c-1.175 0-2.127-.953-2.127-2.127s.952-2.127 2.127-2.127h37.102c1.175 0 2.127.952 2.127 2.127s-.953 2.127-2.128 2.127z" fill="#fff"/></g></g></g></g></g></svg>