<svg id="Capa_1" enable-background="new 0 0 512 512" height="512" viewBox="0 0 512 512" width="512" xmlns="http://www.w3.org/2000/svg"><g><path d="m352 107.188v-22.376c0-2.195-1.24-4.201-3.203-5.183l-12.987-6.494c-1.352-.676-2.393-1.851-2.879-3.283-1.14-3.354-2.493-6.61-4.043-9.752-.67-1.357-.767-2.926-.288-4.362l4.594-13.781c.694-2.082.152-4.378-1.4-5.93l-15.822-15.822c-1.552-1.552-3.848-2.094-5.93-1.4l-13.78 4.594c-1.436.479-3.004.382-4.362-.288-3.141-1.55-6.397-2.903-9.752-4.043-1.431-.486-2.607-1.527-3.283-2.879l-6.494-12.987c-.982-1.962-2.988-3.202-5.183-3.202h-22.376c-2.195 0-4.201 1.24-5.183 3.203l-6.494 12.987c-.676 1.352-1.851 2.393-3.283 2.879-3.354 1.14-6.61 2.493-9.752 4.043-1.357.67-2.926.767-4.362.288l-13.781-4.594c-2.082-.694-4.378-.152-5.93 1.4l-15.822 15.822c-1.552 1.552-2.094 3.848-1.4 5.93l4.594 13.781c.479 1.436.382 3.004-.288 4.362-1.55 3.141-2.903 6.397-4.043 9.752-.486 1.431-1.527 2.607-2.879 3.283l-12.987 6.494c-1.962.981-3.202 2.987-3.202 5.182v22.376c0 2.195 1.24 4.201 3.203 5.183l12.987 6.494c1.352.676 2.393 1.851 2.879 3.283 1.14 3.354 2.493 6.61 4.043 9.752.67 1.357.767 2.926.288 4.362l-4.594 13.78c-.694 2.082-.152 4.378 1.4 5.93l15.822 15.822c1.552 1.552 3.848 2.094 5.93 1.4l13.781-4.594c1.436-.479 3.004-.382 4.362.288 3.141 1.55 6.397 2.903 9.752 4.043 1.431.486 2.607 1.527 3.283 2.879l6.494 12.987c.982 1.963 2.988 3.203 5.183 3.203h22.376c2.195 0 4.202-1.24 5.183-3.203l6.494-12.987c.676-1.352 1.851-2.393 3.283-2.879 3.354-1.14 6.61-2.493 9.752-4.043 1.357-.67 2.926-.767 4.362-.288l13.78 4.594c2.082.694 4.378.152 5.93-1.4l15.822-15.822c1.552-1.552 2.094-3.848 1.4-5.93l-4.594-13.78c-.479-1.436-.382-3.004.288-4.362 1.55-3.141 2.903-6.397 4.043-9.752.486-1.431 1.527-2.607 2.879-3.283l12.987-6.494c1.962-.982 3.202-2.988 3.202-5.183z" fill="#08a9f1"/><path d="m293.942 73.372c-6.248-6.248-16.379-6.248-22.627 0l-22.627 22.628-11.314-11.314c-6.248-6.248-16.379-6.248-22.627 0s-6.248 16.379 0 22.628l22.592 22.592c.012.012.023.024.035.035 6.248 6.248 16.379 6.248 22.628 0 .012-.012.023-.024.035-.035l33.905-33.906c6.249-6.249 6.249-16.379 0-22.628z" fill="#dff6fd"/><path d="m454.245 160h-396.49c-14.224 0-25.755 11.531-25.755 25.755v278.245l224 32 224-32v-278.245c0-14.224-11.531-25.755-25.755-25.755z" fill="#b2caec"/><path d="m317.071 466.929-5.528 5.528c-4.83 4.83-11.381 7.543-18.211 7.543h-74.664c-6.831 0-13.381-2.713-18.211-7.543l-5.528-5.528c-1.875-1.875-4.419-2.929-7.071-2.929h-180.132c-4.267 0-7.726 3.459-7.726 7.726v14.519c0 14.224 11.531 25.755 25.755 25.755h460.491c14.223 0 25.754-11.531 25.754-25.755v-14.519c0-4.267-3.459-7.726-7.726-7.726h-180.132c-2.652 0-5.196 1.054-7.071 2.929z" fill="#d3e1f5"/><path d="m443 432h-374c-2.761 0-5-2.239-5-5v-230c0-2.761 2.239-5 5-5h374c2.761 0 5 2.239 5 5v230c0 2.761-2.239 5-5 5z" fill="#01c0fa"/><path d="m406.793 192v142.245c0 42.61-34.542 77.152-77.152 77.152h-265.641v15.603c0 2.761 2.239 5 5 5h374c2.761 0 5-2.239 5-5v-230c0-2.761-2.239-5-5-5z" fill="#08a9f1"/><path d="m134.245 464h-108.49c-14.224 0-25.755-11.531-25.755-25.754v-188.491c0-14.224 11.531-25.755 25.755-25.755h108.491c14.223 0 25.754 11.531 25.754 25.755v188.491c0 14.223-11.531 25.754-25.755 25.754z" fill="#0573ce"/><path d="m100.51 256c-2.383 0-4.415 1.645-5.002 3.954-1.76 6.924-8.036 12.046-15.508 12.046s-13.748-5.122-15.508-12.046c-.587-2.309-2.62-3.954-5.002-3.954h-22.339c-2.845 0-5.151 2.306-5.151 5.151v165.698c0 2.845 2.306 5.151 5.151 5.151h85.698c2.845 0 5.151-2.306 5.151-5.151v-165.698c0-2.845-2.306-5.151-5.151-5.151z" fill="#01c0fa"/><path d="m486.245 352h-236.49c-14.224 0-25.755-11.531-25.755-25.754v-172.491c0-14.224 11.531-25.755 25.755-25.755h236.491c14.223 0 25.754 11.531 25.754 25.755v172.491c0 14.223-11.531 25.754-25.755 25.754z" fill="#0055a3"/><path d="m486.245 128h-20.604c14.224 0 25.755 11.531 25.755 25.755v172.491c0 14.224-11.531 25.755-25.755 25.755h20.604c14.224-.001 25.755-11.532 25.755-25.755v-172.491c0-14.224-11.531-25.755-25.755-25.755z" fill="#004281"/><path d="m443 320h-182c-2.761 0-5-2.239-5-5v-150c0-2.761 2.239-5 5-5h182c2.761 0 5 2.239 5 5v150c0 2.761-2.239 5-5 5z" fill="#01c0fa"/><path d="m344.343 262.814c-1.92 0-3.839-.732-5.304-2.196l-15.313-15.313c-2.929-2.93-2.929-7.678 0-10.607 2.93-2.928 7.678-2.928 10.607 0l10.01 10.011 25.324-25.324c2.931-2.928 7.679-2.929 10.607.001 2.929 2.929 2.929 7.677 0 10.606l-30.628 30.627c-1.464 1.462-3.384 2.195-5.303 2.195z" fill="#dff6fd"/><path d="m74.667 362.167c-1.989 0-3.897-.79-5.303-2.197l-10.667-10.667c-2.929-2.929-2.929-7.678 0-10.606s7.678-2.928 10.606.001l5.363 5.363 16.03-16.031c2.929-2.928 7.678-2.928 10.606 0 2.929 2.93 2.929 7.678 0 10.607l-21.332 21.334c-1.407 1.406-3.314 2.196-5.303 2.196z" fill="#dff6fd"/><g><g><path d="m478 263.5c-4.143 0-7.5-3.357-7.5-7.5v-32c0-4.143 3.357-7.5 7.5-7.5s7.5 3.357 7.5 7.5v32c0 4.143-3.357 7.5-7.5 7.5z" fill="#004281"/></g></g></g></svg>