<svg id="Capa_1" enable-background="new 0 0 512 512" height="512" viewBox="0 0 512 512" width="512" xmlns="http://www.w3.org/2000/svg"><g><path d="m469.523 146.808h-327.754c-5.387 0-9.769-4.382-9.769-9.769v-81.368c-72.397 42.573-121 121.269-121 211.329 0 135.31 109.69 245 245 245s245-109.69 245-245c0-43.679-11.444-84.68-31.477-120.192z" fill="#fed2a4"/><g><g><path d="m451.001 179.12h-380.991c-5.528 0-10.01 4.482-10.01 10.01v40.475l8.568 1.001h384.689l7.753-1.001v-40.475c.001-5.529-4.481-10.01-10.009-10.01z" fill="#0593fc"/></g><path d="m110.989 189.13c0-5.528 4.482-10.01 10.01-10.01h-50.989c-5.528 0-10.01 4.482-10.01 10.01v40.475h50.989z" fill="#0182fc"/><path d="m404.117 447.986c-1.63-1.631-1.63-4.284 0-5.915l19.966-19.966c.79-.79 1.84-1.225 2.958-1.225 1.117 0 2.167.435 2.957 1.225l31.013 31.013v-223.514h-401.011v184.41c18.777 24.993 42.218 46.281 69.038 62.563h303.67z" fill="#eaf6ff"/><g><path d="m110.989 229.604h-50.989v184.41c14.432 19.21 31.629 36.22 50.989 50.462z" fill="#d8ecfe"/></g><g><g><path d="m131.916 325.376v-57.194c0-1.717-1.392-3.109-3.109-3.109h-22.953c-1.717 0-3.109 1.392-3.109 3.109v57.194z" fill="#80d261"/><path d="m118.109 265.074h-12.256c-1.717 0-3.109 1.392-3.109 3.109v57.194h12.256v-57.194c0-1.717 1.392-3.109 3.109-3.109z" fill="#68ca44"/><path d="m171.784 325.376v-32.373c0-1.717-1.392-3.109-3.109-3.109h-22.953c-1.717 0-3.109 1.392-3.109 3.109v32.373z" fill="#fe646f"/><path d="m157.938 289.895h-12.216c-1.717 0-3.109 1.392-3.109 3.109v32.373h12.216v-32.373c-.001-1.717 1.391-3.109 3.109-3.109z" fill="#fd4755"/><path d="m211.652 325.376v-42.737c0-1.717-1.392-3.109-3.109-3.109h-22.953c-1.717 0-3.109 1.392-3.109 3.109v42.737z" fill="#fe9901"/><path d="m199.109 279.53h-13.52c-1.717 0-3.109 1.392-3.109 3.109v42.737h13.52v-42.737c0-1.717 1.392-3.109 3.109-3.109z" fill="#fb8801"/><g><path d="m424.083 422.106-22.084-22.084c-5.488 7.723-12.243 14.478-19.966 19.966l22.084 22.084z" fill="#6c7fd8"/><g><path d="m468.359 486.347c-7.537 7.537-19.758 7.537-27.295 0l-37.654-37.654c-2.024-2.024-2.024-5.305 0-7.329l19.966-19.966c2.024-2.024 5.305-2.024 7.329 0l37.654 37.654c7.537 7.537 7.537 19.758 0 27.295z" fill="#4f66d0"/></g><path d="m463.052 486.347-37.654-37.654c-2.024-2.024-2.024-5.305 0-7.329l12.636-12.636-7.33-7.33c-2.024-2.024-5.305-2.024-7.329 0l-19.966 19.966c-2.024 2.024-2.024 5.305 0 7.329l37.654 37.654c6.708 6.708 17.117 7.43 24.642 2.198-.93-.647-1.824-1.369-2.653-2.198z" fill="#314dc9"/><g><circle cx="333.485" cy="351.474" fill="#fe646f" r="85.023"/></g><path d="m273.954 351.474c0-42.625 31.367-77.918 72.277-84.069-4.158-.625-8.413-.954-12.746-.954-46.957 0-85.023 38.066-85.023 85.023s38.066 85.023 85.023 85.023c4.332 0 8.588-.329 12.746-.954-40.91-6.151-72.277-41.445-72.277-84.069z" fill="#fd4755"/><g><circle cx="333.485" cy="351.474" fill="#fff" r="62.317"/></g><path d="m296.367 351.474c0-30.1 21.341-55.215 49.718-61.041-4.069-.836-8.283-1.275-12.599-1.275-34.417 0-62.317 27.9-62.317 62.317s27.9 62.317 62.317 62.317c4.316 0 8.53-.44 12.599-1.275-28.377-5.829-49.718-30.943-49.718-61.043z" fill="#f5f8f9"/><path d="m418.621 299.655-50.109 50.109-26.25-26.249c-2.929-2.929-7.678-2.929-10.606 0l-28.269 28.269c5.38 1.162 9.454 5.839 9.715 11.498l23.858-23.858 26.25 26.249c2.929 2.929 7.678 2.929 10.606 0l55.413-55.413z" fill="#8ac9fe"/><g><path d="m442.001 283.965-28.265 7.069c-1.813.453-2.438 2.711-1.117 4.032l21.196 21.196c1.321 1.321 3.579.696 4.033-1.117l7.069-28.265c.44-1.76-1.155-3.355-2.916-2.915z" fill="#60b7ff"/></g><g><circle cx="300.776" cy="363.855" fill="#60b7ff" r="13.354"/></g></g><g><path d="m225.266 339.376h-130.162c-4.142 0-7.5-3.358-7.5-7.5s3.358-7.5 7.5-7.5h130.162c4.142 0 7.5 3.358 7.5 7.5s-3.358 7.5-7.5 7.5z" fill="#60b7ff"/></g><g><g><path d="m110.523 370.217h-15.419c-4.142 0-7.5-3.358-7.5-7.5s3.358-7.5 7.5-7.5h15.419c4.142 0 7.5 3.358 7.5 7.5s-3.358 7.5-7.5 7.5z" fill="#60b7ff"/></g><g><path d="m110.523 397.889h-15.419c-4.142 0-7.5-3.358-7.5-7.5s3.358-7.5 7.5-7.5h15.419c4.142 0 7.5 3.358 7.5 7.5s-3.358 7.5-7.5 7.5z" fill="#8ac9fe"/></g><g><path d="m110.523 425.56h-15.419c-4.142 0-7.5-3.358-7.5-7.5s3.358-7.5 7.5-7.5h15.419c4.142 0 7.5 3.358 7.5 7.5s-3.358 7.5-7.5 7.5z" fill="#8ac9fe"/></g><g><path d="m225.266 370.217h-93.35c-4.142 0-7.5-3.358-7.5-7.5s3.358-7.5 7.5-7.5h93.35c4.142 0 7.5 3.358 7.5 7.5s-3.358 7.5-7.5 7.5z" fill="#60b7ff"/></g><g><path d="m225.266 397.889h-93.35c-4.142 0-7.5-3.358-7.5-7.5s3.358-7.5 7.5-7.5h93.35c4.142 0 7.5 3.358 7.5 7.5s-3.358 7.5-7.5 7.5z" fill="#8ac9fe"/></g><g><path d="m225.266 425.56h-93.35c-4.142 0-7.5-3.358-7.5-7.5s3.358-7.5 7.5-7.5h93.35c4.142 0 7.5 3.358 7.5 7.5s-3.358 7.5-7.5 7.5z" fill="#8ac9fe"/></g></g></g></g></g><g><g><path d="m484.231 147.808h-342.462c-5.948 0-10.769-4.822-10.769-10.769v-126.27c0-5.947 4.822-10.769 10.769-10.769h342.462c5.947 0 10.769 4.822 10.769 10.769v126.269c0 5.948-4.822 10.77-10.769 10.77z" fill="#0593fc"/></g><path d="m172 137.038v-126.269c0-5.947 4.822-10.769 10.769-10.769h-41c-5.947 0-10.769 4.822-10.769 10.769v126.269c0 5.948 4.822 10.769 10.769 10.769h41c-5.947.001-10.769-4.821-10.769-10.769z" fill="#0182fc"/><g><g><path d="m207.218 29.582c-26.424 1.203-47.32 23.608-46.079 50.603 1.14 24.78 21.253 44.892 46.032 46.032 26.995 1.242 49.399-19.655 50.603-46.079.055-1.218-.919-2.238-2.138-2.238h-44.047c-1.179 0-2.134-.955-2.134-2.134v-44.047c.001-1.219-1.02-2.193-2.237-2.137z" fill="#ffd15b"/></g><path d="m229.395 113.637c-24.78-1.14-44.892-21.253-46.032-46.032-.659-14.324 4.916-27.354 14.241-36.612-21.687 5.462-37.552 25.569-36.465 49.191 1.14 24.78 21.253 44.892 46.032 46.032 14.197.653 27.118-4.822 36.36-13.999-4.496 1.133-9.239 1.645-14.136 1.42z" fill="#ffc344"/><g><path d="m266.706 66.83c1.219 0 2.193-1.02 2.138-2.238-.632-13.872-7.106-26.22-17.02-34.642-7.907-6.717-18.002-10.936-29.066-11.439-1.215-.055-2.232.921-2.232 2.137v44.047c0 1.179.955 2.134 2.134 2.134h44.046z" fill="#80d261"/></g><path d="m237 64.696v-43.35c-4.478-1.622-9.261-2.608-14.243-2.835-1.215-.055-2.232.921-2.232 2.137v44.047c0 1.179.955 2.134 2.134 2.134h16.474c-1.178.001-2.133-.954-2.133-2.133z" fill="#68ca44"/></g><g><g><path d="m315.654 105.769v-29.038c0-4.142-3.358-7.5-7.5-7.5s-7.5 3.358-7.5 7.5v29.038z" fill="#fe9901"/><path d="m343.115 105.769v-71.038c0-4.142-3.358-7.5-7.5-7.5s-7.5 3.358-7.5 7.5v71.038z" fill="#80d261"/><path d="m370.577 105.769v-54.884c0-4.142-3.358-7.5-7.5-7.5s-7.5 3.358-7.5 7.5v54.884z" fill="#ffd15b"/><path d="m398.039 105.769v-29.038c0-4.142-3.358-7.5-7.5-7.5s-7.5 3.358-7.5 7.5v29.038z" fill="#fe9901"/><path d="m425.5 105.769v-54.884c0-4.142-3.358-7.5-7.5-7.5s-7.5 3.358-7.5 7.5v54.884z" fill="#80d261"/><path d="m452.961 105.769v-19.346c0-4.142-3.358-7.5-7.5-7.5s-7.5 3.358-7.5 7.5v19.346z" fill="#fe646f"/></g><g><path d="m465.654 119.769h-177.693c-4.142 0-7.5-3.358-7.5-7.5s3.358-7.5 7.5-7.5h177.692c4.142 0 7.5 3.358 7.5 7.5s-3.357 7.5-7.499 7.5z" fill="#fff"/></g></g></g><g><g><circle cx="383.512" cy="203.5" fill="#fe646f" r="7.5"/></g><g><circle cx="405.512" cy="203.5" fill="#ffd15b" r="7.5"/></g><g><circle cx="427.512" cy="203.5" fill="#80d261" r="7.5"/></g></g><g><circle cx="467.5" cy="22.5" fill="#0172fb" r="7.5"/></g><g><circle cx="445.5" cy="22.5" fill="#0172fb" r="7.5"/></g></g></svg>