<?xml version="1.0" encoding="UTF-8" standalone="no"?>
<!-- Created with Inkscape (http://www.inkscape.org/) -->

<svg
   version="1.1"
   id="svg3186"
   xml:space="preserve"
   width="682.66669"
   height="682.66669"
   viewBox="0 0 682.66669 682.66669"
   sodipodi:docname="earn-money.svg"
   inkscape:version="1.3.2 (091e20e, 2023-11-25)"
   xmlns:inkscape="http://www.inkscape.org/namespaces/inkscape"
   xmlns:sodipodi="http://sodipodi.sourceforge.net/DTD/sodipodi-0.dtd"
   xmlns="http://www.w3.org/2000/svg"
   xmlns:svg="http://www.w3.org/2000/svg"><sodipodi:namedview
     id="namedview1"
     pagecolor="#505050"
     bordercolor="#eeeeee"
     borderopacity="1"
     inkscape:showpageshadow="0"
     inkscape:pageopacity="0"
     inkscape:pagecheckerboard="0"
     inkscape:deskcolor="#505050"
     inkscape:zoom="0.34570311"
     inkscape:cx="341.33334"
     inkscape:cy="341.33334"
     inkscape:window-width="1440"
     inkscape:window-height="847"
     inkscape:window-x="0"
     inkscape:window-y="25"
     inkscape:window-maximized="0"
     inkscape:current-layer="svg3186" /><defs
     id="defs3190"><clipPath
       clipPathUnits="userSpaceOnUse"
       id="clipPath1"><g
         id="g2"
         transform="matrix(0.75000002,0,0,-0.75000002,-155.5527,480.94341)"><path
           d="M 0,2.04e-5 H 682.66665 V 682.66667 H 0 Z"
           id="path1"
           style="stroke-width:1.33333" /></g></clipPath><clipPath
       clipPathUnits="userSpaceOnUse"
       id="clipPath2"><g
         id="g3"
         transform="matrix(0.75000002,0,0,-0.75000002,-235,412.00002)"><path
           d="M 0,2.04e-5 H 682.66665 V 682.66667 H 0 Z"
           id="path2"
           style="stroke-width:1.33333" /></g></clipPath><clipPath
       clipPathUnits="userSpaceOnUse"
       id="clipPath3"><g
         id="g4"
         transform="matrix(0.75000002,0,0,-0.75000002,-210,487.99902)"><path
           d="M 0,2.04e-5 H 682.66665 V 682.66667 H 0 Z"
           id="path3"
           style="stroke-width:1.33333" /></g></clipPath><clipPath
       clipPathUnits="userSpaceOnUse"
       id="clipPath4"><g
         id="g5"
         transform="matrix(0.75000002,0,0,-0.75000002,-286,10.000015)"><path
           d="M 0,2.04e-5 H 682.66665 V 682.66667 H 0 Z"
           id="path4"
           style="stroke-width:1.33333" /></g></clipPath><clipPath
       clipPathUnits="userSpaceOnUse"
       id="clipPath5"><g
         id="g6"
         transform="matrix(0.75000002,0,0,-0.75000002,-100,352.00001)"><path
           d="M 0,2.04e-5 H 682.66665 V 682.66667 H 0 Z"
           id="path5"
           style="stroke-width:1.33333" /></g></clipPath><clipPath
       clipPathUnits="userSpaceOnUse"
       id="clipPath6"><g
         id="g7"
         transform="matrix(0.75000002,0,0,-0.75000002,-286,190.00002)"><path
           d="M 0,2.04e-5 H 682.66665 V 682.66667 H 0 Z"
           id="path6"
           style="stroke-width:1.33333" /></g></clipPath><clipPath
       clipPathUnits="userSpaceOnUse"
       id="clipPath7"><g
         id="g8"
         transform="matrix(0.75000002,0,0,-0.75000002,-286,10.000015)"><path
           d="M 0,2.04e-5 H 682.66665 V 682.66667 H 0 Z"
           id="path7"
           style="stroke-width:1.33333" /></g></clipPath><clipPath
       clipPathUnits="userSpaceOnUse"
       id="clipPath8"><g
         id="g9"
         transform="matrix(0.75000002,0,0,-0.75000002,-256,160.00002)"><path
           d="M 0,2.04e-5 H 682.66665 V 682.66667 H 0 Z"
           id="path8"
           style="stroke-width:1.33333" /></g></clipPath><clipPath
       clipPathUnits="userSpaceOnUse"
       id="clipPath9"><g
         id="g10"
         transform="matrix(0.75000002,0,0,-0.75000002,-442,220.00002)"><path
           d="M 0,2.04e-5 H 682.66665 V 682.66667 H 0 Z"
           id="path9"
           style="stroke-width:1.33333" /></g></clipPath><clipPath
       clipPathUnits="userSpaceOnUse"
       id="clipPath10"><g
         id="g11"
         transform="matrix(0.75000002,0,0,-0.75000002,-472,190.00002)"><path
           d="M 0,2.04e-5 H 682.66665 V 682.66667 H 0 Z"
           id="path10"
           style="stroke-width:1.33333" /></g></clipPath><clipPath
       clipPathUnits="userSpaceOnUse"
       id="clipPath11"><g
         id="g12"
         transform="matrix(0.75000002,0,0,-0.75000002,-75.999999,40.000015)"><path
           d="M 0,2.04e-5 H 682.66665 V 682.66667 H 0 Z"
           id="path11"
           style="stroke-width:1.33333" /></g></clipPath><clipPath
       clipPathUnits="userSpaceOnUse"
       id="clipPath12"><g
         id="g13"
         transform="matrix(0.75000002,0,0,-0.75000002,-106,10.000015)"><path
           d="M 0,2.04e-5 H 682.66665 V 682.66667 H 0 Z"
           id="path12"
           style="stroke-width:1.33333" /></g></clipPath></defs><g
     id="g3202"
     transform="matrix(1.3333333,0,0,-1.3333333,141.33333,13.333353)"
     style="stroke:#ffffff;stroke-opacity:1"
     clip-path="url(#clipPath12)"><path
       d="M 0,0 V -60"
       style="fill:none;stroke:#ffffff;stroke-width:20;stroke-linecap:round;stroke-linejoin:round;stroke-miterlimit:10;stroke-dasharray:none;stroke-opacity:1"
       id="path3204" /></g><g
     id="g3206"
     transform="matrix(1.3333333,0,0,-1.3333333,101.33333,53.333352)"
     style="stroke:#ffffff;stroke-opacity:1"
     clip-path="url(#clipPath11)"><path
       d="M 0,0 H 60"
       style="fill:none;stroke:#ffffff;stroke-width:20;stroke-linecap:round;stroke-linejoin:round;stroke-miterlimit:10;stroke-dasharray:none;stroke-opacity:1"
       id="path3208" /></g><g
     id="g3210"
     transform="matrix(1.3333333,0,0,-1.3333333,629.33332,253.33335)"
     style="stroke:#ffffff;stroke-opacity:1"
     clip-path="url(#clipPath10)"><path
       d="M 0,0 V -60"
       style="fill:none;stroke:#ffffff;stroke-width:20;stroke-linecap:round;stroke-linejoin:round;stroke-miterlimit:10;stroke-dasharray:none;stroke-opacity:1"
       id="path3212" /></g><g
     id="g3214"
     transform="matrix(1.3333333,0,0,-1.3333333,589.33332,293.33335)"
     style="stroke:#ffffff;stroke-opacity:1"
     clip-path="url(#clipPath9)"><path
       d="M 0,0 H 60"
       style="fill:none;stroke:#ffffff;stroke-width:20;stroke-linecap:round;stroke-linejoin:round;stroke-miterlimit:10;stroke-dasharray:none;stroke-opacity:1"
       id="path3216" /></g><g
     id="g3218"
     transform="matrix(1.3333333,0,0,-1.3333333,341.33332,213.33335)"
     style="stroke:#ffffff;stroke-opacity:1"
     clip-path="url(#clipPath8)"><path
       d="M 0,0 C 0,-16.57 13.43,-30 30,-30 46.57,-30 60,-16.57 60,0 60,16.57 46.57,30 30,30 13.43,30 0,43.43 0,60 0,76.57 13.43,90 30,90 46.57,90 60,76.57 60,60"
       style="fill:none;stroke:#ffffff;stroke-width:20;stroke-linecap:round;stroke-linejoin:round;stroke-miterlimit:10;stroke-dasharray:none;stroke-opacity:1"
       id="path3220" /></g><g
     id="g3222"
     transform="matrix(1.3333333,0,0,-1.3333333,381.33332,13.333353)"
     style="stroke:#ffffff;stroke-opacity:1"
     clip-path="url(#clipPath7)"><path
       d="M 0,0 V -60"
       style="fill:none;stroke:#ffffff;stroke-width:20;stroke-linecap:round;stroke-linejoin:round;stroke-miterlimit:10;stroke-dasharray:none;stroke-opacity:1"
       id="path3224" /></g><g
     id="g3226"
     transform="matrix(1.3333333,0,0,-1.3333333,381.33332,253.33335)"
     style="stroke:#ffffff;stroke-opacity:1"
     clip-path="url(#clipPath6)"><path
       d="M 0,0 V -60"
       style="fill:none;stroke:#ffffff;stroke-width:20;stroke-linecap:round;stroke-linejoin:round;stroke-miterlimit:10;stroke-dasharray:none;stroke-opacity:1"
       id="path3228" /></g><g
     id="g3230"
     transform="matrix(1.3333333,0,0,-1.3333333,133.33333,469.33334)"
     style="stroke:#ffffff;stroke-opacity:1"
     clip-path="url(#clipPath5)"><path
       d="M 0,0 C 0,0 26.86,30 60,30 93.14,30 120,0 120,0 h 102 c 16.57,0 30,-13.43 30,-30 0,-16.57 -13.43,-30 -30,-30"
       style="fill:none;stroke:#ffffff;stroke-width:20;stroke-linecap:round;stroke-linejoin:round;stroke-miterlimit:10;stroke-dasharray:none;stroke-opacity:1"
       id="path3232" /></g><g
     id="g3234"
     transform="matrix(1.3333333,0,0,-1.3333333,381.33332,13.333353)"
     style="stroke:#ffffff;stroke-opacity:1"
     clip-path="url(#clipPath4)"><path
       d="m 0,0 c 66.27,0 120,-53.72 120,-120 0,-66.27 -53.73,-120 -120,-120 -66.27,0 -120,53.73 -120,120 0,66.28 53.73,120 120,120 z"
       style="fill:none;stroke:#ffffff;stroke-width:20;stroke-linecap:round;stroke-linejoin:round;stroke-miterlimit:10;stroke-dasharray:none;stroke-opacity:1"
       id="path3236" /></g><g
     id="g3238"
     transform="matrix(1.3333333,0,0,-1.3333333,279.99999,650.66534)"
     style="stroke:none;stroke-opacity:1;fill:#ffffff;fill-opacity:1"
     clip-path="url(#clipPath3)"><path
       d="m 0,0 c 0,-5.522 -4.478,-10 -10,-10 -5.523,0 -10,4.478 -10,10 0,5.523 4.477,10 10,10 C -4.478,10 0,5.523 0,0"
       style="fill:#ffffff;fill-opacity:1;fill-rule:nonzero;stroke:none;stroke-opacity:1"
       id="path3240" /></g><g
     id="g3242"
     transform="matrix(1.3333333,0,0,-1.3333333,313.33333,549.33334)"
     style="stroke:#ffffff;stroke-opacity:1"
     clip-path="url(#clipPath2)"><path
       d="m 0,0 h 130.15 l 88.06,73.01 c 12.83,10.1 31.35,8.15 41.8,-4.39 10.79,-12.94 8.87,-32.22 -4.27,-42.78 L 146.69,-59.42 C 122.89,-79.18 92.92,-90 61.98,-90 c -7.31,0 -14.6,0.6 -21.81,1.8 l -30.754,4.951"
       style="fill:none;stroke:#ffffff;stroke-width:20;stroke-linecap:round;stroke-linejoin:round;stroke-miterlimit:10;stroke-dasharray:none;stroke-opacity:1"
       id="path3244" /></g><g
     id="g3246"
     transform="matrix(1.3333333,0,0,-1.3333333,207.40359,641.25787)"
     style="stroke:#ffffff;stroke-opacity:1"
     clip-path="url(#clipPath1)"><path
       d="m 0,0 -55.553,8.943 v 120 c 0,16.571 -13.429,30 -30,30 h -60 v -180 h 90 v 30"
       style="fill:none;stroke:#ffffff;stroke-width:20;stroke-linecap:round;stroke-linejoin:round;stroke-miterlimit:10;stroke-dasharray:none;stroke-opacity:1"
       id="path3248" /></g></svg>
