<svg id="Capa_1" enable-background="new 0 0 512 512" height="512" viewBox="0 0 512 512" width="512" xmlns="http://www.w3.org/2000/svg"><g><path d="m465.642 512h-419.284v-334.809l209.642-102.503 209.642 102.503z" fill="#f5f5f7"/><path d="m256 74.688-15.453 7.555 194.189 94.948v126.895c0 85.84-47.163 164.739-122.772 205.383l-4.708 2.531h127.48 30.905v-334.809z" fill="#e5e1e5"/><g><g><path d="m256 504.274c-4.268 0-7.726-3.459-7.726-7.726v-87.369c0-4.267 3.459-7.726 7.726-7.726s7.726 3.459 7.726 7.726v87.369c0 4.266-3.458 7.726-7.726 7.726z" fill="#e5e1e5"/></g></g><g><g><g><path d="m279.179 308.117c-4.268 0-7.726-3.459-7.726-7.726v-34.489c0-4.267 3.459-7.726 7.726-7.726s7.726 3.459 7.726 7.726v34.489c0 4.266-3.458 7.726-7.726 7.726z" fill="#e5e1e5"/></g><g><path d="m232.821 308.117c-4.268 0-7.726-3.459-7.726-7.726v-34.489c0-4.267 3.459-7.726 7.726-7.726s7.726 3.459 7.726 7.726v34.489c0 4.266-3.458 7.726-7.726 7.726z" fill="#e5e1e5"/></g></g><g><path d="m256 409.178c-28.308 0-51.256-22.948-51.256-51.256v-50.559c0-3.851 3.122-6.974 6.974-6.974h88.565c3.851 0 6.974 3.122 6.974 6.974v50.559c-.001 28.308-22.949 51.256-51.257 51.256z" fill="#60b7ff"/></g><path d="m300.282 300.39h-30.905c3.851 0 6.974 3.122 6.974 6.973v50.559c0 22.922-15.048 42.324-35.803 48.88 4.877 1.54 10.067 2.376 15.453 2.376 28.308 0 51.256-22.948 51.256-51.256v-50.559c-.001-3.851-3.123-6.973-6.975-6.973z" fill="#26a6fe"/></g><path d="m504.609 221.01-248.609-120.052-248.609 120.052c-3.42 1.652-7.391-.84-7.391-4.638v-46.25c0-1.977 1.131-3.779 2.911-4.638l253.089-122.216 253.089 122.216c1.78.86 2.911 2.662 2.911 4.638v46.25c0 3.798-3.971 6.29-7.391 4.638z" fill="#d77f4a"/><g fill="#c86d36"><path d="m509.089 165.483-253.089-122.215-15.453 7.462 221.707 107.061c10.362 5.004 18.84 18.513 18.84 30.02v21.844l23.515 11.355c3.42 1.652 7.391-.84 7.391-4.638v-46.25c0-1.977-1.131-3.779-2.911-4.639z"/><path d="m225.095 90.875-55.06-6.014-39.871 19.173c1.457 18.677-8.736 36.323-25.643 44.393l-104.521 49.889v18.057c0 3.798 3.971 6.29 7.391 4.638l233.156-112.591z"/></g><path d="m505.819 481.095h-499.638c-3.414 0-6.181 2.767-6.181 6.181v18.543c0 3.414 2.767 6.181 6.181 6.181h499.638c3.414 0 6.181-2.767 6.181-6.181v-18.543c0-3.414-2.767-6.181-6.181-6.181z" fill="#9b8e99"/><path d="m505.819 481.095h-30.905c3.414 0 6.181 2.768 6.181 6.181v18.543c0 3.413-2.767 6.181-6.181 6.181h30.905c3.414 0 6.181-2.768 6.181-6.181v-18.543c0-3.414-2.767-6.181-6.181-6.181z" fill="#918291"/><g><ellipse cx="256" cy="109.087" fill="#fedf30" rx="109.087" ry="109.087" transform="matrix(.707 -.707 .707 .707 -2.156 212.97)"/><path d="m288.658 4.975c27.566 19.798 45.524 52.13 45.524 88.659 0 60.247-48.84 109.087-109.088 109.087-11.377 0-22.346-1.744-32.658-4.975 17.898 12.855 39.846 20.428 63.564 20.428 60.247 0 109.088-48.84 109.088-109.087-.001-48.87-32.137-90.231-76.43-104.112z" fill="#fac600"/><path d="m276.043 34.976c6.171-.05 10.285 5.611 8.218 10.948-5.493 14.182-11.573 28.185-17.502 42.191-.359.848-.102 1.202.601 1.607 11.101 6.409 22.178 12.86 33.29 19.25 5.474 3.148 6.346 9.554 1.778 13.887-20.126 19.092-40.284 38.151-60.435 57.217-3.38 3.198-6.708 3.924-10.173 2.246-3.774-1.827-5.626-6.122-4.086-10.104 2.102-5.433 4.406-10.789 6.643-16.169 3.609-8.679 7.22-17.358 10.877-26.018.373-.884.06-1.198-.62-1.589-11.239-6.464-22.59-12.797-33.689-19.497-5.167-3.119-5.777-9.48-1.373-13.653 20.139-19.081 40.336-38.101 60.435-57.224 1.854-1.763 3.888-3.022 6.036-3.092z" fill="#fea95c"/><path d="m300.649 108.973c-11.112-6.39-22.188-12.842-33.289-19.25-.702-.405-.96-.759-.601-1.607 5.929-14.007 12.009-28.01 17.501-42.191 2.067-5.337-2.048-10.998-8.218-10.948-2.148.07-4.182 1.329-6.036 3.093-7.243 6.891-14.507 13.761-21.769 20.634-.936 3.042-6.627 14.836-9.785 23.048-1.654 4.301.059 9.157 4.047 11.465 9.08 5.255 18.15 10.526 27.245 15.756 5.474 3.148 6.346 9.554 1.778 13.887-12.826 12.167-25.672 24.313-38.514 36.463-1.796 4.284-3.599 8.566-5.275 12.896-1.54 3.981.312 8.276 4.086 10.104 3.465 1.678 6.793.952 10.173-2.246 20.15-19.066 40.309-38.125 60.435-57.217 4.568-4.333 3.697-10.739-1.778-13.887z" fill="#fe9738"/></g></g></svg>