<?xml version="1.0" encoding="UTF-8" standalone="no"?>
<svg
   id="Capa_1"
   enable-background="new 0 0 512 512"
   height="512"
   viewBox="0 0 512 512"
   width="512"
   version="1.1"
   sodipodi:docname="funnel-2.svg"
   inkscape:version="1.3.2 (091e20e, 2023-11-25)"
   xmlns:inkscape="http://www.inkscape.org/namespaces/inkscape"
   xmlns:sodipodi="http://sodipodi.sourceforge.net/DTD/sodipodi-0.dtd"
   xmlns="http://www.w3.org/2000/svg"
   xmlns:svg="http://www.w3.org/2000/svg">
  <defs
     id="defs33" />
  <sodipodi:namedview
     id="namedview33"
     pagecolor="#505050"
     bordercolor="#eeeeee"
     borderopacity="1"
     inkscape:showpageshadow="0"
     inkscape:pageopacity="0"
     inkscape:pagecheckerboard="0"
     inkscape:deskcolor="#505050"
     inkscape:zoom="0.34763001"
     inkscape:cx="178.35054"
     inkscape:cy="227.2531"
     inkscape:window-width="1440"
     inkscape:window-height="449"
     inkscape:window-x="0"
     inkscape:window-y="25"
     inkscape:window-maximized="0"
     inkscape:current-layer="Capa_1" />
  <linearGradient
     id="SVGID_1_"
     gradientTransform="matrix(1,0,0,-1,-561.6,-10842.989)"
     gradientUnits="userSpaceOnUse"
     x1="917.182"
     x2="780.182"
     y1="-11308.203"
     y2="-10917.203">
    <stop
       offset="0"
       stop-color="#d2dbfc"
       stop-opacity="0"
       id="stop1" />
    <stop
       offset="1"
       stop-color="#b8c1fb"
       id="stop2" />
  </linearGradient>
  <g
     fill="#2b2ab5"
     opacity="0.11"
     id="g6"
     transform="matrix(1.0656154,0,0,1.0656154,-7.5458133,-16.016357)">
    <circle
       cx="242"
       cy="411.67499"
       r="71.122002"
       id="circle2" />
    <path
       d="m 357.45,294.956 h -12.29 v -38 c 0,-2.761 -2.239,-5 -5,-5 h -15 c -2.761,0 -5,2.239 -5,5 v 38 h -12.289 c -4.445,0 -6.737,5.214 -3.684,8.384 l 24.789,25.737 c 2,2.077 5.368,2.077 7.367,0 l 24.708,-25.653 c 3.059,-3.175 0.809,-8.468 -3.601,-8.468 z"
       id="path3" />
    <path
       d="m 404.45,402.956 h -12.29 v -38 c 0,-2.761 -2.239,-5 -5,-5 h -15 c -2.761,0 -5,2.239 -5,5 v 38 h -12.29 c -4.445,0 -6.737,5.214 -3.684,8.384 l 24.789,25.737 c 2,2.077 5.367,2.077 7.367,0 l 24.789,-25.737 c 3.056,-3.17 0.764,-8.384 -3.681,-8.384 z"
       id="path4" />
    <path
       d="M 175.805,295.956 H 164.16 v -34 h 0.67 c 5.153,0 9.33,-4.177 9.33,-9.33 v -41.422 l 45,16.364 v 60.682 c 0,4.315 2.76,8.139 6.854,9.514 l 24.929,8.34 c 6.493,2.168 13.217,-2.67 13.217,-9.524 v -69.673 l 105.422,-38.42 c 3.955,-1.44 6.578,-5.2 6.578,-9.4 v -80.13 c 0,-5.52 -4.475,-10 -10.012,-10 H 118.283 c -5.598,0 -10.123,4.5 -10.123,10.044 v 74.956 H 80.49 c -5.153,0 -9.33,4.177 -9.33,9.33 v 69.34 c 0,5.153 4.177,9.33 9.33,9.33 h 58.67 v 34 h -12.082 c -4.363,0 -6.624,5.261 -3.616,8.464 l 24.363,25.996 c 1.962,2.099 5.269,2.099 7.241,0 l 24.353,-25.996 c 3.009,-3.203 0.758,-8.465 -3.614,-8.465 z"
       id="path5" />
    <path
       d="M 129.451,402.956 H 117.16 v -38 c 0,-2.761 -2.239,-5 -5,-5 h -15 c -2.762,0 -5,2.239 -5,5 v 38 H 79.87 c -4.445,0 -6.737,5.214 -3.684,8.384 l 24.79,25.737 c 2,2.077 5.368,2.077 7.368,0 l 24.709,-25.653 c 3.058,-3.175 0.807,-8.468 -3.602,-8.468 z"
       id="path6" />
  </g>
  <circle
     cx="269.51419"
     cy="403.48975"
     fill="#ffffff"
     r="75.788696"
     id="circle6"
     style="stroke-width:1.06561" />
  <path
     d="m 412.47716,70.251603 v 85.387767 c 0,4.47557 -2.79511,8.48229 -7.00963,10.01677 l -112.3393,40.94096 v 74.24461 c 0,7.30374 -7.1652,12.45918 -14.08424,10.14892 l -26.56472,-8.88723 c -4.36264,-1.46522 -7.30373,-5.53907 -7.30373,-10.13827 V 206.59602 L 132.83517,165.65509 c -4.21345,-1.53449 -7.00855,-5.5412 -7.00855,-10.01679 V 70.250538 c 0,-5.882198 4.76862,-10.656155 10.66893,-10.656155 h 265.31372 c 5.89926,10e-4 10.66789,4.775022 10.66789,10.65722 z"
     fill="#ffffff"
     id="path7"
     style="stroke-width:1.06561" />
  <path
     d="m 412.47716,70.21111 v 69.30655 H 125.82662 V 70.21111 c 0,-5.85982 4.77075,-10.615661 10.6732,-10.615661 h 265.30519 c 5.90138,0 10.67215,4.755841 10.67215,10.615661 z"
     fill="#6e80f8"
     id="path8"
     style="stroke-width:1.06561" />
  <path
     d="m 322.96547,140.58222 v 23.44354 c 0,2.94216 -2.38592,5.32808 -5.32809,5.32808 h -34.09969 c -2.94323,0 -5.32807,-2.38592 -5.32807,-5.32808 v -23.44354 z"
     fill="#6e80f8"
     id="path9"
     style="stroke-width:1.06561" />
  <path
     d="m 278.20962,59.595449 h 44.75585 V 139.5166 h -44.75585 z"
     fill="#ffffff"
     id="path10"
     style="stroke-width:1.06561" />
  <path
     d="M 412.47716,92.629526 V 70.251603 c 0,-5.885394 -4.77077,-10.656154 -10.65616,-10.656154 H 136.48276 c -5.88539,0 -10.65614,4.77076 -10.65614,10.656154 v 22.377923 z"
     fill="#ffffff"
     id="path11"
     style="stroke-width:1.06561" />
  <circle
     cx="383.87817"
     cy="76.10183"
     fill="#6e80f8"
     r="41.817944"
     id="circle11"
     style="stroke-width:1.06561" />
  <path
     d="m 379.44307,279.11222 v -40.49339 c 0,-2.94216 -2.3859,-5.32807 -5.32806,-5.32807 h -15.98424 c -2.94216,0 -5.32808,2.38591 -5.32808,5.32807 v 40.49339 h -13.09535 c -4.73665,0 -7.17904,5.55612 -3.92573,8.93412 l 26.41555,27.42574 c 2.13123,2.21328 5.72022,2.21328 7.85038,0 l 26.41555,-27.42574 c 3.25331,-3.378 0.81199,-8.93412 -3.92573,-8.93412 z"
     fill="#ffffff"
     id="path12"
     style="stroke-width:1.06561" />
  <path
     d="M 429.527,394.19869 V 353.7053 c 0,-2.94216 -2.38592,-5.32808 -5.32808,-5.32808 h -15.98423 c -2.94217,0 -5.32807,2.38592 -5.32807,5.32808 v 40.49339 H 389.7902 c -4.73666,0 -7.17904,5.55611 -3.92573,8.93411 l 26.41555,27.42574 c 2.13122,2.21329 5.71915,2.21329 7.85038,0 l 26.41554,-27.42574 c 3.25332,-3.378 0.81201,-8.93411 -3.92572,-8.93411 z"
     fill="#ffffff"
     id="path13"
     style="stroke-width:1.06561" />
  <path
     d="m 203.59203,288.04207 -26.41341,27.42255 c -2.1387,2.21329 -5.72556,2.21329 -7.85359,0 l -26.42406,-27.42255 c -3.26292,-3.37906 -0.80988,-8.92878 3.92146,-8.92878 h 13.10388 V 238.6199 c 0,-2.94216 2.38484,-5.32808 5.32807,-5.32808 h 15.9107 c 2.99225,0 5.40161,2.37206 5.40161,5.29611 v 40.52536 h 13.10387 c 4.74306,-9.7e-4 7.18437,5.54972 3.92147,8.92878 z"
     fill="#ffffff"
     id="path14"
     style="stroke-width:1.06561" />
  <path
     d="M 109.84238,394.19869 V 353.7053 c 0,-2.94216 2.38485,-5.32808 5.32808,-5.32808 h 15.98423 c 2.94216,0 5.32807,2.38592 5.32807,5.32808 v 40.49339 h 13.09642 c 4.73666,0 7.17905,5.55611 3.92573,8.93411 l -26.41661,27.42574 c -2.13124,2.21329 -5.72023,2.21329 -7.85145,0 L 92.820238,403.1328 c -3.253324,-3.378 -0.811999,-8.93411 3.925728,-8.93411 z"
     fill="#ffffff"
     id="path15"
     style="stroke-width:1.06561" />
  <path
     d="m 198.28846,160.11494 v 73.88978 c 0,5.49111 -4.45107,9.9422 -9.9422,9.9422 H 97.406645 c -5.491114,0 -9.94219,-4.45109 -9.94219,-9.9422 v -73.88978 c 0,-5.4911 4.451076,-9.94219 9.94219,-9.94219 h 90.939615 c 5.49113,0 9.9422,4.45214 9.9422,9.94219 z"
     fill="#6e80f8"
     id="path16"
     style="stroke-width:1.06561" />
  <path
     d="m 131.37953,181.07561 h -17.6029 c -2.56066,0 -4.91461,-1.71458 -5.41759,-4.22518 -0.68625,-3.42488 1.91385,-6.43098 5.21726,-6.43098 h 17.60289 c 2.56068,0 4.91463,1.71457 5.4176,4.22517 0.68625,3.42488 -1.91385,6.43099 -5.21726,6.43099 z"
     fill="#2b2ab5"
     id="path17"
     style="stroke-width:1.06561" />
  <path
     d="m 198.28846,179.94498 v 54.0608 c 0,5.49112 -4.45107,9.94219 -9.9422,9.94219 H 97.406645 c -5.491114,0 -9.94219,-4.45107 -9.94219,-9.94219 v -16.69819 h 18.832625 c 2.8356,0 5.56464,-1.11037 7.5648,-3.09988 l 14.20998,-14.048 c 2.01188,-1.97778 4.7292,-3.09988 7.57546,-3.09988 h 40.89725 c 1.45564,0 2.87823,-0.29623 4.19427,-0.84609 1.25209,-0.52855 2.39657,-1.2798 3.37054,-2.25271 z"
     fill="#ffffff"
     id="path18"
     style="stroke-width:1.06561" />
  <path
     d="m 286.96151,125.66361 h -64.00938 c -2.56068,0 -4.91463,-1.71459 -5.41759,-4.22517 -0.68626,-3.42489 1.91385,-6.43099 5.21725,-6.43099 h 64.00939 c 2.56068,0 4.91461,1.71457 5.41759,4.22516 0.68625,3.4249 -1.91385,6.431 -5.21726,6.431 z"
     fill="#2b2ab5"
     id="path19"
     style="stroke-width:1.06561" />
  <path
     d="m 286.96151,148.04153 h -17.6029 c -2.56067,0 -4.91462,-1.71459 -5.41759,-4.22517 -0.68626,-3.42489 1.91385,-6.43099 5.21726,-6.43099 h 17.6029 c 2.56068,0 4.91461,1.71458 5.41759,4.22516 0.68625,3.4249 -1.91385,6.431 -5.21726,6.431 z"
     fill="#2b2ab5"
     id="path20"
     style="stroke-width:1.06561" />
  <g
     fill="#6e80f8"
     id="g25"
     transform="matrix(1.0656154,0,0,1.0656154,-7.5458133,-16.016357)">
    <path
       d="m 401.502,220.056 c -3.739,0 -7.479,-1.424 -10.325,-4.271 -5.694,-5.693 -5.694,-14.957 0,-20.65 5.693,-5.693 14.957,-5.693 20.65,0 5.694,5.693 5.694,14.957 0,20.65 -2.847,2.847 -6.586,4.271 -10.325,4.271 z m 0,-19.197 c -1.179,0 -2.357,0.449 -3.255,1.346 -1.794,1.795 -1.794,4.715 0,6.51 1.795,1.793 4.715,1.793 6.51,0 1.794,-1.795 1.794,-4.715 0,-6.51 -0.898,-0.896 -2.076,-1.346 -3.255,-1.346 z"
       id="path21" />
    <path
       d="m 246.245,54.082 c -3.739,0 -7.479,-1.424 -10.325,-4.271 -5.694,-5.693 -5.694,-14.957 0,-20.65 5.693,-5.693 14.957,-5.693 20.65,0 5.694,5.693 5.694,14.957 0,20.65 -2.846,2.847 -6.586,4.271 -10.325,4.271 z m 0,-19.196 c -1.179,0 -2.357,0.449 -3.255,1.346 -1.794,1.795 -1.794,4.715 0,6.51 1.795,1.793 4.715,1.793 6.51,0 1.794,-1.795 1.794,-4.715 0,-6.51 -0.897,-0.897 -2.076,-1.346 -3.255,-1.346 z"
       id="path22" />
    <path
       d="m 113.223,287.956 h -3.062 v -3.063 c 0,-2.404 -1.611,-4.613 -3.968,-5.084 -3.214,-0.642 -6.032,1.797 -6.032,4.897 v 3.25 h -3.063 c -2.404,0 -4.613,1.611 -5.084,3.968 -0.642,3.214 1.797,6.032 4.897,6.032 h 3.25 v 3.063 c 0,2.404 1.61,4.613 3.968,5.084 3.214,0.642 6.032,-1.797 6.032,-4.897 v -3.25 h 3.25 c 3.099,0 5.539,-2.818 4.897,-6.032 -0.472,-2.357 -2.682,-3.968 -5.085,-3.968 z"
       id="path23" />
    <path
       d="m 380.223,437.956 h -3.063 v -3.063 c 0,-2.404 -1.611,-4.613 -3.968,-5.084 -3.214,-0.642 -6.032,1.797 -6.032,4.897 v 3.25 h -3.063 c -2.404,0 -4.613,1.611 -5.084,3.968 -0.642,3.214 1.797,6.032 4.897,6.032 h 3.25 v 3.063 c 0,2.404 1.611,4.613 3.968,5.084 3.214,0.642 6.032,-1.797 6.032,-4.897 v -3.25 h 3.25 c 3.099,0 5.539,-2.818 4.897,-6.032 -0.471,-2.357 -2.68,-3.968 -5.084,-3.968 z"
       id="path24" />
    <path
       d="m 340.223,472.956 h -3.063 v -3.063 c 0,-2.404 -1.611,-4.613 -3.968,-5.084 -3.214,-0.642 -6.032,1.797 -6.032,4.897 v 3.25 h -3.063 c -2.404,0 -4.613,1.611 -5.084,3.968 -0.642,3.214 1.797,6.032 4.897,6.032 h 3.25 v 3.063 c 0,2.404 1.611,4.613 3.968,5.084 3.214,0.642 6.032,-1.797 6.032,-4.897 v -3.25 h 3.25 c 3.099,0 5.539,-2.818 4.897,-6.032 -0.471,-2.357 -2.68,-3.968 -5.084,-3.968 z"
       id="path25" />
  </g>
  <path
     d="m 269.51419,460.9094 c -31.66049,0 -57.41855,-25.75805 -57.41855,-57.41855 0,-31.66049 25.75806,-57.41855 57.41855,-57.41855 31.6605,0 57.41855,25.75806 57.41855,57.41855 0,31.6605 -25.75805,57.41855 -57.41855,57.41855 z m 0,-104.18095 c -25.78469,0 -46.7624,20.97771 -46.7624,46.7624 0,25.78469 20.97771,46.7624 46.7624,46.7624 25.7847,0 46.7624,-20.97771 46.7624,-46.7624 0,-25.78469 -20.9777,-46.7624 -46.7624,-46.7624 z"
     fill="#2b2ab5"
     id="path26"
     style="stroke-width:1.06561" />
  <path
     d="m 276.33733,398.46114 h -1.32456 v -10.65615 h 5.48152 c 2.52978,0 4.807,-1.84778 5.02438,-4.36796 0.24616,-2.842 -1.9863,-5.22257 -4.77609,-5.22257 h -5.72981 v -2.05771 c 0,-2.56707 -1.7231,-4.92954 -4.24222,-5.42079 -3.41849,-0.66601 -6.41394,1.90106 -6.41394,5.16078 v 2.31664 h -1.02831 c -7.9431,0 -14.93887,5.79589 -15.82759,13.68783 -1.04856,9.30602 6.32442,17.21502 15.53134,17.21502 h 1.32456 v 9.59054 h -6.16778 c -2.56174,0 -4.91568,1.71671 -5.41759,4.22836 -0.68412,3.4249 1.91491,6.42779 5.21832,6.42779 h 6.36705 v 2.05771 c 0,2.56707 1.7231,4.92954 4.24222,5.42079 3.41956,0.66601 6.41394,-1.90107 6.41394,-5.16184 v -2.31666 h 1.02724 c 7.94205,0 14.9378,-5.79481 15.82653,-13.68677 1.04964,-9.30494 -6.32337,-17.21501 -15.52921,-17.21501 z m -13.25733,0 c -2.79084,0 -5.03184,-2.3955 -4.77609,-5.23749 0.22698,-2.51486 2.50421,-4.35304 5.02864,-4.35304 h 1.02406 v 9.59053 z m 12.95789,20.2467 h -1.02512 v -9.59055 h 1.2766 c 2.78872,0 5.02971,2.39445 4.77504,5.23538 -0.22485,2.51592 -2.50208,4.35517 -5.02652,4.35517 z"
     fill="#2b2ab5"
     id="path27"
     style="stroke-width:1.06561" />
  <g
     fill="#2b2ab5"
     id="g32"
     transform="matrix(1.0656154,0,0,1.0656154,-7.5458133,-16.016357)">
    <path
       d="m 260,317.554 c -41.974,0 -76.122,34.148 -76.122,76.122 0,41.974 34.148,76.121 76.122,76.121 41.974,0 76.122,-34.147 76.122,-76.121 0,-41.974 -34.148,-76.122 -76.122,-76.122 z m 0,142.243 c -36.46,0 -66.122,-29.662 -66.122,-66.121 0,-36.46 29.662,-66.122 66.122,-66.122 36.46,0 66.122,29.662 66.122,66.122 0,36.459 -29.662,66.121 -66.122,66.121 z"
       id="path28" />
    <path
       d="m 384.886,284.487 c 1.359,-7.123 -3.793,-12.531 -9.833,-12.531 h -6.892 v -33 c 0,-5.523 -4.477,-10 -10,-10 h -15 c -5.523,0 -10,4.477 -10,10 v 33 h -7.946 c -1.469,0 -2.929,0.378 -4.164,1.173 -6.077,3.914 -6.461,11.349 -2.321,15.734 l 24.518,25.953 c 1.885,1.995 4.54,3.139 7.285,3.139 h 0.002 c 2.745,0 5.401,-1.144 7.287,-3.139 l 25.079,-26.548 c 0.996,-1.053 1.713,-2.357 1.985,-3.781 z m -34.226,23.207 -25.016,-25.737 h 12.516 c 2.761,0 5,-2.239 5,-5 v -38 h 15 v 38 c 0,2.761 2.239,5 5,5 h 12.516 z"
       id="path29" />
    <path
       d="m 423.189,379.956 h -8.028 v -35.458 c 0,-4.165 -3.377,-7.542 -7.542,-7.542 h -19.916 c -4.165,0 -7.542,3.377 -7.542,7.542 v 35.458 h -8.027 c -1.465,0 -2.921,0.373 -4.159,1.156 -6.13,3.879 -6.521,11.261 -2.347,15.611 l 24.694,25.736 c 1.898,1.98 4.573,3.115 7.34,3.115 2.764,0 5.441,-1.135 7.339,-3.114 l 24.694,-25.737 c 4.174,-4.35 3.781,-11.73 -2.345,-15.61 -1.24,-0.783 -2.697,-1.157 -4.161,-1.157 z m -25.528,35.738 -25.014,-25.737 h 12.514 c 2.761,0 5,-2.239 5,-5 v -38 h 15 v 38 c 0,2.761 2.239,5 5,5 h 12.514 z"
       id="path30" />
    <path
       d="m 202.938,279.035 c -1.576,-3.692 -5.167,-6.078 -9.148,-6.078 h -6.63 v -24.362 c 3.605,-1.026 6.625,-3.591 8.371,-7.007 1.039,-2.031 1.629,-4.357 1.629,-6.827 V 199.91 l 35,12.771 v 57.566 c 0,6.479 4.128,12.213 10.271,14.266 l 24.912,8.335 c 1.589,0.532 3.213,0.794 4.821,0.794 3.431,0 6.79,-1.193 9.584,-3.502 3.519,-2.909 5.412,-7.347 5.412,-11.912 V 212.4 l 102.132,-37.224 c 5.903,-2.152 9.868,-7.815 9.868,-14.092 v -44.359 c 8.552,-8.942 13.412,-21.437 12.061,-35.024 -2.035,-20.463 -18.268,-37.014 -38.689,-39.432 -19.346,-2.291 -36.617,7.972 -44.746,23.687 h -52.325 c -2.403,0 -4.612,1.61 -5.084,3.966 -0.644,3.215 1.799,6.034 4.902,6.034 h 49.463 c -0.782,3.341 -1.209,6.821 -1.209,10.402 0,3.651 0.441,7.197 1.253,10.598 H 131.16 v -16 c 0,-2.761 2.238,-5 5,-5 h 111.557 c 2.404,0 4.613,-1.611 5.084,-3.968 0.642,-3.214 -1.798,-6.032 -4.897,-6.032 H 136.16 c -8.284,0 -15,6.716 -15,15 v 70 H 98.67 c -8.001,0 -14.51,6.457 -14.51,14.393 l -0.002,69.193 c 0,7.947 6.404,14.414 14.274,14.414 h 53.728 v 24 h -6.737 c -3.271,0 -6.464,1.426 -8.378,4.078 -2.918,4.043 -2.47,9.418 0.776,12.888 l 24.364,26.042 c 1.874,2.003 4.512,3.151 7.241,3.151 2.728,0 5.368,-1.149 7.242,-3.151 l 24.364,-26.042 c 2.733,-2.922 3.481,-7.196 1.906,-10.887 z m -14.779,-44.392 c 0,0.594 -0.122,1.161 -0.342,1.677 -0.662,1.547 -2.209,2.636 -4.007,2.636 H 98.491 c -2.392,0 -4.331,-1.939 -4.331,-4.331 v -10.669 h 12.505 c 3.933,0 7.773,-1.592 10.527,-4.363 l 13.173,-13.173 c 0.949,-0.944 2.202,-1.464 3.527,-1.464 h 38.877 c 2.025,0 4.007,-0.4 5.912,-1.198 1.808,-0.767 3.412,-1.845 4.742,-3.182 l 4.737,-4.698 v 38.764 h -0.001 z M 367.321,52.203 c 18.882,0 34.243,15.361 34.243,34.243 0,18.881 -15.361,34.242 -34.243,34.242 -18.882,0 -34.243,-15.361 -34.243,-34.242 0,-18.882 15.361,-34.243 34.243,-34.243 z M 98.545,160.956 h 27.615 c 2.762,0 5,-2.239 5,-5 v -49 h 196.735 c 7.401,14.137 22.221,23.813 39.268,23.813 8.003,0 15.51,-2.142 21.997,-5.866 v 36.516 c 0,2.092 -1.321,3.98 -3.29,4.697 l -105.42,38.423 c -1.976,0.72 -3.29,2.597 -3.29,4.697 v 69.204 c 0,1.319 -0.433,2.636 -1.346,3.588 -1.415,1.476 -3.412,1.951 -5.271,1.334 l -24.971,-8.355 c -2.038,-0.682 -3.412,-2.59 -3.412,-4.74 V 209.19 c 0,-2.108 -1.318,-3.991 -3.297,-4.713 L 197.16,189.26 v -24.094 c 0,0 -5.857,-14.33 -13.759,-14.209 H 154.05 c -2.762,-0.121 -5,2.117 -5,4.879 0,2.762 2.238,5 5,5.121 h 29.35 c 2.388,-0.121 4.76,4.209 4.76,4.209 V 181.8 l -11.865,11.724 c -0.434,0.435 -0.96,0.783 -1.544,1.03 -0.641,0.268 -1.308,0.403 -1.984,0.403 H 134.37 c -4.014,0 -7.799,1.547 -10.663,4.363 l -13.351,13.192 c -0.924,0.919 -2.215,1.445 -3.541,1.445 H 94.16 v -48.664 c 0,-2.393 1.967,-4.337 4.385,-4.337 z m 71.116,147.998 -25.014,-25.997 h 12.514 c 2.761,0 5,-2.239 5,-5 v -29 h 15 v 29 c 0,2.761 2.238,5 5,5 h 12.514 z"
       id="path31" />
    <path
       d="m 147.051,379.956 h -6.891 v -33 c 0,-5.523 -4.477,-10 -10,-10 h -15 c -5.523,0 -10,4.477 -10,10 v 33 h -7.946 c -1.468,0 -2.929,0.378 -4.164,1.173 -6.077,3.914 -6.461,11.349 -2.321,15.734 l 24.517,25.951 c 1.884,1.996 4.54,3.142 7.285,3.142 h 0.002 c 2.744,0 5.401,-1.145 7.287,-3.14 l 25.081,-26.549 c 0.996,-1.055 1.714,-2.36 1.985,-3.786 1.353,-7.12 -3.794,-12.525 -9.835,-12.525 z M 122.66,415.694 97.644,389.957 h 12.516 c 2.761,0 5,-2.239 5,-5 v -38 h 15 v 38 c 0,2.761 2.238,5 5,5 h 12.516 z"
       id="path32" />
  </g>
  <path
     d="m 383.8771,93.430863 c -1.41408,0 -2.7706,-0.561573 -3.76908,-1.562178 L 367.94189,79.69189 c -2.08009,-2.081148 -2.07795,-5.454886 0.003,-7.534967 2.08115,-2.080081 5.45381,-2.080081 7.53495,0.0031 l 8.39812,8.405574 42.53617,-42.544695 c 2.08115,-2.081147 5.45383,-2.080081 7.53498,-10e-4 2.08113,2.081147 2.08113,5.45382 9.6e-4,7.534966 l -46.30484,46.314853 c -0.99848,0.999551 -2.35501,1.561124 -3.76802,1.561124 z"
     fill="#ffffff"
     id="path33"
     style="stroke-width:1.06561" />
</svg>
