<svg id="Capa_1" enable-background="new 0 0 512 512" height="512" viewBox="0 0 512 512" width="512" xmlns="http://www.w3.org/2000/svg"><g><g><path d="m497 272h-482c-8.291 0-15-6.709-15-15s6.709-15 15-15h482c8.291 0 15 6.709 15 15s-6.709 15-15 15z" fill="#b2c8f3"/></g><path d="m497 242h-241v30h241c8.291 0 15-6.709 15-15s-6.709-15-15-15z" fill="#a1b8e6"/><g><path d="m76 512c-24.814 0-45-20.186-45-45v-240c0-24.814 20.186-45 45-45s45 20.186 45 45v240c0 24.814-20.186 45-45 45z" fill="#f2fbff"/></g><g><path d="m196 512c-24.814 0-45-20.186-45-45v-240c0-24.814 20.186-45 45-45s45 20.186 45 45v240c0 24.814-20.186 45-45 45z" fill="#f2fbff"/></g><g><path d="m316 512c-24.814 0-45-20.186-45-45v-240c0-24.814 20.186-45 45-45s45 20.186 45 45v240c0 24.814-20.186 45-45 45z" fill="#f2fbff"/></g><g><path d="m436 512c-24.814 0-45-20.186-45-45v-240c0-24.814 20.186-45 45-45s45 20.186 45 45v240c0 24.814-20.186 45-45 45z" fill="#f2fbff"/></g><g id="Air_Conditioning_5_"><g><path d="m245.395 145.605c-5.859-5.845-5.859-15.352 0-21.211 13.77-13.77 13.77-25.02 0-38.789-25.4-25.43-25.4-55.781 0-81.211 5.859-5.859 15.352-5.859 21.211 0 5.859 5.845 5.859 15.352 0 21.211-13.77 13.77-13.77 25.02 0 38.789 25.4 25.43 25.4 55.781 0 81.211-5.86 5.86-15.352 5.86-21.211 0z" fill="#f98845"/></g><g><path d="m395.395 145.605c-5.859-5.845-5.859-15.352 0-21.211 13.77-13.77 13.77-25.02 0-38.789-25.4-25.43-25.4-55.781 0-81.211 5.859-5.859 15.352-5.859 21.211 0 5.859 5.845 5.859 15.352 0 21.211-13.77 13.77-13.77 25.02 0 38.789 25.4 25.43 25.4 55.781 0 81.211-5.86 5.86-15.352 5.86-21.211 0z" fill="#ec4c36"/></g><g><path d="m95.395 145.605c-5.859-5.845-5.859-15.352 0-21.211 13.77-13.77 13.77-25.02 0-38.789-25.4-25.43-25.4-55.781 0-81.211 5.859-5.859 15.352-5.859 21.211 0 5.859 5.845 5.859 15.352 0 21.211-13.77 13.77-13.77 25.02 0 38.789 25.4 25.43 25.4 55.781 0 81.211-5.86 5.86-15.352 5.86-21.211 0z" fill="#f98845"/></g><g><path d="m320.629 145.605c-5.859-5.845-5.859-15.352 0-21.211 6.943-6.943 10.43-13.521 10.371-19.556-.059-5.933-3.545-12.407-10.371-19.233-25.4-25.43-25.4-55.781 0-81.211 5.859-5.859 15.352-5.859 21.211 0 5.859 5.845 5.859 15.352 0 21.211-13.77 13.77-13.77 25.02 0 38.789 12.568 12.568 19.014 26.089 19.16 40.166.146 14.385-6.299 28.184-19.16 41.045-5.859 5.86-15.352 5.86-21.211 0z" fill="#ec4c36"/></g><g><path d="m170.16 145.605c-5.859-5.845-5.859-15.352 0-21.211 13.77-13.77 13.77-25.02 0-38.789-12.861-12.861-19.307-26.66-19.16-41.045.146-14.077 6.592-27.598 19.16-40.166 5.859-5.859 15.352-5.859 21.211 0s5.859 15.366 0 21.211c-6.826 6.826-10.312 13.301-10.371 19.233-.059 6.035 3.428 12.612 10.371 19.556 25.4 25.43 25.4 55.781 0 81.211-5.859 5.86-15.351 5.86-21.211 0z" fill="#f98845"/></g></g><path d="m266.605 145.605c25.4-25.43 25.4-55.781 0-81.211-13.77-13.77-13.77-25.02 0-38.789 5.859-5.859 5.859-15.366 0-21.211-2.929-2.929-6.767-4.394-10.605-4.394v150c3.838 0 7.676-1.465 10.605-4.395z" fill="#ec4c36"/></g><g fill="#cfe1f3"><path d="m481 467v-240c0-24.814-20.186-45-45-45v330c24.814 0 45-20.186 45-45z"/><path d="m361 467v-240c0-24.814-20.186-45-45-45v330c24.814 0 45-20.186 45-45z"/><path d="m241 467v-240c0-24.814-20.186-45-45-45v330c24.814 0 45-20.186 45-45z"/><path d="m121 467v-240c0-24.814-20.186-45-45-45v330c24.814 0 45-20.186 45-45z"/></g></svg>