<svg height="512" viewBox="0 0 58 58" width="512" xmlns="http://www.w3.org/2000/svg"><g id="Page-1" fill="none" fill-rule="evenodd"><g id="022---Radiators" fill-rule="nonzero" transform="translate(0 -1)"><path id="Shape" d="m52 25.79v32.21c0 .5522847-.4477153 1-1 1h-44c-.55228475 0-1-.4477153-1-1v-32.21l23-19.08z" fill="#f5efca"/><path id="Shape" d="m45 14.97v-6.97c0-.55228475.4477153-1 1-1h5c.5522847 0 1 .44771525 1 1v12.78z" fill="#c03a2b"/><path id="Shape" d="m52 25.79v4.1l-1.27-1.06-21.73-18.02-21.72 18.02-1.28 1.05v-4.09l23-19.08z" fill="#e4c05c"/><path id="Shape" d="m57.74 25.9-2.49 2.82c-.3609645.4102397-.9843919.4547703-1.4.1l-1.85-1.53-23-19.08-23 19.08-1.85 1.53c-.41560805.3547703-1.03903552.3102397-1.4-.1l-2.49-2.82c-.18520367-.2035065-.27836728-.4743351-.25755257-.7487109.02081471-.2743757.15376824-.5280506.36755257-.7012891l27.98-23.22c.3779117-.30994217.9220883-.30994217 1.3 0l27.98 23.22c.2137843.1732385.3467379.4269134.3675526.7012891.0208147.2743758-.0723489.5452044-.2575526.7487109z" fill="#e64c3c"/><path id="Shape" d="m18 50h6v3c0 1.1045695-.8954305 2-2 2h-2c-1.1045695 0-2-.8954305-2-2z" fill="#bdc3c7"/><path id="Shape" d="m34 50h6v3c0 1.1045695-.8954305 2-2 2h-2c-1.1045695 0-2-.8954305-2-2z" fill="#bdc3c7"/><rect id="Rectangle-path" fill="#fff" height="19" rx="4" width="30" x="14" y="32"/><g fill="#bdc3c7"><path id="Shape" d="m19 47c-.5522847 0-1-.4477153-1-1v-9c0-.5522847.4477153-1 1-1s1 .4477153 1 1v9c0 .5522847-.4477153 1-1 1z"/><path id="Shape" d="m24 47c-.5522847 0-1-.4477153-1-1v-9c0-.5522847.4477153-1 1-1s1 .4477153 1 1v9c0 .5522847-.4477153 1-1 1z"/><path id="Shape" d="m29 47c-.5522847 0-1-.4477153-1-1v-9c0-.5522847.4477153-1 1-1s1 .4477153 1 1v9c0 .5522847-.4477153 1-1 1z"/><path id="Shape" d="m34 47c-.5522847 0-1-.4477153-1-1v-9c0-.5522847.4477153-1 1-1s1 .4477153 1 1v9c0 .5522847-.4477153 1-1 1z"/><path id="Shape" d="m39 47c-.5522847 0-1-.4477153-1-1v-9c0-.5522847.4477153-1 1-1s1 .4477153 1 1v9c0 .5522847-.4477153 1-1 1z"/></g><g fill="#e64c3c"><path id="Shape" d="m29 29c-.5522847 0-1-.4477153-1-1 .0066363-.705428-.2755433-1.3828758-.781-1.875-1.6253757-1.7663118-1.6253757-4.4836882 0-6.25.5054567-.4921242.7876363-1.169572.781-1.875 0-.5522847.4477153-1 1-1s1 .4477153 1 1c.0088131 1.1593295-.4275017 2.2778559-1.219 3.125-.4999069.495883-.7810925 1.1708644-.7810925 1.875s.2811856 1.379117.7810925 1.875c.7914983.8471441 1.2278131 1.9656705 1.219 3.125 0 .5522847-.4477153 1-1 1z"/><path id="Shape" d="m24 29c-.5522847 0-1-.4477153-1-1 .0066363-.705428-.2755433-1.3828758-.781-1.875-1.6253757-1.7663118-1.6253757-4.4836882 0-6.25.5054567-.4921242.7876363-1.169572.781-1.875 0-.5522847.4477153-1 1-1s1 .4477153 1 1c.0088131 1.1593295-.4275017 2.2778559-1.219 3.125-.4999069.495883-.7810925 1.1708644-.7810925 1.875s.2811856 1.379117.7810925 1.875c.7914983.8471441 1.2278131 1.9656705 1.219 3.125 0 .5522847-.4477153 1-1 1z"/><path id="Shape" d="m34 29c-.5522847 0-1-.4477153-1-1 .0066363-.705428-.2755433-1.3828758-.781-1.875-1.6253757-1.7663118-1.6253757-4.4836882 0-6.25.5054567-.4921242.7876363-1.169572.781-1.875 0-.5522847.4477153-1 1-1s1 .4477153 1 1c.0088131 1.1593295-.4275017 2.2778559-1.219 3.125-.4999069.495883-.7810925 1.1708644-.7810925 1.875s.2811856 1.379117.7810925 1.875c.7914983.8471441 1.2278131 1.9656705 1.219 3.125 0 .5522847-.4477153 1-1 1z"/></g></g></g></svg>