<?xml version="1.0" encoding="iso-8859-1"?>
<!-- Generator: Adobe Illustrator 19.0.0, SVG Export Plug-In . SVG Version: 6.00 Build 0)  -->
<svg version="1.1" id="Capa_1" xmlns="http://www.w3.org/2000/svg" xmlns:xlink="http://www.w3.org/1999/xlink" x="0px" y="0px"
	 viewBox="0 0 504.123 504.123" style="enable-background:new 0 0 504.123 504.123;" xml:space="preserve">
<circle style="fill:#E0E4E8;" cx="251.668" cy="251.274" r="251.274"/>
<circle style="fill:#FFFFFF;" cx="264.271" cy="238.671" r="56.714"/>
<path style="fill:#183651;" d="M264.271,304.049c-35.446,0-64.591-29.145-64.591-64.591s29.145-64.591,64.591-64.591
	s64.591,29.145,64.591,64.591S299.717,304.049,264.271,304.049z M264.271,189.834c-26.782,0-48.837,22.055-48.837,48.837
	c0,26.782,22.055,48.837,48.837,48.837s48.837-22.055,48.837-48.837S291.052,189.834,264.271,189.834z"/>
<path style="fill:#FBBD5E;" d="M264.271,296.172c-62.228,0-112.64,50.412-112.64,112.64h225.28
	C376.911,346.585,326.498,296.172,264.271,296.172z"/>
<g>
	<path style="fill:#183651;" d="M376.911,415.902h-225.28c-4.726,0-7.877-3.151-7.877-7.877
		c0-66.166,54.351-120.517,120.517-120.517s120.517,54.351,120.517,120.517C384.788,412.751,380.849,415.902,376.911,415.902z
		 M159.508,400.148h208.738c-3.938-54.351-49.625-96.886-103.975-96.886S164.234,346.585,159.508,400.148z"/>
	<rect x="179.988" y="33.871" style="fill:#183651;" width="15.754" height="15.754"/>
	<rect x="243.791" y="33.871" style="fill:#183651;" width="15.754" height="15.754"/>
	<rect x="306.806" y="33.871" style="fill:#183651;" width="15.754" height="15.754"/>
	<rect x="179.988" y="448.985" style="fill:#183651;" width="15.754" height="15.754"/>
	<rect x="243.791" y="448.985" style="fill:#183651;" width="15.754" height="15.754"/>
	<rect x="306.806" y="448.985" style="fill:#183651;" width="15.754" height="15.754"/>
	<rect x="450.954" y="178.018" style="fill:#183651;" width="15.754" height="15.754"/>
	<rect x="450.954" y="241.822" style="fill:#183651;" width="15.754" height="15.754"/>
	<rect x="450.954" y="305.625" style="fill:#183651;" width="15.754" height="15.754"/>
	<rect x="35.84" y="178.018" style="fill:#183651;" width="15.754" height="15.754"/>
	<rect x="35.84" y="241.822" style="fill:#183651;" width="15.754" height="15.754"/>
	<rect x="35.84" y="305.625" style="fill:#183651;" width="15.754" height="15.754"/>
</g>
<path style="fill:#FFFFFF;" d="M187.077,352.098L80.738,478.917c-14.966,18.117-42.535,18.905-59.077,2.363
	s-15.754-43.323,2.363-59.077l126.818-107.126C160.295,330.043,172.898,342.646,187.077,352.098z"/>
<g>
	<path style="fill:#183651;" d="M16.148,486.794c-19.692-19.692-18.117-51.988,3.151-70.105l126.031-107.126
		c1.575-1.575,3.938-2.363,6.302-1.575c2.363,0,3.938,1.575,5.514,3.151c9.452,13.391,20.48,25.206,34.658,34.658
		c1.575,1.575,3.151,3.151,3.151,5.514s0,4.726-1.575,6.302L86.252,483.643C68.923,504.911,35.84,506.486,16.148,486.794z
		 M149.268,326.892L29.538,428.505c-14.178,11.815-14.966,33.871-2.363,47.262c13.391,13.391,35.446,12.603,47.262-2.363
		l101.612-120.517C165.809,345.797,157.145,337.132,149.268,326.892z"/>
	<path style="fill:#183651;" d="M264.271,383.606c-38.597,0-74.831-14.966-102.4-42.535c-27.569-27.569-42.535-63.803-42.535-102.4
		s14.966-74.831,42.535-102.4s63.803-42.535,102.4-42.535c38.597,0,74.831,14.966,102.4,42.535
		c56.714,56.714,56.714,148.086,0,204.8C339.102,368.64,302.868,383.606,264.271,383.606z M264.271,109.489
		c-34.658,0-66.954,13.391-91.372,37.809s-37.809,56.714-37.809,91.372s13.391,66.954,37.809,91.372s56.714,37.809,91.372,37.809
		s66.954-13.391,91.372-37.809c50.412-50.412,50.412-132.332,0-182.745C331.225,122.88,298.929,109.489,264.271,109.489z"/>
</g>
<circle style="fill:#FFFFFF;" cx="75.225" cy="41.748" r="33.871"/>
<path style="fill:#183651;" d="M75.225,83.495c-22.843,0-41.748-18.905-41.748-41.748S52.382,0,75.225,0
	s41.748,18.905,41.748,41.748C116.972,64.591,98.855,83.495,75.225,83.495z M75.225,15.754c-14.178,0-25.994,11.815-25.994,25.994
	s11.815,25.994,25.994,25.994s25.994-11.815,25.994-25.994S90.191,15.754,75.225,15.754z"/>
<path style="fill:#2EA0DA;" d="M75.225,75.618c-37.022,0-66.954,29.932-66.954,66.954h133.908
	C142.966,105.551,112.246,75.618,75.225,75.618z"/>
<path style="fill:#183651;" d="M142.966,150.449H9.058c-4.726,0-7.877-3.151-7.877-7.877c0-40.96,33.871-74.831,74.831-74.831
	s74.831,33.871,74.831,74.831C150.843,147.298,146.905,150.449,142.966,150.449z M16.935,134.695h117.366
	c-3.938-29.145-28.357-51.2-59.077-51.2S20.874,105.551,16.935,134.695z"/>
<circle style="fill:#FFFFFF;" cx="428.111" cy="395.422" r="33.871"/>
<path style="fill:#183651;" d="M428.111,437.169c-22.843,0-41.748-18.905-41.748-41.748c0-22.843,18.905-41.748,41.748-41.748
	c22.843,0,41.748,18.905,41.748,41.748C469.858,418.265,451.742,437.169,428.111,437.169z M428.111,369.428
	c-14.178,0-25.994,11.815-25.994,25.994c0,14.178,11.815,25.994,25.994,25.994s25.994-11.815,25.994-25.994
	C454.105,381.243,443.077,369.428,428.111,369.428z"/>
<path style="fill:#4FBF9F;" d="M428.111,429.292c-37.022,0-66.954,29.932-66.954,66.954h133.908
	C495.852,459.225,465.132,429.292,428.111,429.292z"/>
<path style="fill:#183651;" d="M495.852,504.123H361.945c-4.726,0-7.877-3.151-7.877-7.877c0-40.96,33.871-74.831,74.831-74.831
	s74.831,33.871,74.831,74.831C503.729,500.972,499.791,504.123,495.852,504.123z M369.822,488.369h117.366
	c-3.938-29.145-28.357-51.2-59.077-51.2S373.76,459.225,369.822,488.369z"/>
<circle style="fill:#FFFFFF;" cx="428.111" cy="41.748" r="33.871"/>
<path style="fill:#183651;" d="M428.111,83.495c-22.843,0-41.748-18.905-41.748-41.748S405.268,0,428.111,0
	c22.843,0,41.748,18.905,41.748,41.748S451.742,83.495,428.111,83.495z M428.111,15.754c-14.178,0-25.994,11.815-25.994,25.994
	s11.815,25.994,25.994,25.994s25.994-11.815,25.994-25.994S443.077,15.754,428.111,15.754z"/>
<path style="fill:#F06151;" d="M428.111,75.618c-37.022,0-66.954,29.932-66.954,66.954h133.908
	C495.852,105.551,465.132,75.618,428.111,75.618z"/>
<g>
	<path style="fill:#183651;" d="M495.852,150.449H361.945c-4.726,0-7.877-3.151-7.877-7.877c0-40.96,33.871-74.831,74.831-74.831
		s74.831,33.871,74.831,74.831C503.729,147.298,499.791,150.449,495.852,150.449z M369.822,134.695h117.366
		c-3.938-29.145-28.357-51.2-59.077-51.2S373.76,105.551,369.822,134.695z"/>
	
		<rect x="51.73" y="435.907" transform="matrix(-0.7071 -0.7071 0.7071 -0.7071 -212.0481 799.7352)" style="fill:#183651;" width="15.754" height="15.754"/>
	
		<rect x="82.319" y="404.88" transform="matrix(-0.7071 -0.7071 0.7071 -0.7071 -137.8898 768.3982)" style="fill:#183651;" width="15.754" height="15.754"/>
	
		<rect x="112.916" y="373.869" transform="matrix(-0.7071 -0.7071 0.7071 -0.7071 -63.7291 737.0936)" style="fill:#183651;" width="15.754" height="15.754"/>
</g>
<g>
</g>
<g>
</g>
<g>
</g>
<g>
</g>
<g>
</g>
<g>
</g>
<g>
</g>
<g>
</g>
<g>
</g>
<g>
</g>
<g>
</g>
<g>
</g>
<g>
</g>
<g>
</g>
<g>
</g>
</svg>
