<svg clip-rule="evenodd" fill-rule="evenodd" height="256" image-rendering="optimizeQuality" shape-rendering="geometricPrecision" text-rendering="geometricPrecision" viewBox="0 0 94309 94309" width="256" xmlns="http://www.w3.org/2000/svg"><path d="m0 0h94309v94309h-94309z" fill="none"/><g id="Layer_x0020_1"><path d="m13789 86131h4729c5409 0 5409-8177 0-8177h-12811c-5409 0-5409-8177 0-8177h12551c5409 0 5409-8178 0-8178h-4507c-5410 0-5410-8177 0-8177h22451 7987 12175c5409 0 5409 8177 0 8177h-2254c-5409 0-5409 8178 0 8178h6145c5409 0 5409 8177 0 8177h-6405c-5410 0-5410 8177 0 8177h1969c5409 0 5409 8178 0 8178h-11630-7987-22413c-5409 0-5409-8178 0-8178z" fill="#e6e6e6"/><path d="m38256 53421h42110c5409 0 5409 8178 0 8178h-4199c-5715 0-6220 8177 626 8177h11809c5409 0 5408 8178 0 8178h-17012c-5409 0-5409 8177 0 8177h4117c5409 0 5409 8178 0 8178h-37451-2256c-5409 0-5409-8178 0-8178h2256c5445 0 5672-8177 0-8177h-9631c-5409 0-5409-8177 0-8177h6980c5989 184 6698-8178 0-8178h-4264c-5410 0-5410-8177 0-8177h6915zm47383 32710h-24c-2249 0-4089 1840-4089 4089 0 2249 1840 4089 4089 4089h24c2249 0 4089-1840 4089-4089 0-2249-1840-4089-4089-4089z" fill="#c2c2c2"/><path d="m3494 88100 876 876m2388-876-876 876m-1512 1511-876 877m2388-877 876 877" fill="none" stroke="#105286" stroke-width="1473.57"/><path d="m36204 47483h2650v-5250c-1660-1656-3279-3185-3734-5638-495-2665-911-8160-967-14864-132-16073 26135-16073 26002 0-55 6704-471 12199-966 14864-456 2453-2074 3982-3734 5638v5250h2650c8003 0 14551 6548 14551 14551v12251c0 4400-3600 8000-8000 8000h-35003c-4400 0-8000-3600-8000-8000v-12251c0-8003 6548-14551 14551-14551z" fill="#ff8527"/><path d="m36204 47483c7406 10317 14466 10643 21901 0 8003 0 14551 6548 14551 14551v12251c0 4400-3600 8000-8000 8000h-35003c-4400 0-8000-3600-8000-8000v-12251c0-8003 6548-14551 14551-14551z" fill="#ffd027"/><path d="m34218 25261 140 179s5736-4542 5952-9128c0 0 8742 12156 19773 5889 23-13 45-27 68-40l4-430c133-16073-26134-16073-26002 0 10 1220 32 2400 65 3530z" fill="#4d4d4d"/><path d="m21653 74285v-12251c0-8003 6548-14551 14551-14551h2650v-5250c-1660-1656-3279-3185-3734-5638-495-2665-911-8160-967-14864-132-16073 26135-16073 26002 0-55 6704-471 12199-966 14864-456 2453-2074 3982-3734 5638v5250h2650c8003 0 14551 6548 14551 14551" fill="none" stroke="#105286" stroke-width="1473.57"/><path d="m38854 42233s7524 10501 16601 0" fill="none" stroke="#105286" stroke-width="1473.57"/><path d="m47174 88655-5729-5056 3470-28412h4519l3470 28412z" fill="#fff"/><path d="m47174 85480 3248-2689-2820-25435h-856l-2819 25435z" fill="#ff576b"/><path d="m47174 88655-5729-5056 3470-28412h4519l3470 28412z" fill="none" stroke="#105286" stroke-width="1473.57"/><g id="_705478456"><g><path d="m28447 24694 3082-135 451 10259-3083 136c-1695 74-3143-1252-3217-2947l-180-4095c-75-1695 1251-3143 2947-3218z" fill="#fff"/><path d="m28447 24694 3082-135 451 10259-3083 136c-1695 74-3143-1252-3217-2947l-180-4095c-75-1695 1251-3143 2947-3218z" fill="none" stroke="#105286" stroke-linecap="round" stroke-linejoin="round" stroke-width="1473.57"/><path d="m30293 33274-309-7029-1467 65c-803 35-1437 728-1402 1531l180 4095c36 803 728 1437 1531 1402z" fill="#ff576b"/></g><g><path d="m65862 24694-3082-135-451 10259 3082 136c1696 74 3144-1252 3218-2947l180-4095c74-1695-1252-3143-2947-3218z" fill="#fff"/><path d="m65862 24694-3082-135-451 10259 3082 136c1696 74 3144-1252 3218-2947l180-4095c74-1695-1252-3143-2947-3218z" fill="none" stroke="#105286" stroke-linecap="round" stroke-linejoin="round" stroke-width="1473.57"/><path d="m64016 33274 308-7029 1467 65c804 35 1438 728 1402 1531l-180 4095c-35 803-727 1437-1531 1402z" fill="#ff576b"/></g></g><path d="m29588 24644 40-4483c174-19433 34879-19433 35053 0l40 4483" fill="none" stroke="#105286" stroke-width="1473.57"/><path d="m65561 31631s-598 3963-3361 6444c-2763 2482-11328 3042-11328 3042" fill="none" stroke="#105286" stroke-linejoin="round" stroke-width="1473.57"/><circle cx="48715" cy="41117" fill="#fff" r="2157"/><circle cx="48715" cy="41117" fill="none" r="2157" stroke="#105286" stroke-width="1473.57"/><path d="m14182 30639c-5333 0-9656 4323-9656 9655 0 1598 389 3104 1075 4432l-2246 5440 6215-1387c1371 746 2942 1171 4612 1171 5332 0 9655-4323 9655-9656 0-5332-4323-9655-9655-9655z" fill="#fff"/><path d="m14182 30639c-5333 0-9656 4323-9656 9655 0 1598 389 3104 1075 4432l-2246 5440 6215-1387c1371 746 2942 1171 4612 1171 5332 0 9655-4323 9655-9656 0-5332-4323-9655-9655-9655z" fill="none" stroke="#105286" stroke-width="1473.57"/><circle cx="14141" cy="40410" fill="#ff576b" r="7892"/><g id="_705473440"><path d="m86538 52943c-4467 2913-10449 1654-13362-2812-873-1339-1371-2813-1520-4300l-4853-3329 5963-2234c740-1374 1824-2587 3223-3499 4466-2913 10449-1654 13362 2813 2913 4466 1653 10448-2813 13361z" fill="#fff"/><path d="m86538 52943c-4467 2913-10449 1654-13362-2812-873-1339-1371-2813-1520-4300l-4853-3329 5963-2234c740-1374 1824-2587 3223-3499 4466-2913 10449-1654 13362 2813 2913 4466 1653 10448-2813 13361z" fill="none" stroke="#105286" stroke-width="1473.57"/><circle fill="#00dcab" r="9132" transform="matrix(-.724 .472 -.472 -.724 81165.3 44781)"/></g><path d="m81379 38930v7515m0 2211v1729" fill="none" stroke="#fff" stroke-width="1473.57"/><path d="m11090 37856c-66-2382 2839-3557 4534-2255 1618 1243 1871 4006-443 5034-747 333-1229 843-1211 1555l22 938m40 1471 39 1401" fill="none" stroke="#fff" stroke-width="1473.57"/><path d="m74594 66274c843 203 1636 536 2356 977l1946-1947 2741 2741-1946 1946c440 720 773 1512 977 2356h2751v3875h-2751c-204 844-537 1637-978 2357l1947 1945-2741 2741-1946-1946c-720 440-1512 773-2356 976v2752h-3875v-2751c-844-203-1637-537-2357-977l-1946 1946-2740-2741 1946-1946c-440-720-773-1512-976-2356h-2752v-3875h2751c203-844 537-1636 977-2356l-1946-1946 2740-2741 1947 1947c720-441 1512-774 2356-977v-2752h3875zm-1938 5097c1609 0 2914 1305 2914 2914s-1305 2913-2914 2913-2913-1304-2913-2913 1304-2914 2913-2914z" fill="#fff"/><g fill="none" stroke-width="1473.57"><path d="m74594 66274c843 203 1636 536 2356 977l1946-1947 2741 2741-1946 1946c440 720 773 1512 977 2356h2751v3875h-2751c-204 844-537 1637-978 2357l1947 1945-2741 2741-1946-1946c-720 440-1512 773-2356 976v2752h-3875v-2751c-844-203-1637-537-2357-977l-1946 1946-2740-2741 1946-1946c-440-720-773-1512-976-2356h-2752v-3875h2751c203-844 537-1636 977-2356l-1946-1946 2740-2741 1947 1947c720-441 1512-774 2356-977v-2752h3875zm-1938 5097c1609 0 2914 1305 2914 2914s-1305 2913-2914 2913-2913-1304-2913-2913 1304-2914 2913-2914z" stroke="#105286"/><path d="m67056 73821c-256 3093 2044 5808 5137 6064 3092 255 5807-2044 6063-5137s-2044-5807-5136-6063c-3093-256-5808 2043-6064 5136z" stroke="#00dcab"/><path d="m69777 8310h15104m-15104 6631h7552m-7552-3316h15104" stroke="#105286"/><path d="m5492 14941h15104m-15104 6631h7552m-7552-3316h15104" stroke="#105286"/><path d="m2205 1473 876 876m2387-876-876 876m-1511 1511-876 876m2387-876 876 876" stroke="#105286"/><path d="m88867 1473 876 876m2388-876-876 876m-1512 1511-876 876m2388-876 876 876" stroke="#105286"/><path d="m75440 29399 876 876m2387-876-876 876m-1511 1512-876 876m2387-876 876 876" stroke="#105286"/><path d="m2866 55187 876 876m2388-876-876 876m-1512 1511-876 876m2388-876 876 876" stroke="#105286"/><circle cx="24936" cy="6606" r="2015" stroke="#105286"/><circle cx="88750" cy="25855" r="2015" stroke="#105286"/><circle cx="12029" cy="65459" r="2015" stroke="#105286"/><circle cx="90776" cy="63754" r="2015" stroke="#105286"/><path d="m88318 80637 876 876m2388-876-876 876m-1512 1512-876 876m2388-876 876 876" stroke="#105286"/></g></g></svg>