<svg id="Capa_1" enable-background="new 0 0 512 512" height="512" viewBox="0 0 512 512" width="512" xmlns="http://www.w3.org/2000/svg"><g><path d="m292.923 426.481c0-46.604 37.915-84.519 84.519-84.519 15.223 0 29.505 4.066 41.855 11.138v-347.949c0-2.845-2.306-5.151-5.151-5.151h-359.955c-2.845 0-5.151 2.306-5.151 5.151v490.377c0 2.845 2.306 5.151 5.151 5.151h282.814c-26.243-14.36-44.082-42.233-44.082-74.198z" fill="#eaf6ff"/><g><path d="m95.443 495.528v-490.377c0-2.845 2.306-5.151 5.151-5.151h-46.403c-2.845 0-5.151 2.306-5.151 5.151v490.377c0 2.845 2.306 5.151 5.151 5.151h46.403c-2.845 0-5.151-2.306-5.151-5.151z" fill="#d8ecfe"/></g><g><g><path d="m222.312 454.69h-138.329c-1.736 0-3.143-1.407-3.143-3.143v-23.564c0-1.736 1.407-3.143 3.143-3.143h138.329c1.736 0 3.143 1.407 3.143 3.143v23.564c0 1.736-1.407 3.143-3.143 3.143z" fill="#4fc123"/></g><g><path d="m115.606 451.547v-23.564c0-1.736 1.407-3.142 3.143-3.142h-34.766c-1.735 0-3.142 1.407-3.142 3.142v23.564c0 1.736 1.407 3.142 3.142 3.142h34.766c-1.736.001-3.143-1.406-3.143-3.142z" fill="#47a920"/></g></g><g><g><path d="m88.341 179.294h291.655v124.108h-291.655z" fill="#fff"/></g><g><path d="m88.341 179.294h26.41v124.109h-26.41z" fill="#f3f0f3"/></g><g><path d="m276.572 179.294h103.424v124.108h-103.424z" fill="#8ac9fe"/></g></g><g><g><g><path d="m384.354 83.536h-152.972c-1.736 0-3.143-1.407-3.143-3.143v-23.72c0-1.736 1.407-3.143 3.143-3.143h152.972c1.736 0 3.143 1.407 3.143 3.143v23.72c-.001 1.736-1.408 3.143-3.143 3.143z" fill="#0593fc"/></g></g><g><path d="m262.891 80.393v-23.72c0-1.736 1.407-3.143 3.142-3.143h-34.652c-1.736 0-3.142 1.407-3.142 3.143v23.72c0 1.736 1.407 3.143 3.142 3.143h34.652c-1.735 0-3.142-1.407-3.142-3.143z" fill="#0182fc"/></g></g><g><path d="m348.116 347.216c-1.36-1.376-3.247-2.231-5.334-2.231h-159.273c-4.143 0-7.5 3.358-7.5 7.5s3.357 7.5 7.5 7.5h141.857c6.824-5.356 14.477-9.698 22.75-12.769z" fill="#60b7ff"/><path d="m306.805 380.149h-123.296c-4.143 0-7.5 3.358-7.5 7.5s3.357 7.5 7.5 7.5h115.46c2.117-5.282 4.746-10.303 7.836-15z" fill="#60b7ff"/><g><path d="m155.566 359.985h-67.225c-4.143 0-7.5-3.358-7.5-7.5s3.357-7.5 7.5-7.5h67.226c4.143 0 7.5 3.358 7.5 7.5s-3.358 7.5-7.501 7.5z" fill="#60b7ff"/></g><g><path d="m155.566 395.149h-67.225c-4.143 0-7.5-3.358-7.5-7.5s3.357-7.5 7.5-7.5h67.226c4.143 0 7.5 3.358 7.5 7.5s-3.358 7.5-7.501 7.5z" fill="#60b7ff"/></g></g><g><g><circle cx="377.441" cy="426.481" fill="#fedf30" r="85.519"/></g><g><circle cx="377.442" cy="426.481" fill="#4fc123" r="56.7"/></g><g><path d="m358.938 426.481c0-24.565 15.707-45.524 37.602-53.382-5.971-2.143-12.399-3.318-19.098-3.318-31.265 0-56.7 25.436-56.7 56.7 0 31.265 25.436 56.701 56.7 56.701 6.699 0 13.127-1.176 19.098-3.318-21.896-7.858-37.602-28.817-37.602-53.383z" fill="#47a920"/></g><g><path d="m373.558 451.879c-1.989 0-3.896-.79-5.304-2.197l-23.747-23.748c-2.929-2.929-2.929-7.678 0-10.606 2.931-2.93 7.679-2.929 10.607 0l18.443 18.444 26.211-26.211c2.93-2.929 7.678-2.929 10.607 0s2.929 7.678 0 10.606l-31.515 31.515c-1.406 1.407-3.313 2.197-5.302 2.197z" fill="#fff"/></g></g><path d="m133.876 83.813h-29.528c-4.69 0-8.506-3.816-8.507-8.505v-.488c0-4.691 3.816-8.507 8.507-8.507h35.502c4.143 0 7.5-3.358 7.5-7.5s-3.357-7.5-7.5-7.5h-13.252v-4.699c0-4.142-3.357-7.5-7.5-7.5s-7.5 3.358-7.5 7.5v4.699h-7.25c-12.962 0-23.507 10.545-23.507 23.507v.489c.001 12.96 10.547 23.504 23.507 23.504h29.528c4.675 0 8.478 3.803 8.478 8.478s-3.803 8.478-8.478 8.478h-35.804c-4.143 0-7.5 3.358-7.5 7.5s3.357 7.5 7.5 7.5h13.525v4.698c0 4.142 3.357 7.5 7.5 7.5s7.5-3.358 7.5-7.5v-4.698h7.278c12.945 0 23.478-10.532 23.478-23.478s-10.532-23.478-23.477-23.478z" fill="#47a920"/><g><path d="m379.996 119.228h-74.465c-4.143 0-7.5-3.358-7.5-7.5s3.357-7.5 7.5-7.5h74.465c4.143 0 7.5 3.358 7.5 7.5s-3.357 7.5-7.5 7.5z" fill="#8ac9fe"/></g><path d="m379.996 171.794h-291.655c-4.143 0-7.5 3.358-7.5 7.5v124.108c0 4.142 3.357 7.5 7.5 7.5h291.655c4.143 0 7.5-3.358 7.5-7.5v-124.108c0-4.142-3.357-7.5-7.5-7.5zm-284.155 56.37h27.404v26.369h-27.404zm173.231 26.369h-130.827v-26.369h130.827zm15 0v-26.369h88.424v26.369zm88.424 15v26.37h-88.424v-26.37zm-103.424-56.369h-130.827v-26.37h130.827zm-130.827 56.369h130.827v26.37h-130.827zm234.251-56.369h-88.424v-26.37h88.424zm-249.251-26.37v26.37h-27.404v-26.37zm-27.404 82.739h27.404v26.37h-27.404z" fill="#b3dafe"/></g></svg>