<?xml version="1.0" encoding="UTF-8" standalone="no"?>
<svg
   viewBox="0 0 2829.3333 2829.3333"
   height="2829.3333"
   width="2829.3333"
   xml:space="preserve"
   id="svg2"
   version="1.1"
   sodipodi:docname="iphone.svg"
   inkscape:version="1.3.2 (091e20e, 2023-11-25)"
   xmlns:inkscape="http://www.inkscape.org/namespaces/inkscape"
   xmlns:sodipodi="http://sodipodi.sourceforge.net/DTD/sodipodi-0.dtd"
   xmlns="http://www.w3.org/2000/svg"
   xmlns:svg="http://www.w3.org/2000/svg"
   xmlns:rdf="http://www.w3.org/1999/02/22-rdf-syntax-ns#"
   xmlns:cc="http://creativecommons.org/ns#"
   xmlns:dc="http://purl.org/dc/elements/1.1/"><sodipodi:namedview
     id="namedview1"
     pagecolor="#505050"
     bordercolor="#eeeeee"
     borderopacity="1"
     inkscape:showpageshadow="0"
     inkscape:pageopacity="0"
     inkscape:pagecheckerboard="0"
     inkscape:deskcolor="#505050"
     inkscape:zoom="0.061860851"
     inkscape:cx="1810.515"
     inkscape:cy="1341.721"
     inkscape:window-width="1440"
     inkscape:window-height="449"
     inkscape:window-x="0"
     inkscape:window-y="25"
     inkscape:window-maximized="0"
     inkscape:current-layer="svg2" /><metadata
     id="metadata8"><rdf:RDF><cc:Work
         rdf:about=""><dc:format>image/svg+xml</dc:format><dc:type
           rdf:resource="http://purl.org/dc/dcmitype/StillImage" /></cc:Work></rdf:RDF></metadata><defs
     id="defs6" /><g
     transform="matrix(0.1552686,0,0,-0.1552686,-208.6188,3064.138)"
     id="g12"><path
       id="path14"
       style="fill:#f6835a;fill-opacity:1;fill-rule:nonzero;stroke:none"
       d="m 5554.47,4501 -177.59,869.1 c -73.37,-187.8 -155.33,-372.5 -238.7,-557.3 -59.58,-132.1 -119.85,-264.3 -178.09,-397.9 -54.3,-124.5 -109.5,-263.2 -67.34,-392.3 32.47,-99.6 117.27,-172.5 204.46,-230.5 452.03,-300.3 990.71,-174.5 1349.1,225.7 62.72,70 121.97,143.6 174.51,220.8 l -511.17,-104.4 c -254.59,-52 -503.17,112.2 -555.18,366.8" /><path
       id="path16"
       style="fill:#f6835a;fill-opacity:1;fill-rule:nonzero;stroke:none"
       d="m 3408.18,12892 c -277.46,-541.9 39.54,-1048.2 595.47,-1254.2 37.81,-14 70.3,-23.5 98.6,-29.4 l -314,1536.7 c -150.22,-38.9 -287.83,-128.1 -380.07,-253.1" /><path
       id="path18"
       style="fill:#f6835a;fill-opacity:1;fill-rule:nonzero;stroke:none"
       d="m 4002.68,6656.4 c -165.39,-134.7 -366.14,-253.9 -435.54,-455.6 -84.68,-246.1 70.32,-519.9 282.41,-670.8 205.45,-146.1 466.84,-211.5 716.9,-179.2 132.74,17.1 261.41,60.5 380.63,121.3 132.21,67.5 252.08,158.1 354.76,265.3 L 4905.66,7676.3 C 4605.59,7511.8 4215.88,6830.1 4002.68,6656.4" /><path
       id="path20"
       style="fill:#f6835a;fill-opacity:1;fill-rule:nonzero;stroke:none"
       d="m 4436,9886.4 c -211.69,-110.7 -418,-369.2 -624.92,-510.3 -246.47,-168 -497.34,-384 -542.18,-679 -50.79,-334 199.63,-660.5 512.93,-787.1 313.3,-126.7 669.39,-90.7 995.94,-3.9 25.47,6.8 51.03,14 76.52,21.7 l -401.68,1965.9 c -5.53,-2.6 -11.11,-4.4 -16.61,-7.3" /><path
       id="path22"
       style="fill:#f6835a;fill-opacity:1;fill-rule:nonzero;stroke:none"
       d="m 12679.8,10579.8 c 299.4,-119.4 596.8,-253.4 899.4,-363.3 232.5,-84.4 462.9,-125.2 655.9,-298.4 169,-151.7 293,-345.9 414.9,-537.5 95.1,-149.4 193,-297.9 290.9,-446.8 -45.7,81.5 -90.9,163.3 -135.2,245.6 -279.1,518.1 -467.6,1127.1 -821.3,1596.6 -152.7,202.8 -329.7,355.4 -521.3,487.3 -225.2,155 -470.7,281.4 -721.4,426.8 -104,60.4 -295.5,217.5 -456.3,265.6 l 271.1,-1326.7 c 41.1,-16.4 82.2,-32.8 123.3,-49.2" /><path
       id="path24"
       style="fill:#f6835a;fill-opacity:1;fill-rule:nonzero;stroke:none"
       d="m 13330.5,3351.7 c -146.7,-0.4 -293.4,14.1 -437.7,45.4 -975,211.2 -1435.7,940.9 -1565.6,1803.2 L 7970.58,4514.4 C 8605.23,3727.7 9788.92,3247.1 10703,3063 c 449.3,-90.5 984.1,-155.3 1445.1,-146.5 166.7,3.2 335.2,23.7 496.9,65.6 204.4,53.1 397.9,140.4 563.3,271 40.9,32.3 80.5,67.3 122.2,98.6" /><g
       transform="scale(1.20186)"
       id="g26"><path
         id="path28"
         style="fill:#162740;fill-opacity:1;fill-rule:nonzero;stroke:none"
         d="m 4962.74,15147.9 1464.45,299.2 c 40.04,8.2 79.52,-17.9 87.7,-57.9 8.19,-40.1 -17.89,-79.6 -57.95,-87.7 L 4992.5,15002.2 c -40.05,-8.2 -79.51,17.9 -87.68,58 -8.19,40 17.88,79.5 57.92,87.7 z m 1732.23,353.9 c 40.21,8.2 79.46,-17.7 87.68,-57.9 8.23,-40.3 -17.72,-79.5 -57.93,-87.7 -40.21,-8.3 -79.48,17.7 -87.71,57.9 -8.21,40.2 17.72,79.5 57.96,87.7 z M 7808.61,4953.07 c 171.9,35.11 339.73,-75.8 374.86,-247.7 35.11,-171.9 -75.76,-339.73 -247.68,-374.84 -171.87,-35.11 -339.7,75.8 -374.82,247.7 -35.13,171.82 75.74,339.64 247.64,374.84 z m -4656.62,5984.23 261.26,-1278.65 291.51,-1426.67 334.22,-1635.71 42.74,-209.26 329.64,-1613.25 62.43,-305.61 147.77,-723.13 c 43.27,-211.83 250.1,-348.46 461.93,-305.19 l 425.32,86.87 1123.05,229.47 2792.85,570.7 c -60.4,400.63 -34.77,835.62 49.93,1249.23 l -4584.35,-936.71 -1976.46,9672.91 5725.85,1170 1316.29,-6442.49 c 163.93,-65.31 327.73,-130.63 491.53,-196.03 L 10222,9947.61 8995.21,15951.5 c -43.26,211.8 -250.11,348.5 -461.95,305.2 l -5825.4,-1190.3 c -211.83,-43.3 -348.47,-250.1 -305.19,-461.9 l 749.32,-3667.2" /></g><g
       transform="scale(1.14361)"
       id="g30"><path
         id="path32"
         style="fill:#284375;fill-opacity:1;fill-rule:nonzero;stroke:none"
         d="m 7067.23,16138.3 c 42.27,8.6 69.53,49.9 60.88,92.2 -8.63,42.2 -49.88,69.5 -92.14,60.9 -42.29,-8.7 -69.54,-49.9 -60.91,-92.2 8.65,-42.3 49.91,-69.5 92.17,-60.9" /></g><g
       transform="scale(1.14157)"
       id="g34"><path
         id="path36"
         style="fill:#c3ead0;fill-opacity:1;fill-rule:nonzero;stroke:none"
         d="M 9071.4,8308.06 C 8742.93,8047.63 8349.3,7870.51 7936.97,7795.52 l -143.17,-489.85 -379.57,462.35 c -110.46,13.22 -217.74,42.04 -315.74,94.87 -224.96,121.23 -469.36,241.07 -340.7,558.09 12.81,31.54 29.27,60.79 47.16,89.09 L 5421.37,10195.1 c -223.45,254.2 -385.67,568.2 -458.27,923.6 -222.25,1087.6 479.33,2149.5 1566.99,2371.7 1087.68,222.3 2149.57,-479.3 2371.81,-1567 72.62,-355.3 46.51,-707.8 -59.3,-1029.3 L 8546.25,9880.12 c 308.17,194.88 600.05,169.78 967.09,23.44 322.8,-128.74 645.66,-257.51 968.46,-386.28 L 9096.02,16300 3067.73,15068.3 5148.59,4884.43 9975.07,5870.62 c 92.13,449.91 250.73,875.64 445.23,1212.29 -106.7,99.6 -1356.52,1219.2 -1348.9,1225.15" /></g><path
       id="path38"
       style="fill:#ed1c24;fill-opacity:1;fill-rule:nonzero;stroke:none"
       d="m 9060.57,8899.1 c -57.45,-10.4 -115.15,-19.5 -173.14,-26.4 -139.77,-16.7 -283.92,-21.8 -423.6,-5 l 433.3,-527.8 163.44,559.2" /><path
       id="path40"
       style="fill:#ed1c24;fill-opacity:1;fill-rule:nonzero;stroke:none"
       d="m 8224.76,11630.6 c -840.26,-171.7 -1660.6,370.3 -1832.26,1210.6 -171.69,840.2 370.27,1660.6 1210.54,1832.2 840.23,171.7 1660.59,-370.3 1832.25,-1210.5 171.69,-840.3 -370.27,-1660.6 -1210.53,-1832.3 z m 1937.34,1980.8 C 9908.4,14853 8696.18,15653.9 7454.53,15400.2 6212.89,15146.5 5411.99,13934.3 5665.7,12692.7 c 82.88,-405.6 268.07,-764.2 523.15,-1054.3 L 7768.3,9714.8 c 101.92,161 267.84,279.8 426.56,391.4 386.87,271.8 763.53,556.2 1135.62,847.1 99.84,78.1 199.35,156.7 298.63,235.5 42.74,34 84.97,63.4 126.99,90 l 338.3,1157.6 c 120.8,366.9 150.6,769.4 67.7,1175" /><path
       id="path42"
       style="fill:#fff8cd;fill-opacity:1;fill-rule:nonzero;stroke:none"
       d="m 7603.04,14673.4 c -840.27,-171.6 -1382.23,-992 -1210.54,-1832.2 171.66,-840.3 992,-1382.3 1832.26,-1210.6 840.26,171.7 1382.22,992 1210.53,1832.3 -171.66,840.2 -992.02,1382.2 -1832.25,1210.5" /><g
       transform="scale(1.13958)"
       id="g44"><path
         id="path46"
         style="fill:#284375;fill-opacity:1;fill-rule:nonzero;stroke:none"
         d="m 5265.37,15822.2 1544.48,315.6 c 42.25,8.6 69.76,50.2 61.12,92.5 -8.63,42.2 -50.26,69.7 -92.5,61.1 l -1544.48,-315.6 c -42.24,-8.6 -69.73,-50.3 -61.1,-92.5 8.62,-42.2 50.24,-69.8 92.48,-61.1" /></g><path
       id="path48"
       style="fill:#284375;fill-opacity:1;fill-rule:nonzero;stroke:none"
       d="m 9537.72,5204.7 c 206.62,42.2 339.87,243.9 297.67,450.5 -42.22,206.6 -243.92,339.9 -450.52,297.7 -206.6,-42.3 -339.85,-244 -297.63,-450.5 42.21,-206.6 243.91,-339.9 450.48,-297.7" /><g
       transform="scale(1.13116)"
       id="g50"><path
         id="path52"
         style="fill:#f8a066;fill-opacity:1;fill-rule:nonzero;stroke:none"
         d="m 12584.5,8768.08 c -170.6,153.12 -374.3,189.19 -579.8,263.8 -267.5,97.16 -530.5,215.62 -795.1,321.18 -36.4,14.49 -72.7,28.99 -109,43.49 -174.1,69.49 -348.2,138.89 -522.3,208.28 -325.8,129.96 -651.67,259.91 -977.44,389.84 -370.42,147.73 -664.99,173.03 -975.99,-23.66 -37.15,-23.5 -74.48,-49.5 -112.27,-79.57 -87.77,-69.66 -175.74,-139.15 -264,-208.19 -328.95,-257.17 -661.93,-508.59 -1003.95,-748.88 -140.31,-98.66 -286.99,-203.68 -377.1,-346.01 -18.06,-28.56 -34.67,-58.09 -47.59,-89.91 -129.84,-319.94 116.81,-440.88 343.83,-563.23 98.9,-53.31 207.17,-82.39 318.65,-95.74 123.48,-14.86 250.92,-10.35 374.48,4.42 51.27,6.1 102.28,14.14 153.06,23.34 416.12,75.67 813.38,254.42 1144.87,517.25 -7.69,-6.01 1253.55,-1135.91 1361.25,-1236.43 -196.2,-339.74 -356.3,-769.38 -449.3,-1223.43 -89.96,-439.46 -117.19,-901.64 -53,-1327.31 114.8,-762.32 522.1,-1407.41 1384.1,-1594.12 127.5,-27.67 257.2,-40.49 386.9,-40.13 -36.9,-27.67 -71.9,-58.61 -108,-87.17 -146.2,-115.46 -317.3,-192.64 -498,-239.58 29.8,-15.91 65.3,-34.83 108,-58.17 594.2,-324.8 1344.7,-773.89 1970.6,-1032.39 80.9,-33.42 165.6,-66.92 253.1,-60.82 72.7,5.04 140.5,37.13 205.8,69.75 792.7,396.58 1516.6,969.53 1973.3,1729.28 192.7,320.65 332.3,674.09 407.8,1040.62 57.3,278.38 202.6,777.43 29.8,1025.76 -61.2,87.87 -155.4,145.87 -247,201.39 -643.7,389.95 -1287.4,779.91 -1931.1,1169.86 -74.6,103.96 -152.5,210.05 -218.5,331.07 -157.6,289.53 -339.8,568 -522.1,845.24 -86.6,131.64 -173.1,262.92 -257.2,395 -107.8,169.38 -217.4,341.06 -366.8,475.17" /></g></g></svg>
