<?xml version="1.0" encoding="UTF-8" standalone="no"?>
<svg
   viewBox="0 0 2829.3333 2829.3333"
   height="2829.3333"
   width="2829.3333"
   xml:space="preserve"
   id="svg2"
   version="1.1"
   sodipodi:docname="iphone2.svg"
   inkscape:version="1.3.2 (091e20e, 2023-11-25)"
   xmlns:inkscape="http://www.inkscape.org/namespaces/inkscape"
   xmlns:sodipodi="http://sodipodi.sourceforge.net/DTD/sodipodi-0.dtd"
   xmlns="http://www.w3.org/2000/svg"
   xmlns:svg="http://www.w3.org/2000/svg"
   xmlns:rdf="http://www.w3.org/1999/02/22-rdf-syntax-ns#"
   xmlns:cc="http://creativecommons.org/ns#"
   xmlns:dc="http://purl.org/dc/elements/1.1/"><sodipodi:namedview
     id="namedview1"
     pagecolor="#505050"
     bordercolor="#eeeeee"
     borderopacity="1"
     inkscape:showpageshadow="0"
     inkscape:pageopacity="0"
     inkscape:pagecheckerboard="0"
     inkscape:deskcolor="#505050"
     inkscape:zoom="0.14713834"
     inkscape:cx="-713.61415"
     inkscape:cy="1070.4212"
     inkscape:window-width="1440"
     inkscape:window-height="844"
     inkscape:window-x="0"
     inkscape:window-y="25"
     inkscape:window-maximized="0"
     inkscape:current-layer="svg2" /><metadata
     id="metadata8"><rdf:RDF><cc:Work
         rdf:about=""><dc:format>image/svg+xml</dc:format><dc:type
           rdf:resource="http://purl.org/dc/dcmitype/StillImage" /></cc:Work></rdf:RDF></metadata><defs
     id="defs6"><linearGradient
       id="swatch6"
       inkscape:swatch="solid"><stop
         style="stop-color:#00ff00;stop-opacity:1;"
         offset="0"
         id="stop6" /></linearGradient><linearGradient
       id="swatch5"
       inkscape:swatch="solid"><stop
         style="stop-color:#000000;stop-opacity:1;"
         offset="0"
         id="stop5" /></linearGradient></defs><path
     id="path14"
     style="fill:#f6835a;fill-opacity:1;fill-rule:nonzero;stroke:none;stroke-width:0.145339"
     d="m 588.3679,2111.6412 -0.10961,-128.9239 c -15.8911,24.6207 -32.91579,48.5509 -50.14418,72.4546 -12.31316,17.0875 -24.7275,34.1691 -36.89327,51.509 -11.34097,16.1582 -23.22157,34.3125 -20.95789,53.9206 1.73841,15.1261 11.70337,27.9657 22.44047,38.7525 55.67715,55.8671 136.04169,53.5592 198.68014,6.9469 10.96096,-8.1521 21.53204,-16.9175 31.25178,-26.3899 l -75.82647,0.058 c -37.76573,0.028 -68.41091,-30.5594 -68.44097,-68.3268" /><path
     id="path16"
     style="fill:#f6835a;fill-opacity:1;fill-rule:nonzero;stroke:none;stroke-width:0.145339"
     d="m 525.82771,854.39525 c -55.2182,69.13834 -24.74121,150.43145 48.46591,195.87885 4.97927,3.0894 9.33127,5.3838 13.19083,7.0441 l -0.19296,-227.95686 c -22.52167,1.18744 -44.70488,9.90402 -61.46378,25.03391" /><path
     id="path18"
     style="fill:#f6835a;fill-opacity:1;fill-rule:nonzero;stroke:none;stroke-width:0.145339"
     d="m 429.81494,1759.7023 c -27.45808,14.3918 -59.50303,25.5515 -75.2315,52.2669 -19.19118,32.5961 -5.04951,76.0824 20.78411,103.7191 25.02702,26.7609 60.35945,43.6492 96.9092,46.2948 19.40045,1.4108 38.98332,-1.042 57.7245,-6.2466 20.78536,-5.7826 40.48259,-15.2126 58.21261,-27.5049 l -0.24302,-287.6198 c -47.50283,14.7335 -122.75861,100.5297 -158.1559,119.0905" /><path
     id="path20"
     style="fill:#f6835a;fill-opacity:1;fill-rule:nonzero;stroke:none;stroke-width:0.145339"
     d="m 585.12098,1312.238 c -33.35675,9.6322 -70.22991,40.4699 -103.78817,54.57 -39.97048,16.785 -81.95845,40.2787 -96.8925,80.9937 -16.91151,46.0969 9.29294,99.8536 50.24511,126.9622 40.94928,27.1229 92.70714,32.3138 141.72985,29.4138 3.8245,-0.2305 7.6734,-0.5153 11.52683,-0.8734 l -0.24398,-291.6246 c -0.86293,0.21 -1.70979,0.3047 -2.57714,0.5583" /><path
     id="path22"
     style="fill:#f6835a;fill-opacity:1;fill-rule:nonzero;stroke:none;stroke-width:0.145339"
     d="m 1779.3037,1452.3548 c 39.1812,25.6804 77.6544,53.3822 117.5666,77.8025 30.6674,18.7572 62.2989,31.244 84.7676,61.5038 19.6735,26.5022 31.7066,57.7533 43.5159,88.5735 9.2153,24.0332 18.8554,48.0195 28.4839,72.0626 -4.1472,-12.9315 -8.2143,-25.8911 -12.1388,-38.8961 -24.7374,-81.8755 -33.9374,-174.0719 -70.7075,-251.1874 -15.8714,-33.3076 -36.6582,-60.1697 -60.1242,-84.5069 -27.5819,-28.6006 -58.8838,-53.7162 -90.3757,-81.6885 -13.0616,-11.6158 -35.7832,-39.539 -57.2907,-51.0488 l 0.1681,196.8054 c 5.3783,3.5267 10.7565,7.0532 16.1348,10.5799" /><path
     id="path24"
     style="fill:#f6835a;fill-opacity:1;fill-rule:nonzero;stroke:none;stroke-width:0.145339"
     d="m 1662.5365,2500.6432 c -20.9048,-4.1938 -41.3779,-10.5097 -61.0223,-19.1486 -132.7409,-58.3309 -177.2105,-175.6047 -170.725,-302.1783 l -497.92803,0.4254 c 67.59213,130.4322 222.24873,233.1783 347.09853,285.8844 61.3675,25.908 135.6567,50.6332 201.5678,62.7377 23.8342,4.3745 48.4262,6.3373 72.6697,5.0553 30.6495,-1.6399 60.7377,-8.4665 88.0783,-22.2741 6.761,-3.415 13.4151,-7.2523 20.261,-10.5018" /><path
     id="path1"
     style="opacity:1;fill:#f6835a;fill-opacity:1;fill-rule:evenodd;stroke-width:19.0909;stroke-linecap:round;stroke-linejoin:round;paint-order:stroke fill markers"
     d="m 1632.0342,1149.2689 -6.0601,280.7809 30.8233,75.4426 -326.0407,221.6428 -108.1434,-23.5317 -374.3756,392.1783 121.72697,120.3585 87.53283,0.8557 343.5208,68.7236 128.5337,241.9139 112.0864,26.0076 369.6626,-180.4501 -76.977,-188.4128 51.3031,-315.1491 95.2793,20.7316 -20.5768,-112.0063 -64.9147,-223.5911 -228.4281,-306.9948 z"
     sodipodi:nodetypes="ccccccccccccccccccc" /><path
     style="opacity:1;fill:#f6835a;fill-opacity:1;fill-rule:evenodd;stroke-width:19.0909;stroke-linecap:round;stroke-linejoin:round;paint-order:stroke fill markers"
     d="m 561.19938,1333.6672 18.17759,-18.6321 63.62154,-25.4486 7.03788,303.1275 -36.22018,9.8478 -40.40629,0.9775 -6.9613,-162.9301 z"
     id="path2" /><path
     style="opacity:1;fill:#f6835a;fill-opacity:1;fill-rule:evenodd;stroke-width:19.0909;stroke-linecap:round;stroke-linejoin:round;paint-order:stroke fill markers"
     d="m 569.75473,868.45255 5.0883,-37.31418 71.23617,-9.49815 -5.32965,244.92438 -30.66833,-1.3162 -15.63097,-2.4898 -20.3341,-16.3227 z"
     id="path3" /><path
     style="opacity:1;fill:#f6835a;fill-opacity:1;fill-rule:evenodd;stroke-width:19.0909;stroke-linecap:round;stroke-linejoin:round;paint-order:stroke fill markers"
     d="m 560.22567,1662.0721 16.94135,-15.7595 37.42856,-19.3052 0.39398,284.0631 -1.57593,8.2737 -64.61353,22.4571 z"
     id="path4" /><path
     style="opacity:1;fill:#f6835a;fill-opacity:1;fill-rule:evenodd;stroke-width:19.0909;stroke-linecap:round;stroke-linejoin:round;paint-order:stroke fill markers"
     d="m 549.31252,2082.2538 31.95454,-84.5249 25.2544,-51.5396 42.26247,68.5477 43.80867,69.0631 71.12465,36.5931 26.28519,15.9772 -86.07113,65.4553 -104.10999,9.7925 -54.63198,-36.5931 z"
     id="path5" /><rect
     style="fill:none;fill-opacity:1;fill-rule:evenodd;stroke:#646466;stroke-width:110;stroke-linecap:round;stroke-linejoin:round;stroke-dasharray:none;stroke-opacity:1;paint-order:stroke fill markers"
     id="rect1-5-0-6"
     width="1040.1339"
     height="2139.9883"
     x="620.69775"
     y="63.78775"
     ry="203.40654" /><rect
     style="opacity:0;fill:#ff46ff;fill-opacity:1;fill-rule:evenodd;stroke-width:19.4014;stroke-linecap:round;stroke-linejoin:round;paint-order:stroke fill markers"
     id="rect1"
     width="1174.8949"
     height="2067.967"
     x="588.36676"
     y="111.59746" /><rect
     style="opacity:0;fill:#007200;fill-opacity:1;fill-rule:evenodd;stroke:none;stroke-width:0;stroke-linecap:round;stroke-linejoin:round;stroke-dasharray:none;stroke-opacity:1;paint-order:stroke fill markers"
     id="rect1-5"
     width="1110.5356"
     height="1995.7365"
     x="621.41833"
     y="145.22481" /><rect
     style="fill:#ffffff;fill-opacity:1;fill-rule:evenodd;stroke:#000000;stroke-width:95.6595;stroke-linecap:round;stroke-linejoin:round;stroke-dasharray:none;stroke-opacity:1.0;paint-order:stroke fill markers"
     id="rect1-5-0"
     width="1040.1339"
     height="2139.9883"
     x="620.69769"
     y="63.788071"
     ry="203.40654" /><path
     id="path52"
     style="fill:#f8a066;fill-opacity:1;fill-rule:nonzero;stroke:none;stroke-width:0.164402"
     d="m 1981.6354,1591.6603 c -22.465,-30.2595 -54.0991,-42.7469 -84.7599,-61.5022 -39.9099,-24.4202 -78.3968,-52.1245 -117.5643,-77.8029 -5.3891,-3.5274 -10.7619,-7.0531 -16.1346,-10.5789 -25.77,-16.9013 -51.543,-33.7881 -77.3164,-50.6732 -48.2271,-31.6153 -96.4658,-63.2311 -144.689,-94.8406 -54.833,-35.9405 -101.4592,-49.6712 -158.0086,-28.1777 -6.755,2.5682 -13.6211,5.5333 -20.6947,9.139 -16.4231,8.3455 -32.8728,16.657 -49.3543,24.8866 -61.4234,30.6486 -123.3075,60.2386 -186.2831,87.7395 -25.8378,11.2954 -52.9102,23.4065 -72.0921,43.3825 -3.8455,4.0092 -7.4893,8.2221 -10.6137,12.9248 -31.4038,47.2871 4.3678,74.8549 36.9307,102.0065 14.1856,11.8299 30.6748,20.0634 48.1969,25.868 19.4056,6.4412 40.0841,9.8916 60.4739,11.5621 8.4596,0.6977 16.9409,1.0743 25.4231,1.2566 69.5177,1.4484 139.3753,-14.3277 201.3934,-45.8049 -1.4359,0.7162 164.7171,224.0831 178.7731,243.807 -42.7435,48.3019 -82.6179,112.2697 -112.4823,182.3694 -28.8967,67.8489 -48.432,141.4141 -52.0429,212.0939 -6.4916,126.5732 37.9812,243.8477 170.7306,302.1802 19.6334,8.6366 40.1081,14.953 61.0146,19.1461 -6.8515,3.2483 -13.5041,7.0855 -20.2561,10.5033 -27.3372,13.8089 -57.4313,20.6346 -88.0808,22.274 4.2794,3.5399 9.3783,7.7514 15.4924,12.9111 85.0804,71.8013 191.2672,168.7488 283.6276,230.9083 11.9377,8.0355 24.485,16.2085 38.7813,18.0938 11.8771,1.5709 23.8515,-1.3766 35.4407,-4.4915 140.7033,-37.9075 276.1034,-106.4836 374.5802,-213.9112 41.5539,-45.341 75.628,-97.705 99.8047,-154.2787 18.3554,-42.9692 58.1204,-118.6042 38.4215,-164.2743 -6.9793,-16.1618 -20.254,-28.5931 -33.1911,-40.5398 -90.9196,-83.9195 -181.8389,-167.8406 -272.7585,-251.7601 -8.6107,-19.1932 -17.6831,-38.8377 -24.3492,-60.4974 -15.8998,-51.8091 -36.1252,-102.6428 -56.407,-153.2815 -9.6367,-24.0459 -19.269,-48.0303 -28.4885,-72.065 -11.8151,-30.8207 -23.8447,-62.0708 -43.5176,-88.5728" /><rect
     style="opacity:1;fill:#000000;fill-opacity:1;fill-rule:evenodd;stroke:none;stroke-width:80.0664;stroke-linecap:round;stroke-linejoin:round;stroke-dasharray:none;stroke-opacity:1;paint-order:stroke fill markers"
     id="rect6"
     width="303.58557"
     height="79.473671"
     x="988.97223"
     y="88.68219"
     ry="39.736835" /></svg>
