<?xml version="1.0" encoding="UTF-8" standalone="no"?>
<svg
   viewBox="0 0 100 100"
   width="512"
   height="512"
   version="1.1"
   id="svg1"
   sodipodi:docname="internet.svg"
   inkscape:version="1.3.2 (091e20e, 2023-11-25)"
   xmlns:inkscape="http://www.inkscape.org/namespaces/inkscape"
   xmlns:sodipodi="http://sodipodi.sourceforge.net/DTD/sodipodi-0.dtd"
   xmlns="http://www.w3.org/2000/svg"
   xmlns:svg="http://www.w3.org/2000/svg">
  <defs
     id="defs1" />
  <sodipodi:namedview
     id="namedview1"
     pagecolor="#505050"
     bordercolor="#eeeeee"
     borderopacity="1"
     inkscape:showpageshadow="0"
     inkscape:pageopacity="0"
     inkscape:pagecheckerboard="0"
     inkscape:deskcolor="#505050"
     inkscape:zoom="0.4609375"
     inkscape:cx="256"
     inkscape:cy="254.91525"
     inkscape:window-width="1440"
     inkscape:window-height="846"
     inkscape:window-x="0"
     inkscape:window-y="25"
     inkscape:window-maximized="0"
     inkscape:current-layer="svg1" />
  <path
     id="path1"
     style="fill:#ffffff;fill-opacity:1"
     d="M 50 5.5000305 A 44.5022 44.5022 0 0 0 12.068176 26.729202 L 12.043762 26.767731 A 44.51347 44.51347 0 0 0 12.043381 73.231888 L 12.068558 73.271179 A 44.50213 44.50213 0 0 0 87.931442 73.270798 L 87.956238 73.232269 A 44.29242 44.29242 0 0 0 94.499969 50.000763 L 94.499969 50 L 94.499969 49.999237 A 44.2927 44.2927 0 0 0 87.956238 26.767349 L 87.931824 26.729202 A 44.5022 44.5022 0 0 0 50 5.5000305 z M 49.039078 10.570908 A 6.52134 6.52134 0 0 1 52.798843 11.130905 A 13.62131 13.62131 0 0 1 57.846832 15.573502 A 39.77482 39.77482 0 0 1 63.594437 28.044128 C 59.067535 28.322695 54.535995 28.464595 50 28.469849 C 45.465825 28.469789 40.934136 28.327921 36.4048 28.044128 A 50.18985 50.18985 0 0 1 38.842773 21.331787 A 25.80254 25.80254 0 0 1 44.311905 13.126755 A 10.81146 10.81146 0 0 1 47.201157 11.130905 A 6.52134 6.52134 0 0 1 49.039078 10.570908 z M 61.572647 12.225723 A 39.49152 39.49152 0 0 1 81.525421 26.204681 C 77.259125 26.820221 72.980124 27.307729 68.688202 27.666855 A 57.01792 57.01792 0 0 0 65.712738 19.271088 A 35.48007 35.48007 0 0 0 61.572647 12.225723 z M 38.425064 12.226105 C 38.331374 12.347445 38.235126 12.463517 38.142776 12.587357 A 45.64338 45.64338 0 0 0 31.320953 27.667618 C 27.028851 27.304098 22.746755 26.816341 18.474579 26.204681 A 39.82535 39.82535 0 0 1 22.069168 22.069168 A 39.48682 39.48682 0 0 1 38.425064 12.226105 z M 15.476608 30.806732 C 20.356177 31.562891 25.252041 32.156169 30.163956 32.586288 A 88.15014 88.15014 0 0 0 28.53775 47.499847 L 10.586929 47.499847 A 39.2306 39.2306 0 0 1 15.476608 30.806732 z M 84.523392 30.806732 A 39.2306 39.2306 0 0 1 89.413071 47.499847 L 71.464157 47.499847 A 88.31173 88.31173 0 0 0 69.841385 32.585907 C 74.747993 32.154147 79.641963 31.560971 84.523392 30.806732 z M 35.184097 32.974243 C 40.117326 33.29791 45.055905 33.463152 50 33.469772 C 54.940488 33.469772 59.878048 33.304744 64.812469 32.974625 A 82.70224 82.70224 0 0 1 66.462708 47.499847 L 33.536911 47.499847 A 82.67914 82.67914 0 0 1 35.184097 32.974243 z M 10.586929 52.500153 L 28.535843 52.500153 A 88.30459 88.30459 0 0 0 30.158615 67.414093 C 25.252067 67.845866 20.358097 68.439042 15.476608 69.193268 A 39.23059 39.23059 0 0 1 10.586929 52.500153 z M 33.537292 52.500153 L 66.463089 52.500153 A 82.67828 82.67828 0 0 1 64.815903 67.025757 C 59.882674 66.702004 54.944042 66.536714 50 66.530228 C 45.059518 66.530168 40.121999 66.695196 35.187531 67.025375 A 82.69645 82.69645 0 0 1 33.537292 52.500153 z M 71.46225 52.500153 L 89.413071 52.500153 A 39.23052 39.23052 0 0 1 84.523392 69.193268 C 79.643823 68.437035 74.747926 67.843758 69.836044 67.413712 A 88.14559 88.14559 0 0 0 71.46225 52.500153 z M 50 71.530151 C 54.534175 71.530151 59.065911 71.672059 63.5952 71.955872 A 50.19826 50.19826 0 0 1 61.157227 78.668213 A 25.80323 25.80323 0 0 1 55.688095 86.873245 A 10.81448 10.81448 0 0 1 52.798843 88.868713 A 6.52134 6.52134 0 0 1 47.201157 88.868713 A 13.62135 13.62135 0 0 1 42.153168 84.426498 A 39.77474 39.77474 0 0 1 36.405563 71.955872 C 40.932465 71.677285 45.463925 71.535345 50 71.530151 z M 68.679047 72.332382 C 72.971149 72.695902 77.253245 73.183659 81.525421 73.795319 A 39.82535 39.82535 0 0 1 77.930832 77.930832 A 39.48587 39.48587 0 0 1 61.574936 87.773514 C 61.668626 87.652174 61.764814 87.536483 61.857224 87.412643 A 45.64338 45.64338 0 0 0 68.679047 72.332382 z M 31.311798 72.333145 A 57.01789 57.01789 0 0 0 34.287262 80.728912 A 35.48425 35.48425 0 0 0 38.426971 87.774277 A 39.49154 39.49154 0 0 1 18.474579 73.795319 C 22.740861 73.179719 27.019902 72.692211 31.311798 72.333145 z " />
</svg>
