<?xml version="1.0" encoding="UTF-8" standalone="no"?>
<!-- Created with Inkscape (http://www.inkscape.org/) -->

<svg
   version="1.1"
   id="svg2"
   width="3333.3333"
   height="3333.3333"
   viewBox="0 0 3333.3333 3333.3333"
   sodipodi:docname="2D5J5G0.svg"
   inkscape:version="1.3.2 (091e20e, 2023-11-25)"
   xmlns:inkscape="http://www.inkscape.org/namespaces/inkscape"
   xmlns:sodipodi="http://sodipodi.sourceforge.net/DTD/sodipodi-0.dtd"
   xmlns="http://www.w3.org/2000/svg"
   xmlns:svg="http://www.w3.org/2000/svg">
  <defs
     id="defs6" />
  <sodipodi:namedview
     id="namedview4"
     pagecolor="#ffffff"
     bordercolor="#000000"
     borderopacity="0.25"
     inkscape:showpageshadow="2"
     inkscape:pageopacity="0.0"
     inkscape:pagecheckerboard="0"
     inkscape:deskcolor="#d1d1d1"
     inkscape:zoom="0.12925907"
     inkscape:cx="2320.9203"
     inkscape:cy="1493.1254"
     inkscape:window-width="1440"
     inkscape:window-height="847"
     inkscape:window-x="0"
     inkscape:window-y="25"
     inkscape:window-maximized="0"
     inkscape:current-layer="g8" />
  <g
     id="g8"
     inkscape:groupmode="layer"
     inkscape:label="ink_ext_XXXXXX"
     transform="matrix(1.3333333,0,0,-1.3333333,0,3333.3333)">
    <path
       d="m 848.72119,2405.1688 c 161.92161,85.4865 353.84371,46.3723 476.52531,21.3683 483.5492,-98.5696 905.6698,-450.3144 1086.685,-1003.699 C 2454.303,1293.3312 2647.32,634.83549 2179.3813,246.15253 1765.7214,-97.442217 1104.8198,-6.4684012 679.52557,238.35401 327.18348,441.19683 -25.799248,843.38193 15.641072,1198.465 c 26.05681,223.2783 184.642648,239.0646 383.199648,648.778 171.85687,354.6101 251.83164,453.3688 449.88047,557.9258"
       style="fill:#caddff;fill-opacity:1;fill-rule:nonzero;stroke:none;stroke-width:0.135157"
       id="path14" />
    <path
       d="m 1658.8126,1275.2473 -433.0279,-2.7167 c -2.7976,0 -3.7167,-2.6084 -3.7167,-5.1088 V 898.99881 c 0,-35.27584 -246.03882,-126.92544 -248.43112,-122.26254 l -0.2974,-38.97914 c -0.026,-7.2714 6.3524,-13.70485 14.4888,-13.70485 h 5.4197 c 0.041,0 0.067,0 0.1078,0 h 363.05742 c 16.854,0 33.4917,3.77085 48.7509,10.15025 l 199.6125,84.0538 c 35.9382,15.13752 58.6039,47.62914 58.6039,83.08067 v 368.7878 c 0,2.514 -1.757,5.1225 -4.5682,5.1225"
       style="fill:#99b9ff;fill-opacity:1;fill-rule:nonzero;stroke:none;stroke-width:0.135157"
       id="path16" />
    <path
       d="M 1178.2097,1293.9801 V 925.48948 c 0,-36.33008 -23.3821,-69.42989 -60.1041,-85.10803 L 983.43578,782.91291 c -8.7853,-3.75735 -5.7982,-15.543 3.96,-15.543 h 369.99092 c 16.6378,0 33.0592,3.28432 48.1157,9.62315 l 149.1992,62.80721 c 37.0058,15.58354 60.6177,48.81852 60.6177,85.32427 v 368.85556 c 0,1.5136 -1.3787,2.7436 -3.0682,2.7436 h -430.9734 c -1.6895,0 -3.068,-1.23 -3.068,-2.7436"
       style="fill:#ffffff;fill-opacity:1;fill-rule:nonzero;stroke:none;stroke-width:0.135157"
       id="path18" />
    <path
       d="m 371.57292,1081.0816 1780.53368,-0.9326 30.9103,-3.0546 57.4956,-0.1218 c 16.3269,0 29.748,12.8398 31.8294,29.1938 l 148.8747,1171.2928 c 3.6223,28.4911 -17.0161,55.4007 -45.4935,55.4007 l -182.3667,-0.1623 -37.1274,-17.9622 -662.1315,-4.1358 -23.9768,2.8248 -939.45781,3.8925 -159.08997,-1236.2355"
       style="fill:#5479f7;fill-opacity:1;fill-rule:nonzero;stroke:none;stroke-width:0.135157"
       id="path20" />
    <path
       d="m 2309.307,2327.0214 c 32.0998,0 58.212,-32.343 54.1033,-64.2668 L 2213.4677,1108.2211 c -2.095,-16.2459 -15.8808,-28.3964 -32.2078,-28.3964 l -14.0562,-0.5407 -1817.53964,0.5407 c -19.58417,0 -34.71224,17.2459 -32.20509,36.7219 l 152.96602,1178.0372 c 2.08953,16.2323 14.57393,32.4376 30.90084,32.4376 H 2309.307"
       style="fill:#99b9ff;fill-opacity:1;fill-rule:nonzero;stroke:none;stroke-width:0.135157"
       id="path22" />
    <path
       d="m 1757.9228,1076.6214 c 0,0 0,0 -0.014,0 l -1093.18745,0.3109 c -2.47336,0 -4.48044,2.0138 -4.47909,4.4872 10e-4,2.4733 2.00707,4.4872 4.48043,4.4872 0,0 0,0 0.001,0 l 1093.19811,-0.3244 c 2.4733,0 4.4737,-2.0138 4.4737,-4.4872 0,-2.4733 -2.0004,-4.4737 -4.4737,-4.4737"
       style="fill:#000000;fill-opacity:1;fill-rule:nonzero;stroke:none;stroke-width:0.135157"
       id="path24" />
    <path
       d="m 2165.7575,1076.4999 -84.6079,0.026 c -2.4734,0 -4.4873,2.0002 -4.4873,4.4735 0,2.4734 2.0139,4.4873 4.4873,4.4873 v 0 l 84.4456,-0.026 13.8806,0.5271 c 14.1914,0 26.1258,10.5286 27.9234,24.4903 l 40.1144,308.8189 c 0.3108,2.46 2.5544,4.2035 5.0143,3.8656 2.4599,-0.3109 4.1899,-2.568 3.8655,-5.0143 l -40.101,-308.8191 c -2.3787,-18.4082 -18.1244,-32.3023 -36.6543,-32.3023 l -13.8806,-0.527"
       style="fill:#000000;fill-opacity:1;fill-rule:nonzero;stroke:none;stroke-width:0.135157"
       id="path26" />
    <path
       d="m 2318.7817,1928.8099 c -0.1893,0 -0.3785,0.014 -0.5813,0.041 -2.4463,0.3108 -4.1763,2.5679 -3.8654,5.0143 l 43.0067,331.1603 c 1.8652,14.4753 -3.1896,30.1399 -13.5156,41.885 -9.6772,11.0018 -22.8549,17.3271 -36.1544,17.3271 h -494.9565 c -2.4867,0 -4.4871,2.0004 -4.4871,4.4737 0,2.4734 2.0004,4.4736 4.4871,4.4736 h 494.9565 c 15.8674,0 31.505,-7.42 42.8851,-20.3545 12.1777,-13.8535 17.8948,-31.6942 15.6782,-48.9537 l -43.0067,-331.1603 c -0.2974,-2.2706 -2.2301,-3.9061 -4.4466,-3.9061"
       style="fill:#000000;fill-opacity:1;fill-rule:nonzero;stroke:none;stroke-width:0.135157"
       id="path28" />
    <path
       d="M 1594.8296,2324.2372 H 1213.837 c -2.4734,0 -4.4737,2.0004 -4.4737,4.4737 0,2.4734 2.0003,4.4736 4.4737,4.4736 h 380.9926 c 2.4733,0 4.4871,-2.0002 4.4871,-4.4736 0,-2.4733 -2.0138,-4.4737 -4.4871,-4.4737"
       style="fill:#000000;fill-opacity:1;fill-rule:nonzero;stroke:none;stroke-width:0.135157"
       id="path30" />
    <path
       d="m 464.32133,2257.2266 c -0.19327,0 -0.38655,0.014 -0.58388,0.041 -2.45308,0.3109 -4.18578,2.5681 -3.86546,5.0144 l 4.48855,34.5596 c 2.29764,17.8675 16.14714,36.3434 35.34205,36.3434 h 283.99076 c 2.47472,0 4.48044,-2.0002 4.48044,-4.4736 0,-2.4733 -2.00572,-4.4737 -4.48044,-4.4737 H 499.70259 c -14.07249,0 -24.68904,-14.8131 -26.45553,-28.5451 l -4.48989,-34.5595 c -0.29194,-2.257 -2.21927,-3.9059 -4.43584,-3.9059"
       style="fill:#000000;fill-opacity:1;fill-rule:nonzero;stroke:none;stroke-width:0.135157"
       id="path32" />
    <path
       d="m 351.50624,1388.4002 c -0.19328,0 -0.38791,0.014 -0.58388,0.041 -2.45444,0.3243 -4.18445,2.5679 -3.86547,5.0278 l 43.2825,333.3229 c 0.31762,2.4598 2.55311,4.2034 5.01971,3.8654 2.45309,-0.3109 4.18446,-2.568 3.86548,-5.0143 l -43.28251,-333.3364 c -0.29329,-2.2571 -2.21927,-3.9061 -4.43583,-3.9061"
       style="fill:#000000;fill-opacity:1;fill-rule:nonzero;stroke:none;stroke-width:0.135157"
       id="path34" />
    <path
       d="m 569.79339,2232.0875 c 12.16812,0 22.06159,-12.2588 20.50458,-24.3553 L 533.4782,1770.2308 c -0.79202,-6.1496 -6.01718,-10.7584 -12.20328,-10.7584 l -5.32652,-0.2028 -291.51357,0.2028 c -7.42144,0 -13.15343,6.5281 -12.20463,13.9076 l 57.96591,446.4082 c 0.79201,6.1496 5.52249,12.2993 11.7086,12.2993 h 287.88868"
       style="fill:#ffffff;fill-opacity:1;fill-rule:nonzero;stroke:none;stroke-width:0.135157"
       id="path36" />
    <path
       d="M 482.00385,1906.9415 H 285.41743 c -4.12497,0 -7.4674,3.3384 -7.4674,7.4742 0,4.1224 3.34243,7.4607 7.4674,7.4607 h 196.58642 c 4.12363,0 7.4674,-3.3383 7.4674,-7.4607 0,-4.1358 -3.34377,-7.4742 -7.4674,-7.4742"
       style="fill:#99b9ff;fill-opacity:1;fill-rule:nonzero;stroke:none;stroke-width:0.135157"
       id="path38" />
    <path
       d="m 372.03246,1863.151 h -94.40139 c -4.12363,0 -7.4674,3.3383 -7.4674,7.4605 0,4.1358 3.34377,7.4742 7.4674,7.4742 h 94.40139 c 4.12496,0 7.46739,-3.3384 7.46739,-7.4742 0,-4.1222 -3.34243,-7.4605 -7.46739,-7.4605"
       style="fill:#99b9ff;fill-opacity:1;fill-rule:nonzero;stroke:none;stroke-width:0.135157"
       id="path40" />
    <path
       d="M 467.40425,1816.4408 H 270.82053 c -4.12497,0 -7.46875,3.3384 -7.46875,7.4608 0,4.1357 3.34378,7.474 7.46875,7.474 h 196.58372 c 4.12498,0 7.46739,-3.3383 7.46739,-7.474 0,-4.1224 -3.34241,-7.4608 -7.46739,-7.4608"
       style="fill:#99b9ff;fill-opacity:1;fill-rule:nonzero;stroke:none;stroke-width:0.135157"
       id="path42" />
    <path
       d="m 313.4232,2076.5764 c 4.06956,54.2519 51.3135,94.9341 105.52475,90.8657 54.20856,-4.0682 94.85281,-51.3459 90.78325,-105.5977 -4.07091,-54.2519 -51.31485,-94.9475 -105.5234,-90.8791 -54.21126,4.0681 -94.85552,51.3458 -90.7846,105.6111 v 0"
       style="fill:#ffffff;fill-opacity:1;fill-rule:nonzero;stroke:none;stroke-width:0.135157"
       id="path44" />
    <path
       d="m 411.63869,1966.2077 c -2.57473,0 -5.15757,0.096 -7.76609,0.2973 -56.58594,4.2439 -99.16564,53.7652 -94.91767,110.3958 0.90824,12.11 3.88439,23.8146 8.84328,34.7758 1.01773,2.2571 3.6695,3.2438 5.92797,2.2436 2.25576,-1.0272 3.25726,-3.6763 2.23684,-5.9334 -4.52639,-10.0151 -7.24169,-20.6923 -8.07425,-31.7482 -3.8763,-51.7109 34.99605,-96.9207 86.65556,-100.7997 51.6514,-3.8654 96.83961,35.0325 100.7186,86.7434 1.87867,25.0445 -6.0996,49.3186 -22.4657,68.3622 -16.36745,19.03 -39.16024,30.5589 -64.18581,32.424 -28.12877,2.1219 -55.43577,-8.3797 -74.95102,-28.8019 -1.71244,-1.7976 -4.54801,-1.8517 -6.33749,-0.1351 -1.78677,1.703 -1.85164,4.5412 -0.14191,6.3253 21.37769,22.3684 51.3108,33.8567 82.10214,31.559 27.41244,-2.0678 52.38124,-14.678 70.30976,-35.5326 17.9258,-20.8546 26.66501,-47.44 24.60523,-74.8766 -4.05335,-54.0222 -49.28346,-95.2989 -102.55944,-95.2989"
       style="fill:#000000;fill-opacity:1;fill-rule:nonzero;stroke:none;stroke-width:0.135157"
       id="path46" />
    <path
       d="m 338.88532,2002.8215 c 16.33095,-17.9216 39.24674,-29.8966 65.32248,-31.8562 26.07439,-1.9462 50.52148,6.4603 69.34202,21.7465 -19.86124,7.8257 -42.43914,13.0831 -66.59295,14.9078 -24.15516,1.811 -47.26556,-0.026 -68.07155,-4.7981 v 0"
       style="fill:#99b9ff;fill-opacity:1;fill-rule:nonzero;stroke:none;stroke-width:0.135157"
       id="path48" />
    <path
       d="m 406.29462,1990.9683 v 0 c -8.55541,0.6353 -14.9713,8.0959 -14.32929,16.6649 l 5.93202,79.0665 30.98326,-2.3248 -5.93201,-79.0664 c -0.64201,-8.569 -8.09724,-14.9889 -16.65398,-14.3402 v 0"
       style="fill:#ffffff;fill-opacity:1;fill-rule:nonzero;stroke:none;stroke-width:0.135157"
       id="path50" />
    <path
       d="m 471.20891,2052.1808 c -0.10406,24.7066 11.86944,39.2224 -10.30973,68.7946 -22.96715,30.613 -45.96808,12.9749 -45.96808,12.9749 0,0 -16.84589,16.273 -42.76755,-13.1777 -22.87793,-25.9906 1.92328,-52.6705 -8.32294,-69.1595 -10.24485,-16.4756 -41.32815,-23.5443 -41.32815,-23.5443 0,0 8.27564,-20.233 19.70717,-29.7074 l 128.14725,-9.6231 c 0,0 28.65047,26.869 29.26408,35.0461 0,0 -28.31663,3.7033 -28.42205,28.3964"
       style="fill:#000000;fill-opacity:1;fill-rule:nonzero;stroke:none;stroke-width:0.135157"
       id="path52" />
    <path
       d="m 338.88532,2002.8215 c 16.33095,-17.9216 39.24674,-29.8966 65.32248,-31.8562 26.07439,-1.9462 50.52148,6.4603 69.34202,21.7465 -19.86124,7.8257 -42.43914,13.0831 -66.59295,14.9078 -24.15516,1.811 -47.26556,-0.026 -68.07155,-4.7981"
       style="fill:#99b9ff;fill-opacity:1;fill-rule:nonzero;stroke:none;stroke-width:0.135157"
       id="path54" />
    <path
       d="m 347.86916,2000.1185 c 15.54031,-14.3943 35.38398,-23.0848 56.67517,-24.6796 21.2912,-1.6083 42.20938,4.0276 59.72024,15.9484 -18.02987,6.2849 -37.38294,10.2314 -57.64423,11.7587 -20.25455,1.5137 -39.97929,0.5001 -58.75118,-3.0275 z m 63.76953,-33.9108 c -2.58148,0 -5.16972,0.096 -7.76609,0.2973 -26.27036,1.9599 -50.52554,13.7861 -68.29995,33.2891 l -5.16704,5.6765 7.4755,1.7166 c 22.01158,5.0548 45.36526,6.7037 69.41095,4.8926 24.05515,-1.8111 46.8993,-6.9199 67.90262,-15.1916 l 7.13355,-2.8248 -5.95364,-4.825 c -18.45562,-14.9888 -41.19435,-23.0307 -64.7359,-23.0307"
       style="fill:#000000;fill-opacity:1;fill-rule:nonzero;stroke:none;stroke-width:0.135157"
       id="path56" />
    <path
       d="m 416.82871,2111.1495 -1.07856,0.081 -33.90804,-29.356 -1.30562,-17.3946 c -0.87176,-11.61 4.64263,-22.2197 13.56295,-28.4099 l -2.13411,-28.4368 c -0.64201,-8.569 5.77388,-16.0297 14.32929,-16.6649 8.55674,-0.6487 16.01197,5.7711 16.65398,14.3401 l 2.09491,27.9098 c 10.2354,4.6087 17.69469,14.5428 18.59348,26.5312 l 1.39481,18.5975 c 1.26507,16.8541 -11.36396,31.532 -28.20309,32.8025"
       style="fill:#ffffff;fill-opacity:1;fill-rule:nonzero;stroke:none;stroke-width:0.135157"
       id="path58" />
    <path
       d="m 407.46912,1986.4406 c -0.50007,0 -1.00151,0.014 -1.50834,0.055 -11.00715,0.8245 -19.28818,10.4611 -18.46373,21.4764 l 2.07061,27.5719 c 0.18515,2.4733 2.33008,4.3115 4.8021,4.1357 2.4693,-0.1892 4.31824,-2.3381 4.13309,-4.7981 l -2.0706,-27.5852 c -0.45414,-6.0822 4.11957,-11.4072 10.1989,-11.8668 6.05636,-0.4326 11.39234,4.1358 11.85051,10.2178 l 2.03411,27.0988 c 0.18517,2.4735 2.33281,4.325 4.80212,4.1358 2.46931,-0.1891 4.31824,-2.3382 4.13173,-4.8115 l -2.03141,-27.0988 c -0.78931,-10.5018 -9.58665,-18.5301 -19.94909,-18.5301"
       style="fill:#000000;fill-opacity:1;fill-rule:nonzero;stroke:none;stroke-width:0.135157"
       id="path60" />
    <path
       d="m 412.10769,2025.9603 c -0.9042,0 -1.80974,0.041 -2.72611,0.1078 -2.46795,0.1757 -4.31689,2.3382 -4.13173,4.7981 0.18516,2.4734 2.32874,4.3115 4.80347,4.1358 14.91991,-1.149 27.9936,10.1232 29.1154,25.0715 l 1.39617,18.611 c 1.03259,13.7726 -8.72165,25.869 -22.29948,27.8018 l -32.13615,-27.3422 -1.12586,-15.0024 c -0.79471,-10.5962 4.71157,-20.76 14.0252,-25.8825 2.16927,-1.1893 2.95992,-3.906 1.76784,-6.082 -1.19207,-2.1625 -3.91548,-2.96 -6.08473,-1.7706 -12.38304,6.812 -19.70041,20.3141 -18.6435,34.4109 l 1.26643,16.854 c 0.0878,1.1894 0.65145,2.3112 1.56375,3.0815 l 35.02579,29.8155 c 0.90016,0.7569 2.06655,1.149 3.24917,1.0408 0.51225,-0.026 1.02315,-0.081 1.52727,-0.1487 18.68133,-2.2166 32.20779,-18.6786 30.79946,-37.4519 l -1.39617,-18.5975 c -1.42185,-18.9624 -17.29733,-33.4512 -35.99622,-33.4512"
       style="fill:#000000;fill-opacity:1;fill-rule:nonzero;stroke:none;stroke-width:0.135157"
       id="path62" />
    <path
       d="m 904.23678,1689.272 c 12.1614,0 22.0548,-12.2451 20.5005,-24.3551 l -56.81581,-437.5014 c -0.792,-6.1497 -6.01568,-10.7585 -12.20318,-10.7585 l -5.32521,-0.2027 -291.51493,0.2027 c -7.42144,0 -13.15343,6.5416 -12.20328,13.9212 l 57.96455,446.4082 c 0.79202,6.1496 5.5225,12.2856 11.70996,12.2856 h 287.8874"
       style="fill:#ffffff;fill-opacity:1;fill-rule:nonzero;stroke:none;stroke-width:0.135157"
       id="path64" />
    <path
       d="m 645.48505,1522.2457 c 0,53.9546 43.7042,97.6912 97.61948,97.6912 53.91255,0 97.61669,-43.7366 97.61669,-97.6912 0,-53.9679 -43.70414,-97.7046 -97.61669,-97.7046 -53.91528,0 -97.61948,43.7367 -97.61948,97.7046 v 0"
       style="fill:#ffffff;fill-opacity:1;fill-rule:nonzero;stroke:none;stroke-width:0.135157"
       id="path66" />
    <path
       d="m 674.38422,1451.2075 c 17.58249,-16.5973 41.27137,-26.788 67.35656,-26.788 26.08385,0 49.77407,10.1907 67.35658,26.788 -20.34104,6.2984 -43.19329,9.8394 -67.35658,9.8394 -24.16327,0 -47.01687,-3.541 -67.35656,-9.8394 v 0"
       style="fill:#5479f7;fill-opacity:1;fill-rule:nonzero;stroke:none;stroke-width:0.135157"
       id="path68" />
    <path
       d="m 683.55187,1449.1802 c 16.52558,-13.1372 36.90313,-20.287 58.18891,-20.287 21.28714,0 41.66333,7.1498 58.18757,20.287 -18.4029,4.9062 -37.93707,7.3795 -58.18757,7.3795 -20.25319,0 -39.78465,-2.4733 -58.18891,-7.3795 z m 58.18891,-29.2479 c -26.28252,0 -51.29457,9.9476 -70.43137,28.0044 -1.15965,1.0949 -1.64891,2.7301 -1.29075,4.271 0.35951,1.5543 1.51781,2.7977 3.03967,3.2707 21.51826,6.6633 44.62597,10.0423 68.68245,10.0423 24.05381,0 47.16151,-3.379 68.68247,-10.0423 1.52186,-0.473 2.68016,-1.7164 3.03832,-3.2707 0.36087,-1.5409 -0.12976,-3.1761 -1.2894,-4.271 -19.13545,-18.0568 -44.14885,-28.0044 -70.43139,-28.0044"
       style="fill:#000000;fill-opacity:1;fill-rule:nonzero;stroke:none;stroke-width:0.135157"
       id="path70" />
    <path
       d="m 773.20115,1579.3223 c -4.42232,2.8518 -9.57447,4.3657 -14.83881,4.3657 h -30.98193 c -6.91596,0 -13.57646,-2.6222 -18.64618,-7.3256 l -1.69892,-1.5814 c -8.05127,-7.474 -10.85847,-19.03 -7.13221,-29.3694 l 10.18539,-28.2747 65.31707,0.4188 9.22037,30.8834 c 3.48435,11.691 -1.17045,24.274 -11.42478,30.8832"
       style="fill:#000000;fill-opacity:1;fill-rule:nonzero;stroke:none;stroke-width:0.135157"
       id="path72" />
    <path
       d="m 757.04861,1566.996 c -0.14056,0.055 -0.42439,0.1892 -0.42439,0.1892 l -46.87902,-30.4507 v -18.3678 c 0,-10.5016 4.91159,-19.8545 12.55063,-25.9094 v -27.9774 c 0,-11.0693 8.96764,-20.0303 20.02884,-20.0303 11.06255,0 20.03019,8.961 20.03019,20.0303 v 27.261 c 8.18778,6.0145 13.52375,15.6918 13.52375,26.6258 v 19.4761 c 0,12.9751 -7.72824,24.139 -18.83,29.1532"
       style="fill:#ffffff;fill-opacity:1;fill-rule:nonzero;stroke:none;stroke-width:0.135157"
       id="path74" />
    <path
       d="m 742.81122,1480.8204 c -2.4747,0 -4.48043,2.0137 -4.48043,4.4871 0,2.4734 2.00573,4.4737 4.48043,4.4737 15.76331,0 28.58696,12.8263 28.58696,28.5855 v 19.4761 c 0,15.1511 -12.32763,27.4774 -27.48002,27.4774 h -29.69117 v -46.9535 c 0,-11.1774 6.57536,-21.3952 16.75535,-26.031 2.2517,-1.0272 3.24645,-3.6764 2.22197,-5.9334 -1.02719,-2.2571 -3.68437,-3.2438 -5.93472,-2.23 -13.36698,6.0954 -22.00482,19.5165 -22.00482,34.1944 v 51.4407 c 0,2.4733 2.00572,4.4736 4.48043,4.4736 h 34.17296 c 20.09371,0 36.44224,-16.3404 36.44224,-36.4382 v -19.4761 c 0,-20.706 -16.84455,-37.5463 -37.54918,-37.5463"
       style="fill:#000000;fill-opacity:1;fill-rule:nonzero;stroke:none;stroke-width:0.135157"
       id="path76" />
    <path
       d="m 741.71647,1420.054 c -26.52987,0 -53.04081,10.1908 -73.09804,30.5319 -19.25979,19.5165 -29.76415,45.3719 -29.57763,72.7951 0.18651,27.4233 11.04228,53.13 30.56563,72.4033 38.39255,37.8709 100.00227,39.4928 140.26404,3.6898 1.84758,-1.6488 2.01382,-4.4872 0.37031,-6.3253 -1.6462,-1.8516 -4.47637,-2.0138 -6.32801,-0.3784 -36.73958,32.6808 -92.97143,31.1942 -128.01346,-3.3654 -17.81902,-17.5838 -27.72735,-41.0471 -27.89628,-66.078 -0.17031,-25.0311 9.41635,-48.6294 26.9948,-66.4564 36.2868,-36.7761 95.73807,-37.1951 132.52362,-0.8921 19.28276,19.0166 29.38571,45.4531 27.71923,72.5115 -0.15408,2.4599 1.7273,4.5953 4.19662,4.7439 2.46114,0.1623 4.59536,-1.7299 4.74672,-4.2033 1.82732,-29.6398 -9.24068,-58.5903 -30.36969,-79.4314 -19.97072,-19.7059 -46.04376,-29.5317 -72.09786,-29.5452"
       style="fill:#000000;fill-opacity:1;fill-rule:nonzero;stroke:none;stroke-width:0.135157"
       id="path78" />
    <path
       d="m 742.32467,1439.9759 c -13.5143,0 -24.50928,10.9883 -24.50928,24.504 v 27.9774 c 0,2.4733 2.00572,4.4872 4.48044,4.4872 2.47606,0 4.48179,-2.0139 4.48179,-4.4872 v -27.9774 c 0,-8.569 6.97407,-15.543 15.54705,-15.543 8.57297,0 15.54975,6.974 15.54975,15.543 v 26.5582 c 0,2.4734 2.00571,4.4736 4.48044,4.4736 2.47606,0 4.48043,-2.0002 4.48043,-4.4736 v -26.5582 c 0,-13.5157 -10.99634,-24.504 -24.51062,-24.504"
       style="fill:#000000;fill-opacity:1;fill-rule:nonzero;stroke:none;stroke-width:0.135157"
       id="path80" />
    <path
       d="m 2078.7033,1406.7545 c 10.1366,0 18.3812,-10.2043 17.0836,-20.2734 l -47.3182,-364.3683 c -0.6622,-5.1224 -5.0143,-8.9608 -10.1638,-8.9608 l -4.4331,-0.1622 -242.7951,0.1622 c -6.1766,0 -10.9478,5.4467 -10.1637,11.5963 l 48.2778,371.7749 c 0.6623,5.1223 4.5953,10.2313 9.7583,10.2313 h 239.7542"
       style="fill:#ffffff;fill-opacity:1;fill-rule:nonzero;stroke:none;stroke-width:0.135157"
       id="path82" />
    <path
       d="m 1872.5085,1281.0726 c 2.6084,40.7631 37.7762,71.7005 78.5394,69.0784 40.7632,-2.622 71.7006,-37.7763 69.0784,-78.5529 -2.6086,-40.7632 -37.7762,-71.6869 -78.5394,-69.065 -40.7766,2.6086 -71.7005,37.7762 -69.0784,78.5395"
       style="fill:#ffffff;fill-opacity:1;fill-rule:nonzero;stroke:none;stroke-width:0.135157"
       id="path84" />
    <path
       d="m 1872.5085,1281.0726 h 0.026 z m 73.7143,64.7533 c -16.8811,0 -32.9918,-6.0549 -45.791,-17.3134 -13.9346,-12.2587 -22.2603,-29.2073 -23.4497,-47.7238 v 0 c -1.1892,-18.5164 4.9062,-36.3976 17.1649,-50.3323 12.2452,-13.9346 29.1939,-22.2737 47.7237,-23.4631 38.2358,-2.4599 71.3356,26.6664 73.782,64.9021 2.4598,38.2222 -26.6529,71.3356 -64.8886,73.7819 -1.5138,0.095 -3.041,0.1486 -4.5413,0.1486 z m 0.1486,-147.9286 c -1.6894,0 -3.3788,0.055 -5.0818,0.1621 -43.1554,2.7708 -76.0256,40.1416 -73.2548,83.297 v 0 c 1.338,20.9087 10.7449,40.0469 26.4771,53.8869 15.7457,13.84 35.9246,20.7195 56.8333,19.3813 43.1555,-2.7706 76.0255,-40.1414 73.2549,-83.3103 -2.6626,-41.4524 -37.2491,-73.417 -78.2287,-73.417"
       style="fill:#000000;fill-opacity:1;fill-rule:nonzero;stroke:none;stroke-width:0.135157"
       id="path86" />
    <path
       d="m 1931.9638,1295.7911 c 0.5541,8.5824 7.9473,15.097 16.5297,14.5429 8.5823,-0.5542 15.097,-7.9608 14.5428,-16.5432 -0.5407,-8.5825 -7.9473,-15.0836 -16.5297,-14.5428 -8.5824,0.5541 -15.097,7.9607 -14.5428,16.5431"
       style="fill:#ffffff;fill-opacity:1;fill-rule:nonzero;stroke:none;stroke-width:0.135157"
       id="path88" />
    <path
       d="m 1936.4374,1295.5073 c -0.1891,-2.96 0.7841,-5.8118 2.7303,-8.0419 1.9597,-2.2166 4.6629,-3.5545 7.6227,-3.7438 6.1091,-0.3515 11.3938,4.2574 11.7857,10.3666 0.3785,6.0954 -4.2573,11.3802 -10.3664,11.7721 -2.9466,0.2161 -5.8118,-0.784 -8.0284,-2.7437 -2.2301,-1.9463 -3.5546,-4.6629 -3.7439,-7.6093 z m 11.0964,-20.7601 c -0.446,0 -0.8784,0 -1.311,0.041 -5.3522,0.338 -10.2449,2.7438 -13.7725,6.758 -3.5411,4.0276 -5.2981,9.1906 -4.9602,14.5292 v 0 c 0.3379,5.3523 2.7437,10.2449 6.7714,13.7725 4.0141,3.5411 9.2041,5.3117 14.5292,4.9602 11.0289,-0.7163 19.4221,-10.2718 18.7193,-21.3006 -0.3379,-5.3388 -2.7437,-10.2313 -6.7714,-13.7726 -3.6897,-3.2435 -8.3392,-4.9871 -13.2048,-4.9871"
       style="fill:#000000;fill-opacity:1;fill-rule:nonzero;stroke:none;stroke-width:0.135157"
       id="path90" />
    <path
       d="m 1945.3442,1261.0829 v 0 c -17.9756,1.1489 -33.4782,-12.4884 -34.627,-30.4507 l -1.1893,-18.4624 c 9.515,-5.4603 20.3814,-8.8933 32.059,-9.6367 11.6776,-0.7569 22.8956,1.2571 33.0187,5.4603 l 1.1759,18.4624 c 1.1624,17.9759 -12.4749,33.4648 -30.4373,34.6271"
       style="fill:#5479f7;fill-opacity:1;fill-rule:nonzero;stroke:none;stroke-width:0.135157"
       id="path92" />
    <path
       d="m 1974.6056,1207.9934 h 0.026 z m -60.4148,6.7308 c 8.5959,-4.5006 17.8947,-7.0957 27.6799,-7.7309 9.7854,-0.6353 19.341,0.7704 28.437,4.1358 l 1.0001,15.6105 c 0.4866,7.5014 -1.9731,14.7321 -6.9335,20.3682 -4.9602,5.6496 -11.8262,9.0149 -19.3273,9.5014 v 0 c -7.5012,0.5001 -14.7321,-1.9868 -20.3682,-6.947 -5.6359,-4.9602 -9.0149,-11.8126 -9.4879,-19.3139 z m 32.2482,-16.8404 c -1.703,0 -3.4193,0.055 -5.1494,0.1756 -12.0829,0.7705 -23.5172,4.217 -33.9919,10.2178 -1.4731,0.8516 -2.3516,2.4734 -2.2435,4.1765 l 1.1894,18.4623 c 0.6353,9.8934 5.0818,18.9354 12.5155,25.4771 7.4471,6.5415 17.0026,9.7988 26.8691,9.1635 v 0 c 9.8798,-0.6352 18.9218,-5.0819 25.4634,-12.5291 6.5416,-7.4334 9.7989,-16.9755 9.1636,-26.8555 l -1.1759,-18.4624 c -0.1217,-1.703 -1.1893,-3.2032 -2.7572,-3.852 -9.569,-3.9601 -19.5977,-5.9738 -29.8831,-5.9738"
       style="fill:#000000;fill-opacity:1;fill-rule:nonzero;stroke:none;stroke-width:0.135157"
       id="path94" />
    <path
       d="m 2020.3021,1149.4708 h -173.8788 c -4.1358,0 -7.4742,3.3518 -7.4742,7.474 0,4.1223 3.3384,7.4608 7.4742,7.4608 h 173.8788 c 4.1222,0 7.4607,-3.3385 7.4607,-7.4608 0,-4.1222 -3.3385,-7.474 -7.4607,-7.474"
       style="fill:#99b9ff;fill-opacity:1;fill-rule:nonzero;stroke:none;stroke-width:0.135157"
       id="path96" />
    <path
       d="m 1970.159,1107.0722 h -130.1421 c -4.1224,0 -7.4742,3.3382 -7.4742,7.474 0,4.1224 3.3518,7.4608 7.4742,7.4608 h 130.1421 c 4.1224,0 7.4742,-3.3384 7.4742,-7.4608 0,-4.1358 -3.3518,-7.474 -7.4742,-7.474"
       style="fill:#99b9ff;fill-opacity:1;fill-rule:nonzero;stroke:none;stroke-width:0.135157"
       id="path98" />
    <path
       d="M 2006.6918,1063.8626 H 1832.813 c -4.1222,0 -7.4606,3.3519 -7.4606,7.4742 0,4.1222 3.3384,7.4742 7.4606,7.4742 h 173.8788 c 4.1357,0 7.4742,-3.352 7.4742,-7.4742 0,-4.1223 -3.3385,-7.4742 -7.4742,-7.4742"
       style="fill:#99b9ff;fill-opacity:1;fill-rule:nonzero;stroke:none;stroke-width:0.135157"
       id="path100" />
    <path
       d="m 2461.4392,1911.2531 c 12.1641,0 22.0576,-12.2452 20.5033,-24.3552 l -56.8198,-437.488 c -0.7975,-6.1631 -6.0144,-10.7584 -12.2047,-10.7584 l -5.3251,-0.2028 -291.519,0.2028 c -7.4201,0 -13.1507,6.5281 -12.2046,13.9077 l 57.9687,446.4082 c 0.7972,6.1496 5.5278,12.2857 11.7044,12.2857 h 287.8968"
       style="fill:#ffffff;fill-opacity:1;fill-rule:nonzero;stroke:none;stroke-width:0.135157"
       id="path102" />
    <path
       d="m 2373.8443,1594.5544 h -193.7198 c -4.1222,0 -7.4606,3.3384 -7.4606,7.4607 0,4.1222 3.3384,7.4741 7.4606,7.4741 h 193.7198 c 4.1223,0 7.4742,-3.3519 7.4742,-7.4741 0,-4.1223 -3.3519,-7.4607 -7.4742,-7.4607"
       style="fill:#99b9ff;fill-opacity:1;fill-rule:nonzero;stroke:none;stroke-width:0.135157"
       id="path104" />
    <path
       d="m 2317.9842,1547.3038 h -144.9823 c -4.1224,0 -7.4742,3.3519 -7.4742,7.4741 0,4.1223 3.3518,7.4606 7.4742,7.4606 h 144.9823 c 4.1358,0 7.4741,-3.3383 7.4741,-7.4606 0,-4.1222 -3.3383,-7.4741 -7.4741,-7.4741"
       style="fill:#99b9ff;fill-opacity:1;fill-rule:nonzero;stroke:none;stroke-width:0.135157"
       id="path106" />
    <path
       d="m 2358.6934,1499.1745 h -193.7198 c -4.1223,0 -7.4607,3.3384 -7.4607,7.4742 0,4.1222 3.3384,7.4606 7.4607,7.4606 h 193.7198 c 4.1222,0 7.4741,-3.3384 7.4741,-7.4606 0,-4.1358 -3.3519,-7.4742 -7.4741,-7.4742"
       style="fill:#99b9ff;fill-opacity:1;fill-rule:nonzero;stroke:none;stroke-width:0.135157"
       id="path108" />
    <path
       d="m 2263.1917,1844.2965 c -39.9117,-20.8276 -61.4556,-67.2403 -49.278,-112.5042 5.5414,-20.5843 17.2459,-37.8574 32.5593,-50.3998 0.4189,-0.3379 0.8514,-0.6622 1.2839,-0.9731 l 8.0959,-5.8388 c 22.4494,-14.34 50.6297,-19.5571 78.3907,-12.0829 52.3597,14.0832 84.4458,73.6737 69.2813,120.3161 -11.8262,36.3978 -26.4097,50.4676 -53.9681,64.0237 -42.1012,20.706 -86.365,-2.541 -86.365,-2.541"
       style="fill:#ffffff;fill-opacity:1;fill-rule:nonzero;stroke:none;stroke-width:0.135157"
       id="path110" />
    <path
       d="m 2303.8603,1701.8145 c -25.0174,1.3112 -48.9535,-0.8243 -70.7408,-5.7575 4.0547,-4.8927 8.5554,-9.3528 13.421,-13.34 0.4055,-0.3379 0.8379,-0.6623 1.2705,-0.9866 l 8.0959,-5.8253 c 22.463,-14.3535 49.3185,-19.5031 77.0796,-12.0288 16.0566,4.3249 30.2076,12.9345 41.6823,24.1388 -21.7737,7.6229 -44.8584,12.4615 -70.8085,13.7994"
       style="fill:#5479f7;fill-opacity:1;fill-rule:nonzero;stroke:none;stroke-width:0.135157"
       id="path112" />
    <path
       d="m 2241.6478,1693.2592 c 2.4463,-2.5003 5.0278,-4.8655 7.7309,-7.0822 0.338,-0.2703 0.6893,-0.5407 1.0678,-0.8109 l 8.0823,-5.8388 c 22.3144,-14.2319 47.7373,-18.2055 73.2955,-11.3261 12.2721,3.2978 23.9496,9.4745 34.1404,17.9893 -20.1113,6.3659 -40.5875,10.0287 -62.3341,11.1504 v 0 c -21.2872,1.1083 -42.1013,-0.2703 -61.9828,-4.0817 z m 66.1591,-37.222 c -18.9896,0 -37.6546,5.4467 -54.3058,16.0836 l -8.3123,5.9739 c -0.5,0.3784 -1.0001,0.7568 -1.4866,1.1488 -5.0955,4.1764 -9.8259,8.8664 -14.0292,13.9617 -1.0002,1.1893 -1.2976,2.8248 -0.7974,4.2979 0.5001,1.4732 1.73,2.5816 3.2572,2.9194 22.9226,5.19 47.1291,7.1499 71.9573,5.8657 v 0 c 25.2202,-1.2974 48.7915,-5.8928 72.0518,-14.0426 1.4733,-0.5137 2.5681,-1.7436 2.8924,-3.2574 0.338,-1.5136 -0.135,-3.095 -1.2433,-4.1763 -12.5021,-12.2046 -27.5855,-20.9492 -43.6421,-25.2607 -8.731,-2.3517 -17.5838,-3.514 -26.342,-3.514"
       style="fill:#000000;fill-opacity:1;fill-rule:nonzero;stroke:none;stroke-width:0.135157"
       id="path114" />
    <path
       d="m 2371.5197,1761.8917 c -8.0284,35.2082 -25.7878,81.7021 -63.3614,77.8367 -36.0327,-3.7034 -54.7113,-42.1825 -63.8749,-72.2412 -5.5685,-18.3002 7.7174,-36.9248 26.815,-37.9249 l 70.038,-3.6358 c 19.5302,-1.0137 34.7217,16.8946 30.3833,35.9652"
       style="fill:#000000;fill-opacity:1;fill-rule:nonzero;stroke:none;stroke-width:0.135157"
       id="path116" />
    <path
       d="m 2342.5286,1803.6957 c -0.014,0.081 -0.041,0.2567 -0.041,0.2567 l -63.5777,3.4464 c 0,0 -0.041,-0.094 -0.055,-0.1486 -0.9866,-3.1221 -1.5948,-6.447 -1.7705,-9.9069 l -0.9731,-18.6112 c -0.6488,-12.4614 4.6763,-23.7199 13.2724,-30.5588 l -2.5275,-48.6023 c -0.5001,-9.6637 6.9334,-17.9082 16.5972,-18.4083 9.6637,-0.5001 17.9082,6.9335 18.4083,16.5972 l 2.4868,47.8725 c 9.8259,5.7576 16.7595,16.7594 17.4218,29.6939 l 1.0947,20.9898 c 0.1351,2.5273 0.014,4.9872 -0.3379,7.3796"
       style="fill:#ffffff;fill-opacity:1;fill-rule:nonzero;stroke:none;stroke-width:0.135157"
       id="path118" />
    <path
       d="m 2304.401,1676.6619 c -0.3919,0 -0.784,0 -1.176,0.026 -12.1234,0.6353 -21.4763,11.0017 -20.8411,23.1252 l 2.4465,47.1427 c 0.135,2.4734 2.2705,4.352 4.7034,4.2438 2.4733,-0.1351 4.3791,-2.23 4.2439,-4.7034 l -2.4463,-47.1561 c -0.365,-7.1767 5.1764,-13.3264 12.3532,-13.7049 3.5005,-0.1756 6.8255,1.0003 9.4204,3.3385 2.5815,2.3382 4.1087,5.5279 4.2845,9.015 l 2.4598,47.3318 c 0.1352,2.4733 2.2572,4.3654 4.7035,4.2439 2.4734,-0.1219 4.379,-2.2302 4.2439,-4.7035 l -2.4464,-47.3318 c -0.3108,-5.8794 -2.8788,-11.272 -7.2443,-15.2052 -4.0818,-3.6762 -9.2582,-5.663 -14.705,-5.663"
       style="fill:#000000;fill-opacity:1;fill-rule:nonzero;stroke:none;stroke-width:0.135157"
       id="path120" />
    <path
       d="m 2309.1721,1759.7426 c -0.2704,0 -0.5542,0 -0.8246,0.014 -4.825,0.2162 -9.3527,2.4194 -12.4479,6.0414 -1.5948,1.8787 -1.3785,4.7171 0.5,6.312 1.8924,1.6083 4.7171,1.392 6.3254,-0.5001 1.4867,-1.7301 3.6763,-2.7977 6.028,-2.906 2.4869,-0.081 4.7981,0.7975 6.6092,2.5545 1.7705,1.73 4.5953,1.703 6.3388,-0.081 1.7165,-1.7705 1.6895,-4.6087 -0.081,-6.3253 -3.4061,-3.3112 -7.7986,-5.1088 -12.4479,-5.1088"
       style="fill:#000000;fill-opacity:1;fill-rule:nonzero;stroke:none;stroke-width:0.135157"
       id="path122" />
    <path
       d="m 2308.7125,1736.8608 c -0.6217,0 -1.2299,0.014 -1.8517,0.041 -2.4734,0.1351 -4.3655,2.2435 -4.244,4.7034 0.1352,2.4734 2.2302,4.3656 4.7171,4.244 7.4741,-0.3786 14.732,2.4462 20.3816,7.9605 5.7441,5.6227 9.1501,13.3537 9.5826,21.7468 l 1.0947,20.9898 c 0.8515,16.5432 -10.6773,30.6264 -25.7068,31.4105 -7.812,0.4324 -15.3132,-2.541 -21.1789,-8.2852 -5.9605,-5.8387 -9.5015,-13.84 -9.9476,-22.5576 l -0.9731,-18.611 c -0.6353,-12.2589 5.3657,-23.7606 15.2727,-29.3291 2.1625,-1.2028 2.9329,-3.9329 1.7164,-6.0954 -1.2029,-2.1625 -3.933,-2.9194 -6.0955,-1.7166 -12.8668,7.2173 -20.6519,21.9765 -19.841,37.6007 l 0.9731,18.6109 c 0.5678,10.9747 5.055,21.098 12.6236,28.5045 7.6769,7.5147 17.5703,11.3532 27.9233,10.8261 19.9627,-1.0407 35.303,-19.3544 34.1812,-40.8173 l -1.0948,-21.0033 c -0.5542,-10.6368 -4.9062,-20.4763 -12.2586,-27.68 -7.0012,-6.839 -15.908,-10.5422 -25.2743,-10.5422"
       style="fill:#000000;fill-opacity:1;fill-rule:nonzero;stroke:none;stroke-width:0.135157"
       id="path124" />
    <path
       d="m 2307.7393,1656.1858 c -44.5476,0 -85.5946,29.4235 -98.2857,74.3766 -15.3134,54.1708 16.3268,110.7066 70.5111,126.0063 26.2337,7.4066 53.8058,4.1628 77.6068,-9.1636 23.8012,-13.3128 40.9795,-35.1001 48.3996,-61.3475 5.0953,-18.0434 5.1359,-37.0733 0.1352,-55.0356 -0.6623,-2.3788 -3.1223,-3.7708 -5.5144,-3.1222 -2.3789,0.6758 -3.7709,3.1357 -3.1086,5.5279 4.5546,16.3809 4.5006,33.7351 -0.1352,50.1971 -6.7714,23.9363 -22.4496,43.8178 -44.1557,55.9684 -21.7062,12.1369 -46.8588,15.1103 -70.7949,8.3526 -49.4268,-13.9616 -78.2826,-65.5239 -64.3209,-114.9506 13.9481,-49.4267 65.5102,-78.269 114.9369,-64.321 21.3682,6.0281 39.8983,19.5166 52.1975,37.9655 1.3651,2.068 4.1493,2.6221 6.2037,1.2434 2.0679,-1.365 2.622,-4.1493 1.2569,-6.2036 -13.4751,-20.2329 -33.8026,-35.0191 -57.2116,-41.6282 -9.2447,-2.6221 -18.5571,-3.8655 -27.7207,-3.8655"
       style="fill:#000000;fill-opacity:1;fill-rule:nonzero;stroke:none;stroke-width:0.135157"
       id="path126" />
    <path
       d="m 815.0483,1851.3923 c -44.24751,-12.1235 -89.93717,13.9481 -102.05259,58.2254 -12.11542,44.2772 13.93327,90.0007 58.17945,102.1242 44.24618,12.1235 89.93577,-13.9482 102.0526,-58.2254 12.11408,-44.2773 -13.93337,-90.0006 -58.17946,-102.1242 z m 141.89668,113.9099 -5.6765,20.7465 c -0.8245,3.0411 -3.6628,5.1088 -6.812,4.9602 l -25.423,-1.1623 c -2.6624,-0.1219 -5.1222,1.3651 -6.3387,3.7438 -2.1219,4.0952 -4.4196,8.0687 -6.9078,11.8802 -1.4584,2.2301 -1.549,5.0819 -0.1393,7.339 l 13.467,21.598 c 1.676,2.6626 1.257,6.1361 -0.9732,8.3527 l -15.2807,15.124 c -2.2408,2.2166 -5.7212,2.5951 -8.37827,0.892 l -21.45616,-13.7319 c -2.24763,-1.4461 -5.10752,-1.3785 -7.35515,0.055 -3.85066,2.4599 -7.82298,4.7306 -11.902,6.785 -2.38007,1.2028 -3.88564,3.6357 -3.79379,6.2982 l 0.87714,25.4905 c 0.11,3.1492 -1.97868,5.9469 -5.02645,6.7579 l -20.78297,5.4468 c -3.05049,0.7973 -6.24694,-0.6218 -7.69716,-3.4195 l -11.69915,-22.5847 c -1.22722,-2.3787 -3.73166,-3.7572 -6.39695,-3.6357 -4.54125,0.2028 -9.11901,0.1623 -13.71704,-0.093 -2.66798,-0.1621 -5.19542,1.1893 -6.45101,3.5547 l -11.96,22.49 c -1.47997,2.7707 -4.69263,4.1628 -7.73365,3.3249 l -20.72219,-5.6767 c -3.03966,-0.8244 -5.09675,-3.6628 -4.95348,-6.7984 l 1.15559,-25.4634 c 0.12032,-2.6762 -1.36508,-5.1224 -3.73843,-6.3389 -4.09389,-2.1219 -8.05128,-4.4196 -11.85728,-6.9064 -2.23278,-1.4598 -5.09134,-1.5543 -7.35387,-0.1352 l -21.5615,13.4616 c -2.67475,1.6759 -6.15097,1.2705 -8.36755,-0.9732 l -15.11184,-15.2861 c -2.21521,-2.2437 -2.58283,-5.7172 -0.88662,-8.3798 l 13.73189,-21.4764 c 1.43537,-2.257 1.3759,-5.1088 -0.0595,-7.3524 -2.46121,-3.852 -4.72779,-7.8392 -6.78891,-11.9208 -1.20154,-2.3788 -3.63166,-3.8925 -6.29694,-3.798 l -25.45537,0.8786 c -3.1505,0.1078 -5.95634,-1.9733 -6.75513,-5.0278 l -5.4495,-20.8007 c -0.79877,-3.0544 0.62036,-6.2442 3.4181,-7.7038 l 22.57519,-11.7046 c 2.36659,-1.2299 3.74113,-3.7303 3.62355,-6.3928 -0.20139,-4.5548 -0.1649,-9.1366 0.10406,-13.7454 0.15543,-2.6627 -1.19613,-5.19 -3.55191,-6.4471 l -22.47652,-11.9612 c -2.78151,-1.4867 -4.16552,-4.6899 -3.33431,-7.731 l 5.67657,-20.7464 c 0.83257,-3.0412 3.66003,-5.109 6.80919,-4.9604 l 25.42698,1.1624 c 2.67069,0.1219 5.12108,-1.3651 6.3456,-3.7439 2.11115,-4.1087 4.41422,-8.0688 6.90244,-11.8802 1.45698,-2.23 1.54889,-5.0819 0.13921,-7.339 L 667.106,1828.729 c -1.66648,-2.6625 -1.26102,-6.1361 0.97853,-8.3526 l 15.27674,-15.124 c 2.24223,-2.2166 5.72252,-2.5951 8.37835,-0.892 l 21.45608,13.7318 c 2.24766,1.4462 5.10892,1.3786 7.35657,-0.055 3.84925,-2.4597 7.82151,-4.7305 11.90053,-6.7848 2.3801,-1.2029 3.88575,-3.6357 3.79519,-6.2983 l -0.87852,-25.4905 c -0.10813,-3.1492 1.97869,-5.9604 5.02781,-6.7579 l 20.78166,-5.4467 c 3.05049,-0.7975 6.24695,0.6216 7.69853,3.4194 l 11.69913,22.5847 c 1.22723,2.3786 3.73302,3.7438 6.39696,3.6357 4.54126,-0.2028 9.11766,-0.1622 13.71568,0.095 2.66664,0.1623 5.19542,-1.1893 6.44967,-3.5545 l 11.96135,-22.4901 c 1.48131,-2.7842 4.69397,-4.1628 7.735,-3.3248 l 20.72214,5.6766 c 3.03974,0.8244 5.09685,3.6492 4.95352,6.7984 l -1.15687,25.4634 c -0.12034,2.6626 1.36367,5.1224 3.73846,6.3388 4.09519,2.122 8.05123,4.4195 11.85734,6.9065 2.2341,1.4597 5.09267,1.5543 7.35515,0.1352 l 21.56138,-13.4616 c 2.6748,-1.6759 6.1497,-1.2705 8.3676,0.9731 l 15.1105,15.2863 c 2.2166,2.2435 2.5815,5.7171 0.8921,8.3797 l -13.7373,21.4762 c -1.4341,2.2437 -1.3759,5.109 0.059,7.3526 2.4598,3.8519 4.7304,7.8391 6.7848,11.9209 1.2029,2.3786 3.6357,3.8788 6.2982,3.7977 l 25.4636,-0.8784 c 3.1491,-0.1078 5.9468,1.9733 6.7443,5.0278 l 5.4602,20.8005 c 0.7975,3.0546 -0.6216,6.2443 -3.4194,7.6904 l -22.5846,11.7182 c -2.3653,1.2299 -3.7303,3.7302 -3.6222,6.3929 0.2026,4.5548 0.1757,9.1365 -0.096,13.7454 -0.1621,2.6625 1.1894,5.19 3.541,6.4468 l 22.4766,11.9614 c 2.7843,1.4868 4.1763,4.69 3.3383,7.7311"
       style="fill:#5479f7;fill-opacity:1;fill-rule:nonzero;stroke:none;stroke-width:0.135157"
       id="path128" />
    <path
       d="m 2040.6296,2009.5253 c -41.6417,-11.4072 -84.6484,13.1238 -96.0422,54.7925 -11.4072,41.6687 13.1101,84.7025 54.752,96.1097 41.628,11.4072 84.635,-13.1238 96.0285,-54.7924 11.4073,-41.6688 -13.1101,-84.6891 -54.7383,-96.1098 z m 133.521,107.2061 -5.3386,19.5166 c -0.7839,2.8653 -3.4464,4.7981 -6.4064,4.6629 l -23.9227,-1.0812 c -2.5139,-0.1219 -4.8252,1.2839 -5.9739,3.514 -1.9868,3.8656 -4.1493,7.5823 -6.501,11.1775 -1.3651,2.0949 -1.4598,4.7845 -0.1219,6.9064 l 12.6641,20.3277 c 1.5814,2.5138 1.1894,5.7846 -0.9191,7.866 l -14.3671,14.232 c -2.1084,2.0814 -5.3927,2.4328 -7.8931,0.838 l -20.1924,-12.9345 c -2.1085,-1.3516 -4.7981,-1.2975 -6.92,0.055 -3.6223,2.3248 -7.366,4.4602 -11.1909,6.3929 -2.2437,1.1353 -3.6628,3.4195 -3.5816,5.9334 l 0.8243,23.9768 c 0.1078,2.9598 -1.8516,5.6089 -4.7304,6.3523 l -19.5573,5.136 c -2.8652,0.7568 -5.8791,-0.5812 -7.2443,-3.2167 l -11.0017,-21.2602 c -1.1624,-2.2301 -3.5141,-3.5276 -6.028,-3.4194 -4.271,0.1891 -8.5689,0.1621 -12.9074,-0.096 -2.5004,-0.1486 -4.8792,1.1353 -6.0686,3.3519 l -11.2585,21.1654 c -1.392,2.6086 -4.406,3.9197 -7.2714,3.1357 l -19.5031,-5.3522 c -2.8518,-0.7704 -4.7981,-3.433 -4.6629,-6.393 l 1.0948,-23.9631 c 0.1078,-2.514 -1.284,-4.8115 -3.5141,-5.9739 -3.8655,-1.9869 -7.5823,-4.1494 -11.1639,-6.4876 -2.1084,-1.3786 -4.7981,-1.4597 -6.92,-0.1352 l -20.2869,12.6777 c -2.5275,1.5678 -5.7982,1.1895 -7.8797,-0.919 l -14.2184,-14.3942 c -2.0815,-2.1084 -2.4329,-5.3793 -0.8381,-7.8797 l 12.921,-20.2193 c 1.3517,-2.1085 1.2976,-4.7981 -0.055,-6.9065 -2.3111,-3.6357 -4.4466,-7.3796 -6.3929,-11.218 -1.1219,-2.2436 -3.4195,-3.6628 -5.9199,-3.5682 l -23.9632,0.8245 c -2.96,0.096 -5.5955,-1.8651 -6.3524,-4.7304 l -5.1224,-19.5843 c -0.7569,-2.8652 0.5813,-5.8792 3.2168,-7.2443 l 21.2466,-11.0153 c 2.2166,-1.1623 3.514,-3.514 3.4059,-6.0144 -0.1892,-4.2845 -0.1621,-8.5959 0.093,-12.9344 0.1486,-2.514 -1.1218,-4.8928 -3.3383,-6.0686 l -21.152,-11.2585 c -2.6221,-1.4056 -3.9195,-4.4197 -3.1357,-7.285 l 5.3387,-19.5165 c 0.7838,-2.8653 3.4465,-4.7981 6.4065,-4.6629 l 23.9227,1.0812 c 2.5138,0.1218 4.825,-1.284 5.9739,-3.5141 1.9868,-3.8655 4.1628,-7.5957 6.501,-11.1774 1.3651,-2.095 1.4597,-4.7846 0.1351,-6.9065 l -12.6777,-20.3275 c -1.5677,-2.514 -1.1894,-5.7712 0.9191,-7.8661 l 14.3807,-14.2321 c 2.1084,-2.0814 5.3791,-2.4327 7.8795,-0.8243 l 20.1925,12.9208 c 2.1084,1.3517 4.7981,1.2976 6.92,-0.055 3.6222,-2.3246 7.366,-4.46 11.2045,-6.3929 2.23,-1.1353 3.6491,-3.4194 3.5681,-5.9334 l -0.8245,-23.9768 c -0.1078,-2.9597 1.8516,-5.6089 4.7305,-6.3521 l 19.5572,-5.136 c 2.8653,-0.7434 5.8792,0.5811 7.2444,3.2166 l 11.0016,21.2601 c 1.1624,2.2302 3.5142,3.5276 6.028,3.4196 4.271,-0.1892 8.5824,-0.1623 12.9074,0.096 2.5004,0.1487 4.8793,-1.1217 6.0686,-3.3519 l 11.2585,-21.1655 c 1.3922,-2.6084 4.4062,-3.9196 7.2714,-3.1355 l 19.5032,5.3386 c 2.8652,0.7974 4.798,3.4464 4.6629,6.4198 l -1.0949,23.9498 c -0.1078,2.514 1.2841,4.8116 3.5277,5.9739 3.8519,1.9869 7.5687,4.1494 11.1503,6.4875 2.1085,1.3787 4.7981,1.4733 6.9201,0.1352 l 20.3005,-12.6777 c 2.5138,-1.5677 5.7847,-1.1894 7.8661,0.9191 l 14.2185,14.3942 c 2.0948,2.1084 2.4327,5.3793 0.838,7.8797 l -12.9211,20.2193 c -1.3514,2.1085 -1.2975,4.7981 0.055,6.9065 2.3112,3.6357 4.4467,7.3795 6.3929,11.218 1.1219,2.2436 3.4196,3.6627 5.92,3.5681 l 23.9631,-0.8244 c 2.96,-0.093 5.5956,1.8651 6.3524,4.744 l 5.1224,19.5706 c 0.7569,2.8653 -0.581,5.8794 -3.2166,7.2444 l -21.2331,11.0153 c -2.2301,1.1623 -3.5276,3.5139 -3.4196,6.0143 0.1892,4.2846 0.1623,8.5961 -0.093,12.9345 -0.1486,2.514 1.1218,4.8792 3.3384,6.0686 l 21.1519,11.272 c 2.6222,1.3922 3.9196,4.4062 3.1357,7.2715"
       style="fill:#ffffff;fill-opacity:1;fill-rule:nonzero;stroke:none;stroke-width:0.135157"
       id="path130" />
    <path
       d="m 1052.0682,2192.1083 c -50.5216,-27.9369 -114.11272,-9.5828 -142.03602,40.9794 -27.92456,50.5619 -9.6029,114.1936 40.9119,142.117 50.52152,27.9233 114.11262,9.5691 142.03602,-40.993 27.9233,-50.5621 9.6096,-114.1801 -40.9119,-142.1034 z m 139.1435,182.5152 -11.745,21.2601 c -2.3111,4.1763 -7.2173,6.2037 -11.7992,4.8656 l -28.3559,-8.2309 c -3.7709,-1.1083 -7.8796,0.041 -10.4611,3.0004 -3.4599,3.96 -7.0821,7.731 -10.853,11.3126 -2.8382,2.6896 -3.7979,6.8119 -2.568,10.5287 l 9.2988,28.0314 c 1.5003,4.5277 -0.3378,9.5016 -4.4331,11.975 l -20.7735,12.5288 c -4.0953,2.4734 -9.3529,1.7706 -12.6642,-1.6758 l -20.4491,-21.3412 c -2.7033,-2.8383 -6.812,-3.9061 -10.5289,-2.6491 -4.9467,1.6759 -9.9474,3.1221 -15.0158,4.3386 -3.8249,0.9054 -6.7308,4.0006 -7.5146,7.8389 l -5.9739,28.9912 c -0.9598,4.6763 -5.0414,8.0687 -9.8124,8.1499 l -24.24712,0.473 c -4.7846,0.081 -8.9879,-3.1491 -10.1232,-7.7986 l -7.0282,-28.6531 c -0.9326,-3.8114 -3.9466,-6.7848 -7.7985,-7.5553 -5.0819,-1.0271 -10.1503,-2.2976 -15.1781,-3.7978 -3.7708,-1.1353 -7.839,0.093 -10.4612,3.0275 l -19.6111,22.098 c -3.1762,3.5682 -8.4067,4.4737 -12.5965,2.1491 l -21.22232,-11.7181 c -4.18319,-2.3246 -6.20642,-7.2174 -4.87377,-11.8127 l 8.25132,-28.3829 c 1.09604,-3.7844 -0.0385,-7.8795 -2.99508,-10.461 -3.95472,-3.4601 -7.72552,-7.0823 -11.29909,-10.8396 -2.69775,-2.8518 -6.82539,-3.8113 -10.54493,-2.5815 l -27.98818,9.2988 c -4.53721,1.5138 -9.51639,-0.3245 -11.98433,-4.4196 l -12.5182,-20.7871 c -2.46526,-4.0953 -1.7665,-9.3529 1.68135,-12.6507 l 21.35202,-20.4897 c 2.82744,-2.7166 3.89389,-6.8118 2.63824,-10.5286 -1.67189,-4.9467 -3.11674,-9.9611 -4.32905,-15.0295 -0.91232,-3.825 -4.00199,-6.7307 -7.84448,-7.5146 l -28.94512,-5.9604 c -4.68316,-0.9597 -8.07289,-5.0415 -8.1621,-9.8259 l -0.45412,-24.2741 c -0.0892,-4.7711 3.14239,-8.9744 7.78366,-10.1232 l 28.65318,-7.0417 c 3.80194,-0.9327 6.77674,-3.9466 7.54712,-7.7849 1.02314,-5.0955 2.29361,-10.1774 3.80336,-15.2187 1.12849,-3.7574 -0.0924,-7.8391 -3.02755,-10.4476 l -22.07511,-19.6383 c -3.57218,-3.1761 -4.46692,-8.3932 -2.1571,-12.583 l 11.73564,-21.2466 c 2.31253,-4.1898 7.21465,-6.2172 11.80591,-4.8792 l 28.35183,8.2446 c 3.77498,1.0947 7.87556,-0.041 10.46243,-3.0004 3.46005,-3.9602 7.07806,-7.7311 10.84633,-11.3128 2.83965,-2.703 3.80732,-6.8254 2.57477,-10.5422 l -9.2961,-28.0178 c -1.50436,-4.5414 0.33253,-9.5151 4.42365,-11.9749 l 20.77482,-12.5425 c 4.0953,-2.4599 9.3555,-1.7705 12.6669,1.6895 l 20.4491,21.3411 c 2.7167,2.8383 6.8254,3.906 10.5422,2.6355 4.9333,-1.6759 9.9477,-3.122 15.0159,-4.3249 3.8115,-0.919 6.7174,-4.0006 7.5012,-7.8525 l 5.974,-28.9777 c 0.9596,-4.6764 5.0413,-8.0688 9.8124,-8.1634 l 24.24712,-0.4596 c 4.7845,-0.095 8.9879,3.1492 10.1231,7.7852 l 7.0283,28.6665 c 0.9324,3.8115 3.96,6.7849 7.7984,7.5554 5.0819,1.0136 10.1503,2.2841 15.178,3.7977 3.771,1.1219 7.8392,-0.093 10.4612,-3.0409 l 19.6247,-22.0846 c 3.1763,-3.5816 8.4068,-4.4736 12.5831,-2.1625 l 21.2196,11.7316 c 4.1898,2.3112 6.2172,7.2173 4.8792,11.7991 l -8.2582,28.3964 c -1.0947,3.7709 0.041,7.8661 3.0005,10.4611 3.9601,3.4466 7.731,7.0687 11.2991,10.8395 2.7031,2.8384 6.8254,3.8115 10.5422,2.5815 l 27.991,-9.3122 c 4.5411,-1.5002 9.5149,0.3379 11.9883,4.4332 l 12.5154,20.7869 c 2.4599,4.0819 1.7706,9.3394 -1.6758,12.6507 l -21.3548,20.4762 c -2.8248,2.7167 -3.8926,6.8254 -2.6355,10.5287 1.6625,4.9467 3.1086,9.961 4.325,15.0429 0.9055,3.8114 4.0006,6.7173 7.839,7.5148 l 28.9506,5.9604 c 4.6763,0.9596 8.0688,5.0412 8.1634,9.8259 l 0.446,24.274 c 0.096,4.7711 -3.1357,8.9744 -7.7715,10.1097 l -28.6531,7.0552 c -3.8114,0.9326 -6.785,3.9466 -7.5553,7.785 -1.0272,5.0953 -2.2977,10.1773 -3.7978,15.2186 -1.1354,3.7574 0.081,7.8255 3.0274,10.4477 l 22.071,19.6247 c 3.5682,3.1761 4.4603,8.4066 2.1625,12.583"
       style="fill:#5479f7;fill-opacity:1;fill-rule:nonzero;stroke:none;stroke-width:0.135157"
       id="path132" />
    <path
       d="m 1795.8748,2328.6297 c 0,-51.5621 -41.7904,-93.3525 -93.3526,-93.3525 -51.5622,0 -93.3526,41.7904 -93.3526,93.3525 0,51.5488 41.7904,93.3526 93.3526,93.3526 51.5622,0 93.3526,-41.8038 93.3526,-93.3526"
       style="fill:#5479f7;fill-opacity:1;fill-rule:nonzero;stroke:none;stroke-width:0.135157"
       id="path134" />
    <path
       d="m 1741.6095,2336.2661 -49.9945,33.8701 c -6.1225,4.1629 -14.4077,-0.2296 -14.4077,-7.6363 v -67.7539 c 0,-7.4066 8.2852,-11.7855 14.4077,-7.6363 l 49.9945,33.8702 c 5.4061,3.6627 5.4061,11.6235 0,15.2862"
       style="fill:#ffffff;fill-opacity:1;fill-rule:nonzero;stroke:none;stroke-width:0.135157"
       id="path136" />
    <path
       d="m 1036.1062,1866.746 c 0.014,5.0414 2.3788,9.7854 6.4064,12.7994 l 373.4509,277.6249 c 16.016,12.1235 38.1141,12.1776 54.1842,0.1352 l 357.7726,-278.1925 c 4.0007,-3.0276 6.3524,-7.7581 6.3524,-12.7723 l -72.3627,-555.358 c -1.1758,-9.0691 -8.9068,-15.8539 -18.057,-15.8539 l -754.13252,0.3919 c -14.8672,0 -26.3285,13.0697 -24.4092,27.8153 l 70.79492,543.41"
       style="fill:#ffffff;fill-opacity:1;fill-rule:nonzero;stroke:none;stroke-width:0.135157"
       id="path138" />
    <path
       d="m 1443.157,2161.7791 c -8.6366,0 -17.2866,-2.7301 -24.4905,-8.1905 l -373.4778,-277.6383 c -2.8788,-2.1491 -4.5952,-5.5955 -4.5952,-9.2043 0,-0.1892 -0.014,-0.3919 -0.041,-0.5811 l -70.80862,-543.4101 c -0.7433,-5.7442 1.0138,-11.5425 4.8387,-15.8944 3.8249,-4.352 9.3392,-6.8524 15.1375,-6.866 l 754.14612,-0.3784 v 0 c 6.8658,0 12.7182,5.1224 13.5967,11.9344 l 72.3222,555.0605 c -0.081,3.5006 -1.7706,6.8254 -4.5682,8.9338 l -357.8267,278.2196 c -7.1228,5.3387 -15.6782,8.0148 -24.2336,8.0148 z m 300.7096,-871.124 c 0,0 0,0 -0.014,0 l -754.13252,0.3785 c -8.3797,0.014 -16.3404,3.6222 -21.8684,9.9069 -5.5278,6.2983 -8.0687,14.6646 -6.9876,22.9766 l 70.76812,543.1398 c 0.095,6.2982 3.149,12.2992 8.1903,16.0701 l 373.4643,277.6383 c 17.4759,13.2319 41.9798,13.2996 59.5366,0.1219 l 357.8537,-278.2331 c 5.0414,-3.8114 8.0824,-9.934 8.0688,-16.3133 0,-0.2029 -0.014,-0.3921 -0.026,-0.5812 l -72.3626,-555.358 c -1.4732,-11.2585 -11.1369,-19.7463 -22.49,-19.7463"
       style="fill:#000000;fill-opacity:1;fill-rule:nonzero;stroke:none;stroke-width:0.135157"
       id="path140" />
    <path
       d="m 1727.8775,1401.578 -703.246,-0.473 82.2561,628.0721 c 0,6.6226 5.3657,11.9748 11.9749,11.9748 l 683.1078,-0.3513 c 6.6227,0 11.975,-5.3658 11.975,-11.9884 l -86.0678,-627.2342"
       style="fill:#caddff;fill-opacity:1;fill-rule:nonzero;stroke:none;stroke-width:0.135157"
       id="path142" />
    <path
       d="m 1118.8625,2036.6783 c -2.0003,0 -3.8789,-0.7839 -5.2981,-2.2031 -1.4191,-1.4056 -2.1896,-3.2978 -2.2031,-5.2981 0,-0.2027 0,-0.392 -0.026,-0.5812 l -81.5939,-623.0037 694.2311,0.4595 85.4865,623.0308 c -0.1352,4.0141 -3.4464,7.2443 -7.4877,7.2443 z m 609.015,-635.1003 h 0.026 z m -703.246,-4.9602 c -1.2842,0 -2.514,0.5542 -3.3654,1.5272 -0.8515,0.9732 -1.2435,2.2572 -1.0679,3.5412 l 82.2158,627.8017 c 0.081,4.2844 1.784,8.2986 4.8115,11.3262 3.1086,3.1086 7.2444,4.825 11.637,4.825 0,0 0,0 0.014,0 l 683.0943,-0.3514 c 9.0825,-0.014 16.462,-7.393 16.4486,-16.4755 0,-0.2029 -0.014,-0.4055 -0.041,-0.6082 l -86.0541,-627.2342 c -0.3108,-2.2166 -2.2029,-3.8654 -4.4466,-3.8654 l -703.2326,-0.4866 c -0.014,0 -0.014,0 -0.014,0"
       style="fill:#000000;fill-opacity:1;fill-rule:nonzero;stroke:none;stroke-width:0.135157"
       id="path144" />
    <path
       d="m 1678.7752,1919.2003 h -487.4148 c -3.3113,0 -5.9874,2.6761 -5.9874,5.9739 v 26.4772 c 0,3.3113 2.6761,5.9874 5.9874,5.9874 h 487.4148 c 3.2979,0 5.9739,-2.6761 5.9739,-5.9874 v -26.4772 c 0,-3.2978 -2.676,-5.9739 -5.9739,-5.9739"
       style="fill:#ffffff;fill-opacity:1;fill-rule:nonzero;stroke:none;stroke-width:0.135157"
       id="path146" />
    <path
       d="m 1500.8011,1830.3349 h -325.1458 c -3.3114,0 -5.9874,2.6761 -5.9874,5.9874 v 26.4772 c 0,3.2978 2.676,5.9739 5.9874,5.9739 h 325.1458 c 3.2979,0 5.9739,-2.6761 5.9739,-5.9739 v -26.4772 c 0,-3.3113 -2.676,-5.9874 -5.9739,-5.9874"
       style="fill:#ffffff;fill-opacity:1;fill-rule:nonzero;stroke:none;stroke-width:0.135157"
       id="path148" />
    <path
       d="m 1829.6233,1835.4033 c 1.7706,13.3805 -13.1236,22.5577 -24.2876,14.9618 l -384.493,-263.6903 c -1.1219,-0.6893 -2.2707,-1.3381 -3.4601,-1.9057 -18.3001,-8.9608 -35.4651,-12.4073 -50.6701,-4.4738 -4.0548,2.1085 -7.6228,5.0685 -10.718,8.4204 l -315.6444,285.045 c -0.4055,0.4595 -1.0271,0.6623 -1.6353,0.5405 -0.5947,-0.1217 -1.0948,-0.554 -1.2976,-1.1353 l -76.55262,-559.8856 c -1.2841,-9.3799 6.0144,-17.7459 15.4888,-17.7325 l 768.12142,0.4866 c 7.839,0 14.4481,5.8117 15.4753,13.5697 l 69.6732,525.7992"
       style="fill:#ffffff;fill-opacity:1;fill-rule:nonzero;stroke:none;stroke-width:0.135157"
       id="path150" />
    <path
       d="m 1041.1069,1867.0434 -75.79562,-554.3712 c -0.446,-3.1898 0.5271,-6.4066 2.6355,-8.8392 2.1219,-2.4195 5.1765,-3.8115 8.3932,-3.8115 0.014,0 0.014,0 0.014,0 l 768.12132,0.4865 c 5.5683,0.014 10.3124,4.1764 11.0423,9.6908 l 69.6596,525.7991 v 0 c 0.5947,4.4738 -1.3516,8.569 -5.2035,10.9341 -3.852,2.3789 -8.3797,2.2708 -12.1101,-0.2701 l -384.48,-263.6768 c -1.4462,-0.8921 -2.7167,-1.6085 -4.0277,-2.2436 -22.2333,-10.8801 -39.6279,-12.2858 -54.7114,-4.4197 -4.1628,2.1625 -8.1363,5.2577 -11.7991,9.2043 z m -64.76692,-575.9827 c -5.7982,0 -11.3261,2.5138 -15.1375,6.8794 -3.8249,4.3791 -5.5549,10.1907 -4.7711,15.9484 l 76.55272,559.8856 c 0.041,0.311 0.1078,0.6083 0.2161,0.8921 0.73,2.0544 2.5141,3.5952 4.6495,4.0278 2.0273,0.419 4.1492,-0.2433 5.6226,-1.7031 l 315.5228,-284.9503 c 0.093,-0.081 0.2027,-0.1758 0.2838,-0.2839 3.0138,-3.2572 6.2036,-5.7712 9.5014,-7.4876 12.3534,-6.4335 27.1665,-5.0009 46.6424,4.5142 1.0409,0.5271 2.0815,1.1082 3.0952,1.7164 l 384.2903,263.5552 c 6.6498,4.5277 15.0295,4.7304 21.8684,0.5136 6.839,-4.217 10.4341,-11.7857 9.3798,-19.7599 l -69.6597,-525.7992 c -1.3109,-9.9475 -9.8797,-17.4487 -19.9084,-17.4622 l -768.13492,-0.4865 c 0,0 0,0 -0.014,0"
       style="fill:#000000;fill-opacity:1;fill-rule:nonzero;stroke:none;stroke-width:0.135157"
       id="path152" />
    <path
       d="m 1694.602,1361.0447 c -1.2569,0 -2.5003,0.5271 -3.3924,1.5543 l -186.8538,216.0475 c -1.6085,1.8787 -1.4056,4.7035 0.4595,6.3254 1.8787,1.6083 4.7034,1.4057 6.3254,-0.4596 l 186.8537,-216.0476 c 1.6084,-1.8787 1.4057,-4.7034 -0.4595,-6.3253 -0.8515,-0.7299 -1.8921,-1.0947 -2.9329,-1.0947"
       style="fill:#5479f7;fill-opacity:1;fill-rule:nonzero;stroke:none;stroke-width:0.135157"
       id="path154" />
    <path
       d="m 1044.513,1361.0447 c -1.1353,0 -2.2708,0.4324 -3.1491,1.2839 -1.7571,1.7436 -1.7842,4.5684 -0.055,6.3388 l 216.0476,219.9402 c 1.7436,1.7706 4.5683,1.7976 6.3388,0.067 1.7706,-1.7434 1.7977,-4.5817 0.055,-6.3388 l -216.0475,-219.9399 c -0.8786,-0.892 -2.041,-1.3515 -3.1897,-1.3515"
       style="fill:#5479f7;fill-opacity:1;fill-rule:nonzero;stroke:none;stroke-width:0.135157"
       id="path156" />
    <path
       d="M 274.65087,1347.6641 C 226.77304,1325.5661 187.89798,1283.8163 163.34005,1230.9295 100.67746,1095.9893 -59.664057,702.23802 52.648262,416.43616 190.21997,66.367416 1118.3219,147.71809 1348.6015,319.0289 c 58.4957,43.52038 289.9375,324.51066 -49.8457,516.95996 -311.44122,176.39264 -422.48159,20.66542 -565.05547,88.62209 -142.57385,67.97024 -265.51486,375.42405 -319.33824,416.30885 -34.75952,26.3962 -86.05546,31.5185 -139.71122,6.7443"
       style="fill:#5479f7;fill-opacity:1;fill-rule:nonzero;stroke:none;stroke-width:0.135157"
       id="path158" />
    <path
       d="m 611.80272,519.53352 c -1.0299,0 -2.0679,0.3514 -2.91127,1.08125 -129.67317,110.99048 -410.53236,103.59743 -413.35577,103.52984 -2.49364,-0.18922 -4.54125,1.86516 -4.6183,4.33853 -0.0757,2.47336 1.86786,4.54126 4.34123,4.60884 2.84233,0.10813 287.18046,7.55524 419.46078,-105.66533 1.88003,-1.62188 2.09899,-4.44665 0.48927,-6.32532 -0.88662,-1.04071 -2.14224,-1.56781 -3.40594,-1.56781"
       style="fill:#caddff;fill-opacity:1;fill-rule:nonzero;stroke:none;stroke-width:0.135157"
       id="path160" />
    <path
       d="m 728.30624,525.58852 c -1.4205,0 -2.81666,0.66227 -3.68707,1.91923 -1.40833,2.04086 -0.9096,4.82508 1.12179,6.23071 2.71531,1.89219 67.7188,45.88561 169.61605,9.66369 2.33147,-0.82446 3.55047,-3.39243 2.72197,-5.71713 -0.8299,-2.3382 -3.39913,-3.5546 -5.72387,-2.73015 -97.3451,34.60006 -160.87539,-8.13642 -161.50253,-8.56892 -0.7785,-0.54062 -1.66783,-0.79743 -2.54634,-0.79743"
       style="fill:#caddff;fill-opacity:1;fill-rule:nonzero;stroke:none;stroke-width:0.135157"
       id="path162" />
    <path
       d="m 1292.444,403.97473 c 0.919,-2.73015 105.1112,-113.35572 105.1112,-113.35572 l -66.2808,-28.5045 -84.1214,96.1368 45.291,45.72342"
       style="fill:#ffffff;fill-opacity:1;fill-rule:nonzero;stroke:none;stroke-width:0.135157"
       id="path164" />
    <path
       d="m 1296.6743,405.4074 z m 0.014,0 z m -43.4122,-47.34532 79.2151,-90.54131 57.4145,24.67957 c -67.5781,71.78159 -90.0953,96.3936 -97.7046,105.16525 z m 77.9988,-100.43475 c -1.2705,0 -2.5004,0.54062 -3.379,1.52726 l -84.1079,96.1503 c -1.5543,1.77055 -1.4731,4.43313 0.1893,6.09556 l 45.2773,45.72343 c 1.0948,1.09477 2.6761,1.56782 4.1899,1.20289 1.2435,-0.28382 2.2842,-1.06773 2.8924,-2.14898 3.9735,-5.36571 64.4831,-70.02456 104.4759,-112.49073 1.0138,-1.06773 1.4327,-2.55446 1.1353,-3.98711 -0.2973,-1.43266 -1.2839,-2.62204 -2.6221,-3.20321 l -66.2806,-28.5045 c -0.5677,-0.24328 -1.1759,-0.36491 -1.7705,-0.36491"
       style="fill:#000000;fill-opacity:1;fill-rule:nonzero;stroke:none;stroke-width:0.135157"
       id="path166" />
    <path
       d="m 1328.6794,308.39208 c 2.4058,5.77119 6.6902,12.42088 14.2591,16.79996 11.4071,6.59563 25.8284,4.91969 36.2084,-3.18969 25.9499,-20.28699 96.4611,-77.7285 137.0757,-133.57514 14.3535,-19.74635 7.1496,-45.65585 -25.5446,-44.89896 -53.5895,1.22992 -138.8327,23.81455 -209.7088,85.93246 -8.1365,7.13625 -12.1912,17.89472 -10.5288,28.58559 1.3651,8.73111 3.6763,19.66526 7.6094,30.00474 3.7574,9.87994 14.232,15.47541 24.585,13.35346 l 9.3123,-1.91922 c 7.001,-1.43267 13.9887,2.31117 16.7323,8.9068"
       style="fill:#ffffff;fill-opacity:1;fill-rule:nonzero;stroke:none;stroke-width:0.135157"
       id="path168" />
    <path
       d="m 1328.6794,308.39208 h 0.041 z m -30.5049,-11.01524 c -7.0145,0 -13.3939,-4.21689 -15.9349,-10.92065 -3.1897,-8.39322 -5.6765,-18.19205 -7.3659,-29.09919 -1.4192,-9.15009 1.9597,-18.31369 9.042,-24.53089 69.1864,-60.61768 152.2266,-83.56724 206.8568,-84.8242 12.6777,-0.35139 21.8684,3.75735 25.8691,11.38017 3.9059,7.47416 2.3652,17.59738 -4.0548,26.40957 -39.8846,54.84649 -108.5306,111.05808 -136.2106,132.68311 -9.1772,7.17681 -21.7198,8.32564 -31.1942,2.83829 -5.4738,-3.16267 -9.6366,-8.09587 -12.3533,-14.63745 v 0 c -3.5682,-8.56892 -12.7182,-13.43455 -21.7737,-11.56939 l -9.3258,1.90571 c -1.1894,0.24327 -2.3787,0.36492 -3.5547,0.36492 z m 193.9226,-158.34931 c -0.5,0 -1.0137,0 -1.5272,0.0134 -56.2115,1.29749 -141.5765,24.84176 -212.5606,87.05427 -9.407,8.23103 -13.8942,20.44917 -11.9884,32.64028 1.784,11.52886 4.4332,21.92238 7.839,30.89678 4.5413,11.96134 17.0027,18.7597 29.6669,16.1647 l 9.3258,-1.91922 c 4.8521,-1.00015 9.7854,1.62187 11.691,6.23072 v 0 c 3.4601,8.2986 9.042,14.85369 16.1512,18.96245 12.6102,7.28493 29.1668,5.86578 41.2093,-3.5411 27.9638,-21.8548 97.3801,-78.70161 137.9405,-134.46717 8.4204,-11.59642 10.2315,-25.32831 4.7306,-35.84349 -3.2032,-6.10906 -11.6505,-16.19174 -32.4781,-16.19174"
       style="fill:#000000;fill-opacity:1;fill-rule:nonzero;stroke:none;stroke-width:0.135157"
       id="path170" />
    <path
       d="m 1475.3377,164.97756 c -31.6806,0 -89.5276,12.92096 -180.6501,77.62036 -2.0139,1.43267 -2.487,4.23039 -1.0542,6.24423 1.4325,2.01383 4.2304,2.48688 6.2442,1.05422 143.847,-102.13773 200.9372,-71.79512 201.5048,-71.47074 2.149,1.21642 4.8791,0.47305 6.109,-1.67594 1.2164,-2.14899 0.473,-4.87914 -1.6895,-6.10907 -0.9595,-0.55415 -10.5286,-5.66306 -30.4642,-5.66306"
       style="fill:#000000;fill-opacity:1;fill-rule:nonzero;stroke:none;stroke-width:0.135157"
       id="path172" />
    <path
       d="m 1418.7477,223.4057 c -1.0407,0 -2.0814,0.36492 -2.933,1.09477 -1.8651,1.6354 -2.0678,4.46016 -0.446,6.32532 l 26.261,30.1534 c 1.6218,1.87868 4.4466,2.0679 6.3118,0.44603 1.8652,-1.62187 2.0678,-4.46017 0.446,-6.32533 l -26.2474,-30.15341 c -0.8921,-1.01367 -2.1355,-1.54078 -3.3924,-1.54078"
       style="fill:#000000;fill-opacity:1;fill-rule:nonzero;stroke:none;stroke-width:0.135157"
       id="path174" />
    <path
       d="m 1394.1087,242.42221 c -1.0948,0 -2.1895,0.39195 -3.0546,1.2029 -1.8111,1.68945 -1.9056,4.51423 -0.2161,6.32532 l 28.9638,31.08598 c 1.6895,1.81111 4.5279,1.90572 6.339,0.21625 1.8111,-1.68945 1.9057,-4.51421 0.2162,-6.32532 l -28.964,-31.08598 c -0.892,-0.9461 -2.0814,-1.41915 -3.2843,-1.41915"
       style="fill:#000000;fill-opacity:1;fill-rule:nonzero;stroke:none;stroke-width:0.135157"
       id="path176" />
    <path
       d="m 1144.745,341.73519 -20.3682,-137.765 -53.6705,34.68117 13.367,131.93973 60.6717,-28.8559"
       style="fill:#ffffff;fill-opacity:1;fill-rule:nonzero;stroke:none;stroke-width:0.135157"
       id="path178" />
    <path
       d="m 1075.4367,240.92199 45.5208,-29.41006 18.8678,127.60123 -51.9271,24.69308 z m 48.9267,-41.42546 c -0.8381,0 -1.6895,0.24327 -2.4192,0.71633 l -53.6708,34.66762 c -1.4191,0.91907 -2.203,2.54095 -2.0273,4.21688 l 13.3805,131.93975 c 0.1352,1.45969 0.9867,2.74367 2.2571,3.46 1.257,0.71633 2.7978,0.7704 4.1223,0.13516 l 60.6581,-28.8424 c 1.7841,-0.85147 2.7979,-2.75718 2.5141,-4.70343 l -20.3817,-137.76498 c -0.2161,-1.50025 -1.1893,-2.79774 -2.5816,-3.43298 -0.5811,-0.25681 -1.2162,-0.39195 -1.8515,-0.39195"
       style="fill:#000000;fill-opacity:1;fill-rule:nonzero;stroke:none;stroke-width:0.135157"
       id="path180" />
    <path
       d="m 1139.9469,229.86619 c 0.1486,-42.37156 -0.7434,-127.65528 -27.9638,-190.178669 -7.2985,-16.772921 -40.7632,-18.151507 -54.5761,2.878832 -28.802,43.858276 -67.09192,119.208007 -55.3602,214.655497 0.9191,7.46064 5.3386,14.04276 11.8938,17.71901 7.6769,4.31149 19.9356,9.92048 37.6274,14.58338 8.8124,2.31118 17.7731,-3.29782 19.5573,-12.24516 l 6.5685,-32.80249 3.7979,5.81173 c 5.7171,8.75814 16.6513,12.48846 26.5313,9.04197 5.3116,-1.86516 11.1774,-3.91954 16.489,-5.7847 9.9341,-3.47352 15.3944,-13.15072 15.4349,-23.6794"
       style="fill:#ffffff;fill-opacity:1;fill-rule:nonzero;stroke:none;stroke-width:0.135157"
       id="path182" />
    <path
       d="m 1055.6093,285.56416 c -0.9731,0 -1.9462,-0.1216 -2.9058,-0.37844 -17.6649,-4.64938 -29.64,-10.25838 -36.5735,-14.15088 -5.298,-2.95992 -8.8933,-8.33915 -9.6367,-14.35361 -8.82562,-71.7816 9.5692,-142.99553 54.6574,-211.655024 7.3525,-11.17743 20.4627,-14.245495 29.4642,-13.475099 8.2849,0.702812 14.9077,4.500705 17.2594,9.920493 28.0449,64.42908 27.7071,154.47031 27.5854,188.36755 v 0 c -0.041,9.35282 -4.798,16.79995 -12.4208,19.47604 l -16.5028,5.7847 c -7.9335,2.77071 -16.6917,-0.20273 -21.2869,-7.25789 l -3.798,-5.82525 c -1.0001,-1.52727 -2.8248,-2.29767 -4.6088,-1.94625 -1.7842,0.33789 -3.1897,1.72999 -3.5411,3.51406 l -6.5687,32.81599 c -0.6217,3.1086 -2.4464,5.75767 -5.136,7.4336 -1.8381,1.14883 -3.8924,1.73001 -5.9873,1.73001 z M 1087.763,22.455075 c -13.7995,0 -26.8961,6.690244 -34.0999,17.664955 -46.2912,70.47057 -65.15902,143.71186 -56.06292,217.65596 1.0812,8.83924 6.37932,16.71886 14.15082,21.0844 7.3796,4.13579 20.0978,10.0962 38.6683,14.98886 5.3928,1.41914 11.191,0.54062 15.9214,-2.4193 4.744,-2.95993 8.0824,-7.79853 9.1771,-13.27237 l 4.4872,-22.40893 c 7.2309,8.31212 18.8544,11.52883 29.4911,7.79852 l 16.5027,-5.77118 c 11.1369,-3.90602 18.3677,-14.8537 18.4218,-27.89629 v 0 c 0.1352,-34.41083 0.473,-125.81714 -28.3288,-191.976247 -3.7304,-8.568912 -12.9615,-14.28603 -24.7065,-15.286194 -1.2165,-0.10813 -2.4195,-0.162184 -3.6223,-0.162184"
       style="fill:#000000;fill-opacity:1;fill-rule:nonzero;stroke:none;stroke-width:0.135157"
       id="path184" />
    <path
       d="m 1083.0055,48.51325 c -1.365,0 -2.7167,0.62172 -3.5951,1.784057 -66.1051,88.040923 -60.8069,199.139533 -60.7528,200.247813 0.1486,2.47336 2.284,4.35204 4.7304,4.23039 2.4598,-0.13515 4.3521,-2.24359 4.2169,-4.71695 -0.055,-1.08125 -5.1225,-109.01719 58.9687,-194.382022 1.4867,-1.97329 1.0948,-4.784549 -0.892,-6.271265 -0.7975,-0.594682 -1.7435,-0.892023 -2.6761,-0.892023"
       style="fill:#000000;fill-opacity:1;fill-rule:nonzero;stroke:none;stroke-width:0.135157"
       id="path186" />
    <path
       d="m 1134.0271,166.84272 c -0.2974,0 -0.6083,0.0271 -0.919,0.0946 l -40.2903,8.31212 c -2.4327,0.50009 -3.987,2.87884 -3.487,5.29814 0.5002,2.43282 2.8654,4.00063 5.2981,3.48703 l 40.2902,-8.32563 c 2.4329,-0.50008 3.9872,-2.86532 3.4871,-5.29813 -0.4326,-2.10844 -2.2977,-3.56813 -4.3791,-3.56813"
       style="fill:#000000;fill-opacity:1;fill-rule:nonzero;stroke:none;stroke-width:0.135157"
       id="path188" />
    <path
       d="m 1129.0938,131.97235 c -0.4189,0 -0.8379,0.0675 -1.2434,0.18923 l -38.3168,11.12338 c -2.3788,0.70281 -3.7439,3.17617 -3.0545,5.55492 0.6892,2.37875 3.1761,3.75736 5.5549,3.05455 l 38.3033,-11.13691 c 2.3788,-0.68929 3.7438,-3.17617 3.0546,-5.55492 -0.5677,-1.95977 -2.3518,-3.23025 -4.2981,-3.23025"
       style="fill:#000000;fill-opacity:1;fill-rule:nonzero;stroke:none;stroke-width:0.135157"
       id="path190" />
    <path
       d="m 741.99759,859.85748 c 0,0 186.83499,36.99233 364.24131,-45.93967 44.7638,-20.93575 74.7144,-64.55073 78.2556,-113.86932 7.2579,-101.20516 23.0577,-241.59219 -30.2751,-405.32072 l -89.2572,17.55683 c 0,0 -30.9779,128.11481 -40.8308,252.16141 -9.2987,116.82925 -380.62232,207.49219 -380.62232,207.49219 l 98.48851,87.91928"
       style="fill:#000000;fill-opacity:1;fill-rule:nonzero;stroke:none;stroke-width:0.135157"
       id="path192" />
    <path
       d="m 1328.0037,387.43158 -80.6479,-62.40173 c 0,0 -262.14952,228.02247 -330.26852,260.14916 -68.11331,32.11318 -194.33868,78.63402 -304.99803,69.41635 -110.6607,-9.21766 -139.95587,65.87527 -139.95587,65.87527 l 149.99124,114.20722 c 0,0 275.57596,-9.82589 398.27638,-94.79875 122.7086,-84.9864 307.6027,-352.44752 307.6027,-352.44752"
       style="fill:#000000;fill-opacity:1;fill-rule:nonzero;stroke:none;stroke-width:0.135157"
       id="path194" />
    <path
       d="m 1196.3882,564.10811 c -1.2839,0 -2.5409,0.54063 -3.4329,1.59485 -53.9815,64.06417 -134.1698,142.14405 -175.1087,170.48637 -46.30472,32.07263 -119.81492,57.11711 -218.49401,74.43066 -2.43823,0.43251 -4.06686,2.74367 -3.63977,5.19 0.42845,2.43282 2.76124,4.06821 5.18866,3.63572 99.9644,-17.54331 174.6681,-43.07437 222.05392,-75.89036 41.466,-28.70723 122.4519,-107.51696 176.8524,-172.08121 1.5948,-1.8922 1.3514,-4.71695 -0.5408,-6.31181 -0.8378,-0.70281 -1.865,-1.05422 -2.8788,-1.05422"
       style="fill:#5479f7;fill-opacity:1;fill-rule:nonzero;stroke:none;stroke-width:0.135157"
       id="path196" />
    <path
       d="m 568.9446,679.19384 c 0,0 -58.39435,-52.17039 -93.56071,-41.18216 -35.16771,11.00172 19.04085,73.89003 36.16517,77.48519 17.12567,3.59517 57.39554,-36.30303 57.39554,-36.30303"
       style="fill:#000000;fill-opacity:1;fill-rule:nonzero;stroke:none;stroke-width:0.135157"
       id="path198" />
    <path
       d="m 226.51758,1149.8221 73.3778,16.3539 c 9.9259,2.2165 20.08561,-2.1489 25.45672,-10.7855 7.99586,-12.8532 22.33867,-28.9369 42.85813,-25.6391 22.53058,3.6357 13.97112,43.4122 6.0577,68.8217 -3.95467,12.7046 -15.593,21.4088 -28.88969,21.6926 -36.43817,0.7434 -109.49296,0.7838 -140.53705,-9.6502 -42.19043,-14.1644 21.67639,-60.7934 21.67639,-60.7934"
       style="fill:#ffffff;fill-opacity:1;fill-rule:nonzero;stroke:none;stroke-width:0.135157"
       id="path200" />
    <path
       d="m 305.00971,1171.231 c 9.64747,0 18.86919,-4.9873 24.14705,-13.4752 7.67283,-12.3397 20.55189,-26.4366 38.34253,-23.5713 3.39108,0.5407 5.77795,2.1085 7.51741,4.9062 5.6144,9.069 3.83034,29.7208 -5.02646,58.1578 -3.38297,10.8532 -13.31021,18.3002 -24.70391,18.5299 -31.46036,0.6488 -107.97243,1.0272 -139.01789,-9.4067 -6.83349,-2.2977 -10.61788,-5.5415 -11.25177,-9.6368 -1.78677,-11.5829 18.36507,-31.3833 32.5254,-42.0877 l 71.37883,15.9079 c 2.026,0.4596 4.06688,0.6759 6.08881,0.6759 z m 57.67667,-46.3992 c -19.3098,-0.014 -32.88897,14.9347 -41.13622,28.1935 -4.38042,7.0281 -12.69119,10.5557 -20.68029,8.7852 l -73.37915,-16.354 c -1.25561,-0.2838 -2.57608,0 -3.61545,0.757 -4.20606,3.068 -41.00241,30.6128 -37.71405,51.8865 1.18533,7.6769 6.99029,13.3129 17.25409,16.7594 31.21708,10.4882 102.39859,10.6908 142.05483,9.8799 15.25378,-0.3108 28.54506,-10.2989 33.07549,-24.8281 9.92184,-31.8565 11.29774,-53.9005 4.08849,-65.5374 -3.11941,-5.0414 -7.7323,-8.0823 -13.71163,-9.042 -2.14087,-0.3514 -4.21958,-0.5 -6.23611,-0.5"
       style="fill:#000000;fill-opacity:1;fill-rule:nonzero;stroke:none;stroke-width:0.135157"
       id="path202" />
    <path
       d="m 554.56802,1256.9202 -54.57349,-22.0442 c 0,0 -16.03767,-9.4608 -17.00403,-29.8695 -0.82717,-17.5028 -6.9511,-31.6807 -21.59124,-42.5067 -52.5056,-38.8304 -65.60091,70.9977 -65.60091,70.9977 0,0 46.92363,44.1691 138.29886,75.8092 91.37658,31.6402 20.47081,-52.3865 20.47081,-52.3865"
       style="fill:#ffffff;fill-opacity:1;fill-rule:nonzero;stroke:none;stroke-width:0.135157"
       id="path204" />
    <path
       d="m 554.56802,1256.9202 h 0.0284 z M 400.5464,1231.7269 c 2.63285,-19.03 12.63444,-62.9559 32.56055,-71.5653 7.4755,-3.2168 15.86331,-1.2841 25.62702,5.9469 12.67768,9.3663 18.96379,21.8007 19.78015,39.1142 1.06773,22.5712 18.46642,33.0729 19.20708,33.5053 0.19058,0.1218 0.38925,0.2163 0.59469,0.2974 l 53.53412,21.6384 c 12.79256,15.3944 28.71805,40.8308 23.50776,48.4132 -1.27182,1.8515 -7.90395,7.0281 -39.79411,-4.0007 -79.90857,-27.6664 -125.91177,-65.4156 -135.01726,-73.3494 z m 39.77926,-82.04 c -3.70328,0 -7.29846,0.7569 -10.77602,2.2572 -29.74794,12.8398 -37.86949,78.242 -38.20063,81.0127 -0.16894,1.4191 0.3433,2.8248 1.37725,3.798 1.94489,1.8381 48.67118,45.1962 139.90585,76.7823 27.85169,9.6502 43.77718,9.8395 50.11466,0.6218 11.09095,-16.1648 -18.67591,-52.9272 -24.75525,-60.1311 -0.47033,-0.5542 -1.06909,-0.9866 -1.74487,-1.257 l -54.2153,-21.9088 c -1.90572,-1.23 -13.78327,-9.5151 -14.56447,-26.0717 -0.94205,-19.9357 -8.59865,-34.938 -23.40369,-45.8857 -8.28915,-6.1361 -16.23499,-9.2177 -23.73753,-9.2177"
       style="fill:#000000;fill-opacity:1;fill-rule:nonzero;stroke:none;stroke-width:0.135157"
       id="path206" />
    <path
       d="m 726.45459,1279.302 c 12.36953,117.6943 -33.79451,107.9629 -191.4248,37.6545 -26.8272,-11.9612 -27.2962,-42.4121 -24.01865,-63.172 1.55023,-9.8124 11.28016,-16.1107 20.92627,-13.6914 19.29764,4.8386 31.69689,7.0687 58.46058,10.38 0,0 -19.4355,-33.9647 -75.33892,-64.0372 -9.1163,-4.9061 -30.17097,-9.569 -52.35421,-13.4074 -51.9636,-9.0148 -101.91473,-27.2745 -147.45029,-53.8868 -11.441,-6.6768 -19.95991,-11.7587 -21.44528,-12.9346 -14.85505,-6.6091 -56.2778,-12.4344 -99.13591,26.7206 0,0 46.73304,7.5821 59.33774,14.4617 15.98225,8.731 6.38749,52.5622 -30.39263,70.3083 -8.24725,3.9871 -17.47709,5.4603 -26.58799,4.5413 -23.84023,-2.4329 -81.98861,-8.8528 -105.911298,-15.9891 -30.494,-9.096 -44.17454,-31.1671 -30.38993,-61.9828 0,0 71.905928,-141.7114 177.121178,-192.1383 0.41359,-0.18931 0.82717,-0.39193 1.24075,-0.59466 75.70384,-35.85702 135.64437,-98.2858 166.51817,-176.14944 34.67033,-87.45974 67.45253,-150.18587 74.74017,-127.4255 18.0961,56.5089 94.40543,78.59348 197.40952,131.18285 103.00274,52.58938 82.02377,103.01625 82.02377,103.01625 0,0 -56.86574,12.83987 -88.98027,35.22178 -29.52492,20.57093 -57.72262,55.52233 -80.62622,90.87922 -7.98911,12.3398 -6.39697,28.5314 3.76951,39.1413 46.8601,48.8996 122.33958,135.1295 132.50874,231.9014"
       style="fill:#ffffff;fill-opacity:1;fill-rule:nonzero;stroke:none;stroke-width:0.135157"
       id="path208" />
    <path
       d="m 202.29755,1218.022 c -1.59755,0 -3.20321,-0.081 -4.81292,-0.2433 -23.75374,-2.4192 -81.54395,-8.7987 -105.085498,-15.8268 -14.92262,-4.4465 -25.22561,-12.0694 -29.7993,-22.0304 -4.33717,-9.4475 -3.59246,-20.8277 2.21927,-33.8297 0.61902,-1.2029 72.365468,-140.7519 174.968158,-189.92182 l 1.23938,-0.59477 c 77.77578,-36.84356 137.71092,-100.25898 168.74826,-178.5416 38.83855,-97.97492 59.6121,-127.0606 65.68333,-129.18254 0.15948,0.25679 0.38384,0.71633 0.62307,1.47319 14.62662,45.68289 65.01567,69.42988 134.7591,102.31345 19.59634,9.23118 41.80931,19.70581 64.88051,31.49145 85.87166,43.84476 82.60492,85.63514 80.48432,95.27179 -11.68562,2.82477 -59.05661,15.15105 -87.96523,35.30288 -33.37688,23.26048 -62.91804,62.94243 -81.82236,92.12267 -9.14741,14.1238 -7.38226,32.4916 4.29391,44.6827 51.68383,53.9139 121.52324,136.3593 131.28829,229.2523 l 4.45475,-0.4595 -4.45475,0.4595 c 4.6994,44.7233 0.70281,69.0921 -12.96015,79.0125 -22.413,16.2864 -73.38456,-1.8381 -172.18529,-45.8992 -23.65372,-10.5556 -24.70254,-37.5734 -21.41688,-58.3875 0.54331,-3.4465 2.45308,-6.4065 5.37787,-8.3393 2.94235,-1.9462 6.59563,-2.5678 10.03401,-1.7029 19.67878,4.9198 32.36188,7.177 58.99851,10.4746 1.66782,0.2029 3.33971,-0.554 4.2804,-1.9732 0.93933,-1.4056 1.00016,-3.2302 0.15678,-4.7034 -0.81905,-1.4328 -20.71948,-35.4245 -77.10406,-65.7537 -8.30401,-4.4736 -26.37444,-9.1365 -53.70983,-13.8805 -51.58517,-8.9339 -100.69291,-26.8826 -145.95681,-53.3327 -17.24597,-10.0692 -20.38295,-12.1642 -20.93033,-12.5831 -0.29058,-0.2298 -0.61767,-0.4325 -0.9542,-0.5813 -18.44751,-8.2039 -61.11101,-11.6639 -103.97859,27.5044 -1.26912,1.149 -1.76242,2.9329 -1.27182,4.5818 0.49062,1.6491 1.88004,2.8654 3.57625,3.1492 12.7885,2.0678 48.12245,8.6365 57.90643,13.9751 3.40594,1.8517 5.263,6.6768 5.09945,13.2184 -0.40277,16.1512 -12.65604,38.2087 -35.28934,49.1293 -5.95635,2.8789 -12.57496,4.352 -19.37469,4.352 z M 475.80422,638.76855 c -5.65494,0 -13.98327,5.09539 -32.23752,40.01983 -12.14785,23.2469 -26.71367,56.07641 -42.1242,94.93389 -30.19666,76.17419 -88.5356,137.88663 -164.26917,173.77069 l -1.2583,0.59466 C 130.54029,998.59555 59.698022,1136.3876 56.734042,1142.2398 c -6.9092,15.4349 -7.66337,29.6803 -2.27874,41.4255 5.67928,12.3668 17.91498,21.6656 35.38261,26.8826 24.272748,7.2308 82.731978,13.6913 106.738478,16.1377 10.12456,1.0272 20.14235,-0.6758 28.9897,-4.9467 27.07319,-13.0696 39.89684,-38.6954 40.35502,-56.9684 0.25003,-10.0287 -3.30729,-17.7867 -9.76235,-21.3142 -9.62855,-5.2576 -36.78283,-10.6774 -51.33649,-13.3264 36.68687,-29.302 72.0384,-26.315 86.7218,-20.0302 1.22992,0.8786 5.1062,3.3653 21.45068,12.9209 46.18973,26.9773 96.30304,45.2909 148.94648,54.4139 32.86195,5.7036 45.87075,10.1909 50.99453,12.948 37.9168,20.3951 58.79442,42.7501 67.91613,54.3464 -19.66932,-2.6085 -31.21439,-4.8249 -47.82512,-8.9878 -5.86172,-1.4733 -12.11813,-0.392 -17.1554,2.9329 -4.97511,3.2978 -8.35944,8.5419 -9.28525,14.4212 -5.33463,33.7891 4.11686,57.9281 26.61906,67.9566 104.10832,46.4398 154.96635,63.956 181.1002,44.98 16.78238,-12.191 21.74938,-38.2627 16.60533,-87.2028 -10.04889,-95.6368 -81.13444,-179.6499 -133.72921,-234.5235 -8.78654,-9.1772 -10.12052,-22.9901 -3.24377,-33.5998 18.46914,-28.51808 47.24124,-67.22686 79.42605,-89.64936 31.03732,-21.63856 86.84614,-34.39731 87.40569,-34.51896 1.41778,-0.32438 2.59365,-1.31103 3.1505,-2.64908 0.92177,-2.21655 21.35742,-54.88703 -84.12273,-108.74689 -23.19962,-11.83969 -45.47881,-22.34135 -65.13462,-31.61309 -67.69716,-31.91044 -116.60759,-54.96812 -130.04619,-96.93421 -2.11791,-6.62267 -6.22801,-7.73095 -8.48783,-7.81205 -0.1067,0 -0.21625,-0.0134 -0.32438,-0.0134"
       style="fill:#000000;fill-opacity:1;fill-rule:nonzero;stroke:none;stroke-width:0.135157"
       id="path210" />
    <path
       d="m 466.60413,1149.5248 -19.38413,4.0141 c -0.0311,0.838 -41.2822,76.6878 -41.2822,76.6878 l -68.40674,23.0171 c 0,0 27.56516,-113.6259 27.94764,-114.8964 l -36.61524,-28.491 c 0,0 72.12761,-17.9487 109.01992,5.1765 32.02668,20.0707 28.72075,34.4919 28.72075,34.4919"
       style="fill:#ffffff;fill-opacity:1;fill-rule:nonzero;stroke:none;stroke-width:0.135157"
       id="path212" />
    <path
       d="m 339.2462,1112.2622 c 20.32211,-3.8249 69.03386,-10.5016 96.25707,6.5686 20.24239,12.6776 25.18237,22.5441 26.35687,27.0989 l -15.5484,3.2301 c -1.54484,0.311 -2.76935,1.4057 -3.29377,2.8248 -1.68945,3.5952 -24.53765,45.791 -40.17796,74.5523 l -59.04041,19.8681 c 9.72317,-40.074 25.45403,-104.8409 25.99465,-106.8548 0.46765,-1.7435 -0.14191,-3.6357 -1.56376,-4.744 z m 45.35174,-13.5697 c -28.88023,0 -55.01543,6.3659 -56.81572,6.8254 -1.66513,0.4054 -2.94642,1.7435 -3.30187,3.4194 -0.35547,1.676 0.27977,3.4059 1.6327,4.4602 l 34.31621,26.6934 c -3.87898,15.7727 -21.45473,88.1896 -27.25159,112.0988 -0.38519,1.5812 0.1216,3.2436 1.32454,4.352 1.20288,1.1082 2.91397,1.4731 4.4561,0.9461 l 68.40674,-23.0172 c 1.0718,-0.3514 1.96788,-1.1082 2.50851,-2.0949 28.08146,-51.6433 37.28562,-68.7676 40.31852,-74.8767 l 17.3203,-3.5816 c 1.71648,-0.365 3.0667,-1.6761 3.45865,-3.3924 0.41087,-1.7976 3.04373,-18.138 -30.7089,-39.29 -15.35513,-9.6232 -36.13813,-12.5425 -55.66419,-12.5425"
       style="fill:#000000;fill-opacity:1;fill-rule:nonzero;stroke:none;stroke-width:0.135157"
       id="path214" />
    <path
       d="m 399.61113,1364.6127 c -18.35561,-5.3522 10.80035,-15.8673 -62.58826,-20.0436 -29.22489,-1.6625 -4.89672,-27.8693 -12.4763,-28.3288 -27.9936,-1.6624 -27.04345,-1.5813 -38.28982,-9.2447 -7.44713,-5.082 -7.44307,-22.1387 -1.903,-32.9242 7.31197,-14.2185 20.99249,-13.7183 43.04327,-41.4389 15.48623,-19.4626 18.36235,-33.6134 28.38015,-33.6945 10.12999,-0.096 12.50198,14.3266 23.57399,15.0834 14.32659,0.9597 19.72611,-22.5711 35.72456,-27.4367 10.08403,-3.068 29.66821,0.7974 54.3748,25.9365 4.00334,4.0817 4.54667,10.4611 1.27722,15.1781 -4.18984,6.028 -9.52176,13.6238 -15.22266,20.4492 -27.16376,32.5321 -43.47173,36.2759 -42.07015,47.6966 2.14764,17.5028 33.24849,18.9491 33.58908,32.816 0.35546,14.4213 -22.28189,43.2771 -47.41288,35.9516"
       style="fill:#000000;fill-opacity:1;fill-rule:nonzero;stroke:none;stroke-width:0.135157"
       id="path216" />
    <path
       d="m 359.5994,1277.7611 8.54324,-7.7984 c 4.02362,-3.6762 7.78502,-7.6094 11.26935,-11.8127 6.53211,-7.8661 17.86634,-21.3141 24.78364,-28.3558 10.16242,-10.3531 44.31105,18.8408 44.31105,18.8408 l -0.32438,8.5014 3.93035,3.5005 c 0.75959,0.6758 1.38806,1.5138 1.70973,2.4869 0.80149,2.4328 -0.0797,4.9467 -1.98951,6.3658 -10.44219,7.7175 -32.79976,25.4365 -45.16117,44.0745 0,0 -31.98478,-2.8382 -47.0723,-35.803"
       style="fill:#ffffff;fill-opacity:1;fill-rule:nonzero;stroke:none;stroke-width:0.135157"
       id="path218" />
    <path
       d="m 365.09487,1278.8154 6.06852,-5.5414 c 4.16688,-3.7978 8.09994,-7.9336 11.69374,-12.2587 6.22125,-7.4877 17.67846,-21.0979 24.53495,-28.0855 4.09794,-4.1492 22.13457,5.7982 36.55442,17.7191 l -0.24193,6.3118 c -0.05,1.3379 0.49873,2.6219 1.49618,3.514 l 3.929,3.5141 c 0.26895,0.2297 0.40277,0.4459 0.4379,0.5407 0.2068,0.6352 -0.0851,1.1217 -0.39871,1.3514 -11.40584,8.4338 -31.92665,24.9094 -44.61109,42.8447 -7.14167,-1.3516 -27.61786,-7.0958 -39.46298,-29.9102 z m 45.08955,-55.6979 c -3.56273,0 -6.7281,1.0406 -9.18659,3.541 -7.08355,7.2174 -18.72457,21.0304 -25.03368,28.6398 -3.33296,4.0141 -6.98084,7.8255 -10.84495,11.3666 l -8.54054,7.785 c -1.43807,1.311 -1.86381,3.4059 -1.05287,5.1765 15.98766,34.9379 49.33887,38.2764 50.7499,38.3979 1.63268,0.1486 3.22077,-0.6217 4.13038,-1.9868 12.16543,-18.3406 34.88658,-36.1408 44.08939,-42.9527 3.52893,-2.6085 4.96836,-7.1768 3.58029,-11.3667 -0.54198,-1.6354 -1.57322,-3.1626 -2.9829,-4.4196 l -2.35171,-2.0948 0.24326,-6.4064 c 0.0527,-1.3651 -0.5244,-2.6898 -1.56645,-3.5818 -6.98488,-5.9604 -27.18131,-22.098 -41.23353,-22.098"
       style="fill:#000000;fill-opacity:1;fill-rule:nonzero;stroke:none;stroke-width:0.135157"
       id="path220" />
    <path
       d="m 378.72134,1246.7428 c 0,0 -20.5154,18.7732 -27.00696,7.5958 -6.49157,-11.1909 16.60937,-31.2887 27.00696,-7.5958 v 0"
       style="fill:#ffffff;fill-opacity:1;fill-rule:nonzero;stroke:none;stroke-width:0.135157"
       id="path222" />
    <path
       d="m 2174.1913,264.3446 c 0,0 -185.0698,259.04087 -155.9302,542.00444 0.9732,9.47447 37.9249,4.59533 39.3846,14.09683 1.8788,12.16408 -31.559,38.69529 -28.8289,50.88641 10.1773,45.31795 26.5313,90.7711 50.6567,135.44032 0,0 69.1056,-74.26854 117.7753,-199.00442 3.6763,-9.40689 -28.5313,-41.8985 -25.1255,-51.87304 3.2033,-9.42041 42.0337,3.7168 44.9395,-6.19016 37.5465,-128.11482 46.6156,-296.1008 -42.8715,-485.36038"
       style="fill:#ffffff;fill-opacity:1;fill-rule:nonzero;stroke:none;stroke-width:0.135157"
       id="path224" />
    <path
       d="m 2000.1773,576.75876 c -7.1769,7.27143 -36.776,-27.2205 -43.9935,-20.3816 -7.1227,6.74432 0.7975,64.38855 -6.3118,70.72739 -139.5761,124.34394 -275.3678,170.67558 -275.3678,170.67558 -0.2026,-75.41731 11.5559,-145.84735 31.8295,-211.16846 3.2437,-10.43407 54.1841,-21.07089 57.8334,-31.24818 4.0141,-11.15041 -33.2756,-31.38332 -28.7884,-42.22288 66.2402,-160.17392 176.19,-276.81395 281.0984,-365.16572 66.3889,35.08662 125.3442,75.52542 177.2578,120.38385 -48.197,134.68341 -115.8291,229.69841 -193.5576,308.40002"
       style="fill:#99b9ff;fill-opacity:1;fill-rule:nonzero;stroke:none;stroke-width:0.135157"
       id="path226" />
    <path
       d="m 2083.785,253.51856 c -1.2163,0 -2.4192,0.48656 -3.3113,1.4597 -38.7763,42.46615 -76.9447,86.51365 -113.4504,130.91254 -1.5813,1.91922 -1.2974,4.74399 0.6082,6.31181 1.9193,1.56782 4.7441,1.29749 6.3119,-0.62172 36.4111,-44.27725 74.4713,-88.2031 113.153,-130.56114 1.6624,-1.82462 1.5409,-4.6629 -0.2838,-6.32533 -0.865,-0.78391 -1.9463,-1.17586 -3.0276,-1.17586"
       style="fill:#caddff;fill-opacity:1;fill-rule:nonzero;stroke:none;stroke-width:0.135157"
       id="path228" />
    <path
       d="m 1919.1644,448.26551 c -1.3245,0 -2.649,0.59469 -3.5276,1.73 -59.7256,76.41746 -116.7886,156.41658 -169.5942,237.75373 l -24.139,37.19506 c -1.3515,2.08142 -0.7569,4.85212 1.311,6.19017 2.0814,1.35156 4.8522,0.7704 6.2037,-1.31101 l 24.1389,-37.19507 c 52.6705,-81.12089 109.5714,-160.90376 169.1348,-237.11849 1.5273,-1.94625 1.176,-4.77103 -0.7704,-6.28478 -0.8109,-0.64875 -1.784,-0.95961 -2.7572,-0.95961"
       style="fill:#caddff;fill-opacity:1;fill-rule:nonzero;stroke:none;stroke-width:0.135157"
       id="path230" />
    <path
       d="m 2168.4065,247.47706 c 0,0 -101.2998,291.19461 176.5684,438.82601 0,0 63.4695,-257.90557 -176.5684,-438.82601"
       style="fill:#99b9ff;fill-opacity:1;fill-rule:nonzero;stroke:none;stroke-width:0.135157"
       id="path232" />
    <path
       d="m 2208.8048,333.30142 c -0.2703,0 -0.5541,0.0271 -0.8515,0.0811 -2.4193,0.45954 -4.0142,2.81126 -3.5546,5.24408 19.3679,101.11055 101.8945,265.50136 102.7324,267.15027 1.1083,2.20304 3.8114,3.08156 6.0145,1.97328 2.203,-1.10828 3.0951,-3.7979 1.9867,-6.01446 -0.8243,-1.6354 -82.7969,-164.91792 -101.9349,-264.79854 -0.4056,-2.13548 -2.2841,-3.63572 -4.3926,-3.63572"
       style="fill:#caddff;fill-opacity:1;fill-rule:nonzero;stroke:none;stroke-width:0.135157"
       id="path234" />
    <path
       d="m 2339.3795,930.89568 c -1.1353,0 -2.2841,0.44602 -3.1627,1.31112 l -11.4749,11.47477 c -1.7434,1.7435 -1.7434,4.58172 0,6.33875 1.7572,1.7435 4.5954,1.7435 6.339,0 l 11.4747,-11.47476 c 1.7435,-1.7435 1.7435,-4.58172 0,-6.33876 -0.8784,-0.8651 -2.0274,-1.31112 -3.1761,-1.31112"
       style="fill:#000000;fill-opacity:1;fill-rule:nonzero;stroke:none;stroke-width:0.135157"
       id="path236" />
    <path
       d="m 2375.6285,894.66027 c -1.149,0 -2.2977,0.43251 -3.1628,1.31103 l -11.4748,11.46126 c -1.7434,1.75703 -1.7434,4.59533 0,6.33884 1.7436,1.75704 4.5818,1.75704 6.3389,0 l 11.4613,-11.46126 c 1.757,-1.75703 1.757,-4.59533 0,-6.33884 -0.8651,-0.87852 -2.0139,-1.31103 -3.1626,-1.31103"
       style="fill:#000000;fill-opacity:1;fill-rule:nonzero;stroke:none;stroke-width:0.135157"
       id="path238" />
    <path
       d="m 2327.9182,894.66027 c -1.1488,0 -2.2977,0.43251 -3.1763,1.31103 -1.7434,1.74351 -1.7434,4.58181 0,6.33884 l 11.4749,11.46126 c 1.757,1.75704 4.5818,1.75704 6.3388,0 1.7435,-1.74351 1.7435,-4.58181 0,-6.33884 l -11.4747,-11.46126 c -0.8786,-0.87852 -2.0139,-1.31103 -3.1627,-1.31103"
       style="fill:#000000;fill-opacity:1;fill-rule:nonzero;stroke:none;stroke-width:0.135157"
       id="path240" />
    <path
       d="m 2364.1536,930.89568 c -1.1353,0 -2.2842,0.44602 -3.1627,1.31112 -1.7434,1.75704 -1.7434,4.59526 0,6.33876 l 11.4748,11.47476 c 1.7437,1.7435 4.5819,1.7435 6.3254,0 1.757,-1.75703 1.757,-4.59525 0,-6.33875 l -11.4613,-11.47477 c -0.8785,-0.8651 -2.0273,-1.31112 -3.1762,-1.31112"
       style="fill:#000000;fill-opacity:1;fill-rule:nonzero;stroke:none;stroke-width:0.135157"
       id="path242" />
    <path
       d="m 1608.9669,370.3343 c -17.5028,0 -31.7347,14.23197 -31.7347,31.73473 0,17.50277 14.2319,31.73473 31.7347,31.73473 2.4733,0 4.4737,-2.01382 4.4737,-4.48718 0,-2.47338 -2.0004,-4.47368 -4.4737,-4.47368 -12.556,0 -22.7738,-10.21783 -22.7738,-22.77387 0,-12.55603 10.2178,-22.77386 22.7738,-22.77386 12.5425,0 22.7604,10.21783 22.7604,22.77386 0,2.47336 2.0139,4.47368 4.4872,4.47368 2.4734,0 4.4736,-2.00032 4.4736,-4.47368 0,-17.50276 -14.232,-31.73473 -31.7212,-31.73473"
       style="fill:#000000;fill-opacity:1;fill-rule:nonzero;stroke:none;stroke-width:0.135157"
       id="path244" />
    <path
       d="m 1584.7738,580.1647 c 0,9.90697 8.0285,17.93526 17.9354,17.93526 9.8934,0 17.9353,-8.02829 17.9353,-17.93526 0,-9.90696 -8.0419,-17.93526 -17.9353,-17.93526 -9.9069,0 -17.9354,8.0283 -17.9354,17.93526"
       style="fill:#ffffff;fill-opacity:1;fill-rule:nonzero;stroke:none;stroke-width:0.135157"
       id="path246" />
    <path
       d="m 123.44863,2251.1311 c 0,9.9069 8.03099,17.9488 17.93661,17.9488 9.90561,0 17.93526,-8.0419 17.93526,-17.9488 0,-9.8934 -8.02965,-17.9353 -17.93526,-17.9353 -9.90562,0 -17.93661,8.0419 -17.93661,17.9353"
       style="fill:#99b9ff;fill-opacity:1;fill-rule:nonzero;stroke:none;stroke-width:0.135157"
       id="path248" />
    <path
       d="m 278.60554,2394.4779 c -11.42342,0 -20.71543,-9.2987 -20.71543,-20.7194 0,-11.4207 9.29201,-20.7196 20.71543,-20.7196 11.42208,0 20.71544,9.2989 20.71544,20.7196 0,11.4207 -9.29336,20.7194 -20.71544,20.7194 z m 0,-50.3998 c -16.36339,0 -29.67766,13.313 -29.67766,29.6804 0,16.3674 13.31427,29.6804 29.67766,29.6804 16.3634,0 29.67631,-13.313 29.67631,-29.6804 0,-16.3674 -13.31291,-29.6804 -29.67631,-29.6804"
       style="fill:#99b9ff;fill-opacity:1;fill-rule:nonzero;stroke:none;stroke-width:0.135157"
       id="path250" />
  </g>
</svg>
