<svg id="Capa_1" enable-background="new 0 0 512 512" height="512" viewBox="0 0 512 512" width="512" xmlns="http://www.w3.org/2000/svg"><g><path d="m256 .001h-127.93v71.94l127.93-2.61 12.765-34.665z" fill="#8276e3"/><path d="m512 .001v64.12l-256 5.21v-69.33z" fill="#685eb5"/><path d="m95.896.002h-95.896v63.982l95.896 7.977z" fill="#8276e3"/><path d="m268.765 224.065-12.765-160.084-64.05-.04c-17.65-.01-31.95-14.32-31.95-31.97-.15-17.943-14.913-32.033-31.93-31.97h-32.17c-17.63.04-31.9 14.34-31.9 31.97v.02c0 17.64-14.29 31.95-31.93 31.97l-32.07.02v320.168h256z" fill="#524a8f"/><path d="m512 64.121v320.028h-256v-320.168z" fill="#342c6e"/><path d="m60.25 114.481h30v30h-30z" fill="#ffeb00"/><path d="m120.5 114.481h90.25v30h-90.25z" fill="#9bcfff"/><path d="m301.25 114.481h90.25v30h-90.25z" fill="#32a7ff"/><path d="m421.75 114.481h30v30h-30z" fill="#fb0"/><path d="m60.25 174.59h90.25v30h-90.25z" fill="#0dff92"/><path d="m361.5 174.59h90.25v30h-90.25z" fill="#2fd498"/><path d="m274.27 463.81-18.27-33.39-33.33 12.32c-2.28 5.5-3.56 12.64-3.56 20.17 0 35.06 36.89 49.09 36.89 49.09z" fill="#ffeb00"/><path d="m292.891 462.91c0 35.06-36.891 49.09-36.891 49.09v-81.58l33.33 12.32c2.28 5.5 3.561 12.639 3.561 20.17z" fill="#fb0"/><path d="m318.608 416.023h65.392v-64l-67.569-64z" fill="#32a7ff"/><path d="m192.576 416.023h-64.576v-64l67.57-64z" fill="#9bcfff"/><path d="m274.27 313.13-18.27-77.7-56.82 14.22c-6.11 28.22-10.17 61.75-10.17 101.11 0 9.13.17 18.12.49 26.89l66.5 13.08.52.1z" fill="#f5faff"/><path d="m322.99 350.76c0 9.13-.17 18.12-.49 26.89l-65.98 13.18-.52-.1v-155.3l56.82 14.22c6.11 28.22 10.17 61.75 10.17 101.11z" fill="#eaedf5"/><path d="m274.27 198.834-18.27-72.074s-38.08 36.4-56.82 122.89h56.82z" fill="#ff7fab"/><path d="m312.82 249.65h-56.82v-122.89s38.081 36.4 56.82 122.89z" fill="#ff5b93"/><path d="m256 377.65h-66.5c.87 24.23 2.92 46.67 5.96 65.09h60.54l18.27-32.545z" fill="#ff7fab"/><path d="m322.5 377.65c-.87 24.23-2.92 46.67-5.96 65.09h-60.54v-65.09z" fill="#ff5b93"/><path d="m256 298.73 7.5 15-7.5 15h-15v-30z" fill="#9bcfff"/><path d="m256 298.73h15v30h-15z" fill="#32a7ff"/></g></svg>