<?xml version="1.0" encoding="UTF-8" standalone="no"?>
<!-- Created with Inkscape (http://www.inkscape.org/) -->

<svg
   version="1.1"
   id="svg2"
   width="3333.3333"
   height="3333.3333"
   viewBox="0 0 3333.3333 3333.3333"
   sodipodi:docname="2DDH0FG.svg"
   inkscape:version="1.3.2 (091e20e, 2023-11-25)"
   xmlns:inkscape="http://www.inkscape.org/namespaces/inkscape"
   xmlns:sodipodi="http://sodipodi.sourceforge.net/DTD/sodipodi-0.dtd"
   xmlns="http://www.w3.org/2000/svg"
   xmlns:svg="http://www.w3.org/2000/svg">
  <defs
     id="defs6">
    <clipPath
       clipPathUnits="userSpaceOnUse"
       id="clipPath98">
      <path
         d="m 10690.1,15145.8 c -809.33,0 -1465.41,656 -1465.41,1465.3 0,809.3 656.08,1465.4 1465.41,1465.4 809.3,0 1465.3,-656.1 1465.3,-1465.4 0,-809.3 -656,-1465.3 -1465.3,-1465.3 z"
         id="path96" />
    </clipPath>
  </defs>
  <sodipodi:namedview
     id="namedview4"
     pagecolor="#ffffff"
     bordercolor="#000000"
     borderopacity="0.25"
     inkscape:showpageshadow="2"
     inkscape:pageopacity="0.0"
     inkscape:pagecheckerboard="0"
     inkscape:deskcolor="#d1d1d1"
     inkscape:zoom="0.11946063"
     inkscape:cx="1665.8207"
     inkscape:cy="1385.3936"
     inkscape:window-width="1440"
     inkscape:window-height="844"
     inkscape:window-x="0"
     inkscape:window-y="25"
     inkscape:window-maximized="0"
     inkscape:current-layer="g8" />
  <g
     id="g8"
     inkscape:groupmode="layer"
     inkscape:label="ink_ext_XXXXXX"
     transform="matrix(1.3333333,0,0,-1.3333333,0,3333.3333)">
    <path
       d="M 129.27082,1747.7754 C 73.826908,1630.7704 -7.0318211,1352.3344 24.816458,1071.6685 65.676978,711.57093 274.89792,435.13529 471.67907,275.61004 1124.6662,-253.75751 2311.0161,92.675687 2469.3114,591.33569 c 28.7207,90.46026 20.6519,177.71731 10.7044,285.07214 -31.5861,341.47297 -136.6162,440.04257 -200.1533,813.91257 -52.7381,310.3734 -89.2708,400.9553 -147.8207,507.2694 C 1949.1345,2529.7235 1321.319,2549.4699 868.75943,2372.969 712.06305,2311.8512 326.85885,2164.7198 129.27082,1747.7754"
       style="fill:#caddff;fill-opacity:1;fill-rule:nonzero;stroke:none;stroke-width:0.135157"
       id="path14" />
    <path
       d="m 866.41993,79.187071 c 0,0 95.72055,391.372739 463.81937,570.617319 11.2721,5.48736 34.5324,-37.23562 45.9532,-31.73474 14.5834,7.02813 17.1648,62.64504 32.4781,68.78114 56.8738,22.80091 118.7215,39.1143 185.7862,46.49385 0,0 -26.3286,-129.35831 -123.1142,-274.38126 -7.2983,-10.94767 -67.4971,-0.60821 -75.62,-11.67752 -7.6769,-10.46111 36.7897,-42.30399 28.3559,-52.79214 C 1314.9936,258.87766 1140.6147,124.12662 866.41993,79.187071"
       style="fill:#99b9ff;fill-opacity:1;fill-rule:nonzero;stroke:none;stroke-width:0.135157"
       id="path16" />
    <path
       d="m 1068.1573,498.29393 c -0.5272,13.2994 -58.0768,19.16519 -56.3198,31.99155 1.7436,12.65065 70.1733,47.07501 71.4708,59.41481 25.4771,242.20049 -30.3832,422.25601 -30.3832,422.25601 -81.60752,-55.91426 -142.87803,-93.28503 -197.6272,-163.634 -8.74469,-11.24503 19.49362,-73.76844 11.35984,-85.27026 -8.92567,-12.6101 -59.84189,12.31277 -68.05806,-0.56765 C 677.24133,572.25158 630.46906,353.67645 616.84258,175.44554 706.51348,130.38435 797.05084,83.498562 885.98924,61.224768 1026.421,214.95179 1073.8068,358.04201 1068.1573,498.29393"
       style="fill:#99b9ff;fill-opacity:1;fill-rule:nonzero;stroke:none;stroke-width:0.135157"
       id="path18" />
    <path
       d="m 789.07258,166.91717 c -0.30825,0 -0.62309,0.0405 -0.93669,0.0946 -2.41797,0.52712 -3.95876,2.89235 -3.44241,5.31165 15.61869,73.16023 33.42147,146.84757 52.91374,219.02115 0.6434,2.39227 3.10056,3.79789 5.48605,3.14915 2.38548,-0.63523 3.79654,-3.09508 3.15315,-5.47384 -19.45165,-72.02491 -37.21668,-145.56358 -52.80289,-218.56162 -0.4487,-2.09492 -2.30443,-3.54109 -4.37095,-3.54109"
       style="fill:#caddff;fill-opacity:1;fill-rule:nonzero;stroke:none;stroke-width:0.135157"
       id="path20" />
    <path
       d="m 871.05169,488.35993 c -0.42168,0 -0.8514,0.0675 -1.2772,0.18921 -2.36796,0.70282 -3.71549,3.20322 -3.01259,5.56845 35.94618,120.85696 77.83528,241.53822 124.51828,358.6919 l 21.34122,53.56253 c 0.9191,2.29767 3.5141,3.40594 5.8118,2.5004 2.2976,-0.91907 3.4194,-3.51408 2.5004,-5.81173 l -21.34122,-53.57605 c -46.575,-116.89688 -88.38433,-237.32133 -124.25347,-357.92151 -0.57709,-1.94625 -2.35847,-3.2032 -4.28722,-3.2032"
       style="fill:#caddff;fill-opacity:1;fill-rule:nonzero;stroke:none;stroke-width:0.135157"
       id="path22" />
    <path
       d="m 843.69067,72.821195 c 0,0 235.52233,325.362295 611.66293,137.346065 0,0 -229.0632,-260.01413 -611.66293,-137.346065"
       style="fill:#ffffff;fill-opacity:1;fill-rule:nonzero;stroke:none;stroke-width:0.135157"
       id="path24" />
    <path
       d="m 972.73678,92.27022 c -1.7301,0 -3.3654,1.000157 -4.1088,2.676093 -0.9866,2.257118 0.04,4.906183 2.2977,5.892827 124.12772,54.42753 365.82812,88.27072 368.26092,88.60861 2.4193,0.31086 4.7034,-1.37859 5.0414,-3.82492 0.3378,-2.44634 -1.3786,-4.70345 -3.8249,-5.04134 -2.4193,-0.32437 -242.8898,-34.00538 -365.88232,-87.932833 -0.5812,-0.256801 -1.1894,-0.378437 -1.784,-0.378437"
       style="fill:#caddff;fill-opacity:1;fill-rule:nonzero;stroke:none;stroke-width:0.135157"
       id="path26" />
    <path
       d="m 1500.8203,1530.0923 c -144.6039,0 -261.8387,116.167 -261.8387,259.4736 0,143.3064 117.2348,259.4734 261.8387,259.4734 144.6039,0 261.8387,-116.167 261.8387,-259.4734 0,-143.3066 -117.2348,-259.4736 -261.8387,-259.4736 z m 552.9659,178.5823 -67.5918,34.8029 c -10.9071,5.6089 -17.7325,16.908 -17.2595,29.0856 0.5001,12.8534 0.4731,25.6528 -0.095,38.371 -0.5406,12.1371 6.1767,23.4496 16.9892,29.1397 l 67.1863,35.3704 c 13.2319,6.9607 19.8274,22.0712 15.8944,36.3977 l -16.0566,58.2931 c -3.9465,14.3265 -17.3676,24.0308 -32.3429,23.3685 l -76.1742,-3.3654 c -12.3264,-0.5406 -23.8957,5.9604 -29.6669,16.7594 -5.9875,11.164 -12.4074,22.0846 -19.2869,32.7349 -6.6362,10.2989 -6.6497,23.4768 -0.108,33.8432 l 40.4388,64.0642 c 7.9472,12.583 6.0279,28.9505 -4.6089,39.3981 l -43.3176,42.5338 c -10.6369,10.4476 -27.1665,12.2047 -39.7901,4.2169 l -64.1453,-40.574 c -10.3801,-6.5687 -23.666,-6.6767 -34.1135,-0.2028 -10.7855,6.6768 -21.8953,12.9345 -33.3161,18.7733 -10.9882,5.609 -17.6784,17.0297 -17.2459,29.275 l 2.7031,75.4442 c 0.5271,14.8402 -9.3935,28.0586 -23.8822,31.843 l -58.9688,15.3673 c -14.4888,3.7708 -29.6804,-2.8924 -36.5868,-16.0701 l -35.1137,-66.9836 c -5.6631,-10.8126 -17.0703,-17.5704 -29.3561,-17.0973 -12.975,0.5 -25.8824,0.4595 -38.7223,-0.095 -12.2316,-0.5406 -23.6523,6.1091 -29.3965,16.827 l -35.6948,66.5916 c -7.0282,13.1102 -22.2738,19.6518 -36.7356,15.7458 l -58.8201,-15.908 c -14.4618,-3.9194 -24.2471,-17.2189 -23.5849,-32.0456 l 3.3925,-75.4984 c 0.5541,-12.1371 -5.8928,-23.6253 -16.7324,-29.3154 -11.3802,-5.974 -22.517,-12.4209 -33.3701,-19.3004 -10.326,-6.5415 -23.5983,-6.447 -33.9919,0 l -64.6453,40.074 c -12.7048,7.866 -29.2074,5.9739 -39.7496,-4.5684 l -42.9257,-42.9256 c -10.5422,-10.5423 -12.3127,-26.9233 -4.2574,-39.4388 l 40.9389,-63.564 c 6.6361,-10.2855 6.7443,-23.4497 0.2163,-33.8027 -6.7444,-10.6909 -13.0562,-21.7061 -18.949,-33.0187 -5.663,-10.8936 -17.1919,-17.5163 -29.5452,-17.0838 l -76.13372,2.6626 c -14.9618,0.527 -28.3017,-9.2853 -32.1266,-23.6525 l -15.50252,-58.4281 c -3.8114,-14.3671 2.91937,-29.4235 16.21882,-36.2625 l 67.59172,-34.8028 c 10.9071,-5.609 17.7325,-16.9216 17.246,-29.0857 -0.5001,-12.8534 -0.473,-25.6527 0.095,-38.371 0.5542,-12.1369 -6.1631,-23.4496 -16.9892,-29.1397 l -67.18632,-35.3704 c -13.23176,-6.9606 -19.82743,-22.0711 -15.88084,-36.3977 l 16.05654,-58.293 c 3.9331,-14.3266 17.3676,-24.0308 32.3295,-23.3686 l 76.17422,3.3519 c 12.2587,0.5407 23.8551,-5.8387 29.5857,-16.5836 6.0415,-11.2721 12.529,-22.3144 19.4761,-33.0593 6.6091,-10.245 6.5145,-23.3957 0,-33.6946 l -40.4253,-64.0507 c -7.9472,-12.5965 -6.028,-28.9505 4.6088,-39.3981 l 43.3176,-42.5338 c 10.6369,-10.4476 27.1666,-12.2046 39.7902,-4.2169 l 64.1452,40.574 c 10.38,6.5687 23.6524,6.6768 34.1,0.2028 10.7856,-6.6767 21.9089,-12.9345 33.3296,-18.7732 10.9883,-5.6091 17.6785,-17.0298 17.2325,-29.2749 l -2.6896,-75.4444 c -0.5272,-14.8402 9.3798,-28.0585 23.8686,-31.8428 l 58.9688,-15.3673 c 14.4888,-3.7844 29.6938,2.8923 36.6004,16.0701 l 35.1137,66.9835 c 5.663,10.8125 17.0703,17.5703 29.356,17.0973 12.9614,-0.5001 25.8825,-0.4596 38.7088,0.095 12.2451,0.5406 23.6659,-6.1091 29.4101,-16.8405 l 35.6812,-66.5781 c 7.0282,-13.1102 22.2874,-19.6517 36.7356,-15.7321 l 58.8337,15.8943 c 14.4482,3.9061 24.247,17.219 23.5712,32.0457 l -3.3924,75.4983 c -0.5406,12.2182 6.0145,23.6795 16.9081,29.3966 11.2721,5.9333 22.2873,12.2992 33.0458,19.1111 10.3799,6.5821 23.6793,6.5956 34.1405,0.1216 l 64.6589,-40.0873 c 12.6912,-7.8662 29.2073,-5.974 39.7495,4.5682 l 42.9257,42.9258 c 10.5423,10.5421 12.2992,26.9231 4.2439,39.4386 l -40.9388,63.5641 c -6.6227,10.2855 -6.7444,23.4497 -0.2163,33.8027 6.7443,10.6909 13.0697,21.7061 18.9489,33.0187 5.6631,10.8936 17.2055,17.5163 29.5452,17.0838 l 76.1337,-2.6761 c 14.9754,-0.5136 28.3153,9.2987 32.1267,23.6659 l 15.516,58.4417 c 3.8114,14.3536 -2.9193,29.41 -16.2188,36.2489"
       style="fill:#99b9ff;fill-opacity:1;fill-rule:nonzero;stroke:none;stroke-width:0.135157"
       id="path28" />
    <path
       d="m 1321.0216,1791.1877 c 0,101.408 82.1481,183.6237 183.475,183.6237 101.3268,0 183.4749,-82.2157 183.4749,-183.6237 0,-101.4215 -82.1481,-183.6236 -183.4749,-183.6236 -101.3269,0 -183.475,82.2021 -183.475,183.6236 v 0"
       style="fill:#ffffff;fill-opacity:1;fill-rule:nonzero;stroke:none;stroke-width:0.135157"
       id="path30" />
    <path
       d="m 1375.341,1657.6666 c 33.0458,-31.1806 77.5663,-50.3458 126.6011,-50.3458 49.0213,0 93.5419,19.1652 126.5876,50.3458 -38.2223,11.8397 -81.175,18.5029 -126.5876,18.5029 -45.4125,0 -88.3653,-6.6632 -126.6011,-18.5029 v 0"
       style="fill:#99b9ff;fill-opacity:1;fill-rule:nonzero;stroke:none;stroke-width:0.135157"
       id="path32" />
    <path
       d="m 1561.0731,1898.4614 c -8.3121,5.3657 -18.0029,8.204 -27.8963,8.204 h -58.2254 c -13.0021,0 -25.5176,-4.9196 -35.0461,-13.7589 l -3.1898,-2.9734 c -15.1375,-14.0428 -20.4085,-35.7759 -13.4075,-55.198 l 19.1382,-53.13 122.7627,0.7704 17.327,58.0498 c 6.5552,21.9764 -2.1895,45.6288 -21.4628,58.0361"
       style="fill:#000000;fill-opacity:1;fill-rule:nonzero;stroke:none;stroke-width:0.135157"
       id="path34" />
    <path
       d="m 1531.7171,1874.8226 c -0.04,0.027 -0.1216,0.054 -0.1216,0.054 l -89.7981,-57.5631 v -33.4108 c 0,-19.7463 9.2448,-37.3167 23.5984,-48.6968 v -52.5894 c 0,-20.7871 16.8541,-37.6412 37.6411,-37.6412 20.7871,0 37.6411,16.8541 37.6411,37.6412 v 51.1567 c 15.4078,11.3126 25.4229,29.5452 25.4229,50.1295 v 36.6005 c 0,23.9902 -14.0562,44.6962 -34.3838,54.3194"
       style="fill:#ffffff;fill-opacity:1;fill-rule:nonzero;stroke:none;stroke-width:0.135157"
       id="path36" />
    <path
       d="m 1503.0369,1640.5017 c -23.2199,0 -42.1148,18.8948 -42.1148,42.1148 v 51.4946 h 8.9474 v -51.4946 c 0,-18.2867 14.8807,-33.1674 33.1674,-33.1674 18.2867,0 33.1674,14.8807 33.1674,33.1674 v 49.8728 h 8.9474 v -49.8728 c 0,-23.22 -18.8949,-42.1148 -42.1148,-42.1148"
       style="fill:#000000;fill-opacity:1;fill-rule:nonzero;stroke:none;stroke-width:0.135157"
       id="path38" />
    <path
       d="m 1503.9559,1717.2841 c -2.4733,0 -4.4736,2.0003 -4.4736,4.4737 0,2.4733 2.0003,4.4736 4.4736,4.4736 31.8024,0 57.6713,25.8691 57.6713,57.6714 v 36.6004 c 0,30.667 -24.9363,55.6033 -55.5898,55.6033 h -59.7662 v -92.2037 c 0,-22.5576 13.2723,-43.169 33.8161,-52.5218 2.2436,-1.0137 3.2302,-3.6763 2.2166,-5.9199 -1.0272,-2.2571 -3.6763,-3.2573 -5.9334,-2.2166 -23.72,10.7855 -39.0467,34.6001 -39.0467,60.6583 v 96.6775 c 0,2.4733 2.0138,4.4736 4.4736,4.4736 h 64.24 c 35.5867,0 64.5372,-28.9505 64.5372,-64.5507 v -36.6004 c 0,-36.7355 -29.8831,-66.6187 -66.6187,-66.6187"
       style="fill:#000000;fill-opacity:1;fill-rule:nonzero;stroke:none;stroke-width:0.135157"
       id="path40" />
    <path
       d="m 1501.6313,1603.0904 c -49.7646,0 -99.4617,19.476 -136.5216,58.1714 -68.6866,71.7005 -70.0246,185.1509 -3.0276,258.2976 1.676,1.8246 4.5143,1.9462 6.3254,0.2838 1.8246,-1.6759 1.9463,-4.5007 0.2703,-6.3253 -63.8074,-69.6732 -62.5505,-177.7579 2.8788,-246.066 68.7,-71.7005 182.9074,-74.1603 254.6079,-5.4603 34.7352,33.2755 54.441,78.0799 55.4683,126.1686 1.0271,48.0887 -16.719,93.704 -49.9945,128.4258 -36.0192,37.587 -86.5001,57.6847 -138.5625,55.306 -2.5544,-0.054 -4.5547,1.7976 -4.6629,4.2574 -0.1216,2.4734 1.7841,4.5684 4.2574,4.6764 54.6709,2.5951 107.6252,-18.5975 145.4285,-58.0497 34.9245,-36.4518 53.5626,-84.3376 52.4813,-134.8052 -1.0813,-50.4809 -21.7602,-97.5154 -58.2254,-132.4398 -36.5599,-35.0326 -83.6754,-52.4407 -130.7234,-52.4407"
       style="fill:#000000;fill-opacity:1;fill-rule:nonzero;stroke:none;stroke-width:0.135157"
       id="path42" />
    <path
       d="m 930.47324,1358.7138 c 0,83.9187 67.97034,151.943 151.82136,151.943 83.8511,0 151.8213,-68.0243 151.8213,-151.943 0,-83.9185 -67.9702,-151.9429 -151.8213,-151.9429 -83.85102,0 -151.82136,68.0244 -151.82136,151.9429 v 0"
       style="fill:#ffffff;fill-opacity:1;fill-rule:nonzero;stroke:none;stroke-width:0.135157"
       id="path44" />
    <path
       d="m 1082.2946,1202.2973 c -86.18932,0 -156.29502,70.1597 -156.29502,156.4165 0,18.4354 3.17625,36.4924 9.43398,53.6707 0.8515,2.3247 3.41942,3.5006 5.74412,2.6626 2.3247,-0.8515 3.5141,-3.4195 2.6626,-5.7306 -5.9064,-16.1918 -8.89327,-33.208 -8.89327,-50.6027 0,-81.3236 66.09149,-147.4692 147.34759,-147.4692 81.2426,0 147.3477,66.1456 147.3477,147.4692 0,81.3102 -66.1051,147.4693 -147.3477,147.4693 -44.2232,0 -85.71632,-19.6247 -113.84232,-53.8328 -1.5679,-1.9192 -4.3926,-2.1895 -6.2983,-0.6217 -1.9192,1.5678 -2.1896,4.3926 -0.6218,6.2982 29.8427,36.2896 73.84962,57.1037 120.76242,57.1037 86.1758,0 156.295,-70.1732 156.295,-156.4167 0,-86.2568 -70.1192,-156.4165 -156.295,-156.4165"
       style="fill:#000000;fill-opacity:1;fill-rule:nonzero;stroke:none;stroke-width:0.135157"
       id="path46" />
    <path
       d="m 978.14298,1248.2099 c 27.19352,-25.6797 63.82102,-41.439 104.15162,-41.439 40.3307,0 76.9582,15.7593 104.1381,41.439 -31.4509,9.7448 -66.7809,15.2322 -104.1381,15.2322 -37.3707,0 -72.7006,-5.4874 -104.15162,-15.2322 v 0"
       style="fill:#99b9ff;fill-opacity:1;fill-rule:nonzero;stroke:none;stroke-width:0.135157"
       id="path48" />
    <path
       d="m 1083.2001,1237.7624 v 0 c -13.2452,0 -23.9632,10.7313 -23.9632,23.9767 v 122.3031 h 47.913 v -122.3031 c 0,-13.2454 -10.7179,-23.9767 -23.9498,-23.9767 v 0"
       style="fill:#ffffff;fill-opacity:1;fill-rule:nonzero;stroke:none;stroke-width:0.135157"
       id="path50" />
    <path
       d="m 1175.9716,1339.4135 c -3.0139,37.9925 13.7319,61.699 -23.801,104.6111 -38.8575,44.4396 -72.1871,14.651 -72.1871,14.651 0,0 -27.7882,23.0847 -64.267,-25.1931 -32.19432,-42.6149 9.042,-80.7966 -4.825,-107.3278 -13.85362,-26.5313 -60.84752,-41.0065 -60.84752,-41.0065 0,0 15.0699,-30.1398 33.7486,-43.4122 h 198.20702 c 0,0 40.966,44.615 40.966,57.2792 0,0 -43.98,2.4193 -46.994,40.3983"
       style="fill:#000000;fill-opacity:1;fill-rule:nonzero;stroke:none;stroke-width:0.135157"
       id="path52" />
    <path
       d="m 978.14298,1248.2099 c 27.19352,-25.6797 63.82102,-41.439 104.15162,-41.439 40.3307,0 76.9582,15.7593 104.1381,41.439 -31.4509,9.7448 -66.7809,15.2322 -104.1381,15.2322 -37.3707,0 -72.7006,-5.4874 -104.15162,-15.2322"
       style="fill:#99b9ff;fill-opacity:1;fill-rule:nonzero;stroke:none;stroke-width:0.135157"
       id="path54" />
    <path
       d="m 987.09028,1246.1961 c 26.61242,-22.5982 60.11772,-34.9515 95.20432,-34.9515 35.0731,0 68.5784,12.3533 95.1908,34.9515 -29.9913,8.4743 -61.9828,12.7723 -95.1908,12.7723 -33.2214,0 -65.1994,-4.298 -95.20432,-12.7723 z m 95.20432,-43.8988 c -40.0063,0 -78.0934,15.151 -107.21972,42.6553 l -5.5684,5.2577 7.312,2.2706 c 33.04572,10.2448 68.52442,15.4349 105.47612,15.4349 36.9383,0 72.4304,-5.1901 105.4626,-15.4349 l 7.3255,-2.2706 -5.5684,-5.2577 c -29.1397,-27.5043 -67.2134,-42.6553 -107.2197,-42.6553"
       style="fill:#000000;fill-opacity:1;fill-rule:nonzero;stroke:none;stroke-width:0.135157"
       id="path56" />
    <path
       d="m 1085.5249,1423.8322 h -1.6625 l -48.7644,-49.0618 v -26.9096 c 0,-17.9623 9.7042,-33.6404 24.1389,-42.1282 v -43.9935 c 0,-13.2454 10.718,-23.9767 23.9632,-23.9767 13.2319,0 23.9498,10.7313 23.9498,23.9767 v 43.169 c 15.2187,8.2715 25.5446,24.4092 25.5446,42.9527 v 28.7613 c 0,26.0717 -21.125,47.2101 -47.1696,47.2101"
       style="fill:#ffffff;fill-opacity:1;fill-rule:nonzero;stroke:none;stroke-width:0.135157"
       id="path58" />
    <path
       d="m 1083.2001,1233.2887 c -15.6916,0 -28.4369,12.7722 -28.4369,28.4504 v 42.6554 c 0,2.4734 2.0003,4.4737 4.4737,4.4737 2.4598,0 4.4738,-2.0003 4.4738,-4.4737 v -42.6554 c 0,-10.745 8.731,-19.5031 19.4894,-19.5031 10.745,0 19.4761,8.7581 19.4761,19.5031 v 41.9255 c 0,2.4733 2.0139,4.4737 4.4737,4.4737 2.4733,0 4.4737,-2.0004 4.4737,-4.4737 v -41.9255 c 0,-15.6782 -12.7453,-28.4504 -28.4235,-28.4504"
       style="fill:#000000;fill-opacity:1;fill-rule:nonzero;stroke:none;stroke-width:0.135157"
       id="path60" />
    <path
       d="m 1083.8894,1294.5415 c -2.4733,0 -4.4736,2.0003 -4.4736,4.4737 0,2.4733 2.0003,4.4737 4.4736,4.4737 24.4499,0 44.3314,19.9086 44.3314,44.3719 v 28.7613 c 0,22.9496 -17.9218,41.6958 -40.8038,42.6959 -0.027,0 -0.054,0 -0.095,0 l -47.7508,-47.2507 v -24.2065 c 0,-17.3541 10.1908,-33.2079 25.977,-40.3983 2.2436,-1.0271 3.2437,-3.6897 2.2166,-5.9333 -1.0272,-2.2437 -3.6763,-3.2303 -5.9199,-2.2166 -18.9759,8.65 -31.2211,27.6935 -31.2211,48.5482 v 26.0717 c 0,1.2029 0.4731,2.3382 1.3245,3.1897 l 50.427,49.8863 c 0.8378,0.8244 1.9731,1.2975 3.1491,1.2975 0.7703,0 1.5408,-0.013 2.2976,-0.055 27.6666,-1.2028 49.3456,-23.8821 49.3456,-51.6297 V 1347.86 c 0,-29.3966 -23.8956,-53.3193 -53.2787,-53.3193"
       style="fill:#000000;fill-opacity:1;fill-rule:nonzero;stroke:none;stroke-width:0.135157"
       id="path62" />
    <path
       d="m 1147.4671,2291.402 c 0,84.108 68.1053,152.2809 152.1457,152.2809 84.0268,0 152.1457,-68.1729 152.1457,-152.2809 0,-84.0944 -68.1189,-152.2673 -152.1457,-152.2673 -84.0404,0 -152.1457,68.1729 -152.1457,152.2673 v 0"
       style="fill:#ffffff;fill-opacity:1;fill-rule:nonzero;stroke:none;stroke-width:0.135157"
       id="path64" />
    <path
       d="m 1192.5013,2180.6818 c 27.4097,-25.8554 64.3344,-41.7499 104.9895,-41.7499 40.6552,0 77.5799,15.8945 104.9761,41.7499 -31.7077,9.8258 -67.3215,15.3402 -104.9761,15.3402 -37.6681,0 -73.2819,-5.5144 -104.9895,-15.3402 v 0"
       style="fill:#5479f7;fill-opacity:1;fill-rule:nonzero;stroke:none;stroke-width:0.135157"
       id="path66" />
    <path
       d="m 1346.5256,2380.3755 c -6.893,4.4331 -14.9213,6.7984 -23.1253,6.7984 h -48.2913 c -10.7856,0 -21.1656,-4.0817 -29.0722,-11.4207 l -2.6491,-2.4463 c -12.5426,-11.6506 -16.9216,-29.6669 -11.1099,-45.7911 l 15.8809,-44.061 101.7999,0.6488 14.3671,48.1427 c 5.4333,18.2191 -1.8246,37.8303 -17.8001,48.1292"
       style="fill:#000000;fill-opacity:1;fill-rule:nonzero;stroke:none;stroke-width:0.135157"
       id="path68" />
    <path
       d="m 1321.346,2361.1563 c -0.2163,0.095 -0.6623,0.2973 -0.6623,0.2973 l -73.0656,-47.467 v -28.6125 c 0,-16.381 7.6498,-30.9509 19.5571,-40.3848 v -43.6151 c 0,-17.2459 13.9752,-31.2211 31.2212,-31.2211 17.2459,0 31.2211,13.9752 31.2211,31.2211 v 42.4933 c 12.7589,9.3798 21.0845,24.4498 21.0845,41.5066 v 30.356 c 0,20.2195 -12.056,37.6142 -29.356,45.4262"
       style="fill:#ffffff;fill-opacity:1;fill-rule:nonzero;stroke:none;stroke-width:0.135157"
       id="path70" />
    <path
       d="m 1299.1533,2229.3651 c -2.4734,0 -4.4737,2.0003 -4.4737,4.4738 0,2.4598 2.0003,4.4601 4.4737,4.4601 25.95,0 47.0615,21.125 47.0615,47.0751 v 30.356 c 0,25.004 -20.3276,45.3451 -45.3315,45.3451 h -48.7915 v -75.7011 c 0,-18.4219 10.826,-35.2354 27.5854,-42.8717 2.2436,-1.0137 3.2438,-3.6628 2.2166,-5.9199 -1.0137,-2.2436 -3.6762,-3.2438 -5.9198,-2.2165 -19.9491,9.0825 -32.8296,29.0992 -32.8296,51.0081 v 80.1748 c 0,2.4598 2.0004,4.4602 4.4737,4.4602 h 53.2652 c 29.9372,0 54.2788,-24.3418 54.2788,-54.279 v -30.356 c 0,-30.8833 -25.1256,-56.009 -56.0088,-56.009"
       style="fill:#000000;fill-opacity:1;fill-rule:nonzero;stroke:none;stroke-width:0.135157"
       id="path72" />
    <path
       d="m 1297.4503,2134.661 c -40.6956,-0.013 -81.3777,15.6241 -112.1529,46.8182 -29.5452,29.9507 -45.6558,69.6191 -45.372,111.6934 0.2838,42.0742 16.9351,81.5129 46.8993,111.0581 58.8877,58.1173 153.4162,60.6042 215.1827,5.6765 1.8381,-1.6489 2.0138,-4.4737 0.3649,-6.3253 -1.6354,-1.8381 -4.4601,-2.0138 -6.3118,-0.3649 -58.2525,51.8055 -147.4017,49.4538 -202.9646,-5.3522 -28.2477,-27.8693 -43.9529,-65.0779 -44.2232,-104.7599 -0.2703,-39.6819 14.9348,-77.0932 42.8041,-105.3409 57.5226,-58.3201 151.7807,-58.9689 210.1008,-1.4326 30.5724,30.1668 46.5885,72.0654 43.9394,114.964 -0.1487,2.4734 1.73,4.5954 4.1899,4.7441 2.5815,0.2162 4.5953,-1.73 4.7439,-4.1899 2.8113,-45.4802 -14.1779,-89.9061 -46.5884,-121.8841 -30.64,-30.221 -70.6328,-45.3045 -110.6121,-45.3045"
       style="fill:#000000;fill-opacity:1;fill-rule:nonzero;stroke:none;stroke-width:0.135157"
       id="path74" />
    <path
       d="m 1298.3964,2165.6795 c -19.6788,0 -35.6948,16.016 -35.6948,35.6947 v 43.6151 c 0,2.4598 2.0138,4.4736 4.4736,4.4736 2.4734,0 4.4737,-2.0138 4.4737,-4.4736 v -43.6151 c 0,-14.7455 12.0019,-26.7474 26.7475,-26.7474 14.7456,0 26.7475,12.0019 26.7475,26.7474 v 41.3985 c 0,2.4734 2.0003,4.4737 4.4736,4.4737 2.4599,0 4.4737,-2.0003 4.4737,-4.4737 v -41.3985 c 0,-19.6787 -16.016,-35.6947 -35.6948,-35.6947"
       style="fill:#000000;fill-opacity:1;fill-rule:nonzero;stroke:none;stroke-width:0.135157"
       id="path76" />
    <path
       d="m 1733.3165,2024.9545 c 26.8692,-25.3554 63.0641,-40.9255 102.9353,-40.9255 39.8576,0 76.066,15.5701 102.9351,40.9255 -31.086,9.6366 -66.0104,15.0428 -102.9351,15.0428 -36.9247,0 -71.8493,-5.4062 -102.9353,-15.0428 v 0"
       style="fill:#caddff;fill-opacity:1;fill-rule:nonzero;stroke:none;stroke-width:0.135157"
       id="path78" />
    <path
       d="m 1742.2775,2022.9406 c 26.2744,-22.2603 59.3472,-34.4378 93.9743,-34.4378 34.6271,0 67.6999,12.1775 93.9743,34.4378 -29.6128,8.3526 -61.1853,12.583 -93.9743,12.583 -32.8025,0 -64.3751,-4.2304 -93.9743,-12.583 z m 93.9743,-43.3853 c -39.5603,0 -77.2014,14.9754 -106.0033,42.1554 -1.1624,1.0812 -1.6489,2.7031 -1.2974,4.2574 0.3648,1.5543 1.5272,2.7978 3.0409,3.2573 32.6538,10.1232 67.7269,15.2457 104.2598,15.2457 36.5192,0 71.5924,-5.1225 104.2462,-15.2457 1.5272,-0.4595 2.6761,-1.703 3.041,-3.2573 0.365,-1.5543 -0.1352,-3.1762 -1.284,-4.2574 -28.8018,-27.18 -66.4564,-42.1554 -106.0032,-42.1554"
       style="fill:#000000;fill-opacity:1;fill-rule:nonzero;stroke:none;stroke-width:0.135157"
       id="path80" />
    <path
       d="m 1884.3269,2220.7557 c -6.7578,4.352 -14.6374,6.6632 -22.6792,6.6632 h -47.3453 c -10.5693,0 -20.7465,-4.0006 -28.491,-11.191 l -2.595,-2.4058 c -12.3128,-11.4342 -16.5973,-29.0992 -10.9072,-44.8854 l 15.5701,-43.2095 99.8131,0.6216 14.0968,47.2102 c 5.3251,17.8677 -1.7976,37.1005 -17.4623,47.1967"
       style="fill:#000000;fill-opacity:1;fill-rule:nonzero;stroke:none;stroke-width:0.135157"
       id="path82" />
    <path
       d="m 1859.6473,2201.9149 c -0.2162,0.095 -0.6487,0.2838 -0.6487,0.2838 l -71.6464,-46.5344 v -28.0585 c 0,-16.0566 7.5011,-30.3427 19.1787,-39.6008 v -42.7636 c 0,-16.8945 13.7049,-30.5994 30.6129,-30.5994 16.9081,0 30.5995,13.7049 30.5995,30.5994 v 41.6688 c 12.5154,9.1906 20.6789,23.9768 20.6789,40.6956 v 29.7615 c 0,19.8139 -11.8126,36.8842 -28.7749,44.5476"
       style="fill:#ffffff;fill-opacity:1;fill-rule:nonzero;stroke:none;stroke-width:0.135157"
       id="path84" />
    <path
       d="m 1837.8871,2072.5971 c -2.4733,0 -4.4736,2.0003 -4.4736,4.4736 0,2.4735 2.0003,4.4738 4.4736,4.4738 25.396,0 46.0614,20.6654 46.0614,46.0613 v 29.7615 c 0,24.4633 -19.9085,44.3719 -44.3719,44.3719 h -47.7508 v -74.1334 c 0,-18.0163 10.5963,-34.4784 26.9907,-41.9526 2.2572,-1.0272 3.2438,-3.6762 2.2301,-5.9199 -1.0271,-2.2571 -3.6762,-3.2437 -5.9333,-2.2165 -19.5842,8.9069 -32.2348,28.5721 -32.2348,50.089 v 78.607 c 0,2.4734 2.0003,4.4737 4.4737,4.4737 h 52.2244 c 29.3965,0 53.3193,-23.9227 53.3193,-53.3192 v -29.7615 c 0,-30.3292 -24.6796,-55.0087 -55.0088,-55.0087"
       style="fill:#000000;fill-opacity:1;fill-rule:nonzero;stroke:none;stroke-width:0.135157"
       id="path86" />
    <path
       d="m 1836.2383,1979.6635 c -0.365,0 -0.7298,0.013 -1.0948,0.013 -41.2633,0.2838 -79.9586,16.6108 -108.9497,45.9938 -59.8473,60.6582 -59.1715,158.7008 1.4868,218.5345 57.7793,57.0091 150.5103,59.4419 211.101,5.5685 1.8516,-1.6489 2.0138,-4.4737 0.3783,-6.3253 -1.6488,-1.8381 -4.4736,-2.0138 -6.3253,-0.365 -57.0766,50.7649 -144.4418,48.4536 -198.8693,-5.244 -57.1441,-56.3738 -57.7794,-148.7262 -1.4056,-205.884 27.3151,-27.68 63.7668,-43.0744 102.6514,-43.3312 0.3379,0 0.6757,0 1.0137,0 38.506,0 74.7686,14.8673 102.2188,41.9391 29.9507,29.5452 45.6559,70.6058 43.0609,112.6529 -0.1487,2.4599 1.7165,4.5819 4.1899,4.7306 2.5138,0.1621 4.5818,-1.7165 4.7439,-4.1899 2.7438,-44.6151 -13.921,-88.2031 -45.7099,-119.5595 -29.1263,-28.7477 -67.6323,-44.5205 -108.4901,-44.534"
       style="fill:#000000;fill-opacity:1;fill-rule:nonzero;stroke:none;stroke-width:0.135157"
       id="path88" />
    <path
       d="m 1837.1438,2010.1683 c -19.3544,0 -35.0866,15.7322 -35.0866,35.0731 v 42.7636 c 0,2.4733 2.0003,4.4736 4.4737,4.4736 2.4733,0 4.4736,-2.0003 4.4736,-4.4736 v -42.7636 c 0,-14.4077 11.7316,-26.1258 26.1393,-26.1258 14.4077,0 26.1258,11.7181 26.1258,26.1258 v 40.5875 c 0,2.4734 2.0138,4.4737 4.4737,4.4737 2.4733,0 4.4736,-2.0003 4.4736,-4.4737 v -40.5875 c 0,-19.3409 -15.7322,-35.0731 -35.0731,-35.0731"
       style="fill:#000000;fill-opacity:1;fill-rule:nonzero;stroke:none;stroke-width:0.135157"
       id="path90" />
    <g
       id="g92"
       transform="matrix(0.13515652,0,0,0.13515652,-435.71588,-443.46321)">
      <g
         id="g94"
         clip-path="url(#clipPath98)">
        <path
           d="m 9523.77,15573 c 296.38,-282.6 696.73,-457.3 1138.63,-459.7 441.9,-2.3 844.1,168.3 1143.4,447.7 -344,108.6 -730.8,170.6 -1140.1,172.8 -409.4,2.1 -796.81,-55.9 -1141.93,-160.8 v 0"
           style="fill:#caddff;fill-opacity:1;fill-rule:nonzero;stroke:none"
           id="path100" />
        <path
           d="m 9589.17,15557.8 c 296.55,-263.6 675.43,-409.3 1073.43,-411.4 2.9,0 5.8,0 8.7,0 394.8,0 771.8,141.5 1068.9,400.1 -337.7,100.4 -698.9,152.2 -1074.7,154.2 -375.7,2.5 -737.68,-46.1 -1076.33,-142.9 z m 1082.13,-477.6 c -3.1,0 -6,0 -9.1,0 -434.2,2.3 -846.59,168.8 -1161.27,468.8 -8.51,8.2 -12.08,20.2 -9.36,31.7 2.72,11.4 11.31,20.6 22.57,24 360.96,109.7 748.36,164.7 1151.66,162.2 403.2,-2.1 790.1,-60.8 1150,-174.3 11.2,-3.5 19.7,-12.8 22.3,-24.2 2.6,-11.5 -1.1,-23.5 -9.7,-31.6 -315.6,-294.6 -726.2,-456.6 -1157.1,-456.6"
           style="fill:#000000;fill-opacity:1;fill-rule:nonzero;stroke:none"
           id="path102" />
        <path
           d="m 11635.9,16699.5 c -144.6,521.1 -442.9,1204.3 -1002.2,1120.3 -536.6,-80.6 -789.09,-669.3 -905.11,-1125.5 -70.57,-277.6 141.12,-547.1 427.61,-548.6 l 1050.3,-5.5 c 292.9,-1.5 507.8,277 429.4,559.3"
           style="fill:#000000;fill-opacity:1;fill-rule:nonzero;stroke:none"
           id="path104" />
        <path
           d="m 11173,17304.7 c -0.3,1.2 -0.8,3.7 -0.8,3.7 l -953.6,7.3 c 0,0 -0.4,-1.5 -0.6,-2.3 -12.5,-47.5 -19.4,-97.6 -19.6,-149.5 l -1.5,-279.1 c -1,-186.9 86.5,-351.7 219.8,-448 l -3.8,-728.7 c -0.8,-145 116.1,-263.2 261.1,-263.9 145,-0.8 263.2,116.1 263.9,261.1 l 3.8,718 c 142.8,93 238.9,262.4 239.9,456.3 l 1.6,314.9 c 0.2,37.8 -3.3,74.7 -10.2,110.2"
           style="fill:#ffffff;fill-opacity:1;fill-rule:nonzero;stroke:none"
           id="path106" />
        <path
           d="m 10675.4,15411.1 c -0.5,0 -1,0 -1.5,0 -163.1,0.8 -295,134.2 -294.1,297.2 l 3.7,707 c 0.1,18.3 14.9,33 33.1,33 0,0 0.1,0 0.2,0 18.2,-0.1 33,-15 32.9,-33.3 l -3.7,-707.1 c -0.7,-126.5 101.7,-230 228.2,-230.6 0.4,0 0.8,0 1.2,0 60.9,0 118.1,23.5 161.4,66.3 43.5,43.1 67.7,100.6 68,161.9 l 3.7,709.8 c 0.1,18.3 14.9,33 33.1,33 0.1,0 0.2,0 0.2,0 18.3,-0.1 33,-15 32.9,-33.3 l -3.7,-709.8 c -0.4,-79 -31.5,-153.1 -87.6,-208.6 -55.8,-55.2 -129.6,-85.5 -208,-85.5"
           style="fill:#000000;fill-opacity:1;fill-rule:nonzero;stroke:none"
           id="path108" />
        <path
           d="m 10690.5,16657.3 c -0.4,0 -0.8,0 -1.1,0 -61.6,0.2 -120.9,26.2 -162.7,71.2 -12.5,13.4 -11.7,34.3 1.7,46.8 13.4,12.4 34.3,11.6 46.8,-1.7 29.8,-32.1 70.5,-49.9 114.5,-50.1 43.9,-1 85,17.3 115.3,49.3 12.6,13.2 33.6,13.8 46.8,1.3 13.3,-12.6 13.9,-33.6 1.3,-46.8 -42.8,-45.2 -100.6,-70 -162.6,-70"
           style="fill:#000000;fill-opacity:1;fill-rule:nonzero;stroke:none"
           id="path110" />
        <path
           d="m 10688.8,16314.4 c -0.8,0 -1.7,0 -2.5,0 -18.3,0.1 -33.1,15 -33,33.3 0.1,18.3 14.8,33.8 33.3,33 0.7,0 1.5,0 2.2,0 252.2,0 458.2,223.4 459.7,499.1 l 1.6,314.9 c 0.7,129.7 -45,251.7 -128.8,343.6 -83.1,91.2 -193.7,141.7 -311.4,142.4 -0.8,0 -1.6,0 -2.3,0 -261.3,0 -474.7,-231.4 -476.1,-517 l -1.5,-279.1 c -1,-196.6 104.1,-376.6 267.7,-458.6 16.4,-8.2 23,-28.1 14.8,-44.4 -8.2,-16.4 -28.1,-22.9 -44.4,-14.8 -186,93.2 -305.5,296.6 -304.3,518.1 l 1.5,279.2 c 1.6,322.9 245.4,584.2 544.9,582.8 136.5,-0.7 264.4,-59 360,-164 95,-104.2 146.9,-242.2 146.1,-388.6 l -1.6,-314.9 c -1.7,-312.1 -237.3,-565 -525.9,-565"
           style="fill:#000000;fill-opacity:1;fill-rule:nonzero;stroke:none"
           id="path112" />
      </g>
    </g>
    <path
       d="m 1008.0667,1598.1166 c -30.93732,0 -61.67202,7.1904 -90.14944,21.4358 -48.28601,24.1255 -84.28087,65.6185 -101.35661,116.8293 -17.07699,51.1974 -13.1899,105.9897 10.94496,154.2812 24.13362,48.2779 65.62525,84.2701 116.83477,101.3538 51.1973,17.0703 105.98972,13.1779 154.28122,-10.9476 48.2778,-24.139 84.27,-65.6319 101.3538,-116.8293 11.7316,-35.1948 13.5832,-72.8088 5.3657,-108.801 -0.5541,-2.4058 -2.9464,-3.9196 -5.3657,-3.3654 -2.4058,0.5541 -3.906,2.9599 -3.3654,5.3657 7.8662,34.3839 6.082,70.3355 -5.1224,103.9624 -33.6946,101.0295 -143.2929,155.8085 -244.32242,122.1274 -48.93613,-16.3268 -88.5911,-50.7242 -111.65696,-96.8666 -23.06443,-46.156 -26.77992,-98.5156 -10.46111,-147.4558 16.32015,-48.9402 50.72162,-88.5951 96.87078,-111.6528 46.14249,-23.0712 98.50211,-26.788 147.44221,-10.4611 43.6692,14.5563 80.7561,44.2772 104.4355,83.6889 1.2705,2.1219 4.0141,2.7977 6.1361,1.5408 2.1084,-1.2705 2.7978,-4.0276 1.5273,-6.1496 -24.7607,-41.2363 -63.5776,-72.3358 -109.2605,-87.5679 -21.0034,-7.0012 -42.6149,-10.4882 -64.1318,-10.4882"
       style="fill:#000000;fill-opacity:1;fill-rule:nonzero;stroke:none;stroke-width:0.135157"
       id="path114" />
    <path
       d="m 749.03378,553.09991 c -105.47886,-105.48967 -277.10467,-105.47616 -382.58488,0 -105.47885,105.47614 -105.48426,277.11141 -0.005,382.58756 l 222.65915,222.65683 -6.10367,306.6432 -389.46163,-356.3943 C 136.15164,1051.2058 95.238418,983.51937 70.648028,911.44039 L 47.033488,962.08354 36.062837,801.55813 C 31.749985,652.04799 80.384708,493.3472 193.54316,380.19416 c 200.82232,-200.81556 527.58077,-200.81556 728.40175,0 L 1180.9589,639.20813 1191.0821,995.1428 749.03378,553.09991"
       style="fill:#5479f7;fill-opacity:1;fill-rule:nonzero;stroke:none;stroke-width:0.135157"
       id="path116" />
    <path
       d="m 749.03378,553.09991 h 0.0309 z M 50.313728,944.45913 40.525708,801.24727 C 35.86821,639.65414 92.790718,487.26515 196.70583,383.35683 c 199.0788,-199.07205 522.99765,-199.07205 722.07644,0 l 257.75703,257.74348 9.7448,342.91913 -434.08634,-434.0822 C 700.34093,498.07767 631.27865,469.5191 557.74809,469.5191 c -0.004,0 -0.001,0 -0.007,0 -73.53596,0 -142.59553,28.55857 -194.4551,80.41814 -51.85956,51.85956 -80.42083,120.91103 -80.42218,194.44969 -10e-4,73.53867 28.55722,142.60364 80.41678,194.46321 l 221.31251,221.30526 -5.86849,294.8575 -382.16724,-349.7175 c -55.3939,-55.4141 -96.38012,-121.15431 -121.676012,-195.30119 -0.58794,-1.73 -2.17062,-2.91937 -3.99253,-3.0275 -1.78947,-0.0811 -3.52353,0.91906 -4.29527,2.58149 z M 557.74674,225.10205 c -0.007,0 0.005,0 -0.003,0 -138.92739,0 -269.39399,53.95448 -367.36354,151.92945 C 84.731338,482.68335 26.854621,637.4646 31.590502,801.67978 L 42.570618,962.3944 c 0.13921,2.02734 1.63809,3.71681 3.64517,4.09525 2.01384,0.37844 4.0128,-0.66227 4.87239,-2.51392 l 18.98544,-40.72266 C 96.029078,994.48054 136.4652,1057.842 190.37374,1111.7559 l 389.60625,356.5429 c 1.2948,1.1758 3.16131,1.5002 4.78184,0.8109 1.61511,-0.7028 2.67474,-2.2706 2.70989,-4.0277 l 6.10367,-306.6565 c 0.0243,-1.2165 -0.44873,-2.3923 -1.30967,-3.2438 L 369.60751,932.52481 c -50.16875,-50.17011 -77.7988,-116.99149 -77.79745,-188.13788 10e-4,-71.1464 27.63275,-137.95426 77.80286,-188.12437 50.17009,-50.1701 116.98202,-77.79609 188.12842,-77.79609 71.14774,-0.0135 137.95966,27.62599 188.1298,77.79609 l 442.04836,442.04288 c 1.2975,1.28401 3.2438,1.66248 4.9331,0.94617 1.676,-0.72991 2.7438,-2.4058 2.6896,-4.2439 l -10.1096,-355.93474 c -0.04,-1.14883 -0.5137,-2.23009 -1.311,-3.04102 L 925.10755,377.0315 C 827.13942,279.05653 696.66468,225.10205 557.74674,225.10205"
       style="fill:#000000;fill-opacity:1;fill-rule:nonzero;stroke:none;stroke-width:0.135157"
       id="path118" />
    <path
       d="m 813.32366,1535.2283 -172.90573,172.9057 -224.22197,-224.2246 38.83858,-118.7891 134.06851,-54.1167 224.22061,224.2247"
       style="fill:#99b9ff;fill-opacity:1;fill-rule:nonzero;stroke:none;stroke-width:0.135157"
       id="path120" />
    <path
       d="m 458.64051,1368.4857 129.3921,-52.2245 218.96577,218.9671 -166.5818,166.5804 -219.1144,-219.1157 z m 130.46119,-61.9558 c -0.56225,0 -1.12991,0.1082 -1.67323,0.3244 l -134.06851,54.1166 c -1.22317,0.5002 -2.16657,1.5003 -2.57744,2.7573 l -38.83859,118.7891 c -0.5244,1.6083 -0.10137,3.3653 1.08936,4.5547 l 224.22198,224.2247 c 1.74758,1.7435 4.57775,1.7435 6.32533,0 l 172.90714,-172.9058 c 0.83789,-0.8379 1.31092,-1.9868 1.31092,-3.1626 0,-1.1894 -0.47303,-2.3247 -1.31092,-3.1627 L 592.26572,1307.8409 c -0.85419,-0.865 -1.99896,-1.311 -3.16402,-1.311"
       style="fill:#000000;fill-opacity:1;fill-rule:nonzero;stroke:none;stroke-width:0.135157"
       id="path122" />
    <path
       d="m 1368.8265,979.72147 -172.9193,172.90573 -224.21122,-224.21115 51.12972,-121.78954 121.7761,-51.1162 224.2247,224.21116"
       style="fill:#99b9ff;fill-opacity:1;fill-rule:nonzero;stroke:none;stroke-width:0.135157"
       id="path124" />
    <path
       d="m 1026.2317,810.04597 117.3294,-49.25104 218.9265,218.92654 -166.5669,166.58043 -218.94002,-218.92655 z m 118.3701,-59.00934 c -0.5812,0 -1.1758,0.10812 -1.73,0.35141 l -121.7895,51.11619 c -1.0813,0.45954 -1.9328,1.31102 -2.3923,2.39228 l -51.11622,121.77602 c -0.7029,1.68945 -0.3244,3.62219 0.9596,4.90618 l 224.22472,224.21119 c 1.7435,1.7571 4.5682,1.7571 6.3253,0 l 172.9057,-172.89225 c 1.7436,-1.75704 1.7436,-4.58181 0,-6.33885 L 1147.7644,752.34765 c -0.865,-0.86501 -2.0003,-1.31102 -3.1626,-1.31102"
       style="fill:#000000;fill-opacity:1;fill-rule:nonzero;stroke:none;stroke-width:0.135157"
       id="path126" />
    <path
       d="M 366.45025,705.75919 C 260.9714,811.23534 260.96599,982.8571 366.44525,1088.3468 l 222.6578,222.6568 -172.90709,172.9058 -222.65821,-222.6568 C -7.2778051,1060.437 -7.2778051,733.66902 193.54451,532.85346 394.36548,332.02438 721.12393,332.02438 921.94491,532.83994 L 1144.6018,755.51031 971.69598,928.41605 749.03378,705.75919 c -105.47886,-105.48966 -277.10467,-105.47614 -382.58353,0"
       style="fill:#ffffff;fill-opacity:1;fill-rule:nonzero;stroke:none;stroke-width:0.135157"
       id="path128" />
    <path
       d="M 416.19596,1477.5841 196.70176,1258.0898 C -2.3716231,1059.0179 -2.3702721,735.08816 196.70583,536.01611 395.78328,336.94407 719.70348,336.93056 918.78227,536.00259 L 1138.2764,755.51031 971.69598,922.09073 752.19776,702.58302 C 644.97677,595.36335 470.50996,595.36335 363.28624,702.59653 v 0 c -51.85956,51.85956 -80.41949,120.92455 -80.42084,194.44969 -0.001,73.53867 28.55587,142.60368 80.41543,194.46318 l 219.49554,219.4942 z M 557.74809,377.76135 c -133.05618,-0.0135 -266.07318,50.62963 -367.36759,151.92944 -202.565839,202.55908 -202.567189,532.16541 -0.005,734.72441 l 222.65821,222.6568 c 1.74758,1.7435 4.57776,1.7435 6.32533,0 l 172.9071,-172.9057 c 0.83931,-0.838 1.31102,-1.9733 1.31102,-3.1627 0,-1.1894 -0.47171,-2.3247 -1.31102,-3.1627 L 369.60751,1085.1842 c -50.16875,-50.1701 -77.79745,-116.99159 -77.7961,-188.13798 0.003,-71.14639 27.6314,-137.95426 77.80151,-188.12437 103.73398,-103.73262 272.52421,-103.74614 376.25822,-0.0135 l 222.66224,222.67037 c 1.6759,1.67595 4.6494,1.67595 6.3253,0 L 1147.7644,758.67298 c 1.7436,-1.75703 1.7436,-4.5818 0,-6.32532 L 925.10755,529.67728 C 823.83478,428.41801 690.77184,377.77485 557.74809,377.76135"
       style="fill:#000000;fill-opacity:1;fill-rule:nonzero;stroke:none;stroke-width:0.135157"
       id="path130" />
    <path
       d="M 813.32366,1535.2283 V 1382.569 L 589.10305,1158.3443 v 152.6593 l 224.22061,224.2247"
       style="fill:#5479f7;fill-opacity:1;fill-rule:nonzero;stroke:none;stroke-width:0.135157"
       id="path132" />
    <path
       d="m 593.57674,1309.152 v -140.0086 l 215.27325,215.2772 v 140.0086 z m -4.47504,-155.2813 c -0.57577,0 -1.15829,0.1082 -1.71108,0.3379 -1.67188,0.6893 -2.76124,2.3247 -2.76124,4.1357 v 152.6593 c 0,1.1894 0.47169,2.3247 1.31101,3.1627 l 224.22063,224.2246 c 1.2772,1.2705 3.20182,1.6625 4.87513,0.9597 1.67186,-0.6893 2.76251,-2.3248 2.76251,-4.1223 V 1382.569 c 0,-1.1894 -0.47303,-2.3247 -1.31092,-3.1627 L 592.26572,1155.1817 c -0.85419,-0.865 -1.99896,-1.311 -3.16402,-1.311"
       style="fill:#000000;fill-opacity:1;fill-rule:nonzero;stroke:none;stroke-width:0.135157"
       id="path134" />
    <path
       d="M 1368.8265,979.72147 V 827.06217 L 1144.6018,602.85101 v 152.6593 l 224.2247,224.21116"
       style="fill:#5479f7;fill-opacity:1;fill-rule:nonzero;stroke:none;stroke-width:0.135157"
       id="path136" />
    <path
       d="M 1149.0755,753.65866 V 613.65003 l 215.2638,215.26379 v 140.00864 z m -4.4737,-155.28132 c -0.5812,0 -1.1623,0.10813 -1.7165,0.33789 -1.6759,0.6893 -2.7572,2.32469 -2.7572,4.13578 v 152.6593 c 0,1.17587 0.4731,2.32469 1.3111,3.16266 l 224.211,224.22468 c 1.284,1.27047 3.2168,1.66242 4.8792,0.95961 1.676,-0.6893 2.7708,-2.3247 2.7708,-4.13579 v -152.6593 c 0,-1.17586 -0.4731,-2.32469 -1.3111,-3.16266 L 1147.7644,599.68836 c -0.8515,-0.86501 -2.0003,-1.31102 -3.1626,-1.31102"
       style="fill:#000000;fill-opacity:1;fill-rule:nonzero;stroke:none;stroke-width:0.135157"
       id="path138" />
    <path
       d="m 1708.7587,177.8243 -12.029,-84.486345 -30.7886,-0.121646 -1.4463,83.094241 44.2639,1.51375"
       style="fill:#ffffff;fill-opacity:1;fill-rule:nonzero;stroke:none;stroke-width:0.135157"
       id="path140" />
    <path
       d="m 1669.0361,171.98553 1.2976,-74.268506 22.517,0.08106 10.7314,75.363276 z m -3.095,-83.242897 c -2.4464,0 -4.4332,1.959767 -4.4737,4.392589 l -1.4462,83.094228 c -0.04,2.44633 1.8787,4.47368 4.3115,4.55477 l 44.2773,1.50024 c 1.311,0.13516 2.595,-0.48656 3.487,-1.47321 0.8785,-0.98664 1.284,-2.31118 1.0948,-3.62219 l -12.029,-84.486344 c -0.3108,-2.18953 -2.1895,-3.824927 -4.4195,-3.838447 l -30.7887,-0.121636 c 0,0 0,0 -0.013,0"
       style="fill:#000000;fill-opacity:1;fill-rule:nonzero;stroke:none;stroke-width:0.135157"
       id="path142" />
    <path
       d="m 1697.7704,12.568412 c -12.083,-1.297498 -30.0723,-1.797582 -54.1167,0.31086 -8.5959,0.756876 -14.6645,8.7176 -13.2723,17.232456 3.7302,22.936062 14.1508,63.374903 30.5723,81.931882 l 8.1095,-11.55587 4.8116,11.94783 c 0.7838,1.28399 21.1925,2.14899 21.6115,-0.28383 l 1.2434,-11.664 11.5829,12.98854 -0.6352,-42.628371 c -0.067,-4.703449 0.3785,-9.406898 1.3245,-14.01573 l 3.041,-14.745576 c 1.8382,-8.866275 -0.4324,-18.259653 -6.6226,-24.8688 -2.4328,-2.581497 -5.1089,-4.379079 -7.6499,-4.649391"
       style="fill:#ffffff;fill-opacity:1;fill-rule:nonzero;stroke:none;stroke-width:0.135157"
       id="path144" />
    <path
       d="m 1660.7375,104.56946 c -13.9346,-19.638244 -22.7738,-55.698005 -25.9365,-75.174059 -0.4731,-2.919376 0.2568,-5.811733 2.0679,-8.136418 1.7705,-2.284147 4.3249,-3.676262 7.1768,-3.919544 25.5175,-2.243598 43.0338,-1.419144 53.2516,-0.324369 v 0 c 0.9596,0.108116 2.7437,1.013667 4.8657,3.270784 5.0279,5.379227 7.0957,13.191276 5.5009,20.908718 l -3.0411,14.732056 c -1.0137,4.919703 -1.4867,9.96104 -1.4191,14.988859 l 0.4596,30.626463 -3.5952,-4.027659 c -1.1759,-1.324538 -3.0275,-1.824611 -4.7035,-1.283989 -1.6894,0.540633 -2.8924,2.027345 -3.0816,3.784388 l -0.9596,8.9879 c -3.5546,0.39196 -10.7044,0.22977 -14.0968,-0.24328 l -4.0141,-9.947521 c -0.6082,-1.513751 -2.0003,-2.581487 -3.6358,-2.770701 -1.6083,-0.189224 -3.2302,0.540623 -4.1763,1.87867 z m 13.6508,-97.596528 c -8.704,0 -19.0571,0.391958 -31.1265,1.446174 -5.3657,0.473055 -10.1503,3.081571 -13.4616,7.339004 -3.2979,4.257433 -4.7034,9.744786 -3.8384,15.083465 0.9866,6.068535 10.2718,60.02302 31.6401,84.175485 0.9055,1.01368 2.23,1.52727 3.5951,1.50024 1.3787,-0.0811 2.6356,-0.7839 3.4195,-1.89219 l 3.3789,-4.82509 1.73,4.3115 c 0.095,0.21624 0.2028,0.43249 0.3244,0.63523 3.1086,5.16298 23.8011,2.90586 24.0038,2.87883 3.4465,-0.63524 5.4063,-2.21656 5.8388,-4.68992 0.027,-0.10813 0.04,-0.20275 0.04,-0.31086 l 0.1757,-1.62188 4.8657,5.4468 c 1.2434,1.39212 3.2166,1.86516 4.9602,1.18937 1.7435,-0.67577 2.8788,-2.36523 2.8518,-4.23039 l -0.6352,-42.628369 c -0.067,-4.379069 0.3514,-8.758138 1.2299,-13.042601 l 3.041,-14.732067 c 2.1895,-10.56924 -0.7163,-21.341213 -7.7445,-28.842402 -3.3654,-3.581645 -6.974,-5.676577 -10.4341,-6.041496 -5.717,-0.6082 -13.6508,-1.148833 -23.8551,-1.148833"
       style="fill:#000000;fill-opacity:1;fill-rule:nonzero;stroke:none;stroke-width:0.135157"
       id="path146" />
    <path
       d="m 1675.7399,22.042888 c -8.5555,0 -19.1517,0.662268 -31.1265,2.770711 -2.4329,0.418986 -4.0683,2.743671 -3.6358,5.176493 0.4325,2.432812 2.7708,4.054689 5.1766,3.635713 29.2749,-5.149464 50.2241,-1.067735 50.4268,-1.027197 2.4194,0.486564 4.7845,-1.081245 5.2712,-3.500547 0.4865,-2.432822 -1.0678,-4.784546 -3.4871,-5.271111 -0.5677,-0.121636 -9.0015,-1.784062 -22.6252,-1.784062"
       style="fill:#000000;fill-opacity:1;fill-rule:nonzero;stroke:none;stroke-width:0.135157"
       id="path148" />
    <path
       d="m 1685.5928,54.439905 h -27.9233 c -2.4734,0 -4.4738,2.000316 -4.4738,4.473688 0,2.47336 2.0004,4.473676 4.4738,4.473676 h 27.9233 c 2.4733,0 4.4737,-2.000316 4.4737,-4.473676 0,-2.473372 -2.0004,-4.473688 -4.4737,-4.473688"
       style="fill:#000000;fill-opacity:1;fill-rule:nonzero;stroke:none;stroke-width:0.135157"
       id="path150" />
    <path
       d="m 1929.7531,170.28256 10.826,-98.475042 41.4254,-8.663531 -2.5273,115.450703 -49.7241,-8.31213"
       style="fill:#ffffff;fill-opacity:1;fill-rule:nonzero;stroke:none;stroke-width:0.135157"
       id="path152" />
    <path
       d="m 1944.6743,75.524328 32.735,-6.852439 -2.2842,104.651691 -40.4659,-6.75782 z m 37.3302,-16.854017 c -0.3108,0 -0.6081,0.02702 -0.919,0.09456 l -41.4119,8.677051 c -1.9058,0.391947 -3.3249,1.959767 -3.5411,3.878985 l -10.8261,98.461523 c -0.2568,2.36524 1.3651,4.51423 3.7033,4.90619 l 49.7376,8.31212 c 1.2704,0.21625 2.5815,-0.13516 3.5817,-0.95961 1.0001,-0.82445 1.5948,-2.05438 1.6218,-3.35188 l 2.5274,-115.450703 c 0.027,-1.365076 -0.5676,-2.662584 -1.6218,-3.541096 -0.8109,-0.675788 -1.8246,-1.027187 -2.8519,-1.027187"
       style="fill:#000000;fill-opacity:1;fill-rule:nonzero;stroke:none;stroke-width:0.135157"
       id="path154" />
    <path
       d="m 1923.0628,24.854147 c -0.9055,17.259485 -0.9325,49.034784 9.5826,64.348021 l 33.1269,-11.79917 V 84.4852 c 0,2.284147 1.6354,4.162826 3.7033,4.270953 l 18.4758,1.067735 c 6.893,0.391948 13.7725,-1.027197 20.0708,-4.135797 18.5705,-9.123056 75.093,-32.545684 82.932,-58.887696 2.3112,-7.7715 -3.7708,-15.543 -11.8667,-15.772763 -18.5975,-0.540623 -63.3209,-1.121804 -143.5768,1.621878 -6.6902,0.229762 -12.0965,5.527902 -12.4479,12.204637"
       style="fill:#ffffff;fill-opacity:1;fill-rule:nonzero;stroke:none;stroke-width:0.135157"
       id="path156" />
    <path
       d="m 1927.5365,25.09743 c 0.2298,-4.392589 3.7168,-7.825569 8.1229,-7.974244 79.3909,-2.716643 123.8574,-2.18953 143.293,-1.621878 2.5815,0.06755 5.0143,1.365086 6.5415,3.460009 0.8245,1.148833 2.0815,3.514067 1.1624,6.555089 -6.3254,21.260126 -50.927,42.195874 -72.3763,52.25152 -3.1898,1.500232 -5.9875,2.81125 -8.231,3.919534 -5.5956,2.743682 -11.7587,4.027671 -17.8408,3.662742 l -17.9488,-1.027187 -0.013,-6.920017 c 0,-1.446174 -0.7028,-2.81125 -1.8921,-3.649223 -1.1895,-0.837973 -2.7166,-1.040706 -4.0818,-0.567662 l -29.6803,10.56924 c -5.8794,-11.312596 -8.4473,-32.34295 -7.0552,-58.657923 z M 2042.0411,6.094421 c -24.6795,0 -59.5635,0.473044 -106.6791,2.094922 -9.0825,0.297341 -16.2863,7.366033 -16.7593,16.435032 v 0 c -0.9597,18.043399 -0.8786,50.751278 10.3529,67.105212 1.1489,1.675946 3.2708,2.365244 5.1901,1.689466 l 27.1529,-9.677209 V 84.4852 c 0,4.649391 3.4735,8.487827 7.9202,8.744629 l 18.4759,1.054226 c 7.6093,0.459525 15.3267,-1.148833 22.3007,-4.581813 2.2031,-1.081255 4.9469,-2.365234 8.0825,-3.838446 24.3551,-11.420723 69.6867,-32.69436 77.1608,-57.792932 1.4597,-4.906183 0.5542,-10.136734 -2.5004,-14.353619 -3.1356,-4.33852 -8.1905,-7.014624 -13.5292,-7.163299 -7.9742,-0.229763 -20.1518,-0.459525 -37.168,-0.459525"
       style="fill:#000000;fill-opacity:1;fill-rule:nonzero;stroke:none;stroke-width:0.135157"
       id="path158" />
    <path
       d="m 2029.1877,22.461874 c -23.5712,0 -55.4142,1.040707 -90.1764,5.068367 -2.4598,0.283831 -4.2169,2.5004 -3.9331,4.96024 0.2838,2.459851 2.5004,4.216885 4.9602,3.933064 70.4166,-8.176977 128.5339,-3.919544 129.1151,-3.878995 2.4328,0.162185 4.6089,-1.648907 4.798,-4.122278 0.1892,-2.459851 -1.6624,-4.608831 -4.1222,-4.798055 -0.2973,-0.01351 -15.908,-1.162343 -40.6416,-1.162343"
       style="fill:#000000;fill-opacity:1;fill-rule:nonzero;stroke:none;stroke-width:0.135157"
       id="path160" />
    <path
       d="m 2018.9159,50.642008 c -0.9057,0 -1.8247,0.270311 -2.6086,0.837973 l -31.897,22.949572 c -2.0138,1.446174 -2.4733,4.230404 -1.0271,6.24424 1.4461,2.000315 4.2439,2.45984 6.2442,1.013667 l 31.8969,-22.936062 c 2.0138,-1.446175 2.4598,-4.243915 1.0272,-6.24423 -0.8785,-1.216411 -2.2436,-1.86516 -3.6356,-1.86516"
       style="fill:#000000;fill-opacity:1;fill-rule:nonzero;stroke:none;stroke-width:0.135157"
       id="path162" />
    <path
       d="m 1935.4702,850.4848 c 0,0 66.5781,-448.59802 53.914,-720.43834 l -18.5165,-1.85164 c -9.9611,-0.98664 -19.9762,-1.24344 -29.9778,-0.72984 l -17.5703,0.87851 c -78.9314,460.32961 -98.9346,482.07629 -114.3019,532.78702 0,0 -87.9869,-418.49866 -91.6902,-517.98738 0,0 -42.7364,-4.29798 -59.7662,1.83813 -9.15,96.01519 -11.7991,195.39579 -12.2586,257.78404 -1.3111,178.55529 15.7592,259.67623 25.112,298.15529 8.596,35.32991 17.8136,64.03716 24.5445,83.45916 l 22.4765,64.13176 218.0345,1.97329"
       style="fill:#000000;fill-opacity:1;fill-rule:nonzero;stroke:none;stroke-width:0.135157"
       id="path164" />
    <path
       d="m 1809.1124,642.34375 c -0.2839,0 -0.5677,0.027 -0.8515,0.0811 -2.4328,0.47305 -4.0142,2.82477 -3.5411,5.25758 l 9.7853,50.25119 c 0.013,0.10813 0.04,0.21626 0.082,0.32438 3.1086,11.35315 12.2046,19.88153 23.7335,22.2738 l 9.2447,1.90571 c 2.4328,0.50008 4.7845,-1.05422 5.2846,-3.47352 0.5001,-2.4193 -1.0542,-4.78455 -3.4735,-5.28462 l -9.2448,-1.91923 c -8.1633,-1.68946 -14.6239,-7.70392 -16.881,-15.70518 l -9.7448,-50.08901 c -0.4189,-2.13547 -2.2976,-3.6222 -4.3925,-3.6222"
       style="fill:#caddff;fill-opacity:1;fill-rule:nonzero;stroke:none;stroke-width:0.135157"
       id="path166" />
    <path
       d="m 1691.7829,723.62689 c -2.1354,0 -4.0411,1.5543 -4.4061,3.74383 -0.4054,2.43282 1.2435,4.73048 3.6763,5.13595 39.7766,6.63618 54.3735,32.36998 58.7931,43.12845 0.9461,2.28414 3.5411,3.37891 5.8388,2.43282 2.2841,-0.93258 3.3789,-3.55463 2.4328,-5.83876 -4.9872,-12.13706 -21.3817,-41.1822 -65.5914,-48.54823 -0.2434,-0.0405 -0.5002,-0.054 -0.7435,-0.054"
       style="fill:#caddff;fill-opacity:1;fill-rule:nonzero;stroke:none;stroke-width:0.135157"
       id="path168" />
    <path
       d="m 1934.8079,750.38788 c -0.5947,0 -1.2029,0.12163 -1.784,0.37844 -32.8701,14.27253 -36.6951,43.4393 -36.8302,44.66923 -0.2973,2.45985 1.4596,4.67641 3.906,4.97376 2.4058,0.33789 4.6765,-1.45969 4.9738,-3.90602 0.1351,-1.09477 3.5546,-25.3824 31.5185,-37.53298 2.2706,-0.98664 3.3113,-3.62219 2.3246,-5.89282 -0.7298,-1.67593 -2.3786,-2.68961 -4.1087,-2.68961"
       style="fill:#caddff;fill-opacity:1;fill-rule:nonzero;stroke:none;stroke-width:0.135157"
       id="path170" />
    <path
       d="m 1649.9926,1168.6568 c 11.5694,13.0967 35.0191,27.0313 52.0622,30.9644 32.3295,7.4606 73.7685,11.7721 110.7068,14.286 l 20.9763,2.23 c 10.7314,0.7705 20.8682,0.8515 30.4778,0.365 6.6227,0.2298 12.6506,0.392 17.8811,0.5136 16.3135,0.3784 42.5338,-4.9062 56.455,-13.4075 13.6102,-8.2986 26.2609,-18.4624 38.033,-29.7885 45.5072,-36.6139 68.5244,-83.743 96.9072,-86.5543 11.5694,-1.1488 34.7488,68.8623 43.6556,97.2181 5.7982,18.4489 27.4368,26.6934 43.8989,16.5296 0.8108,-0.5 1.5678,-1.0001 2.257,-1.5001 21.071,-15.0295 14.5835,-48.8727 14.5835,-48.8727 0,0 -11.4613,-188.6785 -64.213,-196.27429 -58.9147,-8.47432 -148.2666,63.22619 -166.702,68.13239 l 13.7725,-80.90469 23.0036,-113.23413 c 3.3654,-21.94942 -25.0039,-28.9235 -40.9659,-28.77482 -0.4867,0 -5.582,39.6414 -6.0686,39.74953 -51.0757,10.50166 -116.9644,-19.88153 -168.4997,-47.16964 -66.0914,-34.99202 -125.9523,-11.4883 -130.6152,6.48753 -4.6494,17.97581 7.758,127.43908 7.758,127.43908 l -69.3623,5.74415 c -13.0561,1.08126 -23.1388,11.98839 -23.1118,25.08506 0.1622,89.77093 63.0235,173.12203 97.11,211.73623"
       style="fill:#5479f7;fill-opacity:1;fill-rule:nonzero;stroke:none;stroke-width:0.135157"
       id="path172" />
    <path
       d="m 1712.8674,1074.2364 c -6.001,-8.0958 -13.0967,-15.2997 -21.098,-21.4357 -27.0042,-20.6655 -91.4334,-70.55181 -106.8006,-87.79777 -19.5842,-21.96294 -29.2343,-30.4778 -4.771,-76.7554 39.8711,-75.45789 147.4692,146.87457 147.4692,146.87457 0,0 40.7497,-1.7705 44.926,34.3028 0,0 21.2467,-1.0677 29.3831,3.8519 6.2307,3.7844 4.406,14.989 -4.5953,15.016 l -58.6579,2.8653 c -8.0825,0.3243 -15.7863,-3.352 -20.5979,-9.8395 l -5.2576,-7.0822"
       style="fill:#ffffff;fill-opacity:1;fill-rule:nonzero;stroke:none;stroke-width:0.135157"
       id="path174" />
    <path
       d="m 1716.4625,1071.5738 c -6.2442,-8.4337 -13.6372,-15.9483 -21.9764,-22.3278 -26.8962,-20.5709 -91.0685,-70.26789 -106.179,-87.21652 l -1.7435,-1.94626 c -17.9623,-20.08425 -24.6796,-27.59896 -2.4057,-69.74076 4.7034,-8.90682 10.3124,-13.24534 17.1378,-13.24534 0.095,0 0.1892,0 0.2973,0 36.9247,0.64875 100.6105,115.70753 122.0464,159.97128 0.7703,1.6084 2.3787,2.6086 4.2169,2.5274 1.4461,-0.067 36.6544,-1.0948 40.2901,30.3427 0.2703,2.3382 2.4463,4.0276 4.6629,3.9601 7.7039,-0.392 21.7872,0.1487 26.8421,3.2167 1.4732,0.892 1.7435,2.7707 1.3651,4.1358 -0.3244,1.1623 -1.2299,2.5544 -3.6492,2.568 l -58.8742,2.8652 c -6.5416,0.2434 -12.8399,-2.7301 -16.773,-8.0418 z M 1601.2687,868.14976 c -10.299,0 -18.7058,6.05501 -25.031,18.00284 -24.166,45.72346 -16.3405,57.53614 3.6627,79.89103 l 1.73,1.93274 c 15.6105,17.5298 80.3235,67.64583 107.4224,88.37893 7.6633,5.8792 14.4753,12.7857 20.2194,20.5437 v 0 l 5.2576,7.0822 c 5.7036,7.677 14.7996,11.9614 24.3687,11.6371 l 58.6985,-2.8519 c 5.7036,-0.027 10.5152,-3.6086 12.0425,-9.123 1.5272,-5.5144 -0.6758,-11.3532 -5.3522,-14.1915 -6.9877,-4.2304 -20.9222,-4.6358 -27.8964,-4.6088 -5.3251,-26.5583 -30.5723,-33.9244 -45.9532,-34.2217 -12.529,-25.5581 -81.5129,-161.63368 -128.696,-162.47164 -0.1487,0 -0.3109,0 -0.473,0"
       style="fill:#000000;fill-opacity:1;fill-rule:nonzero;stroke:none;stroke-width:0.135157"
       id="path176" />
    <path
       d="m 1942.7822,799.58486 c 49.6024,3.25726 57.9686,28.72075 -6.0686,39.74953 l 6.0686,-39.74953"
       style="fill:#99b9ff;fill-opacity:1;fill-rule:nonzero;stroke:none;stroke-width:0.135157"
       id="path178" />
    <path
       d="m 2109.6194,1318.0453 36.6814,-176.3928 c 2.6896,-12.9209 11.3396,-21.9089 19.3139,-20.0707 l 13.1507,3.0275 c 7.9877,1.8382 12.2858,13.7994 9.5962,26.7205 l -36.6815,176.4062 -42.0607,-9.6907"
       style="fill:#5479f7;fill-opacity:1;fill-rule:nonzero;stroke:none;stroke-width:0.135157"
       id="path180" />
    <path
       d="m 2114.8905,1314.6799 35.7894,-172.1218 c 1.4326,-6.893 4.8792,-12.8129 9.015,-15.462 1.7434,-1.1083 3.4059,-1.5136 4.9197,-1.1488 l 13.1507,3.0276 c 4.8251,1.1082 8.5554,10.1908 6.2172,21.4493 l -35.7489,171.919 z m 48.6158,-197.8151 c -2.9194,0 -5.8524,0.9191 -8.65,2.7032 -6.1632,3.96 -11.0018,11.8667 -12.9345,21.1655 l -36.6815,176.4062 c -0.5001,2.3788 1.0002,4.717 3.3654,5.2712 l 42.0607,9.6771 c 1.1758,0.2839 2.4058,0.068 3.4194,-0.5811 1.0137,-0.6488 1.73,-1.6895 1.9733,-2.8653 l 36.6815,-176.3928 c 3.2303,-15.5295 -2.4734,-29.5858 -12.9615,-32.005 l -13.1507,-3.0276 c -1.0272,-0.2297 -2.0815,-0.3514 -3.1221,-0.3514"
       style="fill:#000000;fill-opacity:1;fill-rule:nonzero;stroke:none;stroke-width:0.135157"
       id="path182" />
    <path
       d="m 2121.5132,1140.8822 c -6.5417,2.7031 -9.8665,10.0016 -7.677,16.7323 6.6092,20.2329 11.2586,39.3171 3.6763,50.3052 -6.5821,9.5421 -12.7858,19.0031 -11.2315,30.2481 l 2.2031,16.9081 c 0.3784,2.6356 -0.419,12.3397 6.8659,10.6233 5.5009,-1.311 7.8255,-6.1361 11.0017,-27.3557 1.5949,-10.6639 5.7983,-15.5836 12.9886,-20.0032 -0.2838,1.5678 -0.4055,3.406 -0.3108,5.3928 0.4054,9.1366 5.3792,17.4757 12.9885,22.5441 9.4745,6.2983 25.3958,14.7456 34.8163,4.1628 6.555,-7.366 9.1095,-23.9632 -2.3788,-40.128 -2.6896,-3.7979 -17.719,-20.2329 -17.719,-20.2329 -2.8924,-3.8789 -9.1906,-43.4257 -9.1906,-43.4257 -3.8114,-20.7331 -19.5166,-12.6102 -36.0327,-5.7712"
       style="fill:#ffffff;fill-opacity:1;fill-rule:nonzero;stroke:none;stroke-width:0.135157"
       id="path184" />
    <path
       d="m 2123.2296,1145.0044 3.1762,-1.3245 c 8.7311,-3.6627 17.7326,-7.4471 22.2063,-5.0414 2.1354,1.1624 3.6626,4.1223 4.5277,8.8257 2.3922,15.07 6.9064,41.1553 10.0015,45.291 0.095,0.1217 0.1893,0.2433 0.2838,0.3514 5.974,6.5146 15.5295,17.1784 17.3812,19.787 10.826,15.232 7.3931,29.2884 2.6896,34.573 -5.3386,6.001 -15.0969,4.3385 -28.9911,-4.9198 -6.555,-4.3519 -10.6638,-11.4747 -11.0152,-19.0164 -0.068,-1.5813 0.027,-3.0951 0.2568,-4.3926 0.3108,-1.7301 -0.4325,-3.4871 -1.8787,-4.4872 -1.4732,-0.9867 -3.3654,-1.0272 -4.8657,-0.1082 -7.6768,4.7034 -13.1642,10.4476 -15.0698,23.1388 -3.1493,20.9898 -5.2306,23.0983 -7.6229,23.6659 -0.1893,0.04 -0.3379,0.067 -0.446,0.082 -0.5676,-1.0001 -0.7299,-3.9466 -0.7839,-4.9602 -0.055,-0.8245 -0.095,-1.5408 -0.1757,-2.0408 l -2.1761,-16.8406 c -1.284,-9.2177 3.5276,-17.0567 10.4747,-27.1259 9.1365,-13.2724 3.1897,-34.9515 -3.1086,-54.2383 -1.4732,-4.4872 0.7839,-9.4204 5.1359,-11.218 z m 21.8819,-16.0836 c -6.6768,0 -14.2725,3.1897 -22.1657,6.5145 l -3.1356,1.3111 c -8.6501,3.5681 -13.1372,13.3534 -10.2179,22.2602 6.0415,18.5165 10.7449,36.9384 4.2439,46.3722 -6.1631,8.9339 -13.8264,20.0572 -11.9748,33.3972 l 2.1895,16.8675 c 0.04,0.3785 0.054,0.811 0.095,1.311 0.1757,3.2979 0.4731,8.8123 4.4196,11.7587 1.4733,1.1082 4.0277,2.2435 7.8121,1.338 8.65,-2.0544 11.1775,-9.5556 14.4076,-31.0455 0.757,-5.0818 2.1356,-8.5283 4.1899,-11.1909 1.5138,8.8933 6.7714,16.9892 14.5699,22.1792 22.6523,15.097 34.6001,10.2043 40.6416,3.4194 8.1905,-9.2041 10.2448,-28.3422 -2.0814,-45.6963 -2.6626,-3.7439 -15.4349,-17.7596 -17.8272,-20.3816 -1.5273,-3.0411 -5.5279,-23.8011 -8.3256,-41.385 -1.4057,-7.6904 -4.3656,-12.6372 -9.0825,-15.1781 -2.4058,-1.2975 -5.0009,-1.8516 -7.758,-1.8516"
       style="fill:#000000;fill-opacity:1;fill-rule:nonzero;stroke:none;stroke-width:0.135157"
       id="path186" />
    <path
       d="m 2154.9238,1312.1254 33.4378,-160.7956 c 2.6896,-12.9211 -1.6085,-24.8823 -9.5962,-26.7205 l -13.1507,-3.0275 c -7.9743,-1.8382 -16.6243,7.1498 -19.3139,20.0707 l -34.4108,165.2694 43.0338,5.2035"
       style="fill:#5479f7;fill-opacity:1;fill-rule:nonzero;stroke:none;stroke-width:0.135157"
       id="path188" />
    <path
       d="m 2117.2557,1303.07 33.4242,-160.5119 c 1.4326,-6.893 4.8792,-12.8129 9.015,-15.462 1.7434,-1.1083 3.4059,-1.5136 4.9197,-1.1488 l 13.1507,3.0276 c 4.8251,1.1082 8.5554,10.1908 6.2172,21.4493 l -32.5998,156.768 z m 46.2506,-186.2052 c -2.9194,0 -5.8524,0.9191 -8.65,2.7032 -6.1632,3.96 -11.0018,11.8667 -12.9345,21.1655 l -34.4108,165.2829 c -0.2569,1.2163 0.013,2.5003 0.7433,3.514 0.7298,1.0137 1.8516,1.6894 3.0951,1.8381 l 43.0473,5.2035 c 2.2977,0.2704 4.4332,-1.2569 4.9197,-3.5411 l 33.4242,-160.7821 c 3.2303,-15.5295 -2.4734,-29.5858 -12.9615,-32.005 l -13.1507,-3.0276 c -1.0272,-0.2297 -2.0815,-0.3514 -3.1221,-0.3514"
       style="fill:#000000;fill-opacity:1;fill-rule:nonzero;stroke:none;stroke-width:0.135157"
       id="path190" />
    <path
       d="m 2153.8155,1207.0142 c 6.5687,-0.6758 16.9081,0.7839 28.045,8.3527 11.6775,7.9337 11.5288,27.7071 4.9738,35.0731 -9.3663,10.5287 -25.1932,2.2166 -34.6811,-4.0682 -7.677,-5.1089 -14.9349,-15.2321 -14.7727,-22.3008 0.2703,-10.7855 4.1493,-15.8133 16.435,-17.0568"
       style="fill:#ffffff;fill-opacity:1;fill-rule:nonzero;stroke:none;stroke-width:0.135157"
       id="path192" />
    <path
       d="m 2175.3595,1251.0347 c -6.4335,0 -14.3942,-4.1898 -20.7195,-8.3932 -6.8254,-4.5278 -12.9074,-13.3129 -12.7723,-18.4624 0.1892,-8.0959 1.9598,-11.664 12.4074,-12.7183 2.0814,-0.2162 9.6502,-0.527 19.5031,4.4062 2.2165,1.0947 4.9061,0.2162 6.0144,-2.0004 0.2703,-0.5541 0.419,-1.1218 0.4595,-1.7029 0.419,0.5406 0.5542,0.7163 0.5542,0.7299 10.7855,15.2727 7.3796,29.3154 2.6896,34.573 -0.4054,0.4595 -1.4597,1.3921 -1.4732,1.4056 -1.8651,1.5138 -4.1493,2.1625 -6.6632,2.1625 z m 2.541,-53.2652 c -1.0137,0 -2.0275,0.3379 -2.8653,1.0407 -1.8923,1.5814 -2.1491,4.4061 -0.5678,6.2983 0.5948,0.7028 1.1354,1.3516 1.6219,1.9463 -7.7444,-3.5546 -15.9349,-5.2036 -22.7198,-4.5008 -14.0022,1.4192 -20.1112,7.8257 -20.4492,21.4089 -0.2297,9.2311 8.3392,20.5437 16.773,26.1257 16.4486,10.9342 29.2883,12.7993 38.1411,5.582 0.1622,-0.1352 1.73,-1.5679 2.3518,-2.2572 8.1499,-9.1636 10.2043,-28.2882 -2.0679,-45.6828 -0.2704,-0.3785 -1.5543,-2.1085 -6.7849,-8.3662 -0.8785,-1.0543 -2.149,-1.5949 -3.4329,-1.5949"
       style="fill:#000000;fill-opacity:1;fill-rule:nonzero;stroke:none;stroke-width:0.135157"
       id="path194" />
    <path
       d="m 2173.5214,1495.4382 -155.9977,-57.2793 -65.2806,-38.7765 -29.6263,-29.802 -0.2027,-0.2432 c -5.5955,-5.0279 -7.231,-19.7194 -3.7439,-36.0733 3.4466,-16.1647 10.9748,-28.7883 18.084,-31.3428 l -0.2569,-0.054 37.2222,-14.6509 74.8632,-8.231 167.2156,12.6506 180.3258,-84.3917 1.3246,-0.4054 c -45.291,21.8007 -91.9875,102.9621 -113.8829,205.6947 -21.8818,102.6108 -12.3398,195.4498 20.0978,233.6315 l -0.04,0.027 -128.4528,-148.8478 -1.6489,-1.9058"
       style="fill:#99b9ff;fill-opacity:1;fill-rule:nonzero;stroke:none;stroke-width:0.135157"
       id="path196" />
    <path
       d="m 2215.7983,1296.1093 c 0.6623,0 1.311,-0.1351 1.9057,-0.419 l 145.4825,-68.0917 c -35.5867,37.5059 -67.2404,105.4085 -83.9997,184.002 -16.6513,78.0799 -15.516,152.4701 1.4191,201.0724 l -102.0432,-118.2485 c -0.2839,-0.3243 -0.6217,-0.6081 -0.9596,-0.8379 -0.4866,-1.0542 -1.3651,-1.9193 -2.5409,-2.3518 l -155.6058,-57.1306 -64.4426,-38.2764 -29.2208,-29.4235 c -0.1216,-0.1352 -0.2568,-0.2703 -0.392,-0.392 -3.7709,-3.3924 -5.6765,-16.2053 -2.3517,-31.8158 3.3789,-15.8945 10.3665,-26.315 15.2186,-28.0586 0.392,-0.1486 0.7704,-0.3513 1.1083,-0.5946 l 35.4245,-13.9482 73.8631,-8.1229 166.7967,12.6236 c 0.1215,0.013 0.2297,0.013 0.3378,0.013 z m 181.6639,-93.7445 c -0.4461,0 -0.8786,0.054 -1.311,0.1892 l -1.3245,0.4055 c -0.2027,0.068 -0.4055,0.1352 -0.5947,0.2298 l -179.2581,83.9052 -166.0533,-12.5696 c -0.2704,-0.027 -0.5407,-0.013 -0.8245,0.013 l -74.8767,8.231 c -0.392,0.04 -0.7704,0.1352 -1.1488,0.2838 l -37.2086,14.651 c -0.419,0.1757 -0.811,0.3919 -1.1488,0.6622 -8.2176,4.1359 -15.8945,17.4353 -19.4221,33.9649 -3.8384,18.0299 -1.9056,33.708 4.9062,40.128 l 0.04,0.054 c 0.068,0.082 0.1351,0.1487 0.2028,0.2163 l 29.6262,29.8156 c 0.2703,0.2702 0.5677,0.5 0.892,0.6892 l 65.2806,38.7764 c 0.2433,0.1352 0.4866,0.2568 0.7434,0.3514 l 155.1867,56.9821 c 0.1622,0.3243 0.365,0.6351 0.6217,0.9325 l 128.4529,148.8344 c 1.5948,1.8516 4.3654,2.0678 6.2442,0.5135 0.919,-0.7568 1.5137,-1.8786 1.6083,-3.068 0.1081,-1.1894 -0.2568,-2.3787 -1.0272,-3.2978 -32.5727,-38.3304 -40.2631,-130.6829 -19.1382,-229.7931 21.1655,-99.2725 65.9564,-180.6908 111.4636,-202.5996 2.1085,-1.0137 3.0816,-3.4871 2.2301,-5.6631 -0.6893,-1.7571 -2.3788,-2.8383 -4.1628,-2.8383"
       style="fill:#000000;fill-opacity:1;fill-rule:nonzero;stroke:none;stroke-width:0.135157"
       id="path198" />
    <path
       d="m 2476.3936,1452.9179 c 27.0719,-127.0336 5.8117,-239.0513 -47.494,-250.2152 -53.3192,-11.1504 -118.4917,82.7833 -145.5636,209.8034 -27.0854,127.0337 -5.8252,239.0649 47.494,250.2153 53.3057,11.164 118.4783,-82.7698 145.5636,-209.8035"
       style="fill:#ffffff;fill-opacity:1;fill-rule:nonzero;stroke:none;stroke-width:0.135157"
       id="path200" />
    <path
       d="m 2339.845,1659.1803 c -2.7301,0 -5.4334,-0.2838 -8.0959,-0.8379 -11.7315,-2.4463 -22.044,-10.4206 -30.6806,-23.6795 -27.6935,-42.5338 -32.9376,-129.3583 -13.3669,-221.2241 26.5313,-124.4252 89.4736,-216.9803 140.279,-206.357 11.7181,2.4599 22.044,10.4206 30.667,23.6659 27.7071,42.5338 32.9511,129.3717 13.3669,221.2377 -25.1256,117.897 -82.9455,207.1949 -132.1695,207.1949 z m 80.1748,-461.8568 c -54.2383,0 -114.6532,90.3386 -141.0628,214.2636 -20.0573,94.0554 -14.3131,183.5426 14.6104,227.9685 9.9745,15.3132 22.2063,24.585 36.3436,27.5449 56.5765,11.8532 122.8302,-81.8237 150.8482,-213.2499 20.0572,-94.069 14.3266,-183.5561 -14.6104,-227.9821 -9.9746,-15.3132 -22.2062,-24.5849 -36.3301,-27.5449 -3.2437,-0.6757 -6.5145,-1.0001 -9.7989,-1.0001"
       style="fill:#000000;fill-opacity:1;fill-rule:nonzero;stroke:none;stroke-width:0.135157"
       id="path202" />
    <path
       d="m 2413.9784,1235.3836 c -45.656,-0.013 -96.4478,75.7147 -118.5864,179.6095 -16.8,78.7826 -11.9748,153.781 12.2992,191.0437 8.4338,12.9615 18.8003,20.8141 30.7887,23.3145 31.8699,6.6902 67.8892,-25.6392 96.4612,-86.4191 1.0542,-2.2301 0.082,-4.8926 -2.1489,-5.9469 -2.2437,-1.0542 -4.8927,-0.095 -5.9469,2.149 -26.3016,55.9007 -59.4554,87.1219 -86.5273,81.4724 -9.5826,-2.0138 -18.0433,-8.5555 -25.1391,-19.4491 -23.0307,-35.3704 -27.3691,-107.7197 -11.0423,-184.2994 20.6114,-96.6774 69.6732,-172.5137 109.9498,-172.5273 2.1355,0 4.2574,0.2163 6.3389,0.6488 37.3437,7.8256 55.279,86.2974 40.8173,178.6769 -0.3785,2.4463 1.2975,4.7305 3.7302,5.1089 2.4329,0.3514 4.7306,-1.284 5.1226,-3.7303 15.6916,-100.3132 -4.4197,-179.7176 -47.832,-188.8001 -2.7436,-0.5812 -5.5009,-0.8515 -8.285,-0.8515"
       style="fill:#000000;fill-opacity:1;fill-rule:nonzero;stroke:none;stroke-width:0.135157"
       id="path204" />
    <path
       d="m 2374.0396,1431.3334 c 5.9334,-27.8016 1.284,-52.3325 -10.3801,-54.7653 -11.6639,-2.4463 -25.9365,18.1109 -31.8563,45.9261 -5.9334,27.8018 -1.284,52.3326 10.3799,54.7654 11.6641,2.4464 25.9231,-18.1245 31.8565,-45.9262"
       style="fill:#99b9ff;fill-opacity:1;fill-rule:nonzero;stroke:none;stroke-width:0.135157"
       id="path206" />
    <path
       d="m 2344.1564,1472.9887 c -0.3648,0 -0.7163,-0.04 -1.0541,-0.1082 -1.622,-0.3378 -3.1357,-1.5678 -4.5008,-3.6626 -4.5682,-7.0147 -7.0957,-23.8958 -2.4193,-45.7911 6.0686,-28.491 19.5707,-43.8448 26.5583,-42.4932 1.6218,0.3514 3.1356,1.5813 4.4872,3.6763 4.5818,7.0145 7.1092,23.8956 2.4328,45.791 v 0 c -5.3657,25.1931 -17.5433,42.5878 -25.5041,42.5878 z m 17.611,-101.0971 c -13.7184,0 -28.1126,20.4763 -34.3433,49.67 -4.6359,21.7872 -3.2303,41.9256 3.6898,52.5354 2.6626,4.1087 6.1766,6.7173 10.1502,7.5417 14.5294,3.041 30.5049,-18.1785 37.1546,-49.3727 4.6359,-21.7872 3.2302,-41.9255 -3.6898,-52.5488 -2.6626,-4.0953 -6.1767,-6.7037 -10.1638,-7.5282 -0.9191,-0.2028 -1.8516,-0.2974 -2.7977,-0.2974"
       style="fill:#000000;fill-opacity:1;fill-rule:nonzero;stroke:none;stroke-width:0.135157"
       id="path208" />
    <path
       d="m 2215.7983,1296.1093 c 0.6623,0 1.311,-0.1351 1.9057,-0.419 l 145.4825,-68.0917 c -35.5867,37.5059 -67.2404,105.4085 -83.9997,184.002 -16.6513,78.0799 -15.516,152.4701 1.4191,201.0724 l -103.6921,-120.1542 c -0.5001,-0.5812 -1.1353,-1.0137 -1.8516,-1.284 l -155.6058,-57.1306 -64.4426,-38.2764 -29.2208,-29.4235 c -0.1216,-0.1352 -0.2568,-0.2703 -0.392,-0.392 -3.7709,-3.3924 -5.6765,-16.2053 -2.3517,-31.8158 3.3789,-15.8945 10.3665,-26.315 15.2186,-28.0586 0.392,-0.1486 0.7704,-0.3513 1.1083,-0.5946 l 35.4245,-13.9482 73.8631,-8.1229 166.7967,12.6236 c 0.1215,0.013 0.2297,0.013 0.3378,0.013 z m 181.6639,-93.7445 c -0.4461,0 -0.8786,0.054 -1.311,0.1892 l -1.3245,0.4055 c -0.2027,0.068 -0.4055,0.1352 -0.5947,0.2298 l -179.2581,83.9052 -166.0533,-12.5696 c -0.2704,-0.027 -0.5407,-0.013 -0.8245,0.013 l -74.8767,8.231 c -0.392,0.04 -0.7704,0.1352 -1.1488,0.2838 l -37.2086,14.651 c -0.419,0.1757 -0.811,0.3919 -1.1488,0.6622 -8.2176,4.1359 -15.8945,17.4353 -19.4221,33.9649 -3.8384,18.0299 -1.9056,33.708 4.9062,40.128 l 0.04,0.054 c 0.068,0.082 0.1351,0.1487 0.2028,0.2163 l 29.6262,29.8156 c 0.2703,0.2702 0.5677,0.5 0.892,0.6892 l 65.2806,38.7764 c 0.2433,0.1352 0.4866,0.2568 0.7434,0.3514 l 154.9164,56.8739 129.3449,149.8751 c 1.5948,1.8516 4.3654,2.0678 6.2442,0.5135 0.919,-0.7568 1.5137,-1.8786 1.6083,-3.068 0.1081,-1.1894 -0.2568,-2.3787 -1.0272,-3.2978 -32.5727,-38.3304 -40.2631,-130.6829 -19.1382,-229.7931 21.1655,-99.2725 65.9564,-180.6908 111.4636,-202.5996 2.1085,-1.0137 3.0816,-3.4871 2.2301,-5.6631 -0.6893,-1.7571 -2.3788,-2.8383 -4.1628,-2.8383"
       style="fill:#000000;fill-opacity:1;fill-rule:nonzero;stroke:none;stroke-width:0.135157"
       id="path210" />
    <path
       d="m 2173.9134,1495.8977 129.7097,150.2941 0.04,-0.027 c -32.4376,-38.1817 -41.9796,-131.0207 -20.0979,-233.6316 21.8954,-102.7325 68.592,-183.8939 113.8829,-205.6946 l -1.3245,0.4054 -180.0149,84.2565 -4.1899,1.9328 c -20.8816,9.907 -42.3851,46.5479 -52.1839,93.0282 -10.0557,47.7103 -2.4058,90.4332 12.556,107.6117 l 1.6219,1.8245"
       style="fill:#5479f7;fill-opacity:1;fill-rule:nonzero;stroke:none;stroke-width:0.135157"
       id="path212" />
    <path
       d="m 2173.9134,1495.8977 h 0.027 z m 106.6925,116.7753 -103.3001,-119.7081 c -0.013,-0.013 -0.04,-0.027 -0.054,-0.04 l -1.6084,-1.8247 c -13.3535,-15.3132 -21.6115,-55.8871 -11.5288,-103.7191 9.1501,-43.3852 29.5993,-80.364 49.724,-89.9061 l 4.1494,-1.9191 145.1986,-67.9567 c -35.5867,37.5059 -67.2404,105.4085 -83.9997,184.002 -16.6513,78.0799 -15.516,152.4836 1.4191,201.0724 z m 116.8563,-410.3082 c -0.4461,0 -0.8786,0.054 -1.311,0.1892 l -1.3245,0.4055 c -0.2027,0.068 -0.4055,0.1352 -0.5947,0.2298 l -184.1914,86.1893 c -22.8685,10.8396 -44.8314,49.4808 -54.6843,96.1638 -9.5826,45.4667 -4.0006,91.2982 13.5697,111.4636 l 1.6219,1.8381 129.6963,150.2671 c 1.5948,1.8516 4.3655,2.0678 6.2442,0.5135 0.919,-0.7568 1.5138,-1.8786 1.6083,-3.0679 0.1081,-1.1895 -0.2568,-2.3788 -1.0272,-3.2979 -32.5727,-38.3304 -40.2631,-130.6829 -19.1382,-229.7931 21.1655,-99.2725 65.9564,-180.6908 111.4636,-202.5996 2.1085,-1.0137 3.0816,-3.4871 2.2301,-5.6631 -0.6893,-1.757 -2.3788,-2.8383 -4.1628,-2.8383"
       style="fill:#000000;fill-opacity:1;fill-rule:nonzero;stroke:none;stroke-width:0.135157"
       id="path214" />
    <path
       d="m 1971.7057,1283.5398 c -0.5542,0 -1.0948,0.095 -1.6354,0.3109 l -35.2083,13.8535 c -0.419,0.1757 -0.811,0.3919 -1.1488,0.6622 -8.2176,4.1359 -15.8945,17.4353 -19.4221,33.9649 -3.8384,18.0299 -1.9056,33.708 4.9062,40.128 l 0.04,0.054 c 0.068,0.082 0.1351,0.1487 0.2028,0.2163 l 29.6262,29.8156 c 1.7436,1.7434 4.5684,1.7569 6.3253,0.013 1.757,-1.7436 1.757,-4.5684 0.027,-6.3254 l -29.6264,-29.829 c -0.1215,-0.1352 -0.2567,-0.2703 -0.3919,-0.392 -3.7709,-3.3924 -5.6766,-16.2053 -2.3517,-31.8158 3.3789,-15.8945 10.3664,-26.315 15.2186,-28.0586 0.3919,-0.1486 0.7704,-0.3513 1.1082,-0.5946 l 33.9649,-13.3671 c 2.2977,-0.919 3.433,-3.5139 2.5275,-5.8117 -0.6893,-1.757 -2.3788,-2.8247 -4.1629,-2.8247"
       style="fill:#000000;fill-opacity:1;fill-rule:nonzero;stroke:none;stroke-width:0.135157"
       id="path216" />
    <path
       d="m 1974.0979,1287.3377 c -11.5558,4.0682 -23.4497,25.3149 -29.0721,51.6703 -5.9469,27.9504 -1.9733,54.0627 8.2445,60.9421 l -30.6535,-30.3697 -0.2027,-0.2432 c -5.5955,-5.0279 -7.231,-19.7194 -3.7439,-36.0733 3.4466,-16.1647 10.9748,-28.7883 18.084,-31.3428 l -0.2569,-0.054 37.6006,-14.5293"
       style="fill:#5479f7;fill-opacity:1;fill-rule:nonzero;stroke:none;stroke-width:0.135157"
       id="path218" />
    <path
       d="m 1939.3492,1305.5703 16.0701,-6.2172 c -6.2307,9.8934 -11.5018,23.3956 -14.7591,38.7359 -3.2167,15.0429 -3.7169,29.5317 -1.8516,41.2362 l -13.0156,-12.9209 c -0.1216,-0.1352 -0.2568,-0.2703 -0.392,-0.392 -3.7709,-3.3924 -5.6765,-16.2053 -2.3517,-31.8158 3.3789,-15.8945 10.3665,-26.315 15.2186,-28.0586 0.392,-0.1486 0.7434,-0.3378 1.0813,-0.5676 z m 34.7623,-22.7062 c -0.5001,0 -1.0003,0.081 -1.5003,0.2568 -0.2973,0.108 -0.6217,0.2297 -0.9326,0.3513 l -36.7896,14.2185 c -0.4325,0.1757 -0.8245,0.4054 -1.1758,0.6757 -8.2176,4.1359 -15.8945,17.4353 -19.4221,33.9649 -3.8384,18.0299 -1.9056,33.708 4.9062,40.128 l 0.04,0.054 c 0.082,0.082 0.1486,0.1622 0.2298,0.2433 l 26.7744,26.5313 c 1.3651,1.784 2.8789,3.2573 4.5278,4.3791 1.9192,1.2839 4.5007,0.9055 5.9603,-0.8786 1.4598,-1.784 1.3246,-4.3926 -0.3108,-6.0144 l -3.4464,-3.406 c -5.9199,-8.5014 -8.623,-29.6803 -3.5681,-53.4273 5.7847,-27.126 17.0973,-44.5342 25.5716,-48.1428 l 0.7433,-0.2839 c 2.2841,-0.8921 3.4329,-3.433 2.5815,-5.7306 -0.6623,-1.8111 -2.3788,-2.9193 -4.1899,-2.9193"
       style="fill:#000000;fill-opacity:1;fill-rule:nonzero;stroke:none;stroke-width:0.135157"
       id="path220" />
    <path
       d="m 2045.8525,1279.2824 3.2032,-0.2297 c -17.4487,1.0947 -36.6544,33.1403 -45.291,73.6602 -8.8121,41.3309 -2.4598,78.4448 13.759,85.446 l -2.1761,-1.284 -61.9016,-36.8032 c -10.353,-6.7037 -14.4077,-32.9646 -8.4202,-61.0637 5.7847,-27.1124 18.5299,-48.7509 30.3832,-51.9407 l 70.4435,-7.7849"
       style="fill:#caddff;fill-opacity:1;fill-rule:nonzero;stroke:none;stroke-width:0.135157"
       id="path222" />
    <path
       d="m 1976.274,1291.4735 52.765,-5.8253 c -12.4209,13.1102 -23.409,36.8978 -29.6533,66.1457 -5.9334,27.8286 -5.19,53.7652 0.9731,70.9572 l -44.6287,-26.5313 c -7.7039,-4.9872 -12.1776,-28.8424 -6.3252,-56.2791 5.9873,-28.0991 18.2326,-45.8182 26.8691,-48.4672 z m 72.7817,-16.8945 c -0.081,0 -0.1756,0.013 -0.2703,0.013 -0.1081,0 -0.2027,0.013 -0.2973,0.013 l -2.9465,0.2163 c -0.068,0 -0.1216,0.013 -0.1756,0.013 l -70.4572,7.7849 c -0.2162,0.027 -0.446,0.068 -0.6623,0.1352 -13.6237,3.6492 -27.4232,26.4096 -33.5863,55.333 -6.42,30.0589 -2.0544,57.7119 10.3665,65.7402 l 60.6718,36.0733 c 1.284,0.9596 2.6355,1.757 4.0546,2.3652 2.1626,0.9461 4.6899,0.027 5.7577,-2.0679 1.0678,-2.1084 0.3244,-4.6764 -1.7029,-5.8793 l -3.1357,-1.8652 c -10.8801,-8.704 -16.7189,-40.3983 -8.5284,-78.7962 9.0961,-42.6689 27.9504,-69.0785 41.0201,-70.1192 l 0.2162,-0.027 c 2.4464,-0.1621 4.3115,-2.2976 4.1493,-4.7574 -0.1622,-2.3652 -2.1355,-4.1764 -4.4737,-4.1764"
       style="fill:#000000;fill-opacity:1;fill-rule:nonzero;stroke:none;stroke-width:0.135157"
       id="path224" />
    <path
       d="m 2342.1831,1477.2596 c -11.6639,-2.4328 -16.8134,-27.0718 -10.3799,-54.7654 10.7719,-46.4398 29.4776,-46.4398 31.7212,-46.2641 0.04,0 0.054,-0.054 0.014,-0.067 l -45.8587,-19.9221 c -6.7578,18.5029 -12.5695,38.6278 -17.0973,59.8474 -4.3385,20.3545 -7.1768,40.2496 -8.623,59.1444 l 50.2241,2.0274 v 0"
       style="fill:#000000;fill-opacity:1;fill-rule:nonzero;stroke:none;stroke-width:0.135157"
       id="path226" />
    <path
       d="m 2296.7976,1470.9479 c 1.5543,-17.6515 4.2845,-35.776 8.1635,-53.9275 4.0277,-18.949 9.1771,-37.3437 15.3132,-54.779 l 31.1536,13.5427 c -7.8796,5.3522 -17.4893,17.6921 -23.9768,45.6965 -4.6494,20.0166 -3.6357,39.6548 2.5139,50.8053 z m 18.3002,-120.6948 -1.6219,4.4601 c -6.9875,19.1247 -12.7992,39.4522 -17.273,60.4555 -4.2844,20.1113 -7.2173,40.2092 -8.7041,59.7257 l -0.3513,4.6223 54.86,2.2166 1.0948,-8.8528 c -1.703,-0.3513 -3.2843,-1.6758 -4.7306,-3.9329 -4.6629,-7.2985 -7.1497,-24.1795 -2.2165,-45.4397 10.1368,-43.6421 26.8556,-42.9122 27.0313,-42.8176 l 3.7303,0.2838 1.9733,-7.5011 -3.7438,-1.4868 -50.0485,-21.7331"
       style="fill:#000000;fill-opacity:1;fill-rule:nonzero;stroke:none;stroke-width:0.135157"
       id="path228" />
    <path
       d="m 1762.7807,1211.0148 -10.2313,81.7967 71.1869,-22.0034 7.1903,-47.913 c 1.73,-12.8669 -7.8255,-21.8954 -7.8255,-21.8954 -11.6641,-12.2451 -30.7077,-13.7183 -45.9667,-6.5685 l -3.5412,1.6489 c -5.9198,2.7707 -10.0015,8.4067 -10.8125,14.9347"
       style="fill:#ffffff;fill-opacity:1;fill-rule:nonzero;stroke:none;stroke-width:0.135157"
       id="path230" />
    <path
       d="m 1767.2138,1211.569 c 0.6353,-5.0278 3.7169,-9.2988 8.2716,-11.4343 l 3.5411,-1.6624 c 14.4482,-6.7578 31.2347,-4.4466 40.8308,5.609 0.2297,0.2298 8.0148,7.8662 6.6362,18.2191 l -6.7714,45.0612 -61.8746,19.1246 z m 29.1398,-25.9906 c -7.0011,0 -14.232,1.5678 -21.125,4.798 l -3.5276,1.649 c -7.3525,3.4464 -12.3532,10.3394 -13.367,18.4353 v 0 l -10.2178,81.7967 c -0.1892,1.5003 0.4055,3.0004 1.5543,3.9871 1.1623,0.9731 2.7437,1.2976 4.2034,0.838 l 71.1869,-22.0034 c 1.6354,-0.5001 2.8383,-1.9058 3.0951,-3.6087 l 7.1903,-47.8995 c 2.0274,-15.0564 -8.7175,-25.3959 -9.1771,-25.8284 -7.5958,-7.9607 -18.3813,-12.1641 -29.8155,-12.1641"
       style="fill:#000000;fill-opacity:1;fill-rule:nonzero;stroke:none;stroke-width:0.135157"
       id="path232" />
    <path
       d="m 1816.6946,1414.2361 c -17.327,-3.8249 9.042,-15.3537 -59.2121,-14.7185 -27.1799,0.2433 -6.2442,-25.5446 -13.2994,-25.504 -26.0311,0.1757 -25.1526,0.2027 -36.0327,-6.2172 -7.2174,-4.2439 -8.258,-20.0572 -3.7843,-30.3832 5.9063,-13.6373 18.611,-14.0022 37.3437,-41.0471 13.1507,-18.9894 14.9483,-32.2753 24.22,-32.9781 9.3934,-0.6893 12.4749,12.5291 22.7739,12.5291 13.3265,0.027 16.8946,-22.1117 31.4104,-27.5991 9.1636,-3.4734 27.5449,-1.0811 51.9676,20.7061 3.9601,3.5276 4.8522,9.4068 2.122,13.9751 -3.514,5.8387 -7.9877,13.2048 -12.8533,19.8815 -23.1794,31.8159 -38.0601,36.2895 -36.0598,46.7776 3.068,16.0972 31.9645,15.5295 33.1404,28.3694 1.2028,13.3264 -18.0029,41.4661 -41.7364,36.2084"
       style="fill:#000000;fill-opacity:1;fill-rule:nonzero;stroke:none;stroke-width:0.135157"
       id="path234" />
    <path
       d="m 1774.3096,1336.2103 7.4335,-7.7445 c 3.5006,-3.6628 6.7444,-7.5417 9.7178,-11.6369 5.5684,-7.7039 15.2457,-20.8547 21.2196,-27.8018 8.7851,-10.2177 42.2094,14.7322 42.2094,14.7322 l 0.2297,7.9066 3.852,3.0005 c 0.7434,0.5811 1.3785,1.3245 1.73,2.203 0.892,2.2031 0.2298,4.5953 -1.4462,6.0145 -9.2041,7.7985 -28.8288,25.5851 -39.1413,43.615 0,0 -29.802,-0.6623 -45.8045,-30.2886"
       style="fill:#ffffff;fill-opacity:1;fill-rule:nonzero;stroke:none;stroke-width:0.135157"
       id="path236" />
    <path
       d="m 1779.851,1336.8861 5.1224,-5.3252 c 3.6357,-3.7843 7.0282,-7.8661 10.1097,-12.11 5.3116,-7.3255 15.0969,-20.652 21.0033,-27.5044 3.2979,-3.8789 20.4627,4.1223 34.3974,14.1239 l 0.1622,5.7171 c 0.04,1.3381 0.6622,2.5815 1.7164,3.4059 l 3.852,3.0006 c 0.2433,0.1892 0.3379,0.3243 0.3514,0.3648 0.1622,0.4055 0,0.7435 -0.2028,0.9191 -10.0286,8.4879 -27.9774,24.9499 -38.6682,42.331 -6.7984,-0.8515 -25.6527,-4.9872 -37.8438,-24.9228 z m 39.1548,-54.7519 c -3.8925,0 -7.2715,1.1353 -9.7178,3.9736 -5.7982,6.7578 -14.8672,19.003 -21.4493,28.0855 -2.8383,3.933 -5.9739,7.6769 -9.3258,11.1639 l -7.4336,7.758 c -1.3381,1.4056 -1.6354,3.5141 -0.7028,5.217 17.0297,31.5591 48.3185,32.6133 49.643,32.6403 1.6759,-0.04 3.1626,-0.8244 3.9736,-2.2571 10.1367,-17.7055 30.0588,-35.5596 38.1547,-42.4121 3.2032,-2.7301 4.298,-7.1903 2.7031,-11.1099 -0.6217,-1.5543 -1.7165,-2.9598 -3.1491,-4.0546 l -2.176,-1.703 -0.1623,-5.7982 c -0.04,-1.3651 -0.7028,-2.6491 -1.7975,-3.46 -6.6497,-4.9738 -25.4365,-18.0434 -38.5602,-18.0434"
       style="fill:#000000;fill-opacity:1;fill-rule:nonzero;stroke:none;stroke-width:0.135157"
       id="path238" />
    <path
       d="m 1790.1228,1306.2866 c 0,0 -17.8541,18.6652 -24.5578,8.6906 -6.7039,-9.9611 13.475,-30.0047 24.5578,-8.6906 v 0"
       style="fill:#ffffff;fill-opacity:1;fill-rule:nonzero;stroke:none;stroke-width:0.135157"
       id="path240" />
    <path
       d="m 2108.5651,2059.0139 c -22.5981,0 -40.9794,18.2326 -40.9794,40.6415 0,2.4599 2.0138,4.4737 4.4737,4.4737 2.4733,0 4.4736,-2.0138 4.4736,-4.4737 0,-17.4757 14.3672,-31.6942 32.0321,-31.6942 17.6515,0 32.0187,14.2185 32.0187,31.6942 0,17.4623 -14.3672,31.6943 -32.0187,31.6943 -2.4733,0 -4.4737,2.0003 -4.4737,4.4736 0,2.4599 2.0004,4.4737 4.4737,4.4737 22.5847,0 40.966,-18.2326 40.966,-40.6416 0,-22.4089 -18.3813,-40.6415 -40.966,-40.6415"
       style="fill:#000000;fill-opacity:1;fill-rule:nonzero;stroke:none;stroke-width:0.135157"
       id="path242" />
    <path
       d="m 854.02338,1136.003 c -1.13809,0 -2.27607,0.4325 -3.14779,1.2975 l -8.71354,8.623 c -1.75437,1.7435 -1.76787,4.5683 -0.0289,6.3253 1.73539,1.7571 4.56957,1.7706 6.32662,0.04 l 8.7122,-8.6366 c 1.75437,-1.7435 1.76788,-4.5683 0.0278,-6.3253 -0.87306,-0.8786 -2.02466,-1.3246 -3.17749,-1.3246"
       style="fill:#000000;fill-opacity:1;fill-rule:nonzero;stroke:none;stroke-width:0.135157"
       id="path244" />
    <path
       d="m 895.75291,1094.6451 c -1.13798,0 -2.27597,0.4325 -3.14913,1.2975 l -8.71354,8.6365 c -1.75436,1.73 -1.76653,4.5683 -0.0268,6.3254 1.7394,1.7569 4.56833,1.7704 6.32671,0.027 l 8.71345,-8.6365 c 1.75436,-1.7436 1.76653,-4.5684 0.0268,-6.3254 -0.8745,-0.8785 -2.02599,-1.3245 -3.17759,-1.3245"
       style="fill:#000000;fill-opacity:1;fill-rule:nonzero;stroke:none;stroke-width:0.135157"
       id="path246" />
    <path
       d="m 845.31118,1094.6451 c -1.1515,0 -2.3031,0.446 -3.17749,1.3245 -1.73951,1.757 -1.72735,4.5818 0.0268,6.3254 l 8.71355,8.6365 c 1.75426,1.7434 4.5872,1.7299 6.32661,-0.027 1.73952,-1.7571 1.72735,-4.5954 -0.0268,-6.3254 l -8.71221,-8.6365 c -0.87305,-0.865 -2.01248,-1.2975 -3.15046,-1.2975"
       style="fill:#000000;fill-opacity:1;fill-rule:nonzero;stroke:none;stroke-width:0.135157"
       id="path248" />
    <path
       d="m 887.04071,1136.003 c -1.1515,0 -2.30443,0.4461 -3.17749,1.3246 -1.73951,1.7569 -1.726,4.5817 0.0278,6.3252 l 8.71355,8.6366 c 1.75436,1.7435 4.58855,1.7165 6.32538,-0.04 1.73941,-1.757 1.7259,-4.5818 -0.0289,-6.3253 l -8.71354,-8.6229 c -0.87172,-0.865 -2.01104,-1.2976 -3.14779,-1.2976"
       style="fill:#000000;fill-opacity:1;fill-rule:nonzero;stroke:none;stroke-width:0.135157"
       id="path250" />
    <path
       d="m 2347.2785,528.62305 c -1.1488,0 -2.2976,0.43251 -3.1761,1.32454 -1.7435,1.75703 -1.7165,4.59532 0.04,6.32533 l 8.6771,8.58243 c 1.757,1.73 4.5953,1.7165 6.3253,-0.0405 1.7436,-1.75703 1.7301,-4.5818 -0.04,-6.32531 l -8.677,-8.58245 c -0.8785,-0.85148 -2.0138,-1.28399 -3.1493,-1.28399"
       style="fill:#000000;fill-opacity:1;fill-rule:nonzero;stroke:none;stroke-width:0.135157"
       id="path252" />
    <path
       d="m 2388.8933,569.71064 c -1.1623,0 -2.3112,0.44602 -3.1898,1.33805 -1.7299,1.75703 -1.7164,4.5818 0.04,6.32532 l 8.6905,8.58244 c 1.7571,1.73 4.5818,1.71649 6.3253,-0.0405 1.73,-1.75703 1.7165,-4.59531 -0.04,-6.32532 l -8.6906,-8.58244 c -0.865,-0.865 -2.0003,-1.2975 -3.1356,-1.2975"
       style="fill:#000000;fill-opacity:1;fill-rule:nonzero;stroke:none;stroke-width:0.135157"
       id="path254" />
    <path
       d="m 2397.4893,528.08243 c -1.1489,0 -2.2977,0.44602 -3.1763,1.32453 l -8.6635,8.77167 c -1.73,1.75703 -1.7164,4.59531 0.04,6.32531 1.7571,1.73001 4.5954,1.73001 6.3254,-0.0405 l 8.6635,-8.77166 c 1.7301,-1.74352 1.7165,-4.58181 -0.04,-6.32532 -0.8785,-0.85149 -2.0138,-1.28399 -3.1491,-1.28399"
       style="fill:#000000;fill-opacity:1;fill-rule:nonzero;stroke:none;stroke-width:0.135157"
       id="path256" />
    <path
       d="m 2356.0232,570.06204 c -1.1488,0 -2.3112,0.44603 -3.1897,1.33806 l -8.65,8.77165 c -1.7435,1.75704 -1.7165,4.58181 0.04,6.32533 1.757,1.73001 4.5817,1.71649 6.3253,-0.0405 l 8.6635,-8.77166 c 1.73,-1.75703 1.7165,-4.59532 -0.054,-6.32532 -0.8651,-0.865 -2.0004,-1.29751 -3.1357,-1.29751"
       style="fill:#000000;fill-opacity:1;fill-rule:nonzero;stroke:none;stroke-width:0.135157"
       id="path258" />
    <path
       d="m 2297.2301,1844.0339 c -1.1353,0 -2.2706,0.4325 -3.1491,1.2975 l -8.7041,8.6365 c -1.757,1.73 -1.7705,4.5683 -0.027,6.3253 1.73,1.7571 4.5683,1.7571 6.3253,0.027 l 8.7041,-8.6365 c 1.757,-1.7434 1.7705,-4.5682 0.027,-6.3253 -0.865,-0.8785 -2.0274,-1.3245 -3.1762,-1.3245"
       style="fill:#000000;fill-opacity:1;fill-rule:nonzero;stroke:none;stroke-width:0.135157"
       id="path260" />
    <path
       d="m 2338.9665,1802.676 c -1.1353,0 -2.2841,0.4326 -3.1492,1.2975 l -8.7175,8.6365 c -1.7571,1.7435 -1.7706,4.5683 -0.027,6.3254 1.73,1.757 4.5683,1.7705 6.3253,0.027 l 8.7176,-8.6365 c 1.757,-1.7301 1.7706,-4.5683 0.027,-6.3253 -0.8785,-0.8785 -2.0273,-1.3246 -3.1761,-1.3246"
       style="fill:#000000;fill-opacity:1;fill-rule:nonzero;stroke:none;stroke-width:0.135157"
       id="path262" />
    <path
       d="m 2288.5261,1802.676 c -1.1488,0 -2.3113,0.4461 -3.1762,1.3246 -1.7435,1.757 -1.73,4.5952 0.027,6.3253 l 8.7041,8.6365 c 1.757,1.7435 4.5953,1.73 6.3253,-0.027 1.7435,-1.7571 1.73,-4.5819 -0.027,-6.3254 l -8.7041,-8.6365 c -0.8785,-0.8649 -2.0138,-1.2974 -3.1491,-1.2974"
       style="fill:#000000;fill-opacity:1;fill-rule:nonzero;stroke:none;stroke-width:0.135157"
       id="path264" />
    <path
       d="m 2330.2489,1844.0339 c -1.1488,0 -2.2977,0.446 -3.1763,1.3246 -1.7434,1.757 -1.7299,4.5818 0.027,6.3252 l 8.7175,8.6365 c 1.7436,1.7301 4.5818,1.7301 6.3253,-0.027 1.7435,-1.757 1.73,-4.5953 -0.027,-6.3252 l -8.7176,-8.6366 c -0.865,-0.865 -2.0138,-1.2975 -3.1491,-1.2975"
       style="fill:#000000;fill-opacity:1;fill-rule:nonzero;stroke:none;stroke-width:0.135157"
       id="path266" />
    <path
       d="m 2275.078,432.26997 c -3.5412,-3.50056 -5.5009,-8.17698 -5.5009,-13.17776 -0.013,-5.02782 1.9327,-9.77182 5.4873,-13.35346 7.2985,-7.40659 19.2193,-7.55526 26.5448,-0.32438 7.312,7.23087 7.3255,19.13816 0.013,26.54474 -7.3119,7.40657 -19.2193,7.54173 -26.5448,0.31086 z m 13.4751,-41.12814 c -7.1903,0 -14.3942,2.77072 -19.8545,8.29862 -5.2171,5.28462 -8.0824,12.25869 -8.0689,19.66528 0.013,7.40657 2.9059,14.3401 8.1635,19.53011 v 0 c 10.8261,10.70439 28.4099,10.51518 39.1953,-0.39195 10.7721,-10.90714 10.7315,-28.49099 -0.095,-39.1954 -5.3522,-5.2711 -12.3399,-7.90666 -19.3409,-7.90666"
       style="fill:#000000;fill-opacity:1;fill-rule:nonzero;stroke:none;stroke-width:0.135157"
       id="path268" />
    <path
       d="m 2189.1589,339.40392 c -3.3653,-3.32485 -3.3653,-8.81221 0.014,-12.23167 3.3789,-3.40594 8.8527,-3.48704 12.2316,-0.14866 3.3655,3.32484 3.3655,8.81219 -0.013,12.23165 -3.3654,3.40595 -8.8663,3.48704 -12.2317,0.14868 z m 6.2443,-23.77404 c -4.5683,0 -9.1366,1.75705 -12.5965,5.25759 -6.839,6.93353 -6.812,18.09746 0.068,24.89583 v 0 c 6.8795,6.78487 18.0434,6.67674 24.8823,-0.24328 6.839,-6.93353 6.8119,-18.08394 -0.067,-24.88231 -3.406,-3.35188 -7.8392,-5.02783 -12.2858,-5.02783"
       style="fill:#000000;fill-opacity:1;fill-rule:nonzero;stroke:none;stroke-width:0.135157"
       id="path270" />
    <path
       d="m 901.44572,2208.8214 h 0.0299 z m -21.8197,28.0044 c -7.52008,0 -14.6685,-4.4061 -17.73389,-11.6911 -1.95566,-4.6494 -1.97598,-9.7718 -0.0578,-14.4347 1.94081,-4.7169 5.62516,-8.3932 10.37592,-10.3529 9.7745,-4.0413 21.04255,0.5406 25.11207,10.2178 1.95577,4.6359 1.97598,9.7718 0.0567,14.4347 -1.94091,4.717 -5.62526,8.3932 -10.37468,10.353 -2.41117,1.0002 -4.91556,1.4732 -7.37818,1.4732 z m -0.0608,-46.8993 c -3.59659,0 -7.2498,0.6893 -10.77203,2.1489 -6.96867,2.8789 -12.37758,8.2852 -15.23218,15.2187 -2.83284,6.8795 -2.80314,14.4482 0.0825,21.3142 5.97259,14.1914 22.47651,20.9087 36.77747,15.0159 6.96733,-2.8788 12.37758,-8.2852 15.23208,-15.2187 2.83294,-6.8794 2.80314,-14.4617 -0.0825,-21.3141 v 0 c -4.50347,-10.7044 -14.98757,-17.1649 -26.00545,-17.1649"
       style="fill:#ffffff;fill-opacity:1;fill-rule:nonzero;stroke:none;stroke-width:0.135157"
       id="path272" />
    <path
       d="m 711.06697,1833.7214 c -1.14479,0 -2.28958,0.4325 -3.16264,1.311 -1.74766,1.7436 -1.74766,4.5684 0,6.3254 l 256.47975,256.4865 c 1.757,1.7436 4.5818,1.7436 6.3253,0 1.7571,-1.757 1.7571,-4.5818 0,-6.3388 L 714.22961,1835.0324 c -0.87306,-0.8785 -2.01785,-1.311 -3.16264,-1.311"
       style="fill:#000000;fill-opacity:1;fill-rule:nonzero;stroke:none;stroke-width:0.135157"
       id="path274" />
    <path
       d="m 1781.7566,1511.603 c -1.1488,0 -2.2841,0.446 -3.1626,1.311 -1.7436,1.757 -1.7436,4.5817 0,6.3253 l 247.9176,247.9176 c 1.7436,1.7435 4.5818,1.7435 6.3253,0 1.7435,-1.7435 1.7435,-4.5683 0,-6.3254 L 1784.9194,1512.914 c -0.8786,-0.865 -2.0139,-1.311 -3.1628,-1.311"
       style="fill:#000000;fill-opacity:1;fill-rule:nonzero;stroke:none;stroke-width:0.135157"
       id="path276" />
    <path
       d="m 1375.341,1075.4259 c -1.1488,0 -2.2841,0.4325 -3.1626,1.311 -1.7436,1.7434 -1.7436,4.5817 0,6.3253 l 270.7184,270.7185 c 1.7436,1.7435 4.5819,1.7435 6.3254,0 1.7435,-1.7436 1.7435,-4.5819 0,-6.3254 l -270.7186,-270.7184 c -0.8785,-0.8785 -2.0138,-1.311 -3.1626,-1.311"
       style="fill:#000000;fill-opacity:1;fill-rule:nonzero;stroke:none;stroke-width:0.135157"
       id="path278" />
    <path
       d="m 1510.7003,1373.2026 c -1.1488,0 -2.2842,0.4325 -3.1627,1.311 -1.7435,1.7436 -1.7435,4.5819 0,6.3254 l 140.8061,140.8196 c 1.757,1.7435 4.5817,1.7435 6.3253,0 1.757,-1.7571 1.757,-4.5819 0,-6.3253 l -140.8061,-140.8197 c -0.8785,-0.8785 -2.0138,-1.311 -3.1626,-1.311"
       style="fill:#000000;fill-opacity:1;fill-rule:nonzero;stroke:none;stroke-width:0.135157"
       id="path280" />
    <path
       d="m 855.93852,1443.6056 c -1.14479,0 -2.28959,0.446 -3.16264,1.3111 -1.74756,1.757 -1.74756,4.5818 0,6.3253 l 82.81989,82.8239 c 1.75691,1.7571 4.58171,1.7571 6.32531,0 1.757,-1.7435 1.757,-4.5683 0,-6.3253 l -82.81859,-82.8239 c -0.87439,-0.8651 -2.01784,-1.3111 -3.16397,-1.3111"
       style="fill:#000000;fill-opacity:1;fill-rule:nonzero;stroke:none;stroke-width:0.135157"
       id="path282" />
    <path
       d="m 880.08833,1534.62 c -1.14479,0 -2.28958,0.4461 -3.16274,1.3111 -1.74756,1.7435 -1.74756,4.5818 0,6.3253 l 42.92444,42.9257 c 1.74343,1.7571 4.58174,1.7571 6.32527,0 1.74354,-1.7435 1.74354,-4.5682 0,-6.3253 l -42.92433,-42.9257 c -0.87316,-0.865 -2.01785,-1.3111 -3.16264,-1.3111"
       style="fill:#000000;fill-opacity:1;fill-rule:nonzero;stroke:none;stroke-width:0.135157"
       id="path284" />
    <path
       d="m 1194.434,1972.0947 c -1.2029,0 -2.3922,0.4866 -3.2844,1.4327 -1.6758,1.811 -1.5678,4.6358 0.2434,6.3118 l 115.8156,107.6386 c 1.8111,1.6895 4.6494,1.5813 6.3254,-0.2298 1.6893,-1.811 1.5813,-4.6358 -0.2298,-6.3117 L 1197.475,1973.2976 c -0.865,-0.811 -1.9463,-1.2029 -3.041,-1.2029"
       style="fill:#000000;fill-opacity:1;fill-rule:nonzero;stroke:none;stroke-width:0.135157"
       id="path286" />
    <path
       d="m 135.30286,1659.4777 c -0.47439,0 -0.95826,0.082 -1.43265,0.2433 -2.34092,0.7838 -3.59787,3.3248 -2.80451,5.663 66.32671,196.1527 179.14728,331.1606 262.11445,409.8757 89.94802,85.3514 165.3505,124.8711 166.10197,125.263 2.19899,1.1354 4.89266,0.2704 6.02933,-1.9191 1.13802,-2.1896 0.28112,-4.8927 -1.91111,-6.028 -0.74336,-0.3785 -75.24029,-39.4793 -164.30979,-124.0332 -82.14678,-77.9988 -193.8577,-211.7498 -259.54918,-406.0237 -0.63118,-1.8517 -2.37335,-3.041 -4.23851,-3.041"
       style="fill:#000000;fill-opacity:1;fill-rule:nonzero;stroke:none;stroke-width:0.135157"
       id="path288" />
    <path
       d="m 286.97686,2056.2972 c -0.86905,0 -1.74622,0.2433 -2.51931,0.7704 -2.03951,1.3922 -2.56392,4.1763 -1.17046,6.2172 1.39887,2.0544 142.48876,205.465 370.87491,269.3264 2.37605,0.6623 4.84807,-0.7298 5.51304,-3.1086 0.66497,-2.3787 -0.7258,-4.852 -3.10455,-5.5143 -225.28159,-62.983 -364.51579,-263.731 -365.89439,-265.7448 -0.86635,-1.2705 -2.27064,-1.9463 -3.69924,-1.9463"
       style="fill:#000000;fill-opacity:1;fill-rule:nonzero;stroke:none;stroke-width:0.135157"
       id="path290" />
  </g>
</svg>
