<?xml version="1.0" encoding="utf-8"?>
<!-- Generator: Adobe Illustrator 28.0.0, SVG Export Plug-In . SVG Version: 6.00 Build 0)  -->
<svg version="1.1" id="Layer_1" xmlns:vectornator="http://vectornator.io"
	 xmlns="http://www.w3.org/2000/svg" xmlns:xlink="http://www.w3.org/1999/xlink" x="0px" y="0px" viewBox="0 0 486.3 464.4"
	 style="enable-background:new 0 0 486.3 464.4;" xml:space="preserve">
<style type="text/css">
	.st0{fill:#FF976D;}
	.st1{fill:#ED7F4F;}
	.st2{fill:none;stroke:#ED7F4F;stroke-width:1.3392;stroke-linecap:round;stroke-linejoin:round;stroke-miterlimit:1.6781;}
	.st3{fill:#FFD35E;}
	.st4{fill:#FFCF5C;}
	.st5{fill:#302E33;}
	.st6{fill:#490E11;}
	.st7{fill:#97060B;}
	.st8{fill:#CE496F;}
	.st9{fill:#3473CE;}
	.st10{fill:#67A0FE;}
	.st11{fill:#0880A0;}
	.st12{fill:#41C6F1;}
	.st13{fill:#FE8EA5;}
	.st14{fill:#D3E2FE;}
	.st15{fill:#849BB5;}
	.st16{fill:#B7CAE5;}
	.st17{fill:#161517;}
	.st18{fill:#8FE093;}
	.st19{fill:#FFFFFF;}
	.st20{fill:none;stroke:#323035;stroke-width:1.0498;stroke-linecap:round;stroke-linejoin:round;stroke-miterlimit:1.6781;}
	.st21{fill:none;stroke:#CE9CAB;stroke-width:0.297;stroke-linejoin:round;stroke-miterlimit:1.6781;}
	.st22{fill:#DA9FFF;}
	.st23{fill:none;stroke:#302E33;stroke-width:1.197;stroke-linecap:round;stroke-linejoin:round;stroke-miterlimit:1.6781;}
</style>
<g id="Слой-1" vectornator:layerName="–°–ª–æ–π 1">
	<g vectornator:layerName="–ì—Ä—É–ø–ø–∞ 34">
		<g vectornator:layerName="–ì—Ä—É–ø–ø–∞ 33">
			<path class="st0" d="M56.2,126.6c0,0,2.4,10.2,3.3,12.2c0.9,1.9,5,7.4,5,7.4l-10.3,6.4l-12-1.7l-2.8-24L56.2,126.6z"/>
			<path class="st1" d="M58.3,134.9c-7,6.9-18.1-1.1-18.1-1.1l-0.9-7l16.9-0.3L58.3,134.9z"/>
			<path class="st0" d="M60.1,84.7c2.6,3.5,6.6,20.9,6.3,25.6c-0.3,4.7-6.2,17-8.2,19.3c-1.5,1.8-6.5,2.7-9.8,2.6
				c-3.3-0.2-14.4-6.1-16.7-9.9c-2.3-3.8-8-23.3-7.8-28.7c0.2-5.4,7.2-14.9,7.2-14.9l14.8-5.3C45.9,73.4,57.5,81.2,60.1,84.7z"/>
			<path class="st2" d="M49.6,95.7c-1.4,1.3-2.2,5.7-1.9,7.7c0.3,2,1.3,3.7,3.1,5.3c1.8,1.6,3.3,2,4.1,2.8c1.8,1.9-0.8,2.8-4.5,4.1"
				/>
			<path class="st3" d="M61,98c0.2-1.1-2.2-3.9-4.8-4.4C53.7,93,51,95,50.8,96.1c-0.2,1.1,2.1,0.9,4.6,1.4C58,98.1,60.8,99.1,61,98z
				"/>
			<path class="st4" d="M34.7,102.5C34,101.6,35,98,37,96.3c2-1.6,5.3-1.1,6-0.2c0.7,0.9-1.5,1.7-3.5,3.4
				C37.5,101.1,35.4,103.3,34.7,102.5z"/>
			<path class="st5" d="M57.2,103c-0.1-1.2-1-2.2-1.9-2.1c-0.9,0.1-1.6,1.2-1.5,2.4c0.1,1.2,1,2.2,1.9,2.1
				C56.6,105.3,57.3,104.3,57.2,103z"/>
			<path class="st5" d="M43.4,104.2c-0.3-1.2-1.3-2-2.2-1.8c-0.9,0.2-1.4,1.4-1.1,2.6c0.3,1.2,1.3,2,2.2,1.8
				C43.1,106.6,43.7,105.4,43.4,104.2z"/>
			<path class="st6" d="M44,121c5.8,9.4,13.2-2.4,13.2-2.4L44,121z"/>
			<path class="st7" d="M49.7,124.6c-1.2,0.1-2.4-0.2-3.5-1.1l8.6-1.9C53.4,123,51.6,124.4,49.7,124.6z"/>
			<path vectornator:layerName="–ö—Ä–∏–≤–∞—è 78" class="st4" d="M31.2,65.5c0,0,0.2,2.3,2.1,5.3
				c-10.3-0.4-12.9,15-12.9,21.1c-0.1,6.5,3.8,19.1,3.8,19.1l3.1-1.5l-1.4-7.6c3.1-4.2,5.3-4,6.6-9.8c1.3-5.8,5.6-2.6,12.2-9.2
				c3.6-3.6,6.6-2.8,10.9-1c4.2,1.9,6.7,9.4,7.6,11.7c1,2.3,1.9,7.9,1.9,7.9c0,0,3.9-15.5-1.3-27.3c-3.7-8.4-16.4-6.5-23.5-4.7
				c-0.4-2.9-1.4-4.4-1.4-4.4c-0.3,1.8-0.7,3.4-1.3,5C35.5,69,33.3,67.4,31.2,65.5z"/>
			<path class="st0" d="M29.9,111.4c-2.3-3.2-5.6-4.7-7.2-3.5c-1.6,1.2-1,4.7,1.3,7.9c2.3,3.2,5.6,4.7,7.2,3.5
				C32.9,118.1,32.3,114.6,29.9,111.4z"/>
		</g>
		<g vectornator:layerName="–ì—Ä—É–ø–ø–∞ 32">
			<g vectornator:layerName="–ì—Ä—É–ø–ø–∞ 30">
				<path vectornator:layerName="–ö—Ä–∏–≤–∞—è 8" class="st8" d="M16.6,400.7l-10.5,13
					c-1.6,16,9.9,8.8,9.9,8.8l9.8-11L16.6,400.7z"/>
				<path vectornator:layerName="–ö—Ä–∏–≤–∞—è 10" d="M19,419.1c-7.3-0.5-10.7-8.2-10.7-8.2
					c-5.7,0.6-9.6,4.8-8,11.8c1.6,6.9,7,22.2,13.4,24.7c6.4,2.6,19.1-3.1,19.1-3.1c-0.4-7.5-12.4-9.5-12.4-9.5
					c-2.7-5.8-0.9-14.7-0.9-14.7L19,419.1z"/>
				<path vectornator:layerName="–ö—Ä–∏–≤–∞—è 11" class="st9" d="M0.8,415.9c1.8,5.6,5.9,18,7.4,21.1
					c1.9,3.8,3.8,9.1,9.8,8.9c4.4-0.2,10.7-2.1,14.4-3.4c0.2,0.6,0.4,1.1,0.5,1.8c0,0-12.7,5.7-19.1,3.1
					C7.4,444.9,2,429.7,0.4,422.8C-0.3,420,0,417.8,0.8,415.9z"/>
			</g>
			<path vectornator:layerName="–ö—Ä–∏–≤–∞—è 1" class="st10" d="M68.9,243.7c-20.3,13.9-55.4,3.3-55.4,3.3
				c-3.1,11-5.4,28.2-1.9,38.8c10.5,32.3,34.2,48.9,34.2,48.9l-30.4,62.8c8.4,23.7,18.4,20.3,18.4,20.3l36.9-56.1
				c16.8,40.9,52.8,87.9,52.8,87.9c8.1-15,27-25.2,27-25.2c-20.2-38-74.1-121.6-74.1-121.6C80.6,268.5,68.9,243.7,68.9,243.7z"/>
			<path vectornator:layerName="–ö—Ä–∏–≤–∞—è 2" class="st9" d="M70.8,361.7c-4.3-8.3-25-26.9-25-26.9
				l-31.4,62.9c5,18.8,19.1,21.6,19.1,21.6L70.8,361.7z"/>
			<path vectornator:layerName="–ö—Ä–∏–≤–∞—è 4" class="st9" d="M82.1,312.2c-11.2-14-28.6-52.2-28.6-52.2
				c12.2-7.9,19.3-6.9,19.3-6.9C81.6,279.4,82.1,312.2,82.1,312.2z"/>
			<path vectornator:layerName="–ö—Ä–∏–≤–∞—è 5" class="st9" d="M30.4,256.2c-4,19.2-15.1,22.8-15.1,22.8
				c3.6-11.6-0.3-23.5-0.3-23.5L30.4,256.2z"/>
			<g vectornator:layerName="–ì—Ä—É–ø–ø–∞ 31">
				<path vectornator:layerName="–û–≤–∞–ª 3" class="st9" d="M123.8,450c-3.1-3.3,0.4-11.6,7.9-18.6
					c7.4-7,12.8-10,17.1-8.5c4.7,1.6,0.3,12.4-7.1,19.4C134.3,449.2,126.9,453.3,123.8,450z"/>
				<path vectornator:layerName="–ö—Ä–∏–≤–∞—è 6" class="st8" d="M142.9,424.5l10.5,11.4l-4.4,18L131.2,434
					L142.9,424.5z"/>
				<path vectornator:layerName="–ö—Ä–∏–≤–∞—è 7" class="st5" d="M187.9,409.7c-6.1-7.4-24.3,15.2-24.3,15.2
					c-8.1,10.7-13.3,7.7-13.3,7.7l-7.2,14.9c7.9,16.2,15.2,16.6,15.2,16.6L187.9,409.7z"/>
				<path vectornator:layerName="–û–≤–∞–ª 1" class="st9" d="M180.3,438.6c8.9-14.8,10.2-27.9,7.1-29.5
					c-3.1-1.6-12.2,9.9-18.3,21.6c-6,11.7-16.6,30-11.4,33.5C160.5,466.2,170.7,454.5,180.3,438.6z"/>
			</g>
		</g>
		<path vectornator:layerName="–ö—Ä–∏–≤–∞—è 13" class="st5" d="M69.7,251.9c6.3-20.4,19.4-81.6,15.6-94
			c-3.8-12.4-22.8-14.7-22.8-14.7s-4.7,3.7-9.8,3.7c-5.1-0.1-11.4-4.7-11.4-4.7s-29.1,5-34.2,21.3c-5.1,16.4-1.1,32.1-1,50.8
			c0.2,25.3,8.7,41.3,8.7,41.3L69.7,251.9z"/>
		<path vectornator:layerName="–ö—Ä–∏–≤–∞—è 3" class="st9" d="M70.8,242.6c2.5,7.8,2.9,13.3,2.9,13.3
			c-19.3,11.5-63,4.4-63,4.4l0.5-14c0,0,20.7,3.8,34.5,3.1C59.5,248.8,70.8,242.6,70.8,242.6z"/>
		<g vectornator:layerName="–ì—Ä—É–ø–ø–∞ 25">
			<path vectornator:layerName="–ü—Ä—è–º–æ—É–≥–æ–ª—å–Ω–∏–∫ 3" class="st8" d="
				M65.9,176.3c34.5-43.9,178-88.8,178-88.8l40.5,57.4c0,0-34.5,11.7-69.9,21.5c-52.3,14.6-105.9,21.1-113,71.2
				C96.5,273.1,23.6,230.2,65.9,176.3z"/>
			<path vectornator:layerName="–ü—Ä—è–º–æ—É–≥–æ–ª—å–Ω–∏–∫ 4" class="st11" d="
				M29.1,246.2c-3.8-28.2,192.4-14.9,192.4-14.9l52.9,58.2c0,0-115.9,14.9-153.3,19.3C85.5,313,60.9,293.1,40.4,275
				C30.7,266.4,30.3,255.2,29.1,246.2z"/>
			<path vectornator:layerName="–ü—Ä—è–º–æ—É–≥–æ–ª—å–Ω–∏–∫ 5" class="st12" d="
				M28.9,221.1c10.4-42.9,52.7-85.7,90.5-103.3C157.2,100.3,261,63.7,261,63.7l-4.9,40.8c0,0-26.4,9.9-60.2,20.3
				c-29.4,9-62.1,22.5-89.6,32.9c-19.9,7.5-40.8,35.8-38.9,52.8c3.5,31.3,45.6,12.3,91.7-1c45.1-13,86.8-20.9,86.8-20.9l-7.5,61.5
				c0,0-144.2,27.1-171.1,30.7S18.5,264.1,28.9,221.1z"/>
			<path vectornator:layerName="–ö—Ä–∏–≤–∞—è 37" class="st13" d="M70.3,153.3c-19.6,19.6-35.5,43.7-41.4,67.8
				c-0.3,1.2-0.5,2.3-0.8,3.4c10.9-3,19.6-5.3,39.8-10.8c-0.2-1.1-0.5-2.1-0.6-3.3c-1.9-16.9,19-45.3,38.9-52.8
				c27.5-10.3,60.2-23.9,89.6-32.9c10.3-3.2,20.4-6.3,28.8-9.2c19.1-6.4,31.4-11.1,31.4-11.1l4.9-40.8c0,0-103.8,36.6-141.6,54.1
				C102.9,125.5,85.5,138.1,70.3,153.3z"/>
			<g vectornator:layerName="–ì—Ä—É–ø–ø–∞ 24">
				<path vectornator:layerName="–ö—Ä–∏–≤–∞—è 34" class="st14" d="M202.4,256.8l36.1-7l7.5-61.6l-35.5,7.9
					L202.4,256.8z"/>
				<path vectornator:layerName="–ö—Ä–∏–≤–∞—è 35" class="st15" d="M202.4,256.8l37.7,37.2l34.3-4.4
					l-35.7-40.2L202.4,256.8z"/>
				<path vectornator:layerName="–ö—Ä–∏–≤–∞—è 36" class="st16" d="M237.3,249.5l37.1,40.1l5.1-61.3L246,188.2
					L237.3,249.5z"/>
			</g>
			<g vectornator:layerName="–ì—Ä—É–ø–ø–∞ 23">
				<path vectornator:layerName="–ö—Ä–∏–≤–∞—è 32" class="st15" d="M224.7,115.6l29.3,39.2
					c0,0,6.8-2.1,14.4-4.5c7.6-2.5,16-5.3,16-5.3S250.9,97,252,98.5C253,100.1,224.7,115.6,224.7,115.6z"/>
				<path vectornator:layerName="–ö—Ä–∏–≤–∞—è 33" class="st14" d="M224.7,115.6l5.6-40.9l30.8-11l-4.7,41.2
					L224.7,115.6z"/>
				<path vectornator:layerName="–ö—Ä–∏–≤–∞—è 31" class="st16" d="M256.3,104.8l28.1,40.1l2.5-40.5L261,63.7
					L256.3,104.8z"/>
			</g>
		</g>
		<g vectornator:layerName="–ì—Ä—É–ø–ø–∞ 29">
			<g vectornator:layerName="–ì—Ä—É–ø–ø–∞ 27">
				<path class="st0" d="M79.2,268.2l0.4,11.2c10.2,4.3,28.3,6.6,28.3,6.6c3.6,4.8,8.2,7.1,8.2,7.1c2-0.2,0.2-3.8,0.2-3.8
					c2.7,1.5,3.2-1.5,3.2-1.5c2.9,1.6,2.7-2,2.7-2c-2.3-3.6-3.5-6.3-3.5-6.3c1.8,1.4,2.9-0.4,2.9-0.4c-1.7-7-5.4-10.3-5.4-10.3
					c-7.3-3-24.9,0.1-24.9,0.1C87,268.8,79.2,268.2,79.2,268.2z"/>
				<path class="st1" d="M107.6,272.2l6.2-1.1c2.7,2.8,4.9,8.2,4.9,8.2C113,272.9,107.6,272.2,107.6,272.2z"/>
				<g>
					<path class="st1" d="M107.1,276.5c-0.3-0.1-0.5,0.1-0.6,0.4c-0.1,0.3,0.1,0.6,0.4,0.6c0.7,0.2,1.4,0.3,2.1,0.5
						c1.1,0.3,2.2,0.6,3.2,1.1c0.8,0.4,1.6,0.8,2.2,1.4c1.4,1.3,2.3,3,3.2,4.6c0.5,0.8,0.9,1.7,1.5,2.4c0.2,0.2,0.5,0.3,0.8,0.1
						c0.2-0.2,0.3-0.5,0.1-0.8c-0.3-0.4-0.6-0.8-0.8-1.2c-0.3-0.5-0.5-1-0.8-1.4c-0.9-1.5-1.8-3.1-3.1-4.3c-0.3-0.3-0.7-0.7-1.1-0.9
						c-0.6-0.4-1.3-0.7-1.9-1c-1.1-0.5-2.2-0.8-3.3-1.1C108.3,276.7,107.7,276.6,107.1,276.5z"/>
				</g>
				<g>
					<path class="st1" d="M105.3,280.6c-0.3,0-0.5,0.2-0.6,0.4c0,0.3,0.2,0.5,0.4,0.6c0.5,0.1,0.9,0.2,1.4,0.4
						c0.8,0.3,1.5,0.6,2.2,1c2.1,1.1,4.1,2.6,5.7,4.5c0.4,0.5,0.8,1,1.1,1.5c0.2,0.2,0.5,0.3,0.7,0.2c0.2-0.2,0.3-0.5,0.2-0.7
						c-0.5-0.8-1.1-1.5-1.7-2.2c-1.6-1.8-3.6-3.2-5.8-4.2c-0.7-0.4-1.5-0.7-2.3-0.9C106.2,280.8,105.7,280.7,105.3,280.6z"/>
				</g>
			</g>
			<g vectornator:layerName="–ì—Ä—É–ø–ø–∞ 28">
				<path vectornator:layerName="–ö—Ä–∏–≤–∞—è 79" class="st0" d="M15.8,157.1c15.9,0.2,16.9,75.8,16.9,75.8
					l55.5,40.1l-8.3,6.5c-33.4-15.1-51.8-16.3-61.5-31.7C6.6,229.2-0.1,156.8,15.8,157.1z"/>
				<path vectornator:layerName="–ö—Ä–∏–≤–∞—è 80" class="st1" d="M15.8,157.1c-11.3-0.2-11.1,36.5-5.9,64.3
					l15.2-0.5c2.7,20.6,22,28.7,35.1,31.9l-27.5-19.9C32.6,232.9,31.7,157.3,15.8,157.1z"/>
			</g>
			<path vectornator:layerName="–ö—Ä–∏–≤–∞—è 77" class="st5" d="M11.1,157.9c-15.6,8-4.9,61-4.9,61l32.1-6.1
				C39.6,172.6,26.7,149.9,11.1,157.9z"/>
			<path vectornator:layerName="–ö—Ä–∏–≤–∞—è 26" class="st17" d="M16.8,155.7c12,4.7,16.5,15.7,16.5,15.7
				l1.5-1c-5.6-11.4-17.4-16.5-17.4-16.5L16.8,155.7z"/>
		</g>
	</g>
	<g vectornator:layerName="–ì—Ä—É–ø–ø–∞ 48">
		<path vectornator:layerName="–û–≤–∞–ª 3" class="st9" d="M326.5,36.8C326.5,16.5,343,0,363.3,0
			C383.6,0,400,16.5,400,36.8s-16.5,36.8-36.8,36.8C343,73.6,326.5,57.1,326.5,36.8z"/>
		<g vectornator:layerName="–ì—Ä—É–ø–ø–∞ 42">
			<path vectornator:layerName="–û–≤–∞–ª 2" class="st18" d="M365.9,40.2c10.9-31.2,45-47.7,76.2-36.9
				c31.2,10.9,47.7,45,36.9,76.2c-10.9,31.2-45,47.7-76.2,36.9C371.5,105.6,355,71.5,365.9,40.2z"/>
			<g vectornator:layerName="–ì—Ä—É–ø–ø–∞ 41">
				<path class="st5" d="M450.6,37.4c-0.9-4.8-6.6-12.1-17.8-15.5c-11.1-3.4-20.4,1.8-22.6,7.5c-2.2,5.8-5.5,5.9-9.9,7.7
					c-1.9,0.8-1.2,6-2.1,9.6c-1.3,5-7.7,9.4-7.7,9.4l54.6,18.3c8.1-2.6,3.4-7.4,2.6-9.9c-0.9-2.5,3.8-2.5,4.7-6
					c0.9-3.5-4.1-9.9-4-12.6C448.6,43.3,451.5,42.2,450.6,37.4z"/>
				<path class="st12" d="M449.9,111.1c0.9-9.5-8.4-15.7-8.4-15.7l-17.9-15.9c0,0-8.1-9.4-14-6.4c-6,3-25.3,2-31.5,2.6
					c-6.2,0.6-9.1,7.2-9.1,7.2L449.9,111.1z"/>
				<path class="st19" d="M431,63.4c0,0-5.2,14.9-5.7,16.7c-0.6,1.9,3.5,3.9,1.9,6.5c-2.6,4.3-11.5,7.8-17.3,4.9
					c-5.8-2.9-9.4-9.7-8.4-14.1c0.6-2.7,3.8-2.6,5.2-4.1c1.4-1.6,6.7-17,6.7-17L431,63.4z"/>
				<path class="st5" d="M426.5,76.3c-11.9-1.6-16.2-11-16.2-11l3.2-9.5l18,6.9L426.5,76.3z"/>
				<path class="st19" d="M441.3,54.1c4.1-11.8-0.7-24.9-8-27.5c-7.4-2.6-17.9,4.5-22,16.3c-4.1,11.8,0.8,24,6.9,26.8
					C423.5,72.2,437.2,65.8,441.3,54.1z"/>
				<path class="st20" d="M428.7,61.6c-7.6,3.2-12.1-4.6-12.1-4.6"/>
				<path class="st21" d="M438.7,67"/>
				<path class="st5" d="M435.9,31.4c1.6,3,5.4,11.1,5,14.2c-0.2,1.9-2.9,10.4-3.8,17.5c-0.6,4.6,0.5,9,0.5,9l4.6-7l3.8-22.3
					l-3.8-11.9l-8.5-6.5l-12.1,1.3l-9.2,8.9l-7.8,18.9l1.8,6.7c5.1-5.9,8.7-19.5,11.9-21c3.3-1.5,9.5-9.5,11.5-9.9
					C432,28.8,434.3,28.5,435.9,31.4z"/>
				<path class="st5" d="M432,42.3l-0.4,1.7c4.7,0.8,7.8,4.4,7.8,4.4C438.9,43.7,432,42.3,432,42.3z"/>
				<path class="st5" d="M424.8,39.9l-0.8,1.6c-4.1-2.5-8.8-1.8-8.8-1.8C418.6,36.4,424.8,39.9,424.8,39.9z"/>
				<path class="st5" d="M435,50.3c0.3-1,0.1-1.9-0.4-2.1c-0.6-0.2-1.3,0.4-1.6,1.4c-0.3,1-0.1,1.9,0.4,2.1
					C433.9,51.9,434.7,51.3,435,50.3z"/>
				<path class="st5" d="M422.8,45.8c0.3-1,0.1-1.9-0.4-2.1c-0.6-0.2-1.3,0.4-1.6,1.4c-0.3,1-0.1,1.9,0.4,2.1
					C421.7,47.4,422.4,46.8,422.8,45.8z"/>
			</g>
		</g>
		<g vectornator:layerName="–ì—Ä—É–ø–ø–∞ 44">
			<path vectornator:layerName="–û–≤–∞–ª 3" class="st22" d="M266.2,96c0-18.3,14.9-33.2,33.2-33.2
				c18.3,0,33.2,14.9,33.2,33.2c0,18.3-14.9,33.2-33.2,33.2C281.1,129.2,266.2,114.4,266.2,96z"/>
			<g vectornator:layerName="–ì—Ä—É–ø–ø–∞ 39">
				<path class="st5" d="M285.8,80.5c4.7-6,6.4-6.9,14.2-6.9c7.8,0,10.5,3.7,14.4,10.2c2.8,4.7,5.5,11,5.7,14.9
					c0.2,4.5-0.8,7.5-3.8,9.7c-1.7,1.2-5.1,2.2-5.1,2.2s2.1-3.4,1.4-3.1c-0.4,0.2-5.2,4-8.1,4.5c-2.9,0.5-5.2-2.2-9.2-2.7
					c-1.1-0.1-2.3,2.7-3.4,2.5c-0.6-0.1-4.7-4.2-5.3-4.3c-1.2-0.3,1.2,3.4,0.2,3.1c-1.6-0.5-2.9-1.2-3.7-2c-7-7-4.4-12.1-1.5-17.8
					C283.4,87.2,284.6,82,285.8,80.5z"/>
				<path class="st19" d="M294.1,102.9l0.1,11.9c4.8,8.1,11.3,0.3,11.3,0.3l-0.1-12.1L294.1,102.9z"/>
				<path class="st5" d="M294.1,107.9c4.1,7.9,11.2,0.7,11.2,0.7l0-5.9l-11.4,0.1L294.1,107.9z"/>
				<path class="st19" d="M288.8,92.6c0-8.3,4.8-15,10.7-15c5.9,0,10.7,6.7,10.7,15c0,8.3-4.8,15-10.7,15
					C293.6,107.6,288.8,100.9,288.8,92.6z"/>
				<path class="st5" d="M288.4,85.5c5.8,2.8,14-4.4,14-4.4c3.1,6.2,9,4.1,9,4.1l-4-7.3l-9.9-1.8l-6.2,2.3L288.4,85.5z"/>
				<path class="st19" d="M286.3,95.9c-1-1.6-1-3.4-0.1-4c1-0.6,2.5,0.2,3.5,1.9c1,1.6,1,3.4,0.1,4
					C288.9,98.3,287.3,97.5,286.3,95.9z"/>
				<path class="st19" d="M309,93.8c0.8-1.7,2.2-2.8,3.3-2.3c1,0.5,1.2,2.2,0.5,4c-0.8,1.7-2.2,2.8-3.3,2.3
					C308.5,97.3,308.2,95.5,309,93.8z"/>
				<path class="st5" d="M291.1,89.9c-0.1-0.5,1-1.7,2.6-2.1c1.6-0.4,3.3,0,3.4,0.5c0.1,0.5-1.6,0.6-3.2,1
					C292.4,89.6,291.3,90.4,291.1,89.9z"/>
				<path class="st5" d="M307.1,89.7c0.1-0.5-1-1.7-2.6-2.1c-1.6-0.4-3.3,0-3.4,0.5c-0.1,0.5,1.6,0.6,3.2,1
					C305.8,89.5,307,90.2,307.1,89.7z"/>
				<path class="st5" d="M293.9,91.7c0-0.6,0.3-1.2,0.7-1.2c0.4,0,0.7,0.5,0.7,1.2c0,0.6-0.3,1.2-0.7,1.2
					C294.2,92.8,293.9,92.3,293.9,91.7z"/>
				<path class="st5" d="M303.2,91.7c0-0.6,0.3-1.2,0.7-1.2c0.4,0,0.7,0.5,0.7,1.2c0,0.6-0.3,1.2-0.7,1.2
					C303.6,92.8,303.2,92.3,303.2,91.7z"/>
				<path class="st5" d="M295.3,99l1.2,0c0,0,1.7,2.7,3,2.7c1.3,0,3.5-2.6,3.5-2.6l1.2-0.2C299,107.9,295.3,99,295.3,99z"/>
			</g>
		</g>
		<g vectornator:layerName="–ì—Ä—É–ø–ø–∞ 45">
			<path vectornator:layerName="–û–≤–∞–ª 4" class="st9" d="M248.7,208.3c3.7-15.8,19.6-25.7,35.4-22
				c15.8,3.7,25.7,19.6,22,35.4c-3.7,15.8-19.6,25.7-35.4,22C254.9,239.9,245,224.1,248.7,208.3z"/>
			<g vectornator:layerName="–ì—Ä—É–ø–ø–∞ 38">
				<g vectornator:layerName="–ì—Ä—É–ø–ø–∞ 1">
					<path class="st19" d="M266.4,215.3c1-4.5,0.9-9.8,3.8-12.4c2.4-2.2,7.6-2,10.2-1.4c2.4,0.6,6.7,1.8,8,4.5
						c1.7,3.7-0.4,9.5-1.5,14.2c-1.9,8.2-8.1,13.8-13.7,12.5C267.5,231.2,264.5,223.5,266.4,215.3z"/>
					<path class="st5" d="M265.9,213.7c0.4-4-0.8-6.6,0.4-10.7c1.9-6.6,7.5-2.9,7.5-2.9c5.9-4.9,12.9-1.7,15.6,0.2
						c4.5,3,2.8,10.2,1.6,12.6c-1.8,3.5-3.6,7-3.6,7l-1,0c2.5-5.3,1.8-9.3,1.8-9.3c-8.2,2.1-13.3-6.2-13.3-6.2
						c-5-1.5-8.3,9.9-8.3,9.9L265.9,213.7z"/>
					<path class="st5" d="M275.2,210l-0.6,2.3c-3.5-0.9-5.5,0-5.5,0C270.5,209.8,275.2,210,275.2,210z"/>
					<path class="st5" d="M280.7,211.3l-0.4,2.4c3.6,0.7,5,2.3,5,2.3C285.1,213.1,280.7,211.3,280.7,211.3z"/>
					<path class="st5" d="M272.5,214.9c0.2-0.9,0.7-1.5,1.2-1.3c0.5,0.1,0.7,0.9,0.5,1.7c-0.2,0.9-0.7,1.5-1.2,1.3
						C272.5,216.6,272.3,215.8,272.5,214.9z"/>
					<path class="st5" d="M279.8,216.3c0.2-0.9,0.7-1.5,1.2-1.3c0.5,0.1,0.7,0.9,0.5,1.7c-0.2,0.9-0.7,1.5-1.2,1.3
						C279.8,218,279.6,217.2,279.8,216.3z"/>
					<path class="st5" d="M271.6,223.1c4.3,4,7.7,1.1,7.7,1.1l0.3,0.8c-5.2,5.1-8.6-1.2-8.6-1.2L271.6,223.1z"/>
					<path class="st19" d="M285.5,220.3c1.2-2,3.1-3,4.3-2.3c1.1,0.7,1.1,2.9-0.2,4.8c-1.2,2-3.1,3-4.3,2.3
						C284.2,224.4,284.3,222.3,285.5,220.3z"/>
					<path class="st19" d="M262.9,216.9c-0.3-2.3,0.5-4.3,1.9-4.5c1.3-0.2,2.6,1.6,2.9,3.8c0.3,2.3-0.5,4.3-1.9,4.5
						C264.5,221,263.2,219.2,262.9,216.9z"/>
				</g>
			</g>
		</g>
		<g vectornator:layerName="–ì—Ä—É–ø–ø–∞ 47">
			<path vectornator:layerName="–û–≤–∞–ª 4" class="st18" d="M295.8,237.7c-1.7-16.2,10-30.7,26.2-32.4
				c16.2-1.7,30.7,10,32.4,26.2c1.7,16.2-10,30.7-26.2,32.4C312,265.6,297.5,253.9,295.8,237.7z"/>
			<g vectornator:layerName="–ì—Ä—É–ø–ø–∞ 46">
				<path vectornator:layerName="–ö—Ä–∏–≤–∞—è 1" class="st5" d="M311.7,222.9c-10.9,12.9-0.1,29.4-0.1,29.4
					l34.6-7.2c-1.3-25.8-15.8-27.5-15.8-27.5L311.7,222.9z"/>
				<g vectornator:layerName="–ì—Ä—É–ø–ø–∞ 38">
					<g vectornator:layerName="–ì—Ä—É–ø–ø–∞ 1">
						<path class="st19" d="M314.8,238.5c-0.5-4.6-2.4-9.6-0.5-13c1.5-2.8,6.5-4.4,9.2-4.7c2.5-0.3,6.9-0.6,9,1.6
							c2.8,2.9,2.8,9,3.3,13.9c0.9,8.4-3.1,15.7-8.9,16.3C321.1,253.2,315.7,246.9,314.8,238.5z"/>
						<path class="st5" d="M313.8,237.3c-0.9-3.9-2.9-5.9-3.2-10.2c-0.4-6.8,6.1-5.2,6.1-5.2c3.9-6.6,11.6-5.8,14.8-5
							c5.2,1.4,6,8.7,5.6,11.4c-0.5,3.9-1.1,7.8-1.1,7.8l-0.9,0.4c0.6-5.8-1.4-9.4-1.4-9.4c-7.1,4.7-14.6-1.5-14.6-1.5
							c-5.2,0.2-4.5,12.1-4.5,12.1L313.8,237.3z"/>
						<path class="st5" d="M321.4,230.7l0.1,2.4c-3.6,0.3-5.2,1.8-5.2,1.8C316.8,232,321.4,230.7,321.4,230.7z"/>
						<path class="st5" d="M327,230.1l0.4,2.4c3.6-0.5,5.4,0.5,5.4,0.5C331.7,230.3,327,230.1,327,230.1z"/>
						<path class="st5" d="M320.4,236.2c-0.1-0.9,0.2-1.6,0.7-1.7c0.5-0.1,0.9,0.6,1,1.5c0.1,0.9-0.2,1.6-0.7,1.7
							C320.9,237.7,320.5,237.1,320.4,236.2z"/>
						<path class="st5" d="M327.8,235.1c-0.1-0.9,0.2-1.6,0.7-1.7c0.5-0.1,0.9,0.6,1,1.5c0.1,0.9-0.2,1.6-0.7,1.7
							C328.3,236.7,327.9,236,327.8,235.1z"/>
						<path class="st5" d="M322.2,244.2c5.3,2.4,7.6-1.5,7.6-1.5l0.5,0.7c-3.3,6.5-8.5,1.7-8.5,1.7L322.2,244.2z"/>
						<path class="st19" d="M334.5,237c0.5-2.3,2-3.8,3.3-3.5c1.3,0.3,1.9,2.4,1.4,4.6c-0.5,2.3-2,3.8-3.3,3.5
							C334.6,241.3,334,239.2,334.5,237z"/>
						<path class="st19" d="M312.1,241.2c-1-2.1-0.9-4.2,0.3-4.8c1.2-0.6,3,0.6,4,2.7c1,2.1,0.9,4.2-0.3,4.8
							C314.9,244.5,313.1,243.3,312.1,241.2z"/>
					</g>
				</g>
			</g>
		</g>
		<g vectornator:layerName="–ì—Ä—É–ø–ø–∞ 37">
			<path vectornator:layerName="–û–≤–∞–ª 1" class="st4" d="M363.5,195c-18.3-31.4-7.7-71.8,23.8-90.1
				c31.4-18.3,71.8-7.6,90.1,23.8c18.3,31.4,7.7,71.8-23.8,90.1C422.1,237.2,381.8,226.5,363.5,195z"/>
			<g vectornator:layerName="–ì—Ä—É–ø–ø–∞ 36">
				<path class="st22" d="M402.8,221c-9.2-20.2,22.9-45.1,22.9-45.1l5.9-2.6c29.1-16.9,49.7,4,49.7,4L402.8,221z"/>
				<path class="st5" d="M394.2,154.5c-1.4-2.4-0.6-5.4,1.7-6.8c2.4-1.4,5.4-0.5,6.8,1.8c1.4,2.4,0.6,5.4-1.7,6.8
					C398.6,157.7,395.6,156.9,394.2,154.5z"/>
				<path class="st5" d="M422.9,141.1c-1.4-2.4-0.6-5.4,1.7-6.8c2.4-1.4,5.4-0.5,6.8,1.8c1.4,2.4,0.6,5.4-1.7,6.8
					C427.4,144.3,424.3,143.5,422.9,141.1z"/>
				<path class="st5" d="M420.3,136.8c-1.4-2.4-0.6-5.4,1.7-6.8c2.4-1.4,5.4-0.5,6.8,1.8c1.4,2.4,0.6,5.4-1.7,6.8
					C424.7,140,421.7,139.2,420.3,136.8z"/>
				<path class="st19" d="M425.2,144.8c-0.6-2.8,0.8-5.5,3-6.1c2.2-0.6,4.5,1.2,5.1,4c0.6,2.8-0.8,5.5-3,6.1
					C428.1,149.4,425.8,147.6,425.2,144.8z"/>
				<path class="st19" d="M405.4,157c-2.2-1.8-5.3-1.9-6.8-0.2c-1.6,1.7-1,4.6,1.2,6.4c2.2,1.8,5.3,1.9,6.8,0.2
					C408.2,161.6,407.7,158.8,405.4,157z"/>
				<path class="st19" d="M426.1,152.4l10,18.3c4.4,19.6-14.8,10.3-14.8,10.3l-9.8-22.7L426.1,152.4z"/>
				<path class="st19" d="M427.4,139.7c-6.5-10.7-16.5-15.4-24.2-10.8c-7.7,4.6-8.7,17.1-2.2,27.8c6.5,10.7,18.1,13.3,25.8,8.7
					C434.5,160.7,433.9,150.4,427.4,139.7z"/>
				<path class="st5" d="M401.7,122c6.4-3.9,12.7-6.5,15.6-2.3c0,0,1.4,3.1,1.4,3.1c6.2,2.7,7,11.6,7,11.6c4.9,5.3,6.9,14.5,8,18.1
					c1.1,3.6,1.6,14-3.9,17.5c-5.5,3.5-18.6-0.6-23.6-5.6c-5.1-5-8.3-11.1-9.2-13.1c-2-0.8-4-2.5-5.4-4.9c-2.6-4.3-2.4-9.2,0.4-10.9
					c0.6-0.3,1.2-0.5,1.8-0.6C392.1,131.5,395.5,125.7,401.7,122z M401.9,138.9c-0.2,0.1-0.4,0.3-0.6,0.5c0.2,0.3,0.4,0.6,0.6,0.9
					c2.6,4.3,2.4,9.2-0.4,10.9c-0.1,0.1-0.3,0.1-0.4,0.2l0.8,3c3,2.9,9.8,5.8,13.3,7.1c1.1-2.2,0.7-4.2,4.8-6.8
					c4.1-2.5,6.5-1.7,8.4-1.8c1.2-6.5-2.9-13.6-2.9-13.6c-3.6-7.4-6.1-7.2-6.1-7.2c-7.7,9-16.1,6.3-16.1,6.3
					C402.8,138.5,402.3,138.7,401.9,138.9z"/>
				<path class="st5" d="M404.2,150.3c-2.4-5.2,4.6-8.5,5.1-7.6c0.5,0.8-1.7,1.2-3,3.2C405,147.8,404.2,150.3,404.2,150.3z"/>
				<path class="st5" d="M424.8,136.6c-4.4-3.6-9.5,2.3-8.7,3c0.7,0.7,1.6-1.4,3.9-2.1C422.1,136.7,424.8,136.6,424.8,136.6z"/>
				<path class="st19" d="M412.6,142.2c0,0,9.5,8.8,10.4,10.4c0.9,1.6-4.6,3-4.6,3L412.6,142.2z"/>
				<path class="st23" d="M412.6,142.1c0,0,9.5,8.8,10.4,10.4c0.9,1.6-4.5,2.9-4.5,2.9"/>
				<path class="st5" d="M409.2,147.9c-0.4-0.7-0.3-1.5,0.2-1.8c0.5-0.3,1.2,0,1.6,0.7c0.4,0.7,0.3,1.5-0.2,1.8
					C410.3,148.9,409.6,148.6,409.2,147.9z"/>
				<path class="st5" d="M419.5,141.5c-0.4-0.7-0.3-1.5,0.2-1.8c0.5-0.3,1.2,0.1,1.6,0.8c0.4,0.7,0.3,1.5-0.2,1.8
					C420.6,142.6,419.9,142.2,419.5,141.5z"/>
				<path class="st19" d="M426.5,155.2c-4.2,3.2-8,4.9-8,4.9c2.4,3,6.3,1.7,7.6-0.1C427.7,158,426.5,155.2,426.5,155.2z"/>
			</g>
		</g>
	</g>
</g>
</svg>
