<?xml version="1.0" encoding="UTF-8" standalone="no"?>
<svg
   id="Icons"
   viewBox="0 0 60 60"
   width="512"
   height="512"
   version="1.1"
   sodipodi:docname="mail-list.svg"
   inkscape:version="1.3.2 (091e20e, 2023-11-25)"
   xmlns:inkscape="http://www.inkscape.org/namespaces/inkscape"
   xmlns:sodipodi="http://sodipodi.sourceforge.net/DTD/sodipodi-0.dtd"
   xmlns="http://www.w3.org/2000/svg"
   xmlns:svg="http://www.w3.org/2000/svg">
  <defs
     id="defs15" />
  <sodipodi:namedview
     id="namedview15"
     pagecolor="#505050"
     bordercolor="#eeeeee"
     borderopacity="1"
     inkscape:showpageshadow="0"
     inkscape:pageopacity="0"
     inkscape:pagecheckerboard="0"
     inkscape:deskcolor="#505050"
     inkscape:zoom="0.4609375"
     inkscape:cx="256"
     inkscape:cy="256"
     inkscape:window-width="1440"
     inkscape:window-height="789"
     inkscape:window-x="0"
     inkscape:window-y="25"
     inkscape:window-maximized="0"
     inkscape:current-layer="Icons" />
  <path
     d="M3,16H19a3,3,0,0,0,3-3V3a3,3,0,0,0-3-3H3A3,3,0,0,0,0,3V13A3,3,0,0,0,3,16ZM9.849,9.2a2.994,2.994,0,0,0,1.169.247,2.9,2.9,0,0,0,1.141-.241L18.151,14H3.849Zm4-1.2L20,3.083v9.834Zm-2.174-.82a.638.638,0,0,0-.084.06.956.956,0,0,1-1.188,0,.754.754,0,0,0-.063-.046L3.849,2h14.3ZM8.148,8,2,12.917V3.083Z"
     id="path1"
     style="fill:#ff6400;fill-opacity:1" />
  <path
     d="M3,38H19a3,3,0,0,0,3-3V25a3,3,0,0,0-3-3H3a3,3,0,0,0-3,3V35A3,3,0,0,0,3,38Zm6.849-6.8a2.994,2.994,0,0,0,1.169.247,2.9,2.9,0,0,0,1.141-.241L18.151,36H3.849Zm4-1.2L20,25.083v9.834Zm-2.174-.82a.638.638,0,0,0-.084.06.956.956,0,0,1-1.188,0,.754.754,0,0,0-.063-.046L3.849,24h14.3ZM8.148,30,2,34.917V25.083Z"
     id="path2"
     style="fill:#ff6400;fill-opacity:1" />
  <path
     d="M3,60H19a3,3,0,0,0,3-3V47a3,3,0,0,0-3-3H3a3,3,0,0,0-3,3V57A3,3,0,0,0,3,60Zm6.849-6.8a2.994,2.994,0,0,0,1.169.247,2.9,2.9,0,0,0,1.141-.241L18.151,58H3.849Zm4-1.2L20,47.083v9.834Zm-2.174-.82a.638.638,0,0,0-.084.06.956.956,0,0,1-1.188,0,.754.754,0,0,0-.063-.046L3.849,46h14.3ZM8.148,52,2,56.917V47.083Z"
     id="path3"
     style="fill:#ff6400;fill-opacity:1" />
  <path
     d="M52,0a8,8,0,1,0,8,8A8.009,8.009,0,0,0,52,0Zm0,14a6,6,0,1,1,6-6A6.006,6.006,0,0,1,52,14Z"
     id="path4"
     style="fill:#ff6400;fill-opacity:1" />
  <path
     d="M52,22a8,8,0,1,0,8,8A8.009,8.009,0,0,0,52,22Zm0,14a6,6,0,1,1,6-6A6.006,6.006,0,0,1,52,36Z"
     id="path5"
     style="fill:#ff6400;fill-opacity:1" />
  <path
     d="M60,52a8,8,0,1,0-8,8A8.009,8.009,0,0,0,60,52Zm-8,6a6,6,0,1,1,6-6A6.006,6.006,0,0,1,52,58Z"
     id="path6"
     style="fill:#ff6400;fill-opacity:1" />
  <path
     d="M53.2,5.4,50.892,8.478l-.185-.185a1,1,0,0,0-1.414,1.414l1,1A1,1,0,0,0,51,11l.071,0a1,1,0,0,0,.729-.4l3-4a1,1,0,0,0-1.6-1.2Z"
     id="path7"
     style="fill:#ff6400;fill-opacity:1" />
  <path
     d="M53.2,27.4l-2.308,3.078-.185-.185a1,1,0,0,0-1.414,1.414l1,1A1,1,0,0,0,51,33l.071,0a1,1,0,0,0,.729-.4l3-4a1,1,0,1,0-1.6-1.2Z"
     id="path8"
     style="fill:#ff6400;fill-opacity:1" />
  <path
     d="M53.2,49.4l-2.308,3.078-.185-.185a1,1,0,0,0-1.414,1.414l1,1A1,1,0,0,0,51,55l.071,0a1,1,0,0,0,.729-.4l3-4a1,1,0,0,0-1.6-1.2Z"
     id="path9"
     style="fill:#ff6400;fill-opacity:1" />
  <path
     d="M26,6H41a1,1,0,0,0,0-2H26a1,1,0,0,0,0,2Z"
     id="path10"
     style="fill:#ff6400;fill-opacity:1" />
  <path
     d="M26,12H36a1,1,0,0,0,0-2H26a1,1,0,0,0,0,2Z"
     id="path11"
     style="fill:#ff6400;fill-opacity:1" />
  <path
     d="M26,28H41a1,1,0,0,0,0-2H26a1,1,0,0,0,0,2Z"
     id="path12"
     style="fill:#ff6400;fill-opacity:1" />
  <path
     d="M26,34H36a1,1,0,0,0,0-2H26a1,1,0,0,0,0,2Z"
     id="path13"
     style="fill:#ff6400;fill-opacity:1" />
  <path
     d="M26,50H41a1,1,0,0,0,0-2H26a1,1,0,0,0,0,2Z"
     id="path14"
     style="fill:#ff6400;fill-opacity:1" />
  <path
     d="M26,56H36a1,1,0,0,0,0-2H26a1,1,0,0,0,0,2Z"
     id="path15"
     style="fill:#ff6400;fill-opacity:1" />
</svg>
