<?xml version="1.0" encoding="iso-8859-1"?>
<!-- Generator: Adobe Illustrator 19.0.0, SVG Export Plug-In . SVG Version: 6.00 Build 0)  -->
<svg version="1.1" id="Capa_1" xmlns="http://www.w3.org/2000/svg" xmlns:xlink="http://www.w3.org/1999/xlink" x="0px" y="0px"
	 viewBox="0 0 512 512" style="enable-background:new 0 0 512 512;" xml:space="preserve">
<path style="fill:#FDBF00;" d="M512,45v242c0,24.901-20.099,45-45,45H45c-24.901,0-45-20.099-45-45V45
	c0-12.299,5.099-23.401,12.9-31.5h0.3l233.2,133.2c3.001,2.1,6.301,3.3,9.6,3.3s6.599-1.199,9.6-3.3L498.8,13.5h0.3
	C506.901,21.599,512,32.701,512,45z"/>
<path style="fill:#FF9F00;" d="M512,45v242c0,24.901-20.099,45-45,45H256V150c3.3,0,6.599-1.199,9.6-3.3L498.8,13.5h0.3
	C506.901,21.599,512,32.701,512,45z"/>
<path style="fill:#FFDE46;" d="M498.8,13.2v0.3L265.6,206.7c-3.001,2.1-6.301,3.3-9.6,3.3s-6.599-1.199-9.6-3.3L13.2,13.5v-0.3
	C21.301,5.099,32.701,0,45,0h422C479.299,0,490.699,5.099,498.8,13.2z"/>
<path style="fill:#FFD400;" d="M498.8,13.2v0.3L265.6,206.7c-3.001,2.1-6.301,3.3-9.6,3.3V0h211C479.299,0,490.699,5.099,498.8,13.2
	z"/>
<path style="fill:#00ABE9;" d="M376,242c-74.399,0-135,60.601-135,135s60.601,135,135,135s136-60.601,136-135S450.399,242,376,242z"
	/>
<path style="fill:#0095FF;" d="M512,377c0,74.399-61.601,135-136,135V242C450.399,242,512,302.601,512,377z"/>
<path style="fill:#F7F0EB;" d="M447.499,387.499l-46,45c-5.7,6-15.298,6-20.999,0c-3-2.699-4.5-6.599-4.5-10.499
	s1.5-7.8,4.501-10.499L399.699,392H316c-8.401,0-15-6.599-15-15s6.599-15,15-15h83.699L380.5,342.499c-3-2.699-4.5-6.599-4.5-10.499
	s1.5-7.8,4.501-10.499c5.7-6,15.298-6,20.999,0l46,45C453.5,372.201,453.5,381.799,447.499,387.499z"/>
<path style="fill:#EFE2DD;" d="M447.499,387.499l-46,45c-5.7,6-15.298,6-20.999,0c-3-2.699-4.5-6.599-4.5-10.499
	s1.5-7.8,4.501-10.499L399.699,392H376v-30h23.699L380.5,342.499c-3-2.699-4.5-6.599-4.5-10.499s1.5-7.8,4.501-10.499
	c5.7-6,15.298-6,20.999,0l46,45C453.5,372.201,453.5,381.799,447.499,387.499z"/>
<g>
</g>
<g>
</g>
<g>
</g>
<g>
</g>
<g>
</g>
<g>
</g>
<g>
</g>
<g>
</g>
<g>
</g>
<g>
</g>
<g>
</g>
<g>
</g>
<g>
</g>
<g>
</g>
<g>
</g>
</svg>
