<svg id="Capa_1" enable-background="new 0 0 512 512" viewBox="0 0 512 512" xmlns="http://www.w3.org/2000/svg"><g><g fill="#dceafa"><path d="m190.515 136.096h-126.418c-17.63 0-31.973-14.343-31.973-31.973v-58.101c0-4.267 3.459-7.726 7.726-7.726s7.726 3.459 7.726 7.726v58.101c0 9.109 7.41 16.52 16.52 16.52h126.417c4.268 0 7.726 3.459 7.726 7.726.002 4.267-3.457 7.727-7.724 7.727z"/><path d="m447.09 136.096h-126.417c-4.268 0-7.726-3.459-7.726-7.726s3.459-7.726 7.726-7.726h126.417c9.11 0 16.52-7.411 16.52-16.52v-58.102c0-4.267 3.459-7.726 7.726-7.726s7.726 3.459 7.726 7.726v58.101c.001 17.63-14.342 31.973-31.972 31.973z"/><path d="m39.851 473.705c-4.268 0-7.726-3.459-7.726-7.726v-58.101c0-17.63 14.343-31.973 31.973-31.973h126.417c4.268 0 7.726 3.459 7.726 7.726s-3.459 7.726-7.726 7.726h-126.418c-9.11 0-16.52 7.411-16.52 16.52v58.101c0 4.267-3.459 7.727-7.726 7.727z"/><path d="m471.337 473.705c-4.268 0-7.726-3.459-7.726-7.726v-58.101c0-9.109-7.41-16.52-16.52-16.52h-126.418c-4.268 0-7.726-3.459-7.726-7.726s3.459-7.726 7.726-7.726h126.417c17.63 0 31.973 14.343 31.973 31.973v58.101c0 4.265-3.459 7.725-7.726 7.725z"/><path d="m261.279 134.941c-4.268 0-7.726-3.459-7.726-7.726v-81.193c0-4.267 3.459-7.726 7.726-7.726s7.726 3.459 7.726 7.726v81.192c.001 4.267-3.458 7.727-7.726 7.727z"/><path d="m468.135 263.329h-77.971c-4.268 0-7.726-3.459-7.726-7.726s3.459-7.726 7.726-7.726h77.971c4.268 0 7.726 3.459 7.726 7.726s-3.459 7.726-7.726 7.726z"/><path d="m254.077 471.57c-4.268 0-7.726-3.459-7.726-7.726v-79.058c0-4.267 3.459-7.726 7.726-7.726s7.726 3.459 7.726 7.726v79.058c0 4.266-3.458 7.726-7.726 7.726z"/><path d="m120.263 256.127h-76.397c-4.268 0-7.726-3.459-7.726-7.726s3.459-7.726 7.726-7.726h76.398c4.268 0 7.726 3.459 7.726 7.726s-3.459 7.726-7.727 7.726z"/></g><circle cx="255.594" cy="256" fill="#f29cda" r="159.693"/><path d="m299.063 102.298c50.73 26.751 85.318 80.001 85.318 141.339 0 88.196-71.497 159.693-159.693 159.693-15.069 0-29.649-2.09-43.469-5.991 22.213 11.713 47.517 18.354 74.375 18.354 88.196 0 159.693-71.497 159.693-159.693 0-73.127-49.154-134.771-116.224-153.702z" fill="#f087ce"/><path d="m254.41 332.254-11.386-43.944-37.372 9.683 15.943 61.531c.824 3.181 4.071 5.091 7.252 4.267l8.266-2.142c12.894-3.339 20.638-16.501 17.297-29.395z" fill="#54afff"/><circle cx="39.851" cy="34.392" fill="#f5b6e6" r="32.235"/><circle cx="261.28" cy="34.392" fill="#7ebfff" r="32.235"/><circle cx="471.337" cy="34.392" fill="#f9d75a" r="32.235"/><circle cx="39.851" cy="477.608" fill="#7ebfff" r="32.235"/><circle cx="471.337" cy="477.608" fill="#b2eaa3" r="32.235"/><circle cx="479.765" cy="255.603" fill="#c09bf4" r="32.235"/><circle cx="254.077" cy="477.608" fill="#c9c5cd" r="32.235"/><circle cx="32.235" cy="248.401" fill="#b2eaa3" r="32.235"/><g><path d="m351.126 288.924-33.845-130.62c-2.615-10.094-15.056-13.745-22.711-6.666l-51.923 48.015c-5.641 5.217-12.332 9.144-19.607 11.532 0 0-11.531 31.099-12.471 31.375l14.042 42.487c1.099-.285 18.451 3.413 18.451 3.413 7.519-1.445 15.275-1.261 22.74.56l68.707 16.759c10.131 2.472 19.233-6.761 16.617-16.855z" fill="#eef7ff"/><path d="m223.039 211.186c-1.075.353-2.162.673-3.261.958l-30.342 7.862c-21.28 5.514-34.062 27.235-28.548 48.516 5.514 21.28 27.235 34.062 48.516 28.548l30.342-7.862c1.099-.285 2.205-.532 3.315-.746z" fill="#f9d75a"/></g></g><g/><g/><g/><g/><g/><g/><g/><g/><g/><g/><g/><g/><g/><g/><g/></svg>