<svg id="Layer_1" enable-background="new 0 0 512 512" viewBox="0 0 512 512" xmlns="http://www.w3.org/2000/svg"><g><path d="m463.213 397.766c.688-1.087 1.367-2.181 2.038-3.28.336-.55 6.162-1.101 6.493-1.653 22.062-36.78 34.756-79.822 34.756-125.833 0-135.31-109.69-245-245-245s-245 109.69-245 245c0 46.011 12.694 89.053 34.756 125.833.251.418 7.719.835 7.972 1.252.75 1.234 1.511 2.461 2.283 3.681z" fill="#65befc"/><path d="m128.58 280.654h-64.263c-2.761 0-5-2.239-5-5v-257.904c0-2.761 2.239-5 5-5h64.262c2.761 0 5 2.239 5 5v257.904c.001 2.762-2.238 5-4.999 5z" fill="#c5d3dd"/><path d="m118.58 30h-54.578c-8.284 0-15-6.716-15-15 0-8.284 6.716-15 15-15h54.578c8.284 0 15 6.716 15 15 0 8.284-6.716 15-15 15z" fill="#b6c4cf"/><path d="m431.5 327.5h-340c-4.142 0-7.5-3.358-7.5-7.5s3.358-7.5 7.5-7.5h340c4.142 0 7.5 3.358 7.5 7.5s-3.358 7.5-7.5 7.5z" fill="#0055ca"/><path d="m436.5 410.52c-4.142 0-7.5-3.358-7.5-7.5v-182.261c0-4.142 3.358-7.5 7.5-7.5s7.5 3.358 7.5 7.5v182.261c0 4.142-3.358 7.5-7.5 7.5z" fill="#0055ca"/><path d="m51.245 392.84c23.173 38.635 56.694 70.354 96.73 91.327 2.316 1.213 6.666-8.35 9.025-7.21 32.207 15.572 66.328 27.319 104.5 27.319 65.15 0 117.4-24.653 161.287-66.128 2.11-1.994 11.145 2.921 13.183.854 13.675-13.87 25.708-29.362 35.785-46.163h-300.585l-9.319 4.202-9.702-4.202h-100.904z" fill="#ffc143"/><path d="m458.683 280.654h-343.253c-2.761 0-5-2.239-5-5v-257.904c0-2.761 2.239-5 5-5h343.253c2.761 0 5 2.239 5 5v257.904c0 2.762-2.239 5-5 5z" fill="#d9e7ec"/><path d="m458.998 30h-346.099c-8.284 0-15-6.716-15-15 0-8.284 6.716-15 15-15h346.099c8.284 0 15 6.716 15 15 0 8.284-6.716 15-15 15z" fill="#c5d3dd"/><path d="m320 120h24.957c5.523 0 10-4.477 10-10v-40c0-5.523-4.477-10-10-10h-24.957c-5.523 0-10 4.477-10 10v40c0 5.523 4.477 10 10 10z" fill="#00c53b"/><path d="m342.149 120h77.851c5.523 0 10-4.477 10-10v-40c0-5.523-4.477-10-10-10h-77.851c-5.523 0-10 4.477-10 10v40c0 5.523 4.477 10 10 10z" fill="#4bcd5c"/><g fill="#b6c4cf"><path d="m317.5 172.5h105c4.142 0 7.5-3.358 7.5-7.5 0-4.142-3.358-7.5-7.5-7.5h-105c-4.142 0-7.5 3.358-7.5 7.5 0 4.142 3.358 7.5 7.5 7.5z"/><path d="m317.5 231.634h42.638c4.142 0 7.5-3.358 7.5-7.5 0-4.142-3.358-7.5-7.5-7.5h-42.638c-4.142 0-7.5 3.358-7.5 7.5 0 4.142 3.358 7.5 7.5 7.5z"/><path d="m317.5 202.067h105c4.142 0 7.5-3.358 7.5-7.5 0-4.142-3.358-7.5-7.5-7.5h-105c-4.142 0-7.5 3.358-7.5 7.5 0 4.142 3.358 7.5 7.5 7.5z"/></g><path d="m183.011 120h24.957c5.523 0 10-4.477 10-10v-40c0-5.523-4.477-10-10-10h-24.957c-5.523 0-10 4.477-10 10v40c0 5.523 4.478 10 10 10z" fill="#ffb509"/><path d="m205.16 120h77.851c5.523 0 10-4.477 10-10v-40c0-5.523-4.477-10-10-10h-77.851c-5.523 0-10 4.477-10 10v40c0 5.523 4.477 10 10 10z" fill="#ffc143"/><path d="m180.511 172.5h105c4.142 0 7.5-3.358 7.5-7.5 0-4.142-3.358-7.5-7.5-7.5h-105c-4.142 0-7.5 3.358-7.5 7.5 0 4.142 3.358 7.5 7.5 7.5z" fill="#b6c4cf"/><path d="m180.511 231.634h42.638c4.142 0 7.5-3.358 7.5-7.5 0-4.142-3.358-7.5-7.5-7.5h-42.638c-4.142 0-7.5 3.358-7.5 7.5 0 4.142 3.358 7.5 7.5 7.5z" fill="#b6c4cf"/><path d="m180.511 202.067h105c4.142 0 7.5-3.358 7.5-7.5 0-4.142-3.358-7.5-7.5-7.5h-105c-4.142 0-7.5 3.358-7.5 7.5 0 4.142 3.358 7.5 7.5 7.5z" fill="#b6c4cf"/><path d="m87.947 115.66c-4.151-1.112-8.34-1.041-12.21.006-.039.011-.268-.233-.308-.222-7.772 2.147-14.045 8.493-16.283 16.844l-6.413 23.934 34.832 9.333 9.253-34.532c1.793-6.691-2.179-13.569-8.871-15.363z" fill="#00429c"/><path d="m38.072 226.481c-5.997-2.82-13.097-.348-15.857 5.521l-9.256 19.683c-2.761 5.87-.136 12.915 5.861 15.735s13.097.349 15.857-5.521l9.256-19.683c2.76-5.87.136-12.915-5.861-15.735z" fill="#f6a96c"/><path d="m28.888 246.01c-3.328-1.565-6.994-1.495-10.072-.124-.201.045-10.01 3.54-10.01 3.54-2.598.936-3.945 3.801-3.009 6.399.614 1.704 2.061 2.853 3.715 3.189l-.753 1.602c-2.76 5.87-.136 12.915 5.861 15.735s13.097.348 15.857-5.521l4.273-9.085c2.76-5.87.135-12.915-5.862-15.735z" fill="#ffbd86"/><path d="m68.07 190.89c2.76-5.87.136-12.915-5.861-15.735s-13.097-.348-15.857 5.521l-3.647 7.755c-.001.003-.002.006-.004.009l-20.816 44.264 21.718 10.213 16.552-35.198z" fill="#00429c"/><path d="m79.258 149.961c1.679-6.265-2.15-12.735-8.551-14.45s-12.952 1.973-14.631 8.239l-10.412 38.86c-1.715 6.402 2.084 12.982 8.485 14.697 6.402 1.715 12.982-2.084 14.697-8.485z" fill="#00429c"/><path d="m151.961 115.391c12.79-2.255 24.987 6.285 27.242 19.075l4.303 24.402-35.512 6.262-6.208-35.207c-1.204-6.823 3.352-13.329 10.175-14.532z" fill="#00429c"/><path d="m220.573 180.053c-1.151-6.526 3.095-12.731 9.482-13.857l21.42-3.777c6.388-1.126 12.499 3.252 13.65 9.778s-3.094 12.731-9.482 13.857l-21.42 3.777c-6.388 1.126-12.499-3.252-13.65-9.778z" fill="#f6a96c"/><path d="m274.845 170.483c-1.151-6.526-7.262-10.905-13.65-9.778l-1.744.307c.108-1.684-.621-3.382-2.105-4.42-2.262-1.584-5.38-1.034-6.964 1.228 0 0-5.942 8.551-6.039 8.733-2.13 2.611-3.158 6.13-2.519 9.753 1.151 6.526 7.262 10.905 13.65 9.778l9.888-1.743c6.389-1.127 10.634-7.332 9.483-13.858z" fill="#ffbd86"/><path d="m178.367 199.68c-6.388 1.126-12.499-3.252-13.65-9.778s3.095-12.731 9.482-13.857l8.439-1.488c.003-.001.006-.001.009-.001l48.172-8.494 4.168 23.635-38.305 6.754z" fill="#00429c"/><path d="m157.628 150.318c-1.126-6.388 3.252-12.499 9.778-13.65s12.731 3.095 13.857 9.482l6.986 39.62c1.151 6.527-3.207 12.751-9.734 13.901-6.527 1.151-12.751-3.207-13.901-9.734z" fill="#00429c"/><path d="m115.369 241.64h-34.939c-2.761 0-5 2.239-5 5v39.148c0 2.761 2.239 5 5 5h34.939c2.761 0 5-2.239 5-5v-39.148c0-2.762-2.239-5-5-5z" fill="#a44f3e"/><path d="m155.43 241.64h-45c-2.761 0-5 2.239-5 5v34.148c0 5.523 4.477 10 10 10h40c2.761 0 5-2.239 5-5v-39.148c0-2.762-2.239-5-5-5z" fill="#bb5d4c"/><path d="m91.897 430.79h-16.467v-84.631c0-8.284 6.716-15 15-15 8.284 0 15 6.716 15 15v71.099c0 7.473-6.059 13.532-13.533 13.532z" fill="#a44f3e"/><path d="m90.43 367.489c-8.284 0-15-6.716-15-15v-68.202c0-8.284 6.716-15 15-15 8.284 0 15 6.716 15 15v68.202c0 8.284-6.716 15-15 15z" fill="#a44f3e"/><path d="m143.943 430.79h16.487v-84.631c0-8.284-6.716-15-15-15-8.284 0-15 6.716-15 15v71.118c0 7.463 6.05 13.513 13.513 13.513z" fill="#bb5d4c"/><path d="m145.43 367.489c-8.284 0-15-6.716-15-15v-68.202c0-8.284 6.716-15 15-15 8.284 0 15 6.716 15 15v68.202c0 8.284-6.716 15-15 15z" fill="#bb5d4c"/><path d="m105.43 417.172-48.372 6.36c-4.613.606-8.055 4.459-8.055 9.014 0 5.023 4.16 9.095 9.292 9.095h37.843c5.132 0 9.292-4.072 9.292-9.095z" fill="#c5d3dd"/><path d="m130.43 417.172 48.372 6.36c4.613.606 8.055 4.459 8.055 9.014 0 5.023-4.16 9.095-9.292 9.095h-37.843c-5.132 0-9.292-4.072-9.292-9.095z" fill="#fff"/><path d="m160.43 115.444-17.5-3.282-1.206 1.455c-7.846-1.471-15.812-2.212-23.794-2.212h-.125c-1.799.002-5.045.104-5.045.104-6.249.25-12.473.955-18.624 2.108l-1.206-1.455-17.5 3.282v23.642 107.659h17.5l7.383-7.356h35.234l7.383 7.356h17.5v-83.191z" fill="#0055ca"/><path d="m141.724 111.936c-7.846-1.471-15.812-2.212-23.794-2.212h-.125c-1.799.002-5.045.104-5.045.104-6.249.25-12.473.955-18.624 2.108l-1.206.226v134.583h50v-134.583z" fill="#fff"/><path d="m123.43 149.661h-11c-1.105 0-2-.895-2-2v-24.395c0-1.105.895-2 2-2h11c1.105 0 2 .895 2 2v24.395c0 1.105-.896 2-2 2z" fill="#8d9ca8"/><path d="m117.93 209.491c-4.142 0-7.5-3.358-7.5-7.5v-55.778c0-4.142 3.358-7.5 7.5-7.5 4.142 0 7.5 3.358 7.5 7.5v55.778c0 4.142-3.358 7.5-7.5 7.5z" fill="#b6c4cf"/><path d="m117.93 129.299c-6.627 0-12-5.373-12-12v-24.936c0-6.627 5.373-12 12-12 6.627 0 12 5.373 12 12v24.936c0 6.627-5.373 12-12 12z" fill="#f6a96c"/><path d="m126.548 106.204c-4.038.682-8.259.697-12.522-.055-20.021-3.53-33.39-22.622-29.859-42.644l2.003-11.359c3.53-20.021 22.622-33.39 42.644-29.859 4.263.752 8.225 2.209 11.786 4.231.629.357-13.337 79.565-14.052 79.686z" fill="#f6a96c"/><path d="m140.598 26.518c-14.846 2.46-27.148 13.789-29.86 29.165l-2.275 12.902c-2.542 14.418 4.057 28.376 15.697 36.152 1.504 1.005 3.379 1.331 5.134.894 13.681-3.407 24.768-14.561 27.374-29.341l2.003-11.359c2.78-15.759-4.91-30.941-18.073-38.413z" fill="#ffbd86"/><path d="m233.353 293.698c-3.858-1.373-8.012-2.12-12.342-2.12-20.33 0-36.811 16.481-36.811 36.811v11.534c0 16.127 10.375 29.822 24.811 34.799v12.515c0 6.627 5.373 12 12 12 6.627 0 12-5.373 12-12v-12.51c.113-.039.229-.073.342-.113.683-.243.683-80.673 0-80.916z" fill="#f6a96c"/><path d="m233.353 293.698c-14.193 5-24.341 18.293-24.341 33.907v13.101c0 15.614 10.149 28.907 24.342 33.907 14.26-5.073 24.469-18.689 24.469-34.69v-11.534c-.001-16.001-10.21-29.617-24.47-34.691z" fill="#ffbd86"/><path d="m191.056 385.382h-12.544c-12.987 0-23.516 10.528-23.516 23.516v24.778h36.06z" fill="#00b327"/><path d="m250.967 385.382h12.544c12.987 0 23.516 10.528 23.516 23.516v24.778h-36.06z" fill="#00b327"/><path d="m263.511 385.382-18.706-3.508c-7.846-1.471-15.812-2.212-23.794-2.212h-.125c-1.799.002-5.045.104-5.045.104-6.249.25-12.473.955-18.624 2.108l-18.706 3.508v23.642 69.061h85v-44.593z" fill="#00c53b"/><path d="m206.151 340.407v-16.167c0-16.142 11.102-29.686 26.086-33.426-2.68-.669-5.482-1.029-8.369-1.029h-6.37c-19.029 0-34.455 15.426-34.455 34.455v16.167c0 5.475 4.438 9.914 9.914 9.914h23.109c-5.476 0-9.915-4.439-9.915-9.914z" fill="#a44f3e"/><path d="m258.324 340.407v-16.167c0-16.711-11.898-30.64-27.685-33.786-15.786 3.146-27.685 17.075-27.685 33.786v16.167c0 5.475 4.438 9.914 9.914 9.914h35.543c5.474 0 9.913-4.439 9.913-9.914z" fill="#bb5d4c"/><path d="m208.585 420h-30.602c-16.569 0-30 13.431-30 30v34.152c9.907 5.19 20.212 9.721 30.858 13.536 3.288 1.178 6.608-7.691 9.959-6.651 15.951 4.95 32.599 8.313 49.762 9.907.009-.307.023-.613.023-.923v-50.021c0-16.569-13.431-30-30-30z" fill="#00429c"/><path d="m365.025 399.237c-6.627 0-12-5.373-12-12v-24.936c0-6.627 5.373-12 12-12 6.627 0 12 5.373 12 12v24.936c0 6.628-5.373 12-12 12z" fill="#f6a96c"/><path d="m377.366 374.614c-3.858 1.373-8.013 2.12-12.342 2.12-20.33 0-36.811-16.481-36.811-36.811v-11.534c0-20.33 16.481-36.811 36.811-36.811 4.329 0 8.484.747 12.342 2.12.683.243.683 80.673 0 80.916z" fill="#f6a96c"/><path d="m377.366 293.698c-14.193 5-24.341 18.293-24.341 33.907v13.101c0 15.614 10.149 28.907 24.342 33.907 14.26-5.073 24.469-18.689 24.469-34.69v-11.534c-.001-16.001-10.21-29.617-24.47-34.691z" fill="#ffbd86"/><path d="m335.069 385.382h-12.544c-12.987 0-23.516 10.528-23.516 23.516v24.778h36.06z" fill="#c5d3dd"/><path d="m394.98 385.382h12.544c12.987 0 23.516 10.528 23.516 23.516v24.778h-36.06z" fill="#c5d3dd"/><path d="m407.525 385.382-18.706-3.508c-7.846-1.471-15.812-2.212-23.794-2.212h-.125c-1.799.002-5.045.104-5.045.104-6.249.25-12.473.955-18.624 2.108l-18.706 3.508v23.642 40.957h85v-16.489z" fill="#fff"/><path d="m351.576 349.272c0-5.589 3.369-10.386 8.178-12.461v-12.42c0-12.989 8.186-24.802 18.722-30.718 1.154-.648.932-2.354-.329-2.758-3.297-1.056-7.864-1.129-11.51-1.129h-6.37c-19.029 0-34.455 15.493-34.455 34.606v8.552c0 2.173-1.058 4.185-2.791 5.495-3.271 2.473-5.386 6.405-5.386 10.834 0 7.488 6.044 13.558 13.499 13.558h27.596s2.917-.841.772-2.283c-3.62-2.434-7.926-6.576-7.926-11.276z" fill="#465a61"/><path d="m411.243 349.213c0-4.454-2.14-8.407-5.446-10.891-1.741-1.308-2.803-3.326-2.803-5.503v-8.595c0-15.751-10.482-29.048-24.848-33.315-14.367 4.266-24.848 17.563-24.848 33.315v8.595c0 2.178-1.062 4.195-2.803 5.503-3.307 2.484-5.446 6.436-5.446 10.89 0 7.52 6.097 13.617 13.617 13.617h38.961c7.519.001 13.616-6.096 13.616-13.616z" fill="#596c76"/><path d="m361.266 420h-39.27c-16.569 0-30 13.431-30 30 0 0 .003 51.877.003 51.915.315-.039.629-.079.943-.119.366-.047.733 8.103 1.098 8.054 11.671-1.549 23.081-3.92 34.172-7.053 2.09-.59 4.169-9.038 6.236-9.682 20.183-6.29 39.246-15.12 56.818-26.115v-17c0-16.569-13.432-30-30-30z" fill="#00429c"/><path d="m261.5 512c11.034 0 21.893-.742 32.54-2.155v-59.845c0-16.569-13.431-30-30-30h-55.2c-16.569 0-30 13.431-30 30v47.69c25.826 9.255 53.651 14.31 82.66 14.31z" fill="#0055ca"/><path d="m435.96 438.993c-4.39-11.121-15.226-18.993-27.907-18.993h-49.839c-16.569 0-30 13.431-30 30v52.803c41.413-11.694 78.364-34.01 107.746-63.81z" fill="#0055ca"/></g><g/><g/><g/><g/><g/><g/><g/><g/><g/><g/><g/><g/><g/><g/><g/></svg>