<?xml version="1.0" encoding="UTF-8" standalone="no"?>
<svg
   id="Layer_1"
   enable-background="new 0 0 512 512"
   viewBox="0 0 512 512"
   version="1.1"
   sodipodi:docname="pipeline.svg"
   inkscape:version="1.3.2 (091e20e, 2023-11-25)"
   xmlns:inkscape="http://www.inkscape.org/namespaces/inkscape"
   xmlns:sodipodi="http://sodipodi.sourceforge.net/DTD/sodipodi-0.dtd"
   xmlns="http://www.w3.org/2000/svg"
   xmlns:svg="http://www.w3.org/2000/svg">
  <defs
     id="defs1" />
  <sodipodi:namedview
     id="namedview1"
     pagecolor="#505050"
     bordercolor="#eeeeee"
     borderopacity="1"
     inkscape:showpageshadow="0"
     inkscape:pageopacity="0"
     inkscape:pagecheckerboard="0"
     inkscape:deskcolor="#505050"
     inkscape:zoom="0.3428245"
     inkscape:cx="285.86055"
     inkscape:cy="242.10638"
     inkscape:window-width="1440"
     inkscape:window-height="449"
     inkscape:window-x="0"
     inkscape:window-y="25"
     inkscape:window-maximized="0"
     inkscape:current-layer="Layer_1" />
  <path
     d="m106.95 161.55h69.39c-1.53 5.84-2.37 12-2.37 18.37v7.38c0 10.44 7.98 18.93 17.79 18.93h125.2c9.81 0 17.79-8.49 17.79-18.93v-7.38c0-6.37-.84-12.53-2.37-18.37h69.39c8.15 0 14.78-7.01 14.78-15.62v-5.49c0-25.74-17.48-47.14-40.24-50.99 3.76-3.32 6.9-7.65 9.26-12.95 7.29-16.34 5.36-38.39-4.3-49.16-6.85-7.63-15.13-11.19-26.07-11.19-10.97 0-19.27 3.56-26.12 11.19-9.66 10.77-11.59 32.82-4.3 49.15 2.37 5.3 5.51 9.64 9.28 12.96-15.54 2.68-29.07 13.7-35.77 29.16-6.41-3.16-13.4-5.16-20.74-5.76 6.58-4.5 11.93-11.13 15.75-19.67 9.5-21.28 7.06-49.91-5.43-63.83-8.75-9.79-19.39-14.35-33.46-14.35-14.11 0-24.77 4.56-33.56 14.35-12.49 13.92-14.92 42.55-5.43 63.82 3.81 8.55 9.17 15.18 15.75 19.68-7.34.6-14.33 2.6-20.74 5.76-6.71-15.46-20.23-26.48-35.77-29.16 3.77-3.32 6.91-7.66 9.28-12.96 7.29-16.34 5.36-38.39-4.3-49.16-6.85-7.63-15.13-11.19-26.07-11.19-10.97 0-19.27 3.56-26.12 11.19-9.66 10.77-11.59 32.82-4.3 49.15 2.36 5.29 5.5 9.63 9.26 12.95-22.77 3.85-40.24 25.25-40.24 50.99v5.49c0 8.63 6.63 15.64 14.78 15.64zm215.82 25.75c0 3.76-2.65 6.93-5.79 6.93h-125.2c-3.14 0-5.79-3.17-5.79-6.93v-7.38c0-30.48 22.39-55.29 49.91-55.29h36.97c27.52 0 49.91 24.8 49.91 55.29v7.38zm15.27-151.95c4.53-5.05 9.67-7.2 17.19-7.2 7.48 0 12.61 2.15 17.14 7.2 5.82 6.48 8.02 23.36 2.27 36.25-2.76 6.19-8.38 13.57-19.43 13.57-11.06 0-16.68-7.38-19.44-13.58-5.75-12.88-3.54-29.76 2.27-36.24zm3.4 65.47h27.52c19.64 0 35.61 17.77 35.61 39.61v5.49c0 1.96-1.27 3.62-2.78 3.62h-73.72c-4.57-9.77-11.27-18.17-19.43-24.48 5.53-14.45 18.52-24.24 32.8-24.24zm-115.06-12.54c-7.48-16.76-5.89-40.56 3.4-50.92 6.52-7.26 13.88-10.36 24.63-10.36 10.7 0 18.04 3.1 24.56 10.36 9.29 10.36 10.88 34.16 3.4 50.92-3.96 8.88-12.03 19.45-27.99 19.45-15.96.01-24.04-10.57-28-19.45zm-90-52.93c4.53-5.05 9.67-7.2 17.19-7.2 7.48 0 12.61 2.15 17.14 7.2 5.82 6.48 8.02 23.37 2.27 36.25-2.76 6.19-8.38 13.57-19.43 13.57-11.06 0-16.68-7.38-19.44-13.57-5.75-12.88-3.54-29.77 2.27-36.25zm-32.21 105.08c0-21.84 15.98-39.61 35.61-39.61h27.52c14.28 0 27.28 9.79 32.8 24.25-8.17 6.31-14.86 14.71-19.43 24.48h-73.72c-1.51 0-2.78-1.66-2.78-3.62zm174.44 171.96c2.34 2.34 2.34 6.14 0 8.49l-18.37 18.37c-1.17 1.17-2.71 1.76-4.24 1.76s-3.07-.59-4.24-1.76l-18.37-18.37c-2.34-2.34-2.34-6.14 0-8.49 2.34-2.34 6.14-2.34 8.49 0l8.13 8.13v-66.49c0-3.31 2.69-6 6-6s6 2.69 6 6v66.49l8.13-8.13c2.33-2.34 6.13-2.34 8.47 0zm79.94-34.32c2.34 2.34 2.34 6.14 0 8.49l-18.37 18.37c-1.12 1.12-2.65 1.76-4.24 1.76s-3.12-.63-4.24-1.76l-18.37-18.37c-2.34-2.34-2.34-6.14 0-8.49 2.34-2.34 6.14-2.34 8.49 0l8.13 8.13v-36.76c0-3.31 2.69-6 6-6s6 2.69 6 6v36.76l8.13-8.13c2.33-2.35 6.13-2.35 8.47 0zm-159.87 0c2.34 2.34 2.34 6.14 0 8.49l-18.37 18.37c-1.12 1.12-2.65 1.76-4.24 1.76s-3.12-.63-4.24-1.76l-18.37-18.37c-2.34-2.34-2.34-6.14 0-8.49 2.34-2.34 6.14-2.34 8.49 0l8.13 8.13v-36.76c0-3.31 2.69-6 6-6s6 2.69 6 6v36.76l8.13-8.13c2.33-2.35 6.12-2.35 8.47 0zm252.72-4.22v-38.09c0-9-7.32-16.32-16.32-16.32h-358.16c-9 0-16.32 7.32-16.32 16.32v37.93c0 5.57 2.66 10.53 7.31 13.61l158.06 104.66v80.08c0 2.15 1.15 4.13 3.01 5.2.92.53 1.96.8 2.99.8 1.05 0 2.09-.27 3.03-.82l46.68-27.29c14.95 27.99 44.47 47.08 78.36 47.08 48.95 0 88.78-39.82 88.78-88.78 0-38.26-24.32-70.94-58.32-83.39l53.92-37.6c4.43-3.1 6.98-7.98 6.98-13.39zm-14.59 134.37c0 42.33-34.44 76.78-76.78 76.78s-76.78-34.44-76.78-76.78 34.44-76.78 76.78-76.78 76.78 34.45 76.78 76.78zm2.59-134.37c0 1.52-.6 2.68-1.85 3.54l-62.22 43.38c-4.97-.87-10.09-1.32-15.3-1.32-48.95 0-88.78 39.82-88.78 88.78 0 10.78 1.93 21.12 5.47 30.69l-38.76 22.66v-72.84c0-2.09-1.07-3.93-2.69-5l-160.73-106.45c-1.3-.86-1.93-2.04-1.93-3.6v-37.93c0-2.38 1.94-4.32 4.32-4.32h358.16c2.38 0 4.32 1.94 4.32 4.32v38.09zm-79.37 79.97c3.31 0 6 2.69 6 6v7.52c9.56 2.53 16.6 10.96 16.6 20.95 0 3.31-2.69 6-6 6s-6-2.69-6-6c0-5.36-4.75-9.73-10.6-9.73-5.84 0-10.6 4.36-10.6 9.73 0 5.63 6.62 8.61 12.17 10.11 18.3 4.96 21.03 15.72 21.03 21.7 0 9.98-7.04 18.41-16.6 20.95v7.52c0 3.31-2.69 6-6 6s-6-2.69-6-6v-7.52c-9.56-2.53-16.6-10.96-16.6-20.95 0-3.31 2.69-6 6-6s6 2.69 6 6c0 5.36 4.75 9.73 10.6 9.73s10.6-4.36 10.6-9.73c0-5.63-6.62-8.61-12.17-10.11-18.3-4.96-21.03-15.72-21.03-21.69 0-9.98 7.04-18.41 16.6-20.95v-7.52c0-3.32 2.69-6.01 6-6.01z"
     fill="rgb(0,0,0)"
     id="path1"
     style="fill:#ff6400;fill-opacity:1" />
</svg>
