<svg height="471pt" viewBox="0 -3 471.98239 471" width="471pt" xmlns="http://www.w3.org/2000/svg"><path d="m450.664062 150.492188-15.648437 3.34375 11.296875 53.007812 13.488281-13.480469zm0 0" fill="#c7c7c5"/><path d="m160 464.492188-160-160 304-304 144 16 16 144zm0 0" fill="#ffb531"/><path d="m464 160.492188-16-144-37.175781-4.128907c-41.480469 204.679688-256.488281 302.664063-364.097657 338.855469l113.273438 113.273438zm0 0" fill="#ffa912"/><path d="m416 64.492188c0 8.835937-7.164062 16-16 16s-16-7.164063-16-16c0-8.835938 7.164062-16 16-16s16 7.164062 16 16zm0 0" fill="#e8770c"/><g fill="#f98500"><path d="m50.351562 303.636719 51.996094-52 11.3125 11.316406-51.996094 51.996094zm0 0"/><path d="m75.140625 328.4375 52-52 11.3125 11.316406-51.996094 51.996094zm0 0"/><path d="m99.941406 353.234375 52-51.996094 11.3125 11.3125-51.996094 52zm0 0"/><path d="m124.742188 378.035156 52-51.996094 11.3125 11.3125-51.996094 52zm0 0"/><path d="m149.542969 402.835938 52-51.996094 11.3125 11.3125-51.996094 51.996094zm0 0"/></g><path d="m208 144.496094 80-80 112 112-80 80zm0 0" fill="#ffcb73"/><path d="m443.03125 435.523438-75.03125-75.03125-24 24 75.03125 75.03125c6.628906 6.628906 17.375 6.628906 24 0 6.628906-6.628907 6.628906-17.371094 0-24zm0 0" fill="#348fd9"/><path d="m395.328125 387.820312-27.328125-27.328124-24 24 28.472656 28.472656c8.765625-7.261719 16.460938-15.730469 22.855469-25.144532zm0 0" fill="#2d7dbf"/><path d="m400 304.492188c0 66.273437-53.726562 120-120 120s-120-53.726563-120-120c0-66.273438 53.726562-120 120-120s120 53.726562 120 120zm0 0" fill="#348fd9"/><path d="m368 304.492188c0 48.601562-39.398438 88-88 88s-88-39.398438-88-88c0-48.601563 39.398438-88 88-88s88 39.398437 88 88zm0 0" fill="#5ac6d4"/><path d="m352 304.492188c0 39.761718-32.234375 72-72 72s-72-32.238282-72-72c0-39.765626 32.234375-72 72-72s72 32.234374 72 72zm0 0" fill="#60d1e0"/><path d="m288 296.492188h-16c-4.417969 0-8-3.582032-8-8v-8c0-4.417969 3.582031-8 8-8h16c4.417969 0 8 3.582031 8 8h16c0-13.253907-10.746094-24-24-24v-16h-16v16c-13.253906 0-24 10.746093-24 24v8c0 13.253906 10.746094 24 24 24h16c4.417969 0 8 3.582031 8 8v8c0 4.417968-3.582031 8-8 8h-16c-4.417969 0-8-3.582032-8-8h-16c0 13.253906 10.746094 24 24 24v16h16v-16c13.253906 0 24-10.746094 24-24v-8c0-13.253907-10.746094-24-24-24zm0 0" fill="#f35244"/><path d="m192 176.492188h-56l8 40-56-40h-56c-17.671875 0-32-14.328126-32-32v-112c0-17.675782 14.328125-32 32-32h160c17.671875 0 32 14.324218 32 32v112c0 17.671874-14.328125 32-32 32zm0 0" fill="#60d1e0"/><path d="m207.617188 4.722656c-49.328126 86.082032-142.890626 135.929688-199.839844 160.464844 6.019531 7.144531 14.878906 11.277344 24.222656 11.304688h56l56 40-8-40h56c17.671875 0 32-14.328126 32-32v-112c-.027344-11.542969-6.296875-22.164063-16.382812-27.769532zm0 0" fill="#5ac6d4"/><path d="m200 152.492188h-168c-4.417969 0-8-3.582032-8-8v-112h16v104h160zm0 0" fill="#3fb7c7"/><path d="m152 120.492188c-2.371094 0-4.625-1.050782-6.144531-2.871094l-33.144531-39.777344-26.054688 39.085938c-1.433594 2.152343-3.816406 3.476562-6.398438 3.5625-2.585937.015624-5.03125-1.167969-6.625-3.199219l-17.632812-23.464844-17.601562 23.464844-12.796876-9.601563 24-32c1.574219-1.914062 3.921876-3.023437 6.398438-3.023437s4.824219 1.109375 6.398438 3.023437l17.21875 22.960938 25.726562-38.601563c1.398438-2.097656 3.707031-3.414062 6.226562-3.550781 2.519532-.136719 4.957032.925781 6.574219 2.863281l32.527344 39.039063 34.335937-61.792969 13.984376 7.761719-40 72c-1.28125 2.304687-3.613282 3.832031-6.238282 4.082031-.25.027344-.503906.039063-.753906.039063zm0 0" fill="#f35244"/><path d="m459.800781 193.363281-13.488281 13.480469 9.472656 44.464844c.765625 3.964844-.695312 8.035156-3.816406 10.605468-3.117188 2.566407-7.394531 3.222657-11.140625 1.710938-3.746094-1.515625-6.363281-4.957031-6.820313-8.972656l-27.609374-187.425782c-.375-2.863281-2.269532-5.300781-4.949219-6.378906-2.683594-1.074218-5.738281-.621094-7.988281 1.1875-2.253907 1.808594-3.355469 4.691406-2.886719 7.542969l27.5625 187.199219c1.207031 9.84375 7.710937 18.234375 16.941406 21.859375s19.707031 1.90625 27.292969-4.484375c7.582031-6.390625 11.058594-16.421875 9.054687-26.132813zm0 0" fill="#d6d6d4"/></svg>