<svg id="Layer_1" enable-background="new 0 0 68 68" height="512" viewBox="0 0 68 68" width="512" xmlns="http://www.w3.org/2000/svg"><g id="_x31_6"><g><g><g><path d="m66 59.440731v2.2333984c0 .2666016-.2200089.4866524-.4866562.4866524h-63.0266902c-.2666421.0000001-.4866536-.2200508-.4866536-.4866523v-2.2333985c0-.2666016.2200115-.4866562.4866536-.4866562h63.0266914c.2666461.0000001.486655.2200547.486655.4866562z" fill="#ba7160"/></g></g><g><g><g><path d="m44.7908134 58.9540749h-26.782732c3.8144646-8.439003 3.8144646-19.1471596 0-27.5861645h22.9397564c2.4104462 0 4.5330467 1.614706 5.1486168 3.9452229 2.0239945 7.6627006 1.5887795 16.4708518-1.3056412 23.6409416z" fill="#70afff"/></g></g><g><g><path d="m22.7677822 55.6207428c1.9316406-6.7389336 1.9316406-14.1803398 0-20.9192696h18.1800137c.9065742 0 1.6985664.6015625 1.9257813 1.4628906 1.6666641 6.3098946 1.4908829 13.4199219-.4244804 19.4563789h-19.6813146z" fill="#2b9bed"/></g></g><g><g><path d="m18.0080814 58.9540749h-8.0346202c-2.9165568-7.2116356-2.6137786-16.0803719-.3341303-23.774025.6702318-2.2619896 2.7512255-3.8121395 5.1104202-3.8121395h3.2583303c3.8144646 8.4390049 3.8144646 19.1471615 0 27.5861645z" fill="#2b9bed"/></g></g><g><g><g><g><path d="m37.5316582 24.0479736v-14.7434587c0-1.9138308-1.5514641-3.4652972-3.4652939-3.4652972h-17.9749241c-1.9138317 0-3.4652977 1.5514665-3.4652977 3.4652972v14.7434587c0 1.9138317 1.551466 3.4652977 3.4652977 3.4652977h17.9749241c1.9138298 0 3.4652939-1.551466 3.4652939-3.4652977z" fill="#2b9bed"/></g></g></g><g><g><g><path d="m41.5043602 24.0479736v-14.7434587c0-1.9138308-1.5514679-3.4652972-3.4652977-3.4652972h-17.9749241c-1.9138317 0-3.4652977 1.5514665-3.4652977 3.4652972v14.7434587c0 1.9138317 1.551466 3.4652977 3.4652977 3.4652977h17.9749241c1.9138298 0 3.4652977-1.551466 3.4652977-3.4652977z" fill="#70afff"/></g></g></g></g><g><g><path d="m18.154 27.513h5.258v3.855h-5.258z" fill="#18293d" transform="matrix(-1 0 0 -1 41.566 58.881)"/></g></g><g><g><path d="m21.836 27.513h14.222v3.855h-14.222z" fill="#253858"/></g></g></g><g><g><g><g><g><path d="m38.0961609 24.0479736v-14.7434587c0-1.9138308-1.5514641-3.4652972-3.4652977-3.4652972h-17.9749222c-1.9138298 0-3.4652967 1.5514665-3.4652967 3.4652972v14.7434587c0 1.9138317 1.5514669 3.4652977 3.4652967 3.4652977h17.9749222c1.9138336 0 3.4652977-1.551466 3.4652977-3.4652977z" fill="#2b9bed"/></g></g></g><g><g><g><path d="m41.8970413 24.0479736v-14.7434587c0-1.9138308-1.5514679-3.4652972-3.4652977-3.4652972h-17.9749222c-1.9138317 0-3.4652977 1.5514665-3.4652977 3.4652972v14.7434587c0 1.9138317 1.551466 3.4652977 3.4652977 3.4652977h17.9749222c1.9138298 0 3.4652977-1.551466 3.4652977-3.4652977z" fill="#70afff"/></g></g></g></g><g><g><ellipse cx="11.692" cy="40.437" fill="#253858" rx="6.451" ry="4.164" transform="matrix(.104 -.995 .995 .104 -29.739 47.875)"/></g></g><g><g><ellipse cx="10.773" cy="40.341" fill="#18293d" rx="5.019" ry="3.24" transform="matrix(.104 -.995 .995 .104 -30.468 46.875)"/></g></g><g><g><path d="m14.7842617 46.8677673c2.3073444-.0055542 4.3491249-2.8891258 4.5604439-6.4406395s-1.4878464-6.4260788-3.7951918-6.4205246h-3.4744463c2.3073454-.0055542 4.0065098 2.8690109 3.7951918 6.4205246s-2.2530985 6.4350853-4.5604439 6.4406395z" fill="#18293d"/></g></g></g><g><g><path d="m53.079998 54.947403v4.0066719h-24.6399746c0-1.1067696.4466553-2.1067696 1.1732979-2.8333321.7266846-.7267265 1.7266846-1.1733398 2.833334-1.1733398z" fill="#18293d"/></g></g><g><g><g><path d="m39.1537209 58.9540749h19.8913421c.6207848 0 1.1485634-.4532814 1.2422981-1.0669518l3.0829391-20.7818794c.1162148-.7608452-.4726257-1.4464607-1.2422981-1.4464607h-19.8913421c-.6207848 0-1.1485634.4532814-1.2422981 1.0669518l-3.0829391 20.7818794c-.1162148.7608451.4726257 1.4464607 1.2422981 1.4464607z" fill="#18293d"/></g></g><g><g><path d="m41.7687454 58.9540749h19.8913422c.6207848 0 1.1485634-.4532814 1.2422981-1.0669518l3.082943-20.7818794c.1162109-.7608452-.4726334-1.4464607-1.2423019-1.4464607h-19.8913422c-.6207848 0-1.1485596.4532814-1.2422981 1.0669518l-3.0829391 20.7818794c-.1162149.7608451.4726256 1.4464607 1.242298 1.4464607z" fill="#253858"/></g></g></g><g><g><path d="m37.0379143 24.8090572h-14.8436241c-.8937817 0-1.640358-.6809826-1.7223206-1.5709991l-1.0924511-11.8626795c-.0933437-1.0135832.7044487-1.8882198 1.7223206-1.8882198h17.0285244c1.0178719 0 1.8156662.8746367 1.7223244 1.8882198l-1.092453 11.8626795c-.0819627.8900165-.8285409 1.5709991-1.7223206 1.5709991z" fill="#253858"/></g></g><g><g><g><path d="m34.0054893 13.234025v3.2267256c0 .3666992-.3000107.6733398-.6733398.6733398h-1.4933281c-.3733311 0-.6733398-.3066406-.6733398-.6733398v-3.2267256c0-.373373.3000088-.6733398.6733398-.6733398h1.4933281c.3733292 0 .6733398.2999668.6733398.6733398z" fill="#fec400"/></g></g><g><g><path d="m26.1367149 13.234025v3.2267256c0 .3666992-.3000088.6733398-.6733398.6733398h-1.4933281c-.3733311 0-.6733398-.3066406-.6733398-.6733398v-3.2267256c0-.373373.3000088-.6733398.6733398-.6733398h1.4933281c.3733311 0 .6733398.2999668.6733398.6733398z" fill="#fec400"/></g></g></g><g><g><path d="m27.1666203 20.5606499c.2068691 1.2576504 1.2909756 2.2197266 2.6072598 2.2197266s2.4003487-.9620762 2.6072197-2.2197266z" fill="#fec400"/></g></g><g><g><path d="m7.2350984 58.9280357h-.0000067c-1.8347263-.2286072-3.1367435-1.901268-2.9081364-3.7359962l2.0784202-16.6807213c.2286072-1.8347282 1.901269-3.1367455 3.7359953-2.9081383l.0000086.0000038c1.8347263.2286034 3.1367435 1.901268 2.9081364 3.7359924l-2.0784206 16.6807251c-.2286073 1.8347245-1.90127 3.1367417-3.7359968 2.9081345z" fill="#fec400"/></g></g><g><g><path d="m23.8461094 52.3824615-16.1412754-.1253242c-1.8488364-.0143242-3.3592935 1.4728165-3.3736167 3.3217773-.0143633 1.848793 1.4728193 3.359211 3.3216553 3.3735352l16.1932373.1258125v-6.6958008z" fill="#fec400"/></g></g><g><g><ellipse cx="7.091" cy="54.36" fill="#253858" rx="4.126" ry="4.594"/></g></g><g><g><ellipse cx="7.091" cy="54.36" fill="#deebfe" rx="2.52" ry="2.805"/></g></g><g><g><path d="m7.0913658 49.7665634c2.278842 0 4.1262083 2.0566978 4.1262083 4.5937576 0 2.5370636-1.8473663 4.5937614-4.1262083 4.5937614h1.4257345c2.278842 0 4.1262083-2.0566978 4.1262083-4.5937614 0-2.5370598-1.8473663-4.5937576-4.1262083-4.5937576z" fill="#18293d"/></g></g><g><g><g><path d="m30.2763653 60.5679092c-1.3485718 0-2.6969032-.513176-3.7234917-1.5400009-.9947224-.9949608-1.5426178-2.3171349-1.5426178-3.7234917 0-1.4068336.5478954-2.7290077 1.5426178-3.7234917 2.053175-2.0531769 5.3940449-2.0531769 7.4467449 0l-1.7216797 1.7216797c-1.1038742-1.1029205-2.8995113-1.1038704-4.0033836 0-.5345783.5345802-.8292141 1.2456055-.8292141 2.001812 0 .7557335.2946358 1.4667587.8294506 2.001812 1.1038742 1.1038704 2.8997478 1.1029205 4.0031471 0l1.7216797 1.7216797c-1.0265884 1.026825-2.3749199 1.5400009-3.7232532 1.5400009z" fill="#fec400"/></g></g></g><g><g><path d="m25.2088375 59.0818748h-4.7424107c-.7766209 0-1.4061947-.6295738-1.4061947-1.4061928v-4.7424126c0-.776619.6295738-1.4061928 1.4061947-1.4061928h4.7424107c.7766209 0 1.4061947.6295738 1.4061947 1.4061928v4.7424126c0 .776619-.6295738 1.4061928-1.4061947 1.4061928z" fill="#253858"/></g></g></g><g><g><path d="m56.6733398 48.1007233c-.2666817 1.6199532-1.5533447 2.9399414-2.873333 2.9399414-1.3199844 0-2.1733398-1.3199883-1.9066544-2.9399414.2666397-1.6266289 1.5533028-2.9399414 2.8733292-2.9399414 1.3199883 0 2.1733399 1.3133125 1.9066582 2.9399414z" fill="#18293d"/></g></g></g></svg>