<svg id="color" viewBox="0 0 256 256" xmlns="http://www.w3.org/2000/svg"><path d="m131.5907 181.0014c6.4715 0 6.4715 6.6 12.943 6.6s6.4717-6.6 12.9434-6.6 6.4725 6.6 12.9449 6.6 6.4726-6.6 12.9452-6.6 6.4725 6.6 12.9449 6.6 6.4728-6.6 12.9456-6.6 6.4737 6.6 12.9474 6.6 5.9237-6.6 12.3974-6.6l-56.3633-75.8168h-102.5824l2.3789 76.3488" fill="#da4038"/><path d="m194.9276 198.7746-1.3419.229c-6.2589 0-6.26 4.4011-12.5171 4.4022-2.5888 0-4.18-.9477-6.1933-2.1507-1.8907-1.13-5.0764-2.8862-7.3623-2.4961-6.26 0-6.26 4.4021-12.5191 4.4022-4.2487 0-8.2987-3.3655-12.1182-4.6518 5.4837 7.0431 23.5027 32.7057 24.1466 32.7385 5.6312.2871 5.8453 4.384 11.8832 4.3851 2.7271 0 4.3208-1.0551 6.4256-2.3161a11.8241 11.8241 0 0 1 10.5389-1.2752c3.3643 1.2555 5.0606 3.8358 9.1107 3.8359 6.26 0 6.26-4.4023 12.5195-4.4023l1.3728-.2343z" fill="#da4038"/><path d="m208.534 158.41a7.6415 7.6415 0 0 1 5.0652-1.8063h2.2v-.8952l-2.5986-3.4955a11.937 11.937 0 0 0 -7.1808 2.5865 8.0047 8.0047 0 0 1 -10.13 0 12.2773 12.2773 0 0 0 -5.5612-2.45l-12.79-17.43a9.3442 9.3442 0 0 0 3.3654.5886c4.1 0 6.2133-2.2059 7.9111-3.9778 1.458-1.5222 2.5115-2.6222 4.7338-2.6222h2.2v-.1706l-3.1125-4.1868c-3.5083.3-5.4324 2.3-6.9988 3.9358-1.458 1.5222-2.5116 2.6216-4.7336 2.6216s-3.2755-1.1-4.7335-2.6216c-1.4368-1.5-3.1759-3.3051-6.16-3.8263l-14.2909-19.4754h-5.4577l14.6162 19.9187a12.4113 12.4113 0 0 0 -4.5289 3.383c-1.458 1.5222-2.5113 2.6216-4.7327 2.6216s-3.2748-1.0994-4.7325-2.6216a12.044 12.044 0 0 0 -4.8192-3.4853l-14.5412-19.8164h-5.4577l14.41 19.6378a11.4282 11.4282 0 0 0 -5.412 3.6639c-1.4577 1.5222-2.511 2.6216-4.7325 2.6216s-3.2745-1.0994-4.7322-2.6216a11.1787 11.1787 0 0 0 -5.7073-3.7388l-14.3345-19.5629h-5.4548l14.5156 19.81a12.0225 12.0225 0 0 0 -4.8385 3.4917c-1.4574 1.5222-2.51 2.6216-4.7314 2.6216s-3.2737-1.0994-4.7311-2.6216c-1.6975-1.7724-3.81-3.9784-7.91-3.9784h-2.2v4.4h2.2c2.221 0 3.274 1.0995 4.7314 2.6217 1.6976 1.7724 3.81 3.9783 7.9092 3.9783s6.212-2.2059 7.9095-3.9783c1.4121-1.4748 2.454-2.5435 4.537-2.6092l17.3 23.61a12.8834 12.8834 0 0 0 -4.633 2.2687 7.9986 7.9986 0 0 1 -10.1258 0 11.9115 11.9115 0 0 0 -7.5775-2.5958h-2.2v4.4h2.2a7.6357 7.6357 0 0 1 5.0627 1.8063 12.3584 12.3584 0 0 0 15.1554 0 7.636 7.636 0 0 1 5.0631-1.8063c.0145 0 .0263.0016.0407.0017l18.002 24.568a8.056 8.056 0 0 1 1.6949-.1717 7.17 7.17 0 0 1 4.9162 1.8122l.03-.0219-16.5749-22.62a11.705 11.705 0 0 0 4.5337.8342 11.9154 11.9154 0 0 0 7.5786-2.5958 7.638 7.638 0 0 1 5.0639-1.8063c.2835 0 .5453.0131.7964.0333l17.9859 24.5107a8.1326 8.1326 0 0 1 1.56-.146 7.2567 7.2567 0 0 1 5.1528 2.018l.0767-.0563-16.4671-22.4424a12.2718 12.2718 0 0 0 3.5384.4843 11.9156 11.9156 0 0 0 7.5789-2.5958 7.6926 7.6926 0 0 1 4.7555-1.7935l18.3112 24.9538a7.3379 7.3379 0 0 1 2.9447-.5689 7.6183 7.6183 0 0 1 2.3518.3493l-15.7075-21.4056a11.5 11.5 0 0 0 5.0528 1.0607 11.9163 11.9163 0 0 0 7.5792-2.5955zm-53.0882-3.61a8.0012 8.0012 0 0 1 -10.1277 0 12.5064 12.5064 0 0 0 -5.1489-2.3783l-12.6983-17.33a9.5439 9.5439 0 0 0 2.86.4166c4.1 0 6.2125-2.2059 7.91-3.9783 1.4577-1.5222 2.5113-2.6217 4.7328-2.6217.1863 0 .3535.0187.5244.0337l17.214 23.459a12.4391 12.4391 0 0 0 -5.2663 2.3982zm25.286 0a8.0028 8.0028 0 0 1 -10.1288 0 13.2376 13.2376 0 0 0 -4.27-2.1762l-12.7009-17.3085a10.0022 10.0022 0 0 0 1.9837.1933c4.1 0 6.2127-2.2059 7.91-3.9783 1.3267-1.3851 2.3282-2.41 4.17-2.5855l17.3642 23.6618a13.1731 13.1731 0 0 0 -4.3282 2.1926z" fill="#ac1e22"/><circle cx="180.349" cy="74.896" fill="#d5dee2" r="48.754"/><circle cx="180.349" cy="74.896" fill="none" r="48.754"/><path d="m186.136 76.548h11.503v26.479h-11.503z" fill="#7e8c8e" transform="matrix(.866 -.5 .5 .866 -19.186 107.973)"/><path d="m195.147 79.36-4.187-11.818-17.874 10.32 8.14 9.535z" fill="#657172"/><path d="m174.7794 58.9166-18.3 10.5655 8.0375 13.9215 28.1807-16.27a22.6718 22.6718 0 0 1 18.3468-1.9263l4.9948 1.6241-2.4062-4.1675a22.6719 22.6719 0 0 0 -30.97-8.2985z" fill="#7e8c8e"/><path d="m149.242 67.685h14.412v22.194h-14.412z" fill="#657172" transform="matrix(.866 -.5 .5 .866 -18.431 88.778)"/><path d="m191.869 94.096h18.364v23.128h-18.364z" fill="#88472b" transform="matrix(.866 -.5 .5 .866 -25.894 114.681)"/><path d="m180.3485 129.1494a54.2537 54.2537 0 1 1 54.254-54.2534 54.3149 54.3149 0 0 1 -54.254 54.2534zm0-97.5074a43.2537 43.2537 0 1 0 43.254 43.254 43.3028 43.3028 0 0 0 -43.254-43.254z" fill="#2184ce"/><path d="m114.173 181.533h-95.244l56.728-76.348 56.728 76.348h-104.303" fill="#7e8c8e"/><path d="m114.173 181.533h3.169l-41.685-55.84-41.344 55.84z" fill="#88472b"/></svg>