<svg id="Capa_1" enable-background="new 0 0 512 512" viewBox="0 0 512 512" xmlns="http://www.w3.org/2000/svg"><g><g><path d="m403.772 143.61 4.82-13.702-7.039-45.613-9.291-12.764-17.052-4.341-8.2-.589h-1.741-18.732c-18.391 0-33.301 14.909-33.301 33.301l-9.666 20.432 9.666 23.275 57.236 17.686 29.379-9.078z" fill="#fd8087"/></g><g><path d="m394.406 66.602h-29.138c18.392 0 33.301 14.909 33.301 33.301v52.711l29.138-9.004v-43.708c0-18.391-14.909-33.3-33.301-33.3z" fill="#fe646f"/></g><g><path d="m284.098 152.614 10.932-30.777v-27.406l-2.628-13.703-11.45-8.916-15.58-4.13-12.365-1.081h-2.21-18.732c-18.392 0-33.301 14.909-33.301 33.301l-14.294 19.306 14.294 24.401 57.236 22.338 28.098-10.966z" fill="#ffe177"/></g><g><path d="m279.935 66.602h-29.138c18.392 0 33.301 14.909 33.301 33.301v61.393l29.138-17.686v-43.708c0-18.391-14.91-33.3-33.301-33.3z" fill="#ffd15b"/></g><g><path d="m179.056 125.778-4.227-49.179-26.962-8.822-8.046-1.095-2.09-.08h-1.406-18.732c-18.392 0-33.301 14.909-33.301 33.301v43.707l57.236 17.686 28.998-8.96z" fill="#8ac9fe"/></g><g><path d="m165.463 66.602h-29.138c18.392 0 33.301 14.909 33.301 33.301v61.393l29.138-17.686v-43.708c0-18.391-14.909-33.3-33.301-33.3z" fill="#60b7ff"/></g><g><path d="m234.588 55.951h45.814c5.519-5.943 8.899-13.9 8.899-22.65 0-18.392-14.909-33.301-33.301-33.301s-33.301 14.909-33.301 33.301c0 5.066 1.136 9.865 3.16 14.164z" fill="#ffbd86"/></g><g><path d="m270.164 3.16c2.024 4.299 3.16 9.098 3.16 14.164 0 18.392-14.909 33.301-33.301 33.301-5.066 0-9.865-1.136-14.164-3.16 5.323 11.307 16.815 19.137 30.141 19.137 18.392 0 33.301-14.909 33.301-33.301 0-13.326-7.83-24.818-19.137-30.141z" fill="#f6a96c"/></g><g><path d="m340.331 47.464 6.693 7.173h49.01c4.829-5.779 7.738-13.217 7.738-21.336 0-18.392-14.909-33.301-33.3-33.301s-33.301 14.909-33.301 33.301c0 5.066 1.136 9.865 3.16 14.163z" fill="#ffbd86"/></g><g><path d="m384.635 3.16c2.024 4.299 3.16 9.098 3.16 14.164 0 18.392-14.909 33.301-33.301 33.301-5.066 0-9.865-1.136-14.164-3.16 5.323 11.307 16.815 19.137 30.141 19.137 18.392 0 33.301-14.909 33.301-33.301 0-13.326-7.829-24.818-19.137-30.141z" fill="#f6a96c"/></g><g><path d="m118.163 54.45h49.088c4.734-5.752 7.578-13.118 7.578-21.149 0-18.392-14.909-33.301-33.301-33.301s-33.301 14.909-33.301 33.301c0 5.066 1.136 9.865 3.16 14.164z" fill="#ffbd86"/></g><g><path d="m155.692 3.16c2.024 4.299 3.16 9.098 3.16 14.164 0 18.392-14.909 33.301-33.301 33.301-5.066 0-9.865-1.136-14.164-3.16 5.323 11.307 16.815 19.137 30.141 19.137 18.392 0 33.301-14.909 33.301-33.301 0-13.326-7.83-24.818-19.137-30.141z" fill="#f6a96c"/></g><path d="m64.52 164.423v48.22c0 7.501 4.036 14.421 10.564 18.115l147.615 83.519v54.114h66.602v-54.114l147.615-83.519c6.528-3.694 10.564-10.614 10.564-18.115v-48.22z" fill="#bbec6c"/><path d="m447.48 164.423h-29.138v33.651c0 7.501-4.036 14.421-10.564 18.115l-141.276 79.933c-3.917 2.216-6.338 6.368-6.338 10.869v61.4h29.138v-54.114l147.615-83.519c6.528-3.693 10.564-10.614 10.564-18.115v-48.22z" fill="#a2e62e"/><path d="m430.765 176.911 3.871-1.038 7.602-4.857 4.927-4.787.314-13.207-7.212-6.784-7.931-2.253-1.83-.282-1.523-.094h-373.829c-9.196 0-16.65 7.455-16.65 16.65 0 9.196 7.455 16.65 16.65 16.65h372.553 3.058z" fill="#d1f19e"/><path d="m456.846 143.61h-29.138c9.196 0 16.65 7.455 16.65 16.65s-7.455 16.65-16.65 16.65h29.138c9.196 0 16.65-7.455 16.65-16.65s-7.455-16.65-16.65-16.65z" fill="#bbec6c"/><g><circle cx="256" cy="431.87" fill="#ffe177" r="80.13"/></g><g><path d="m301.412 365.859c8.898 12.909 14.119 28.548 14.119 45.412 0 44.255-35.876 80.13-80.13 80.13-16.864 0-32.503-5.221-45.412-14.119 14.451 20.966 38.62 34.718 66.011 34.718 44.255 0 80.13-35.875 80.13-80.13 0-27.391-13.752-51.56-34.718-66.011z" fill="#ffd15b"/></g><g><g><path d="m432.304 324.354c-6.631-6.035-16.958-5.452-23.297.888l-7.003 7.003v-107.748c0-9.196-7.455-16.65-16.65-16.65-9.196 0-16.65 7.455-16.65 16.65v107.748l-7.003-7.003c-6.34-6.34-16.667-6.922-23.297-.888-7.079 6.443-7.273 17.412-.582 24.102 0 0 35.759 35.76 35.759 35.76 3.122 3.123 7.358 4.877 11.773 4.877s8.651-1.754 11.773-4.877l35.759-35.76c6.692-6.691 6.498-17.659-.582-24.102z" fill="#fe646f"/></g><g><path d="m79.696 324.354c6.631-6.035 16.958-5.452 23.297.888l7.003 7.003v-107.748c0-9.196 7.455-16.65 16.65-16.65 9.196 0 16.65 7.455 16.65 16.65v107.748l7.003-7.003c6.34-6.34 16.667-6.922 23.297-.888 7.079 6.443 7.273 17.412.582 24.102 0 0-35.759 35.76-35.759 35.76-3.122 3.123-7.358 4.877-11.773 4.877s-8.651-1.754-11.773-4.877l-35.759-35.76c-6.692-6.691-6.498-17.659.582-24.102z" fill="#fd8087"/></g></g><g><path d="m265.367 424.417c-6.138-2.169-12.919-4.785-16.683-7.737-1.733-1.359-2.713-4.063-2.332-6.43.373-2.313 1.999-4.003 4.83-5.021 6.768-2.431 12.622 2.603 12.968 2.908 3.039 2.772 7.749 2.582 10.551-.438 2.818-3.036 2.642-7.781-.394-10.599-2.329-2.162-6.295-4.776-11.228-6.288v-1.607c0-4.142-3.358-7.5-7.5-7.5s-7.5 3.358-7.5 7.5v1.291c-.654.179-1.31.381-1.972.619-8.002 2.877-13.311 8.981-14.564 16.747-1.256 7.786 1.838 15.881 7.883 20.622 5.456 4.279 13.289 7.372 20.941 10.077 6.215 2.197 6.397 6.963 5.953 9.608-.738 4.388-4.429 9.13-10.792 9.172-6.555.046-8.424-.253-13.387-3.498-3.466-2.269-8.115-1.296-10.382 2.171-2.268 3.466-1.295 8.114 2.171 10.382 5.374 3.516 9.386 5.02 14.148 5.609v2.534c0 4.142 3.358 7.5 7.5 7.5s7.5-3.358 7.5-7.5v-3.295c10.104-3.03 16.568-11.868 18.034-20.587 1.963-11.674-4.365-22.218-15.745-26.24z" fill="#feb237"/></g></g><g/><g/><g/><g/><g/><g/><g/><g/><g/><g/><g/><g/><g/><g/><g/></svg>