<?xml version="1.0" encoding="UTF-8" standalone="no"?>
<!-- Generator: Adobe Illustrator 16.0.0, SVG Export Plug-In . SVG Version: 6.00 Build 0)  -->

<svg
   version="1.1"
   id="Capa_1"
   x="0px"
   y="0px"
   width="612.01px"
   height="612.01px"
   viewBox="0 0 612.01 612.01"
   style="enable-background:new 0 0 612.01 612.01;"
   xml:space="preserve"
   sodipodi:docname="search-interface-symbol.svg"
   inkscape:version="1.3.2 (091e20e, 2023-11-25)"
   xmlns:inkscape="http://www.inkscape.org/namespaces/inkscape"
   xmlns:sodipodi="http://sodipodi.sourceforge.net/DTD/sodipodi-0.dtd"
   xmlns="http://www.w3.org/2000/svg"
   xmlns:svg="http://www.w3.org/2000/svg"><defs
   id="defs17" /><sodipodi:namedview
   id="namedview17"
   pagecolor="#505050"
   bordercolor="#eeeeee"
   borderopacity="1"
   inkscape:showpageshadow="0"
   inkscape:pageopacity="0"
   inkscape:pagecheckerboard="0"
   inkscape:deskcolor="#505050"
   inkscape:zoom="0.38561461"
   inkscape:cx="306.005"
   inkscape:cy="306.005"
   inkscape:window-width="1440"
   inkscape:window-height="449"
   inkscape:window-x="0"
   inkscape:window-y="25"
   inkscape:window-maximized="0"
   inkscape:current-layer="Capa_1" />
<g
   id="g2"
   style="fill:#ffffff;fill-opacity:1">
	<g
   id="_x34__4_"
   style="fill:#ffffff;fill-opacity:1">
		<g
   id="g1"
   style="fill:#ffffff;fill-opacity:1">
			<path
   d="M606.209,578.714L448.198,423.228C489.576,378.272,515,318.817,515,253.393C514.98,113.439,399.704,0,257.493,0     C115.282,0,0.006,113.439,0.006,253.393s115.276,253.393,257.487,253.393c61.445,0,117.801-21.253,162.068-56.586     l158.624,156.099c7.729,7.614,20.277,7.614,28.006,0C613.938,598.686,613.938,586.328,606.209,578.714z M257.493,467.8     c-120.326,0-217.869-95.993-217.869-214.407S137.167,38.986,257.493,38.986c120.327,0,217.869,95.993,217.869,214.407     S377.82,467.8,257.493,467.8z"
   id="path1"
   style="fill:#ffffff;fill-opacity:1" />
		</g>
	</g>
</g>
<g
   id="g3">
</g>
<g
   id="g4">
</g>
<g
   id="g5">
</g>
<g
   id="g6">
</g>
<g
   id="g7">
</g>
<g
   id="g8">
</g>
<g
   id="g9">
</g>
<g
   id="g10">
</g>
<g
   id="g11">
</g>
<g
   id="g12">
</g>
<g
   id="g13">
</g>
<g
   id="g14">
</g>
<g
   id="g15">
</g>
<g
   id="g16">
</g>
<g
   id="g17">
</g>
</svg>
