<svg id="Layer_1" enable-background="new 0 0 513.341 513.341" height="512" viewBox="0 0 513.341 513.341" width="512" xmlns="http://www.w3.org/2000/svg"><g><path d="m246.34 22.673c-135.309 0-244.999 109.69-244.999 244.999 0 14.453 1.262 28.61 3.662 42.375l201.957 199.458c12.822 2.072 25.972 3.166 39.379 3.166 135.309 0 244.999-109.689 244.999-244.998s-109.689-245-244.998-245z" fill="#746bf9"/><circle cx="316.245" cy="59.887" fill="#42c3fc" r="59.216"/><path d="m342.161 113.139c-.426-.353-.906-.654-1.46-.847-15.587-5.427-14.303-17.694-12.518-23.836.589-2.026-.177-4.172-1.893-5.399-6.109-4.364-4.181-11.18-2.856-14.279.479-1.122.534-2.379.119-3.526l-10.847-29.994c-.448-1.237-1.39-2.218-2.582-2.777-13.431-6.301-11.372-21.226-9.908-27.238.192-.787.17-1.593-.03-2.35-24.898 7.002-43.157 29.858-43.157 56.994 0 32.704 26.512 59.216 59.216 59.216 9.295 0 18.088-2.147 25.916-5.964z" fill="#1aa9e8"/><path d="m316.245 33.063c-17.581 0-32.92 9.596-41.067 23.835-1.06 1.853-1.06 4.125 0 5.978 8.147 14.239 23.487 23.835 41.067 23.835 17.581 0 32.92-9.596 41.068-23.835 1.06-1.853 1.06-4.125 0-5.978-8.148-14.239-23.487-23.835-41.068-23.835z" fill="#e9efff"/><path d="m326.29 83.058c-6.109-4.364-4.181-11.18-2.856-14.279.479-1.122.534-2.379.119-3.526l-10.847-29.994c-.272-.753-.744-1.395-1.327-1.92-15.515 1.589-28.816 10.654-36.201 23.56-1.06 1.853-1.06 4.125 0 5.978 8.147 14.239 23.486 23.835 41.067 23.835 4.059 0 7.991-.533 11.75-1.495-.349-.844-.922-1.6-1.705-2.159z" fill="#bec8f7"/><ellipse cx="446.53" cy="143.353" fill="#ff4155" rx="59.216" ry="59.216" transform="matrix(.23 -.973 .973 .23 204.42 545.002)"/><path d="m466.17 163.531c-.159-1.968-1.61-3.562-3.52-4.064-1.609-.423-2.664-1.419-3.198-2.051-.226-.268-.411-.562-.564-.877-.931-1.91-6.293-12.015-18.476-18.558-9.406-5.051-8.577-12.119-7.209-15.941.611-1.708.153-3.603-1.145-4.869-11.572-11.296-6.058-23.417-2.81-28.509.424-.665.657-1.409.718-2.162-24.64 7.167-42.653 29.899-42.653 56.851 0 32.704 26.512 59.216 59.216 59.216 17.646 0 33.479-7.727 44.328-19.972-20.394.872-24.13-12.165-24.687-19.064z" fill="#e80054"/><path d="m478.318 129.711c-5.355-9.808-17.926-13.054-27.675-7.591l-2.382 1.335c-1.075.603-2.386.603-3.461 0l-2.814-1.576c-9.815-5.5-22.233-1.794-27.43 8.184h-.001c-4.903 9.415-1.603 21.065 7.577 26.395 7.742 4.496 15.081 10.129 21.249 16.858 1.686 1.839 4.613 1.839 6.299-.001 6.168-6.728 13.505-12.36 21.249-16.857 9.293-5.398 12.561-17.273 7.389-26.747z" fill="#e9efff"/><path d="m422.131 156.457c7.742 4.496 15.081 10.129 21.249 16.858 1.686 1.839 4.613 1.839 6.299-.001 4.453-4.858 9.521-9.135 14.907-12.835-.548-.469-1.208-.82-1.936-1.012-1.609-.423-2.664-1.419-3.198-2.051-.226-.268-.411-.562-.564-.877-.931-1.91-6.293-12.015-18.476-18.558-9.406-5.051-8.577-12.119-7.209-15.941.313-.874.342-1.796.125-2.659-7.556-.407-15.034 3.5-18.773 10.68h-.001c-4.903 9.416-1.603 21.066 7.577 26.396z" fill="#bec8f7"/><ellipse cx="454.124" cy="295.447" fill="#ffb332" rx="59.216" ry="59.216" transform="matrix(.707 -.707 .707 .707 -75.903 407.649)"/><path d="m465.772 330.393-14.181-64.031c-20.871-7.775-12.464-28.152-12.437-28.219-25.455 6.632-44.246 29.772-44.246 57.304 0 32.704 26.512 59.216 59.216 59.216 7.722 0 15.091-1.494 21.855-4.182-14.7-4.912-10.207-20.088-10.207-20.088z" fill="#ff9100"/><path d="m427.523 266.362h53.201c4.701 0 8.548 3.847 8.548 8.548v37.809c0 4.702-3.847 8.548-8.548 8.548h-7.609c-.848 0-1.64.427-2.105 1.137l-5.24 7.989c-1.273 1.942-4.12 1.942-5.393 0l-5.24-7.989c-.465-.709-1.256-1.137-2.105-1.137h-25.511c-4.701 0-8.548-3.847-8.548-8.548v-37.809c.002-4.702 3.849-8.548 8.55-8.548z" fill="#e9efff"/><g><path d="m443.043 312.718v-37.808c0-4.702 3.847-8.548 8.548-8.548h-24.068c-4.701 0-8.548 3.847-8.548 8.548v37.809c0 4.701 3.847 8.548 8.548 8.548h24.068c-4.701 0-8.548-3.847-8.548-8.549z" fill="#bec8f7"/></g><path d="m301.257 35.49c-3.137 3.536-5.045 8.187-5.045 13.286 0 11.064 8.969 20.033 20.033 20.033s20.033-8.969 20.033-20.033c0-5.099-1.908-9.749-5.045-13.285-4.71-1.573-9.749-2.427-14.988-2.427-5.239-.001-10.278.853-14.988 2.426z" fill="#47477f"/><path d="m148.061 402.232c-5.067 2.925-11.531 2.111-15.72-1.98l-.906-.886-19.921 11.502 39.558 41.438c.871-.421 1.737-.864 2.589-1.356 18.663-10.775 25.057-34.639 14.282-53.301-1.015-1.758-2.147-3.407-3.379-4.944z" fill="#d3dcfb"/><path d="m132.341 400.252-.906-.886-19.921 11.502 39.558 41.438c.872-.421 1.737-.864 2.589-1.356 6.335-3.658 11.252-8.826 14.568-14.785-27.673-6.851-20.167-33.933-20.167-33.933-5.068 2.926-11.532 2.111-15.721-1.98z" fill="#bec8f7"/><path d="m112.608 409.592-44.786 25.857c36.445 38.763 85.365 65.656 140.355 74.257z" fill="#e9efff"/><path d="m152.631 451.518-40.023-41.927-44.786 25.857c15.614 16.607 33.523 31.026 53.212 42.77-1.073-30.558 31.597-26.7 31.597-26.7z" fill="#d3dcfb"/><g><path d="m41.777 290.08-13.69-23.712c-4.156-7.199-13.36-9.665-20.559-5.509-7.199 4.156-9.665 13.36-5.509 20.559l13.69 23.712z" fill="#e9efff"/></g><path d="m29.476 268.775c.053.544.083 1.095.083 1.652 0 9.222-7.476 16.698-16.698 16.698-3.366 0-6.494-1.005-9.117-2.718l11.964 20.723 26.068-15.05z" fill="#d3dcfb"/><path d="m69.393 437.116 64.602-37.298c-.946-.925-1.793-1.981-2.487-3.183l-67.688-117.237c-.694-1.202-1.186-2.464-1.513-3.746l-57.502 33.199c8.35 49.335 31.436 93.655 64.588 128.265z" fill="#ff7186"/><path d="m94.411 338.896.049-6.43-30.639-53.068c-.694-1.202-1.186-2.464-1.513-3.746l-57.503 33.199c4.033 23.827 11.513 46.479 21.894 67.438 1.358-12.868 9.964-17.057 9.964-17.057s17.5-10.25 32.737-18.634c15.236-8.383 25.011-1.702 25.011-1.702z" fill="#ff4155"/><g><path d="m208.217 362.561c45.578-18.174 94.46-20.794 139.936-9.691l-138.112-239.216c-13.123 44.935-39.832 85.958-78.36 116.343 2.837 1.214 5.326 3.307 6.988 6.185l67.686 117.236c1.661 2.878 2.229 6.079 1.862 9.143z" fill="#d3dcfb"/></g><g><path d="m258.346 197.321-48.306-83.667c-13.122 44.935-39.832 85.958-78.36 116.343 2.837 1.214 5.326 3.307 6.988 6.185l32.963 57.093c38.583-27.914 68.317-61.535 86.715-95.954z" fill="#bec8f7"/></g><path d="m202.87 372.514-53.974 31.162c-7.077 4.086-16.125 1.661-20.211-5.416l-67.687-117.236c-4.086-7.077-1.661-16.126 5.416-20.211l53.974-31.162c7.077-4.086 16.126-1.661 20.211 5.415l67.686 117.236c4.086 7.078 1.661 16.126-5.415 20.212z" fill="#ff4155"/><path d="m140.599 235.067c-4.086-7.077-13.134-9.501-20.211-5.415l-53.974 31.162c-7.077 4.086-9.501 13.135-5.416 20.211l33.412 57.872c3.815-16.863 17.806-9.285 17.806-9.285l44.85-25.894c2.072-16.212 16.376-11.762 16.376-11.762z" fill="#e80054"/><g><path d="m91.081 285.491c-2.592 0-5.113-1.345-6.502-3.751-2.071-3.587-.842-8.174 2.745-10.245l31.86-18.394c3.587-2.072 8.174-.842 10.245 2.745s.842 8.174-2.745 10.245l-31.86 18.394c-1.181.682-2.471 1.006-3.743 1.006z" fill="#ff7186"/></g><g><path d="m104.9 309.427c-2.592 0-5.113-1.345-6.502-3.751-2.071-3.587-.842-8.174 2.745-10.245l31.86-18.394c3.587-2.072 8.174-.842 10.245 2.745s.842 8.174-2.745 10.245l-31.86 18.394c-1.181.682-2.471 1.006-3.743 1.006z" fill="#ff7186"/></g><g><path d="m118.719 333.362c-2.592 0-5.113-1.345-6.502-3.751-2.071-3.587-.842-8.174 2.745-10.245l31.86-18.394c3.587-2.072 8.174-.842 10.245 2.745s.842 8.174-2.745 10.245l-31.86 18.394c-1.181.682-2.471 1.006-3.743 1.006z" fill="#ff7186"/></g><g><path d="m132.538 357.297c-2.592 0-5.113-1.345-6.502-3.751-2.071-3.587-.842-8.174 2.745-10.245l31.86-18.394c3.587-2.072 8.174-.842 10.245 2.745s.842 8.174-2.745 10.245l-31.86 18.394c-1.181.682-2.471 1.006-3.743 1.006z" fill="#ff7186"/></g><g><path d="m146.357 381.232c-2.592 0-5.113-1.345-6.502-3.751-2.071-3.587-.842-8.174 2.745-10.245l31.86-18.394c3.587-2.072 8.174-.842 10.245 2.745s.842 8.174-2.745 10.245l-31.86 18.394c-1.181.682-2.471 1.006-3.743 1.006z" fill="#ff7186"/></g><g><path d="m367.483 360.252c-7.198 4.156-16.403 1.69-20.559-5.509l-139.12-240.962c-4.156-7.199-1.689-16.403 5.509-20.559s16.403-1.69 20.559 5.509l139.119 240.962c4.157 7.199 1.691 16.403-5.508 20.559z" fill="#e9efff"/></g><path d="m265.842 183.008c5.181-2.991 11.244-3.046 16.285-.699l-48.254-83.579c-4.156-7.199-13.361-9.665-20.559-5.509s-9.665 13.36-5.509 20.559l49.238 85.282c-.273-6.36 2.904-12.65 8.799-16.054z" fill="#d3dcfb"/><path d="m423.12 437.287c-15.555-23.864-42.776-51.333-75.576-47.428-56.099 6.677-195.105 14.092-89.702 122.535 64.879-3 123.166-31.228 165.278-75.107z" fill="#827df9"/><path d="m20.272 173.095c18.614 106.167 152.649-63.258 159.755-100.824 3.187-16.848-5.027-28.172-15.427-35.612-65.213 23.075-117.744 72.968-144.328 136.436z" fill="#827df9"/><circle cx="322.1" cy="45.795" fill="#5f5f9b" r="7.313"/></g></svg>