<svg height="512" viewBox="0 0 518.729 483.079" width="512" xmlns="http://www.w3.org/2000/svg"><g id="Layer_40" data-name="Layer 40"><rect fill="#23a0ac" height="262.885" rx="28.419" width="414.953" x="97.776" y="6"/><path d="m484.31 274.886h-358.11a34.459 34.459 0 0 1 -34.42-34.419v-206.047a34.459 34.459 0 0 1 34.42-34.42h358.11a34.458 34.458 0 0 1 34.419 34.42v206.047a34.458 34.458 0 0 1 -34.419 34.419zm-358.11-262.886a22.445 22.445 0 0 0 -22.42 22.42v206.047a22.444 22.444 0 0 0 22.42 22.419h358.11a22.444 22.444 0 0 0 22.419-22.419v-206.047a22.445 22.445 0 0 0 -22.419-22.42z"/><path d="m248.133 46.474h158.619v12h-158.619z"/><path d="m335.965 78.131h70.787v12h-70.787z"/><path d="m248.133 78.131h56.085v12h-56.085z"/><path d="m356.867 170.228h49.885v12h-49.885z"/><path d="m248.133 170.228h82.832v12h-82.832z"/><path d="m248.396 111.006h101.755v12h-101.755z"/><path d="m248.396 139.049h158.356v12h-158.356z"/><path d="m232.041 322.47-51.134 13.237a13.827 13.827 0 0 1 -12.5-2.92l-39.677-33.6 24.739-27.666 32.005 28.628 38.227-9.9a11.98 11.98 0 0 1 14.6 8.6l2.337 9.025a11.981 11.981 0 0 1 -8.597 14.596z" fill="#efcdb1"/><path d="m177.443 342.148a19.821 19.821 0 0 1 -12.958-4.82l-44.338-37.552 32.853-36.733 34.084 30.488 35.117-9.092a18 18 0 0 1 21.913 12.9l2.336 9.025a17.981 17.981 0 0 1 -12.9 21.913l-51.133 13.238a19.854 19.854 0 0 1 -4.974.633zm-40.133-43.561 34.974 29.622a7.85 7.85 0 0 0 7.116 1.691l51.135-13.237a5.981 5.981 0 0 0 4.29-7.288l-2.336-9.025a5.979 5.979 0 0 0 -7.288-4.291l-41.337 10.7-29.927-26.77z"/><path d="m192.013 238.394h112.385v12h-112.385z" transform="matrix(.498 -.867 .867 .498 -87.303 338.034)"/><path d="m39.343 380.068-24.068 97.011h155.777l-17.2-97.011" fill="#ff826e"/><path d="m178.209 483.079h-170.605l25.916-104.456 11.646 2.889-22.221 89.567h140.95l-15.951-89.964 11.816-2.095z"/><path d="m126.4 380.068v-75.9l3.5-14.046v-14.122l33.925-.517v-18.968a28.919 28.919 0 0 0 -28.917-28.915l-99.968.517a28.918 28.918 0 0 0 -28.919 28.915v18.968h27.828l5.412 17.563-.449 14.3 1.777 72.206z" fill="#d1d3d4"/><path d="m62.218 223.941 24.411 55.7 24.555-55.7z" fill="#efcdb1"/><path d="m86.627 280.883-25.174-57.442h50.5zm-23.644-56.442 23.647 53.959 23.787-53.957z"/><path d="m33.849 282h-33.828v-25.485c0-19.689 15.665-35.706 34.918-35.706h27.279v12h-27.279c-12.637 0-22.918 10.634-22.918 23.706v13.485h21.828z"/><path d="m169.827 282h-39.927v-12h27.925v-13.485c0-13.072-10.282-23.706-22.919-23.706h-23.722v-12h23.724c19.254 0 34.919 16.017 34.919 35.706z"/><path d="m75.673 383.373h-42.861v-74.123a62.881 62.881 0 0 1 -5.691-26.019c.12-11.63 6.866-21.848 7.153-22.278l9.975 6.672-4.988-3.336 5 3.32c-.051.078-5.056 7.753-5.139 15.747a50.721 50.721 0 0 0 4.988 21.686l.7 1.315.009 1.5v63.511h30.854z"/><path d="m55.341 228.261-14.947 16.574a4.4 4.4 0 0 0 1.284 6.87l14.569 7.353a4.4 4.4 0 0 1 2.1 5.56l-2.7 6.738a4.4 4.4 0 0 0 2.634 5.787l21.036 7.333a4.4 4.4 0 0 0 5.455-5.961l-22.158-49.115a4.4 4.4 0 0 0 -7.273-1.139z" fill="#e6e7e8"/><path d="m80.77 290.723a10.417 10.417 0 0 1 -3.427-.582l-21.035-7.332a10.4 10.4 0 0 1 -6.23-13.682l2.152-5.375-13.255-6.69a10.4 10.4 0 0 1 -3.037-16.246l14.947-16.573a10.4 10.4 0 0 1 17.2 2.687l22.16 49.118a10.4 10.4 0 0 1 -9.473 14.675zm-18.928-18.694 15.928 5.553-19.617-43.482-11.9 13.192 12.7 6.407a10.338 10.338 0 0 1 4.967 13.148z"/><path d="m118.062 228.261 14.947 16.574a4.4 4.4 0 0 1 -1.284 6.87l-14.569 7.353a4.4 4.4 0 0 0 -2.1 5.56l2.7 6.738a4.4 4.4 0 0 1 -2.635 5.787l-21.035 7.333a4.4 4.4 0 0 1 -5.455-5.961l22.16-49.117a4.4 4.4 0 0 1 7.271-1.137z" fill="#e6e7e8"/><path d="m92.633 290.723a10.4 10.4 0 0 1 -9.474-14.675l22.161-49.118a10.4 10.4 0 0 1 17.2-2.687l14.946 16.573a10.4 10.4 0 0 1 -3.035 16.246l-13.257 6.69 2.152 5.374a10.4 10.4 0 0 1 -6.229 13.683l-21.036 7.333a10.436 10.436 0 0 1 -3.428.581zm22.616-56.623-19.617 43.48 15.928-5.553-2.075-5.181a10.339 10.339 0 0 1 4.969-13.148l12.693-6.406z"/><path d="m63.342 276.001h89.788v101.372h-89.788z" fill="#23a0ac"/><path d="m153.13 383.373h-89.788a6 6 0 0 1 -6-6v-101.373a6 6 0 0 1 6-6h89.788a6 6 0 0 1 6 6v101.373a6 6 0 0 1 -6 6zm-83.788-12h77.788v-89.373h-77.788z"/><path d="m117.628 330.3v15.742a7.973 7.973 0 0 1 -8 7.942h-90.257a13.3 13.3 0 0 1 -13.353-13.245l-.018-19.717v-43.464h27.785a28.592 28.592 0 0 0 -.669 5.731 56.231 56.231 0 0 0 5.7 24.576v13.157h2.861l27.642 1.328 19.049-17.881a9.051 9.051 0 0 1 10.3-1.444l.188.1a8.907 8.907 0 0 1 4.475 10.5l-2.648 8.727h8.941a7.975 7.975 0 0 1 8.004 7.948z" fill="#efcdb1"/><path d="m109.624 359.985h-90.253a19.321 19.321 0 0 1 -19.353-19.246l-.018-69.181h41.209l-1.558 7.258a22.754 22.754 0 0 0 -.535 4.528 49.934 49.934 0 0 0 4.984 21.685l.713 1.328v8.808l22.251 1.069 17.195-16.14a15.087 15.087 0 0 1 17.144-2.41l.231.12a14.9 14.9 0 0 1 7.439 17.562l-.3.984h.85a13.993 13.993 0 0 1 14 13.951v15.742a13.989 13.989 0 0 1 -13.999 13.942zm-97.624-76.427.018 57.175a7.31 7.31 0 0 0 7.353 7.252h90.253a1.976 1.976 0 0 0 2-1.942v-15.743a1.98 1.98 0 0 0 -2-1.951h-17.032l5-16.469a2.911 2.911 0 0 0 -1.482-3.425l-.216-.113a3.036 3.036 0 0 0 -3.427.507l-20.9 19.615-30.039-1.444h-8.716v-17.767a62.954 62.954 0 0 1 -5.7-25.695z"/><path d="m128.729 169.749v11.387a43.962 43.962 0 0 1 -85.282 15c-1.856-7.85-2.7-18.206-1.409-31.857 1.9-20.208 5.081-37.19 5.081-37.19s14.417 11.872 42.2 16.905a99.208 99.208 0 0 0 34.635.369 101.625 101.625 0 0 1 4.775 25.386z" fill="#efcdb1"/><path d="m84.776 231.089a50.112 50.112 0 0 1 -46.969-32.9l-.2-.667c-2.248-9.507-2.767-20.88-1.544-33.8 1.908-20.244 5.025-37.024 5.157-37.729l1.869-9.993 7.844 6.459c.117.1 13.77 10.98 39.459 15.632a94.4 94.4 0 0 0 32.342.4l5.079-1.047 1.784 4.871a107.21 107.21 0 0 1 5.118 27.032l.014.405v11.387a50.01 50.01 0 0 1 -49.953 49.95zm-35.57-36.676a37.962 37.962 0 0 0 73.523-13.277v-11.181a105.206 105.206 0 0 0 -3.035-18.9 110.6 110.6 0 0 1 -31.444-1.155 117.78 117.78 0 0 1 -36.729-12.8c-1.063 6.8-2.481 16.829-3.51 27.742-1.085 11.458-.682 21.405 1.195 29.571z"/><circle cx="108.276" cy="164.282" r="5.795"/><circle cx="64.732" cy="164.919" r="5.795"/><path d="m84.743 204.437c-6.877 0-13.09-2.8-16.618-7.491a6 6 0 1 1 9.588-7.215c1.014 1.347 3.58 2.706 7.03 2.706 3.609 0 6.232-1.485 7.141-2.864a6 6 0 0 1 10.017 6.608c-3.359 5.092-9.934 8.256-17.158 8.256z"/><path d="m144.71 225.205c-1.194 1.185-34.47-2.944-34.47-2.944 2.166-6.023 17.021-16.8 18.489-37.715a107.472 107.472 0 0 0 0-14.8 101.625 101.625 0 0 0 -4.771-25.386 99.208 99.208 0 0 1 -34.635-.369c-27.787-5.033-42.2-16.9-42.2-16.9s-3.177 16.982-5.081 37.19c-1.293 13.651-.447 24.007 1.409 31.857 4.6 19.5 15.486 23.415 15.486 23.415s-46.566 9.8-46.566 2.71c0-27.116 1.758-47.421 6.382-78.267 4.547-30.276 23.347-59.646 62.117-58.742s61.547 26.1 65.89 67.522c3.012 28.739 7.656 62.859-2.05 72.429z" fill="#99561f"/><path d="m142.247 231.384c-4.971 0-14.259-.874-32.746-3.168l-7.445-.924 2.538-7.061c.97-2.7 2.96-5.2 5.479-8.375 4.965-6.251 11.764-14.811 12.67-27.73a101.732 101.732 0 0 0 0-13.968 105.736 105.736 0 0 0 -3.057-19.1 110.661 110.661 0 0 1 -31.436-1.158 117.78 117.78 0 0 1 -36.729-12.8c-1.063 6.8-2.481 16.829-3.51 27.742-1.1 11.621-.671 21.684 1.275 29.914 3.539 14.987 10.861 18.764 11.742 19.169l22.354 6.768-23.213 4.729c-.419.089-10.4 2.181-21.245 3.745-22.294 3.217-27.019 1.167-29.7-1.006a7.49 7.49 0 0 1 -2.86-5.9c0-26.684 1.687-47.4 6.449-79.158 4.737-31.523 25.141-64.893 68.197-63.847 40.82.95 66.96 27.519 71.718 72.894q.37 3.546.767 7.181c3.863 35.826 5.632 60.066-4.562 70.136-1.127 1.119-1.933 1.917-6.686 1.917zm-21.326-13.903c8.7.978 16.94 1.773 20.736 1.922 5.271-9.032 2.193-37.584-.093-58.786-.262-2.43-.522-4.842-.771-7.216-4.118-39.27-25.448-61.342-60.063-62.149-44.4-1.033-54.118 40.789-56.047 53.633-4.516 30.118-6.171 49.288-6.307 73.948 5.051.338 16.024-.94 27.347-2.877a49.547 49.547 0 0 1 -8.116-18.44c-2.247-9.5-2.766-20.878-1.543-33.8 1.908-20.244 5.025-37.024 5.157-37.729l1.868-9.987 7.844 6.459c.117.1 13.77 10.98 39.459 15.632a94.4 94.4 0 0 0 32.342.4l5.079-1.047 1.784 4.871a107.21 107.21 0 0 1 5.118 27.032 113.587 113.587 0 0 1 0 15.622c-1.066 15.176-8.501 25.743-13.794 32.512z"/><path d="m481.8 342.125a29.955 29.955 0 0 1 -6.83 8.548l-9.006 9.007-.06 9.006h-52.47l-.053-9.006-.007-.008c-5.254-4.571-14.478-10.785-17.968-17.547z" fill="#efcdb1"/><path d="m465.9 374.686h-52.468a6 6 0 0 1 -6-5.965l-.036-6.227c-.614-.5-1.261-1.017-1.924-1.551-5.4-4.336-12.13-9.731-15.4-16.066a6 6 0 0 1 5.331-8.752h86.397a6 6 0 0 1 5.3 8.821 35.8 35.8 0 0 1 -8.028 10.115l-7.12 7.121-.044 6.544a6 6 0 0 1 -6.008 5.96zm-46.5-12h40.544l.02-3.046a6 6 0 0 1 1.758-4.2l7.311-7.313h-60.283c1.427 1.209 2.879 2.374 4.231 3.459 1.558 1.249 3.028 2.43 4.329 3.562a5.838 5.838 0 0 1 .44.422 6.026 6.026 0 0 1 1.629 4.077z"/><path d="m485.378 287.411v40.489c0 5.014 5.829 9.892 3.5 14.223h-99.287c-.878-1.7 4.425-12.429 4.425-14.178v-40.534a43.772 43.772 0 0 1 43.778-43.771h3.806a43.777 43.777 0 0 1 43.778 43.771z" fill="#503d31"/><path d="m488.88 348.125h-99.289a6 6 0 0 1 -5.329-3.242c-1.708-3.3-.438-6.833 2.361-13.877.49-1.233 1.137-2.861 1.393-3.652v-39.943a49.831 49.831 0 0 1 49.778-49.77h3.806a49.831 49.831 0 0 1 49.778 49.77v40.489a13.147 13.147 0 0 0 1.466 3.633c1.644 3.267 4.129 8.2 1.322 13.43a6 6 0 0 1 -5.286 3.162zm-91.374-12h84.22a18.456 18.456 0 0 1 -2.344-8.223v-40.491a37.816 37.816 0 0 0 -37.778-37.77h-3.806a37.816 37.816 0 0 0 -37.778 37.77v40.536c0 1.779-.647 3.478-2.241 7.49-.088.21-.179.442-.279.688z"/><path d="m409.863 312.737h12v29.388h-12z"/><path d="m433.697 312.737h12v29.388h-12z"/><path d="m459.207 312.737h12v29.388h-12z"/><path d="m352.908 314.43v13.47a30.117 30.117 0 0 1 -10.408 22.773l-9.007 9.007-.06 9.006h-52.47l-.052-9.006-.008-.008c-6.574-5.719-19.356-14.005-19.356-22.719v-22.125l22.5 19.379h45.332z" fill="#efcdb1"/><path d="m333.432 374.686h-52.47a6 6 0 0 1 -6-5.965l-.036-6.226c-.613-.5-1.261-1.019-1.926-1.553-7.776-6.238-17.454-14-17.454-23.989v-22.125a6 6 0 0 1 9.916-4.546l20.812 17.925h40.918l21.855-18.37a6 6 0 0 1 9.861 4.593v13.47a36.083 36.083 0 0 1 -12.313 27.16l-7.119 7.12-.044 6.544a6 6 0 0 1 -6 5.962zm-46.5-12h40.544l.02-3.046a6 6 0 0 1 1.758-4.2l9.006-9.007q.153-.155.317-.3a24.089 24.089 0 0 0 8.335-18.233v-.591l-13.672 11.491a6 6 0 0 1 -3.861 1.407h-45.332a6 6 0 0 1 -3.916-1.454l-12.585-10.839v9.039c0 4.23 8.115 10.74 12.964 14.63 1.557 1.249 3.029 2.43 4.33 3.562.105.091.207.186.305.285a6.02 6.02 0 0 1 1.765 4.215z"/><path d="m352.908 287.411v27.019l-23.529 19.777h-45.332l-22.5-19.379v-27.417a43.773 43.773 0 0 1 43.779-43.771h3.805a43.776 43.776 0 0 1 43.777 43.771z" fill="#503d31"/><path d="m329.379 340.207h-45.332a6 6 0 0 1 -3.916-1.454l-22.5-19.379a6 6 0 0 1 -2.085-4.546v-27.417a49.831 49.831 0 0 1 49.779-49.77h3.805a49.83 49.83 0 0 1 49.778 49.77v27.019a6 6 0 0 1 -2.139 4.592l-23.529 19.778a6 6 0 0 1 -3.861 1.407zm-43.105-12h40.918l19.716-16.572v-24.224a37.816 37.816 0 0 0 -37.778-37.77h-3.805a37.817 37.817 0 0 0 -37.779 37.77v24.666z"/><path d="m274.26 368.759h65.934a35.187 35.187 0 0 1 35.187 35.187v73.133a0 0 0 0 1 0 0h-136.307a0 0 0 0 1 0 0v-73.133a35.187 35.187 0 0 1 35.186-35.187z" fill="#ff826e"/><path d="m381.381 483.079h-148.307v-79.133a41.233 41.233 0 0 1 41.186-41.186h65.934a41.233 41.233 0 0 1 41.187 41.186zm-136.307-12h124.307v-67.133a29.22 29.22 0 0 0 -29.187-29.186h-65.934a29.219 29.219 0 0 0 -29.186 29.186z"/><path d="m332.769 390.721h-51.464a26.876 26.876 0 0 0 -26.731 24.088l-6.494 62.27h117.914l-6.494-62.27a26.876 26.876 0 0 0 -26.731-24.088z" fill="#503d31"/><path d="m365.994 483.079h-117.914a6 6 0 0 1 -5.968-6.622l6.494-62.27a32.8 32.8 0 0 1 32.7-29.466h51.464a32.8 32.8 0 0 1 32.7 29.466l6.494 62.27a6 6 0 0 1 -5.968 6.622zm-111.256-12h104.6l-5.8-55.648a20.827 20.827 0 0 0 -20.763-18.71h-51.47a20.828 20.828 0 0 0 -20.763 18.71z"/><path d="m410.567 368.759h65.933a35.187 35.187 0 0 1 35.187 35.187v73.133a0 0 0 0 1 0 0h-136.306a0 0 0 0 1 0 0v-73.133a35.187 35.187 0 0 1 35.186-35.187z" fill="#ff826e"/><path d="m517.688 483.079h-148.307v-79.133a41.233 41.233 0 0 1 41.186-41.186h65.933a41.234 41.234 0 0 1 41.187 41.186zm-136.307-12h124.307v-67.133a29.22 29.22 0 0 0 -29.188-29.186h-65.933a29.219 29.219 0 0 0 -29.186 29.186z"/><path d="m469.076 390.721h-51.464a26.876 26.876 0 0 0 -26.731 24.088l-6.494 62.27h117.913l-6.494-62.27a26.876 26.876 0 0 0 -26.73-24.088z" fill="#503d31"/><path d="m502.3 483.079h-117.913a6 6 0 0 1 -5.968-6.622l6.5-62.27a32.8 32.8 0 0 1 32.7-29.466h51.464a32.8 32.8 0 0 1 32.7 29.466l6.5 62.27a6 6 0 0 1 -5.968 6.622zm-111.256-12h104.6l-5.8-55.648a20.827 20.827 0 0 0 -20.763-18.71h-51.469a20.828 20.828 0 0 0 -20.763 18.71z"/></g></svg>