<svg id="Capa_1" enable-background="new 0 0 512 512" height="512" viewBox="0 0 512 512" width="512" xmlns="http://www.w3.org/2000/svg"><g><path d="m275.44 35.185h169.886v169.886h-169.886z" fill="#698ed5" transform="matrix(.707 .707 -.707 .707 190.497 -219.645)"/><path d="m385.907 214.732-25.524 25.524-20.604-20.604h18.207c9.81 0 19.213-1.737 27.921-4.92zm94.604-94.604-41.207-41.207v59.415c0 9.809-1.737 19.213-4.92 27.92z" fill="#4073c8"/><g fill="#f1f1f4"><path d="m315.045 0c0 41.305-33.485 74.79-74.79 74.79v45.338c66.345 0 120.128-53.783 120.128-120.128z"/><path d="m240.255 120.128v45.338c41.305 0 74.79 33.485 74.79 74.79h45.338c0-66.345-53.783-120.128-120.128-120.128z"/><path d="m360.383 240.255h45.337c0-41.305 33.485-74.79 74.79-74.79v-45.338c-66.344.001-120.127 53.784-120.127 120.128z"/></g><path d="m240.255 6.916v67.874c41.305 0 74.79-33.485 74.79-74.79h-67.874c-3.819 0-6.916 3.096-6.916 6.916z" fill="#cbe2ff"/><path d="m473.595 0h-113.212c0 66.345 53.783 120.128 120.128 120.128v-113.212c0-3.82-3.097-6.916-6.916-6.916z" fill="#f1f1f4"/><path d="m473.595 0h-67.874c0 41.305 33.485 74.79 74.79 74.79v-67.874c0-3.82-3.097-6.916-6.916-6.916z" fill="#cbe2ff"/><path d="m240.255 165.465v67.874c0 3.819 3.096 6.916 6.916 6.916h67.874c0-41.305-33.484-74.79-74.79-74.79z" fill="#cbe2ff"/><path d="m358.622 219.649c-.212.002-.423.003-.636.003h-45.815c1.872 6.545 2.874 13.457 2.874 20.604h45.338c0-7.027-.603-13.912-1.761-20.607z" fill="#dfdde2"/><path d="m439.303 127.382v10.953c0 43.51-34.172 79.038-77.142 81.211-1.169 6.728-1.779 13.647-1.779 20.709h45.337c0-41.305 33.485-74.79 74.79-74.79v-45.338c-14.475.001-28.353 2.562-41.206 7.255z" fill="#dfdde2"/><path d="m473.595 0h-34.292v112.873c12.852 4.693 26.731 7.254 41.207 7.254v-113.211c.001-3.82-3.096-6.916-6.915-6.916z" fill="#dfdde2"/><path d="m473.595 0h-34.292v62.424c11.816 7.816 25.98 12.367 41.207 12.367v-67.875c.001-3.82-3.096-6.916-6.915-6.916z" fill="#9dc6fb"/><path d="m240.255 219.652v13.688c0 3.819 3.096 6.916 6.916 6.916h67.874c0-7.146-1.003-14.058-2.874-20.604z" fill="#9dc6fb"/><path d="m480.511 233.34v-67.874c-41.305 0-74.79 33.485-74.79 74.79h67.874c3.819-.001 6.916-3.097 6.916-6.916z" fill="#9dc6fb"/><path d="m359.955 149.482-28.926-28.926c-.237-.237-.237-.62 0-.857l28.926-28.926c.237-.237.62-.237.857 0l28.926 28.926c.237.237.237.62 0 .857l-28.926 28.926c-.237.237-.621.237-.857 0z" fill="#f1f1f4"/><path d="m306.929 306.929h169.886v169.886h-169.886z" fill="#698ed5" transform="matrix(.707 .707 -.707 .707 391.872 -162.319)"/><path d="m417.396 486.476-25.524 25.524-20.604-20.604h18.207c9.81 0 19.214-1.737 27.921-4.92zm94.604-94.604-41.207-41.207v59.415c0 9.809-1.737 19.213-4.92 27.92z" fill="#4073c8"/><path d="m346.535 271.745c0 41.305-33.485 74.79-74.79 74.79v45.337c66.345 0 120.128-53.783 120.128-120.128h-45.338z" fill="#f1f1f4"/><path d="m271.745 391.872v45.338c41.305 0 74.79 33.485 74.79 74.79h45.338c-.001-66.345-53.784-120.128-120.128-120.128z" fill="#f1f1f4"/><path d="m391.872 512h45.338c0-41.305 33.485-74.79 74.79-74.79v-45.338c-66.345 0-120.128 53.783-120.128 120.128z" fill="#f1f1f4"/><path d="m271.745 278.66v67.874c41.305 0 74.79-33.485 74.79-74.79h-67.875c-3.819.001-6.915 3.097-6.915 6.916z" fill="#cbe2ff"/><path d="m505.084 271.745h-113.212c0 66.345 53.783 120.128 120.128 120.128v-113.213c0-3.819-3.096-6.915-6.916-6.915z" fill="#f1f1f4"/><path d="m505.084 271.745h-67.874c0 41.305 33.485 74.79 74.79 74.79v-67.875c0-3.819-3.096-6.915-6.916-6.915z" fill="#cbe2ff"/><path d="m271.745 437.21v67.874c0 3.819 3.096 6.916 6.916 6.916h67.874c0-41.305-33.485-74.79-74.79-74.79z" fill="#cbe2ff"/><path d="m390.112 491.393c-.212.002-.423.003-.636.003h-45.815c1.872 6.545 2.874 13.457 2.874 20.604h45.338c-.001-7.026-.604-13.911-1.761-20.607z" fill="#dfdde2"/><path d="m470.793 399.127v10.953c0 43.51-34.172 79.038-77.142 81.211-1.169 6.728-1.779 13.647-1.779 20.709h45.338c0-41.305 33.485-74.79 74.79-74.79v-45.338c-14.477 0-28.355 2.561-41.207 7.255z" fill="#dfdde2"/><path d="m505.084 271.745h-34.292v112.873c12.852 4.693 26.731 7.254 41.207 7.254v-113.212c.001-3.819-3.095-6.915-6.915-6.915z" fill="#dfdde2"/><path d="m505.084 271.745h-34.292v62.424c11.816 7.816 25.98 12.367 41.207 12.367v-67.876c.001-3.819-3.095-6.915-6.915-6.915z" fill="#9dc6fb"/><path d="m271.745 491.396v13.688c0 3.819 3.096 6.916 6.916 6.916h67.874c0-7.146-1.003-14.058-2.874-20.604z" fill="#9dc6fb"/><path d="m512 505.084v-67.874c-41.305 0-74.79 33.485-74.79 74.79h67.874c3.82 0 6.916-3.096 6.916-6.916z" fill="#9dc6fb"/><path d="m391.444 421.227-28.926-28.926c-.237-.237-.237-.62 0-.857l28.926-28.926c.237-.237.62-.237.857 0l28.926 28.926c.237.237.237.62 0 .857l-28.926 28.926c-.237.236-.62.236-.857 0z" fill="#f1f1f4"/><path d="m35.185 35.185h169.886v169.886h-169.886z" fill="#698ed5" transform="matrix(.707 .707 -.707 .707 120.128 -49.759)"/><path d="m145.651 214.732-25.524 25.524-20.604-20.604h18.207c9.811 0 19.214-1.737 27.921-4.92zm94.604-94.604-41.207-41.207v59.415c0 9.809-1.737 19.213-4.92 27.92z" fill="#4073c8"/><path d="m74.79 0c0 41.305-33.485 74.79-74.79 74.79v45.338c66.345 0 120.128-53.783 120.128-120.128h-45.338z" fill="#f1f1f4"/><path d="m0 120.128v45.338c41.305 0 74.79 33.485 74.79 74.79h45.338c0-66.345-53.783-120.128-120.128-120.128z" fill="#f1f1f4"/><path d="m120.128 240.255h45.338c0-41.305 33.485-74.79 74.79-74.79v-45.338c-66.345.001-120.128 53.784-120.128 120.128z" fill="#f1f1f4"/><path d="m0 6.916v67.874c41.305 0 74.79-33.485 74.79-74.79h-67.874c-3.82 0-6.916 3.096-6.916 6.916z" fill="#cbe2ff"/><path d="m233.34 0h-113.212c0 66.345 53.783 120.128 120.128 120.128v-113.212c-.001-3.82-3.097-6.916-6.916-6.916z" fill="#f1f1f4"/><path d="m233.34 0h-67.874c0 41.305 33.485 74.79 74.79 74.79v-67.874c-.001-3.82-3.097-6.916-6.916-6.916z" fill="#cbe2ff"/><path d="m0 165.465v67.874c0 3.819 3.096 6.916 6.916 6.916h67.874c0-41.305-33.485-74.79-74.79-74.79z" fill="#cbe2ff"/><path d="m118.367 219.649c-.212.002-.423.003-.636.003h-45.815c1.872 6.545 2.874 13.457 2.874 20.604h45.338c0-7.027-.604-13.912-1.761-20.607z" fill="#dfdde2"/><path d="m199.048 127.382v10.953c0 43.51-34.172 79.038-77.142 81.211-1.169 6.728-1.779 13.647-1.779 20.709h45.338c0-41.305 33.485-74.79 74.79-74.79v-45.338c-14.476.001-28.355 2.562-41.207 7.255z" fill="#dfdde2"/><path d="m233.34 0h-34.292v112.873c12.852 4.693 26.731 7.254 41.207 7.254v-113.211c0-3.82-3.096-6.916-6.915-6.916z" fill="#dfdde2"/><path d="m233.34 0h-34.292v62.424c11.816 7.816 25.98 12.367 41.207 12.367v-67.875c0-3.82-3.096-6.916-6.915-6.916z" fill="#9dc6fb"/><path d="m0 219.652v13.688c0 3.819 3.096 6.916 6.916 6.916h67.874c0-7.146-1.003-14.058-2.874-20.604z" fill="#9dc6fb"/><path d="m240.255 233.34v-67.874c-41.305 0-74.79 33.485-74.79 74.79h67.874c3.82-.001 6.916-3.097 6.916-6.916z" fill="#9dc6fb"/><path d="m119.699 149.482-28.926-28.926c-.237-.237-.237-.62 0-.857l28.926-28.926c.237-.237.62-.237.857 0l28.926 28.926c.237.237.237.62 0 .857l-28.926 28.926c-.237.237-.62.237-.857 0z" fill="#f1f1f4"/><path d="m35.185 275.44h169.886v169.886h-169.886z" fill="#698ed5" transform="matrix(.707 .707 -.707 .707 290.014 20.611)"/><path d="m145.651 454.987-25.524 25.524-20.604-20.604h18.207c9.811 0 19.214-1.737 27.921-4.92zm94.604-94.604-41.207-41.207v59.415c0 9.809-1.737 19.213-4.92 27.92z" fill="#4073c8"/><path d="m74.79 240.255c0 41.305-33.485 74.79-74.79 74.79v45.337c66.345 0 120.128-53.783 120.128-120.128h-45.338z" fill="#f1f1f4"/><path d="m0 360.383v45.338c41.305 0 74.79 33.485 74.79 74.79h45.338c0-66.345-53.783-120.128-120.128-120.128z" fill="#f1f1f4"/><path d="m120.128 480.511h45.338c0-41.305 33.485-74.79 74.79-74.79v-45.338c-66.345 0-120.128 53.783-120.128 120.128z" fill="#f1f1f4"/><path d="m0 247.171v67.874c41.305 0 74.79-33.485 74.79-74.79h-67.874c-3.82 0-6.916 3.097-6.916 6.916z" fill="#cbe2ff"/><path d="m233.34 240.255h-113.212c0 66.345 53.783 120.128 120.128 120.128v-113.212c-.001-3.819-3.097-6.916-6.916-6.916z" fill="#f1f1f4"/><path d="m233.34 240.255h-67.874c0 41.305 33.485 74.79 74.79 74.79v-67.874c-.001-3.819-3.097-6.916-6.916-6.916z" fill="#cbe2ff"/><path d="m0 405.721v67.874c0 3.819 3.096 6.916 6.916 6.916h67.874c0-41.306-33.485-74.79-74.79-74.79z" fill="#cbe2ff"/><path d="m199.048 367.637v10.953c0 43.51-34.172 79.038-77.142 81.211-1.169 6.728-1.779 13.647-1.779 20.709h45.338c0-41.305 33.485-74.79 74.79-74.79v-45.338c-14.476.001-28.355 2.562-41.207 7.255z" fill="#dfdde2"/><path d="m233.34 240.255h-34.292v112.873c12.852 4.693 26.731 7.254 41.207 7.254v-113.211c0-3.819-3.096-6.916-6.915-6.916z" fill="#dfdde2"/><path d="m233.34 240.255-34.292-5.726v68.149c11.816 7.816 25.98 12.367 41.207 12.367v-67.874c0-3.819-3.096-6.916-6.915-6.916z" fill="#9dc6fb"/><path d="m240.255 473.595v-67.874c-41.305 0-74.79 33.485-74.79 74.79h67.874c3.82 0 6.916-3.097 6.916-6.916z" fill="#9dc6fb"/><path d="m119.699 389.737-28.926-28.926c-.237-.237-.237-.62 0-.857l28.926-28.926c.237-.237.62-.237.857 0l28.926 28.926c.237.237.237.62 0 .857l-28.926 28.926c-.237.237-.62.237-.857 0z" fill="#f1f1f4"/></g></svg>