<svg id="Layer_1" height="512" viewBox="0 0 256 256" width="512" xmlns="http://www.w3.org/2000/svg"><g><path d="m32.035 189.343c-7.535 0-13.665-6.13-13.665-13.665v-123.776c0-7.535 6.13-13.665 13.665-13.665h191.931c7.535 0 13.665 6.13 13.665 13.665v123.776c0 7.535-6.13 13.665-13.665 13.665z" fill="#cecece"/><g><path d="m223.965 38.237h-14.667c7.534 0 13.665 6.13 13.665 13.665v123.776c0 7.534-6.13 13.665-13.665 13.665h14.667c7.535 0 13.665-6.13 13.665-13.665v-123.776c0-7.535-6.13-13.665-13.665-13.665z" fill="#e2e2e2"/></g><g><path d="m32.035 38.237h14.667c-7.534 0-13.665 6.13-13.665 13.665v123.776c0 7.534 6.13 13.665 13.665 13.665h-14.667c-7.535 0-13.665-6.13-13.665-13.665v-123.776c0-7.535 6.13-13.665 13.665-13.665z" fill="#afafaf"/></g><path d="m229.221 51.926v123.728c0 2.916-2.364 5.28-5.28 5.28h-191.882c-2.916 0-5.28-2.364-5.28-5.28v-123.728c0-2.916 2.364-5.28 5.28-5.28h191.882c2.916 0 5.28 2.364 5.28 5.28z" fill="#63bce7"/><g><path d="m223.941 46.646h-14.667c2.916 0 5.28 2.364 5.28 5.28v123.728c0 2.916-2.364 5.28-5.28 5.28h14.667c2.916 0 5.28-2.364 5.28-5.28v-123.728c0-2.916-2.364-5.28-5.28-5.28z" fill="#63e2e7"/></g><g><path d="m32.059 46.646h14.667c-2.916 0-5.28 2.364-5.28 5.28v123.728c0 2.916 2.364 5.28 5.28 5.28h-14.667c-2.916 0-5.28-2.364-5.28-5.28v-123.728c0-2.916 2.364-5.28 5.28-5.28z" fill="#6377e7"/></g><path d="m128 189.343h-119.333l3.053 7.024c2.751 6.329 8.995 10.423 15.896 10.423h100.384 100.385c6.901 0 13.145-4.094 15.896-10.423l3.053-7.024z" fill="#cecece"/><g><path d="m232.667 189.343-3.053 7.024c-2.751 6.329-8.995 10.423-15.896 10.423h14.667c6.901 0 13.145-4.094 15.896-10.423l3.053-7.024z" fill="#e2e2e2"/></g><g><path d="m23.333 189.343 3.053 7.024c2.751 6.329 8.995 10.423 15.896 10.423h-14.667c-6.901 0-13.145-4.094-15.896-10.423l-3.053-7.024z" fill="#afafaf"/></g><path d="m82.442 189.343 4.22 5.388c1.649 2.106 4.175 3.336 6.85 3.336h68.975c2.675 0 5.201-1.23 6.85-3.336l4.221-5.388z" fill="#707070"/><g><g><path d="m198.841 105.829c-.273.763-.583 1.497-.921 2.223l6.836 6.836-13.441 13.441-6.836-6.836c-.727.338-1.468.648-2.223.921v9.671h-19.003v-9.671c-.756-.273-1.497-.583-2.223-.921l-6.836 6.836-13.441-13.441 6.836-6.836c-.338-.727-.648-1.461-.921-2.223h-9.671v-19.003h9.671c.273-.756.583-1.497.921-2.223l-6.836-6.836 13.441-13.441 6.836 6.843c.727-.338 1.468-.655 2.223-.928v-9.664h19.003v9.664c.756.273 1.497.59 2.223.928l6.836-6.843 13.441 13.441-6.836 6.836c.338.727.648 1.468.921 2.223h9.664v19.003z" fill="#cecece"/><circle cx="172.75" cy="96.328" fill="#9e9e9e" r="12.101"/></g><path d="m131.535 117.144c-3.121-2.724-7.856-2.404-10.583.716l-12.205 13.977-43.754.001c-9.664 0-17.498 7.834-17.498 17.498v31.598h51.728v-34.097h12.932c2.165 0 4.225-.936 5.649-2.567l14.446-16.543c2.726-3.121 2.405-7.858-.715-10.583z" fill="#cecece"/><path d="m76.155 139.527c-3.189 0-5.775-2.585-5.775-5.775v-8.198c0-3.189 2.585-5.775 5.775-5.775 3.189 0 5.775 2.585 5.775 5.775v8.198c0 3.19-2.585 5.775-5.775 5.775z" fill="#f8af23"/><path d="m76.155 132.437c-8.523 0-15.433-6.909-15.433-15.433v-6.429c0-8.523 6.909-15.433 15.433-15.433 8.523 0 15.433 6.909 15.433 15.433v6.429c0 8.523-6.909 15.433-15.433 15.433z" fill="#f8af23"/><g><path d="m72.579 110.675c-2.108-2.441-3.392-5.614-3.392-9.093 0-1.86.371-3.631 1.033-5.252-5.576 2.326-9.497 7.827-9.497 14.246v2.904c1.224.5 2.561.78 3.965.78 3.148 0 5.965-1.392 7.891-3.585z" fill="#707070"/><path d="m76.155 95.143c-1.594 0-3.131.242-4.577.691-.463.144-.916.311-1.359.496-.661 1.622-1.033 3.393-1.033 5.252 0 3.479 1.284 6.652 3.392 9.093 2.554 2.957 6.323 4.836 10.537 4.836 3.192 0 6.124-1.085 8.472-2.891v-2.045c.001-8.523-6.908-15.432-15.432-15.432z" fill="#9e9e9e"/></g></g><g fill="#3f3679"><path d="m230.721 175.654v-123.728c0-3.738-3.041-6.78-6.779-6.78h-191.883c-3.738 0-6.779 3.042-6.779 6.78v123.728c0 3.739 3.041 6.78 6.779 6.78h191.883c3.738 0 6.779-3.041 6.779-6.78zm-202.442 0v-123.728c0-2.084 1.695-3.78 3.779-3.78h191.883c2.084 0 3.779 1.696 3.779 3.78v123.728c0 2.084-1.695 3.78-3.779 3.78h-123.217v-31.097h11.432c2.598 0 5.069-1.123 6.779-3.08l14.446-16.543c3.264-3.738 2.879-9.435-.859-12.699-3.739-3.263-9.436-2.876-12.699.859l-11.757 13.463-21.509.001c3.967-3.102 6.532-7.919 6.532-13.334v-6.428c0-9.337-7.596-16.933-16.933-16.933-2.281 0-4.456.46-6.444 1.281-.033.012-.066.022-.098.036-6.098 2.564-10.391 8.597-10.391 15.616v2.918.008 3.502c0 5.415 2.565 10.233 6.533 13.334h-.762c-10.476 0-18.998 8.522-18.998 18.998v30.098h-13.937c-2.084 0-3.78-1.696-3.78-3.78zm47.876-79.011c7.683 0 13.933 6.25 13.933 13.933v1.27c-2.07 1.414-4.463 2.166-6.972 2.166-3.605 0-7.032-1.573-9.401-4.317-1.953-2.261-3.028-5.142-3.028-8.112 0-1.397.247-2.766.708-4.084 1.488-.545 3.086-.856 4.76-.856zm-5.583 13.903c-1.63 1.414-3.713 2.214-5.885 2.214-.837 0-1.662-.121-2.465-.351v-1.833c0-4.572 2.224-8.625 5.636-11.167-.103.718-.172 1.441-.172 2.173.001 3.22 1.017 6.353 2.886 8.964zm-8.349 4.95c.809.171 1.631.263 2.465.263 2.903 0 5.685-1.07 7.859-2.959 2.852 2.691 6.622 4.211 10.57 4.211 2.457 0 4.822-.582 6.972-1.683v1.675c0 7.683-6.25 13.933-13.933 13.933s-13.933-6.25-13.933-13.933zm9.658 17.873c1.368.358 2.796.568 4.274.568s2.906-.21 4.274-.568v.384c0 2.357-1.918 4.274-4.274 4.274s-4.274-1.917-4.274-4.274zm4.274 7.658c4.011 0 7.274-3.263 7.274-7.274v-.415l25.317-.001c.433 0 .845-.187 1.13-.513l12.205-13.977c2.176-2.49 5.974-2.749 8.467-.573 2.491 2.176 2.748 5.974.572 8.466l-14.446 16.543c-1.14 1.305-2.787 2.054-4.52 2.054h-12.93c-.828 0-1.5.671-1.5 1.5v32.597h-35.853v-23.294c0-.829-.672-1.5-1.5-1.5s-1.5.671-1.5 1.5v23.294h-9.876v-30.098c0-8.821 7.177-15.998 15.998-15.998h3.888v.415c0 4.011 3.264 7.274 7.274 7.274z"/><path d="m245.656 196.965 3.053-7.024c.201-.463.155-.998-.122-1.42-.276-.422-.748-.677-1.254-.677h-14.351c3.722-2.766 6.148-7.182 6.148-12.165v-123.777c0-8.362-6.803-15.165-15.164-15.165h-191.932c-8.361 0-15.164 6.803-15.164 15.165v123.776c0 4.983 2.427 9.399 6.148 12.165h-14.351c-.506 0-.978.255-1.254.677-.277.423-.323.957-.122 1.42l3.053 7.024c1.517 3.491 4.013 6.351 7.081 8.325h-8.105c-.828 0-1.5.671-1.5 1.5s.672 1.5 1.5 1.5h18.295 200.77 18.295c.828 0 1.5-.671 1.5-1.5s-.672-1.5-1.5-1.5h-8.104c3.067-1.974 5.563-4.833 7.08-8.324zm-225.786-21.287v-123.776c0-6.708 5.457-12.165 12.164-12.165h191.932c6.707 0 12.164 5.457 12.164 12.165v123.776c0 6.708-5.457 12.165-12.164 12.165h-50.408-91.116-50.408c-6.707 0-12.164-5.457-12.164-12.165zm150.608 15.165-2.32 2.963c-1.374 1.754-3.441 2.76-5.67 2.76h-68.975c-2.229 0-4.296-1.006-5.67-2.76l-2.32-2.963zm57.907 14.447h-200.77c-4.787 0-9.22-2.157-12.18-5.724h29.141c.828 0 1.5-.671 1.5-1.5s-.672-1.5-1.5-1.5h-31.098c-.132-.263-.264-.525-.382-.797l-2.142-4.926h21.08 49.678l3.769 4.813c1.946 2.485 4.874 3.911 8.031 3.911h68.975c3.157 0 6.085-1.425 8.031-3.911l3.769-4.813h49.678 21.08l-2.142 4.926c-.118.272-.25.535-.382.798h-31.098c-.828 0-1.5.671-1.5 1.5s.672 1.5 1.5 1.5h29.141c-2.959 3.566-7.392 5.723-12.179 5.723z"/><path d="m65.22 196.566h-10.375c-.828 0-1.5.671-1.5 1.5s.672 1.5 1.5 1.5h10.375c.828 0 1.5-.671 1.5-1.5s-.672-1.5-1.5-1.5z"/><path d="m201.155 196.566h-10.375c-.828 0-1.5.671-1.5 1.5s.672 1.5 1.5 1.5h10.375c.828 0 1.5-.671 1.5-1.5s-.672-1.5-1.5-1.5z"/><path d="m27.323 216.263h-18.003c-.828 0-1.5.671-1.5 1.5s.672 1.5 1.5 1.5h18.003c.828 0 1.5-.671 1.5-1.5s-.672-1.5-1.5-1.5z"/><path d="m246.68 216.263h-18.003c-.828 0-1.5.671-1.5 1.5s.672 1.5 1.5 1.5h18.003c.828 0 1.5-.671 1.5-1.5s-.672-1.5-1.5-1.5z"/><path d="m218.479 216.263h-180.958c-.828 0-1.5.671-1.5 1.5s.672 1.5 1.5 1.5h180.959c.828 0 1.5-.671 1.5-1.5s-.672-1.5-1.501-1.5z"/><path d="m136.996 107.331h8.637c.054.129.107.26.163.391l-6.108 6.109c-.281.281-.439.663-.439 1.061s.158.779.439 1.061l13.439 13.439c.586.586 1.535.586 2.121 0l6.108-6.108c.131.056.261.11.391.163v8.638c0 .829.672 1.5 1.5 1.5h19.006c.828 0 1.5-.671 1.5-1.5v-8.638c.13-.053.26-.107.391-.164l6.109 6.109c.563.563 1.559.563 2.121 0l13.438-13.439c.586-.586.586-1.536 0-2.121l-6.108-6.108c.056-.131.11-.261.164-.391h8.637c.828 0 1.5-.671 1.5-1.5v-19.008c0-.829-.672-1.5-1.5-1.5h-8.638c-.053-.13-.107-.26-.163-.391l6.108-6.108c.281-.281.439-.663.439-1.061s-.158-.779-.439-1.061l-13.438-13.439c-.586-.586-1.535-.586-2.121 0l-6.109 6.108c-.131-.056-.261-.11-.391-.164v-8.637c0-.829-.672-1.5-1.5-1.5h-19.006c-.828 0-1.5.671-1.5 1.5v8.638c-.129.053-.26.107-.39.163l-6.109-6.108c-.586-.586-1.535-.586-2.121 0l-13.439 13.439c-.281.281-.439.663-.439 1.061s.158.779.439 1.061l6.109 6.109c-.057.131-.11.261-.164.39h-8.637c-.828 0-1.5.671-1.5 1.5v19.006c0 .829.672 1.5 1.5 1.5zm1.5-19.006h8.165c.631 0 1.194-.395 1.409-.987.247-.679.534-1.366.876-2.1.267-.572.147-1.249-.299-1.694l-5.778-5.778 11.318-11.318 5.778 5.778c.445.446 1.122.565 1.694.299.732-.341 1.42-.628 2.101-.876.592-.216.986-.779.986-1.409v-8.165h16.006v8.165c0 .63.395 1.194.987 1.41.676.246 1.363.533 2.102.876.568.265 1.248.147 1.693-.299l5.778-5.778 11.317 11.318-5.778 5.778c-.446.446-.565 1.124-.299 1.696.342.73.628 1.417.877 2.099.215.593.778.987 1.409.987h8.165v16.006h-8.165c-.631 0-1.194.395-1.41.987-.248.683-.534 1.369-.875 2.099-.268.572-.148 1.25.298 1.696l5.778 5.778-11.317 11.317-5.778-5.778c-.446-.446-1.123-.566-1.694-.299-.736.343-1.423.63-2.101.876-.593.216-.987.779-.987 1.41v8.165h-16.006v-8.165c0-.63-.395-1.193-.986-1.409-.683-.249-1.369-.536-2.1-.876-.572-.268-1.25-.148-1.695.298l-5.778 5.778-11.318-11.318 5.778-5.778c.446-.446.565-1.123.299-1.694-.342-.734-.629-1.421-.875-2.1-.216-.593-.779-.987-1.41-.987h-8.165z"/><path d="m172.75 109.93c7.5 0 13.602-6.102 13.602-13.602s-6.102-13.601-13.602-13.601-13.602 6.102-13.602 13.601c0 7.5 6.102 13.602 13.602 13.602zm0-24.203c5.846 0 10.602 4.756 10.602 10.601 0 5.846-4.756 10.602-10.602 10.602s-10.602-4.756-10.602-10.602c0-5.845 4.756-10.601 10.602-10.601z"/></g></g></svg>