<?xml version="1.0" encoding="UTF-8" standalone="no"?>
<svg
   fill="none"
   height="512"
   viewBox="0 0 24 24"
   width="512"
   version="1.1"
   id="svg2"
   sodipodi:docname="verified.svg"
   inkscape:version="1.3.2 (091e20e, 2023-11-25)"
   xmlns:inkscape="http://www.inkscape.org/namespaces/inkscape"
   xmlns:sodipodi="http://sodipodi.sourceforge.net/DTD/sodipodi-0.dtd"
   xmlns="http://www.w3.org/2000/svg"
   xmlns:svg="http://www.w3.org/2000/svg">
  <defs
     id="defs2" />
  <sodipodi:namedview
     id="namedview2"
     pagecolor="#505050"
     bordercolor="#eeeeee"
     borderopacity="1"
     inkscape:showpageshadow="0"
     inkscape:pageopacity="0"
     inkscape:pagecheckerboard="0"
     inkscape:deskcolor="#505050"
     inkscape:zoom="0.4609375"
     inkscape:cx="256"
     inkscape:cy="256"
     inkscape:window-width="1440"
     inkscape:window-height="847"
     inkscape:window-x="0"
     inkscape:window-y="25"
     inkscape:window-maximized="0"
     inkscape:current-layer="svg2" />
  <clipPath
     id="clip0_1023_6280">
    <path
       d="m0 0h24v24h-24z"
       id="path1" />
  </clipPath>
  <g
     clip-path="url(#clip0_1023_6280)"
     id="g2"
     transform="matrix(1.1718762,0,0,1.1718762,-1.9708443,-1.9708714)"
     style="fill:#ffffff;fill-opacity:1">
    <path
       clip-rule="evenodd"
       d="M 7.2419,5.83485 7.29374,5.84023 C 7.51177,5.86289 7.72904,5.88549 7.94516,5.88328 8.91708,5.87335 9.8475,5.48795 10.5418,4.80773 10.6961,4.65647 10.8338,4.48686 10.972,4.31666 L 11.0048,4.2762 c 0.1886,-0.23203 0.3068,-0.37715 0.3998,-0.48401 0.0788,-0.09054 0.109,-0.11763 0.1115,-0.1199 0.2816,-0.22972 0.6859,-0.22972 0.9675,-10e-6 0.0025,0.00222 0.0326,0.02929 0.1115,0.11991 0.093,0.10686 0.2112,0.25198 0.3998,0.48401 l 0.0329,0.04047 v 2e-5 c 0.1381,0.17019 0.2758,0.33979 0.4301,0.49104 0.6943,0.68022 1.6247,1.06562 2.5966,1.07555 0.2161,0.00221 0.4334,-0.02038 0.6514,-0.04305 h 10e-5 l 0.0518,-0.00538 c 0.2974,-0.03072 0.4836,-0.04975 0.6249,-0.05956 0.1198,-0.00831 0.1603,-0.00613 0.1637,-0.00592 0.3615,0.03666 0.6474,0.32255 0.6841,0.68408 2e-4,0.00327 0.0024,0.0437 -0.0059,0.16366 -0.0099,0.14131 -0.0289,0.32751 -0.0596,0.62494 l -0.0054,0.05178 v 5e-5 c -0.0226,0.21803 -0.0452,0.43531 -0.043,0.65143 0.0099,0.97192 0.3953,1.90234 1.0755,2.59659 0.1513,0.1544 0.3209,0.292 0.491,0.4302 h 10e-5 l 0.0404,0.0329 c 0.2321,0.1886 0.3772,0.3068 0.4841,0.3997 0.0902,0.0786 0.1174,0.1088 0.1198,0.1115 0.2298,0.2816 0.2298,0.686 0,0.9676 -0.0024,0.0027 -0.0296,0.0329 -0.1198,0.1115 -0.1069,0.0929 -0.252,0.2111 -0.4841,0.3997 l -0.0404,0.0329 h -10e-5 c -0.1701,0.1382 -0.3397,0.2758 -0.491,0.4302 -0.6802,0.6942 -1.0656,1.6247 -1.0755,2.5966 -0.0022,0.2161 0.0204,0.4334 0.043,0.6514 v 10e-5 l 0.0054,0.0518 c 0.0307,0.2974 0.0497,0.4836 0.0596,0.6249 0.0083,0.1201 0.0061,0.1605 0.0059,0.1637 -0.0367,0.3615 -0.3226,0.6474 -0.6841,0.684 -0.0032,2e-4 -0.0435,0.0024 -0.1637,-0.0059 -0.1413,-0.0098 -0.3275,-0.0288 -0.6249,-0.0595 l -0.0519,-0.0054 c -0.218,-0.0227 -0.4353,-0.0453 -0.6514,-0.0431 -0.9719,0.01 -1.9023,0.3953 -2.5966,1.0756 -0.1543,0.1512 -0.292,0.3208 -0.4301,0.491 h -10e-5 l -0.0328,0.0405 c -0.1886,0.232 -0.3068,0.3772 -0.3998,0.484 -0.0785,0.0903 -0.1088,0.1175 -0.1115,0.1199 -0.2816,0.2297 -0.6859,0.2297 -0.9675,0 -0.0027,-0.0024 -0.033,-0.0296 -0.1115,-0.1199 -0.093,-0.1068 -0.2112,-0.252 -0.3998,-0.484 L 10.972,19.6834 C 10.8338,19.5132 10.6962,19.3435 10.5418,19.1923 9.8475,18.512 8.91707,18.1267 7.94516,18.1167 7.72905,18.1145 7.51177,18.1371 7.29375,18.1598 L 7.2419,18.1652 C 6.94447,18.1959 6.75827,18.2149 6.61696,18.2247 6.49695,18.233 6.45654,18.2308 6.45329,18.2306 6.09177,18.194 5.80588,17.9081 5.76921,17.5465 5.76901,17.5431 5.76683,17.5026 5.77514,17.3829 5.78495,17.2416 5.80398,17.0554 5.83469,16.758 L 5.84007,16.7061 C 5.86274,16.4881 5.88533,16.2708 5.88313,16.0547 5.87319,15.0828 5.4878,14.1523 4.80757,13.4581 4.65633,13.3037 4.48672,13.1661 4.31654,13.0279 h -2e-5 L 4.27605,12.995 C 4.04402,12.8064 3.89889,12.6882 3.79204,12.5953 3.70143,12.5164 3.67436,12.4862 3.67213,12.4837 c -0.22971,-0.2815 -0.22971,-0.6859 0,-0.9674 0.00223,-0.0025 0.02929,-0.0327 0.11991,-0.1116 0.10685,-0.0929 0.25198,-0.2111 0.48401,-0.3997 l 0.04046,-0.0329 h 10e-6 C 4.48672,10.834 4.65632,10.6963 4.80757,10.5419 5.4878,9.84765 5.87319,8.91723 5.88313,7.94531 5.88533,7.72919 5.86274,7.51192 5.84007,7.29389 L 5.83469,7.24205 C 5.80398,6.94462 5.78495,6.75842 5.77514,6.61711 5.76683,6.49737 5.76901,6.45688 5.76921,6.45347 5.80588,6.09193 6.09178,5.80603 6.45332,5.76937 6.45673,5.76916 6.49723,5.76698 6.61696,5.77529 6.75827,5.7851 6.94447,5.80413 7.2419,5.83485 Z M 5.76921,6.45347 c 10e-6,-7e-5 10e-6,-1.3e-4 10e-6,-1.7e-4 l -10e-5,0.00112 c 3e-5,-3.2e-4 6e-5,-6.3e-4 9e-5,-9.5e-4 z M 3.67213,12.4837 c -5e-5,0 -9e-5,-1e-4 -1.1e-4,-1e-4 l 7.2e-4,9e-4 c -2.1e-4,-3e-4 -4.1e-4,-5e-4 -6.1e-4,-8e-4 z m 2.78116,5.7469 c -1.2e-4,0 -1.9e-4,0 -2.1e-4,0 -5e-5,0 3.6e-4,0 0.00118,10e-5 -3.2e-4,0 -6.4e-4,0 -9.7e-4,-10e-5 z m 6.03031,2.0971 c -10e-5,10e-5 -2e-4,2e-4 -2e-4,2e-4 l 9e-4,-8e-4 c -2e-4,2e-4 -5e-4,4e-4 -7e-4,6e-4 z m 7.8439,-8.8115 c 10e-5,10e-5 10e-5,2e-4 2e-4,2e-4 l -7e-4,-9e-4 c 2e-4,3e-4 3e-4,5e-4 5e-4,7e-4 z M 17.5464,5.76937 c 1e-4,0 1e-4,0 1e-4,10e-6 l -0.0011,-1.1e-4 c 3e-4,3e-5 7e-4,6e-5 10e-4,1e-4 z M 11.5161,3.67229 c 10e-5,-5e-5 10e-5,-9e-5 10e-5,-1.2e-4 l -8e-4,7.2e-4 c 2e-4,-2e-4 5e-4,-4e-4 7e-4,-6e-4 z m -1.6753,-0.34218 2e-5,-3e-5 C 10.2052,2.8818 10.3874,2.65766 10.5657,2.51178 c 0.8344,-0.68237 2.0339,-0.68237 2.8683,0 0.1783,0.14588 0.3605,0.37002 0.7249,0.8183 v 2e-5 2e-5 c 0.1715,0.21094 0.2572,0.31641 0.3488,0.40616 0.4177,0.40924 0.9774,0.6411 1.5622,0.64708 0.1282,0.00131 0.2634,-0.01265 0.5338,-0.04058 0.5747,-0.05934 0.862,-0.08901 1.0913,-0.06604 1.0724,0.10744 1.9207,0.95568 2.0281,2.02815 0.023,0.22928 -0.0067,0.5166 -0.066,1.09124 -0.028,0.2704 -0.0419,0.4056 -0.0406,0.53385 0.006,0.58473 0.2378,1.14449 0.6471,1.56218 0.0897,0.0916 0.1952,0.17732 0.4061,0.34876 v 4e-5 c 0.4483,0.36434 0.6725,0.54654 0.8184,0.72494 0.6823,0.8343 0.6823,2.0339 0,2.8682 -0.1459,0.1784 -0.3701,0.3606 -0.8184,0.7249 v 10e-5 c -0.2109,0.1714 -0.3164,0.2571 -0.4061,0.3487 -0.4093,0.4177 -0.6411,0.9775 -0.6471,1.5622 -0.0013,0.1283 0.0126,0.2635 0.0406,0.5339 0.0593,0.5746 0.089,0.8619 0.066,1.0912 -0.1074,1.0725 -0.9557,1.9207 -2.0281,2.0282 -0.2293,0.0229 -0.5166,-0.0067 -1.0913,-0.0661 -0.2704,-0.0279 -0.4056,-0.0419 -0.5338,-0.0406 -0.5848,0.006 -1.1445,0.2379 -1.5622,0.6471 -0.0916,0.0898 -0.1773,0.1952 -0.3488,0.4061 v 10e-5 c -0.3644,0.4483 -0.5466,0.6724 -0.7249,0.8183 -0.8344,0.6824 -2.0339,0.6824 -2.8683,0 -0.1783,-0.1459 -0.3605,-0.37 -0.72489,-0.8183 l -5e-5,-10e-5 -9e-5,-10e-5 C 9.6693,20.4589 9.58359,20.3535 9.492,20.2637 9.07432,19.8545 8.51455,19.6226 7.92983,19.6166 7.80158,19.6153 7.66638,19.6293 7.39597,19.6572 6.82134,19.7166 6.53402,19.7462 6.30474,19.7233 5.23227,19.6158 4.38403,18.7676 4.27659,17.6951 4.25362,17.4658 4.28329,17.1785 4.34263,16.6039 4.37055,16.3335 4.38451,16.1983 4.3832,16.07 4.37723,15.4853 4.14537,14.9255 3.73613,14.5078 3.64638,14.4162 3.54091,14.3305 3.32997,14.1591 l -2e-5,-10e-5 h -2e-5 c -0.44828,-0.3643 -0.67242,-0.5465 -0.8183,-0.7249 -0.68238,-0.8343 -0.68238,-2.0339 0,-2.8682 0.14588,-0.1784 0.37002,-0.3606 0.8183,-0.72493 l 2e-5,-10e-6 C 3.5409,9.6695 3.64637,9.58377 3.73613,9.49216 4.14537,9.07447 4.37723,8.51471 4.3832,7.92998 4.38451,7.80174 4.37055,7.66653 4.34263,7.39614 v -10e-6 -2e-5 C 4.28329,6.82148 4.25362,6.53417 4.27659,6.30489 4.38403,5.23242 5.23227,4.38418 6.30474,4.27674 6.53402,4.25377 6.82133,4.28344 7.39595,4.34278 h 2e-5 10e-6 C 7.66638,4.37071 7.80158,4.38467 7.92983,4.38336 8.51456,4.37738 9.07432,4.14552 9.492,3.73628 9.58361,3.64653 9.66934,3.54105 9.8408,3.33011 Z m 5.6895,7.20019 c 0.2929,-0.2929 0.2929,-0.76774 0,-1.06063 -0.2929,-0.29289 -0.7677,-0.29289 -1.0606,0 L 11,12.9393 9.53033,11.4697 c -0.29289,-0.2929 -0.76777,-0.2929 -1.06066,0 -0.29289,0.2929 -0.29289,0.7677 0,1.0606 l 2.00003,2 c 0.2929,0.2929 0.7677,0.2929 1.0606,0 z"
       fill="#000000"
       fill-rule="evenodd"
       id="path2"
       style="fill:#ffffff;fill-opacity:1" />
  </g>
</svg>
