<svg id="Capa_1" enable-background="new 0 0 512 512" viewBox="0 0 512 512" xmlns="http://www.w3.org/2000/svg"><g><g><path d="m17.319 74.967v401.213c0 19.782 16.037 35.819 35.82 35.819h347.267c19.783 0 35.82-16.037 35.82-35.819v-401.213l-214.604-8.968z" fill="#f7ebeb"/></g><g><path d="m405.319 65.999v379.276c0 19.782-16.037 35.819-35.82 35.819h-347.266c-1.563 0-3.099-.111-4.609-.305 2.263 17.604 17.294 31.211 35.514 31.211h347.267c19.783 0 35.82-16.037 35.82-35.819v-401.214z" fill="#f2e1e1"/></g><g><path d="m436.224 74.967v-39.148c0-19.782-16.037-35.819-35.819-35.819h-347.267c-19.783 0-35.82 16.037-35.82 35.819v39.148z" fill="#0094ff"/></g><g><path d="m400.405 0h-30.905c19.783 0 35.82 16.037 35.82 35.819v39.148h30.905v-39.148c-.001-19.782-16.038-35.819-35.82-35.819z" fill="#0083ff"/></g><g><g><g><path d="m250.764 203.371c0 28.62-12.648 54.287-32.659 71.714l-62.095 3.562-62.713-3.562c-20.011-17.428-32.659-43.094-32.659-71.715 0-52.502 42.561-95.063 95.063-95.063s95.063 42.562 95.063 95.064z" fill="#ffd250"/></g><g><path d="m160.845 108.448c39.797 11.352 68.935 47.985 68.935 91.426 0 23.054-8.208 44.189-21.859 60.648l3.33 11.538 6.85 3.021c20.012-17.427 32.663-43.089 32.663-71.709 0-50.777-39.81-92.252-89.919-94.924z" fill="#ffc433"/></g></g><g><g><path d="m157.555 296.442c23.882 0 54.26-20.567 54.26-20.567l-2.541-17.02c-12.131-16.399-31.608-27.033-53.573-27.033-28.564 0-52.92 17.984-62.387 43.243 10.37 9.032 22.729 15.86 36.314 19.737 0 .001 18.878 1.64 27.927 1.64z" fill="#00a8ff"/></g><g><path d="m129.612 294.799c8.289 2.365 17.04 3.635 26.089 3.635 23.882 0 45.689-8.826 62.387-23.369-2.187-5.836-5.178-11.276-8.823-16.204-17.412 21.976-44.332 36.075-74.548 36.075-1.713.001-3.415-.048-5.105-.137z" fill="#0094ff"/></g></g><g><path d="m116.469 204.083v9.414c0 21.838 17.703 39.541 39.541 39.541 21.838 0 39.541-17.703 39.541-39.541v-9.414l-39.541-26.24z" fill="#ca6e59"/></g><g><path d="m156.01 151.602c-21.838 0-39.541 17.703-39.541 39.541v12.94l12.479-3.579c8.134-2.333 21.214-10.398 25.586-13.177.891-.567 2.041-.503 2.876.144 7.201 5.579 13.746 9.806 21.957 12.097l16.183 4.515v-12.94c.001-21.838-17.703-39.541-39.54-39.541z" fill="#518e9a"/></g></g><g><circle cx="413.374" cy="388.075" fill="#00d8a2" r="81.308"/></g><g><path d="m413.374 306.767c-5.286 0-10.448.522-15.453 1.485 37.512 7.22 65.855 40.204 65.855 79.823s-28.343 72.602-65.855 79.822c5.005.963 10.167 1.485 15.453 1.485 44.905 0 81.308-36.402 81.308-81.307s-36.403-81.308-81.308-81.308z" fill="#00c4a4"/></g><g><path d="m461.331 365.855-15.074-15.074c-3.182-3.182-8.34-3.182-11.522 0l-30.578 30.578c-1.553 1.553-4.071 1.553-5.625 0l-6.52-6.52c-3.182-3.182-8.34-3.182-11.522 0l-15.074 15.074c-3.182 3.182-3.182 8.34 0 11.522l18.191 18.923c4.542 4.725 10.814 7.396 17.368 7.396 6.389 0 12.517-2.538 17.035-7.056l43.321-43.321c3.182-3.182 3.182-8.34 0-11.522z" fill="#fff5f5"/></g><g><path d="m380.426 178.648h-97.558c-5.246 0-9.499-4.253-9.499-9.499v-21.181c0-5.246 4.253-9.499 9.499-9.499h97.558c5.246 0 9.499 4.253 9.499 9.499v21.181c0 5.246-4.253 9.499-9.499 9.499z" fill="#00d1fd"/></g><g><path d="m380.426 258.436h-97.558c-5.246 0-9.499-4.253-9.499-9.499v-21.181c0-5.246 4.253-9.499 9.499-9.499h97.558c5.246 0 9.499 4.253 9.499 9.499v21.181c0 5.247-4.253 9.499-9.499 9.499z" fill="#00d1fd"/></g><g><path d="m283.671 332.381h-218.815c-4.267 0-7.726-3.459-7.726-7.726s3.459-7.726 7.726-7.726h218.814c4.267 0 7.726 3.459 7.726 7.726s-3.458 7.726-7.725 7.726z" fill="#69a2b3"/></g><g><path d="m283.671 375.528h-218.815c-4.267 0-7.726-3.459-7.726-7.726s3.459-7.726 7.726-7.726h218.814c4.267 0 7.726 3.459 7.726 7.726s-3.458 7.726-7.725 7.726z" fill="#69a2b3"/></g><g><path d="m283.671 418.675h-218.815c-4.267 0-7.726-3.459-7.726-7.726s3.459-7.726 7.726-7.726h218.814c4.267 0 7.726 3.459 7.726 7.726s-3.458 7.726-7.725 7.726z" fill="#69a2b3"/></g><g><path d="m283.671 461.823h-218.815c-4.267 0-7.726-3.459-7.726-7.726s3.459-7.726 7.726-7.726h218.814c4.267 0 7.726 3.459 7.726 7.726s-3.458 7.726-7.725 7.726z" fill="#69a2b3"/></g><g><path d="m329.858 46.606c-11.022.042-9.295-17.495 1.505-15.299 8.948 1.549 7.573 15.52-1.505 15.299z" fill="#fff5f5"/></g><g><path d="m358.518 46.606c-11.007.013-9.304-17.464 1.515-15.299 8.948 1.553 7.561 15.529-1.515 15.299z" fill="#fff5f5"/></g><g><path d="m387.188 46.606c-11.022.039-9.293-17.492 1.505-15.299 8.949 1.551 7.575 15.52-1.505 15.299z" fill="#fff5f5"/></g></g><g/><g/><g/><g/><g/><g/><g/><g/><g/><g/><g/><g/><g/><g/><g/></svg>