<svg height="512pt" viewBox="-15 0 512 512" width="512pt" xmlns="http://www.w3.org/2000/svg"><path d="m112.113281 273.65625v52.964844h335.449219v-291.3125h-335.449219" fill="#35495e"/><path d="m456.390625 220.691406c-2.339844-.003906-4.585937-.933594-6.242187-2.589844l-79.445313-79.445312c-3.347656-3.464844-3.300781-8.972656.105469-12.375 3.40625-3.40625 8.910156-3.453125 12.375-.109375l79.449218 79.449219c2.523438 2.523437 3.277344 6.320312 1.910157 9.617187-1.363281 3.300781-4.582031 5.449219-8.152344 5.453125zm0 0" fill="#cb8252"/><path d="m244.527344 353.101562c-2.339844 0-4.585938-.929687-6.238282-2.585937l-79.449218-79.445313c-3.34375-3.464843-3.296875-8.972656.105468-12.375 3.40625-3.40625 8.914063-3.453124 12.375-.109374l79.449219 79.449218c2.523438 2.523438 3.277344 6.320313 1.914063 9.617188-1.367188 3.300781-4.585938 5.449218-8.15625 5.449218zm0 0" fill="#cb8252"/><path d="m447.5625 476.691406h-335.449219v-114.761718h335.449219zm-370.757812-368.023437v-99.839844c0-4.875 3.953124-8.828125 8.828124-8.828125h388.414063c4.875 0 8.828125 3.953125 8.828125 8.828125v494.34375c0 4.875-3.953125 8.828125-8.828125 8.828125h-388.414063c-4.875 0-8.828124-3.953125-8.828124-8.828125zm35.308593 164.988281v48.550781c0 2.4375 1.976563 4.414063 4.414063 4.414063h326.621094c2.4375 0 4.414062-1.976563 4.414062-4.414063v-286.898437h-335.449219zm0 0" fill="#b19046"/><path d="m116.527344 361.929688h326.621094c2.4375 0 4.414062 1.976562 4.414062 4.414062v105.933594c0 2.4375-1.976562 4.414062-4.414062 4.414062h-326.621094c-2.4375 0-4.414063-1.976562-4.414063-4.414062v-105.933594c0-2.4375 1.976563-4.414062 4.414063-4.414062zm0 0" fill="#90bae1"/><path d="m447.5625 35.308594-113.558594 235.847656c-.734375 1.527344-2.277344 2.496094-3.972656 2.5h-325.613281c-1.519531 0-2.929688-.777344-3.742188-2.066406-.808593-1.285156-.898437-2.894532-.238281-4.265625l111.675781-232.015625zm0 0" fill="#e4c05c"/><path d="m56.589844 232.015625 76.507812-158.898437c.738282-1.527344 2.285156-2.5 3.980469-2.496094h247.269531c1.519532-.003906 2.933594.777344 3.742188 2.0625s.898437 2.898437.242187 4.265625l-76.511719 158.898437c-.734374 1.527344-2.28125 2.5-3.980468 2.496094h-247.269532c-1.519531.003906-2.929687-.777344-3.742187-2.0625-.808594-1.285156-.898437-2.898438-.238281-4.265625zm0 0" fill="#90bae1"/><g fill="#b0d3f0"><path d="m368.113281 70.621094c-182.464843 8.652344-270.828125 162.78125-273.566406 167.636718l-.085937.085938h-33.898438c-1.527344.003906-2.945312-.78125-3.753906-2.074219-.804688-1.292969-.890625-2.910156-.21875-4.28125l76.535156-158.894531c.742188-1.515625 2.285156-2.476562 3.972656-2.472656zm0 0"/><path d="m412.253906 361.929688c-194.207031 8.828124-264.828125 114.761718-264.828125 114.761718h-30.898437c-2.4375 0-4.414063-1.976562-4.414063-4.414062v-105.933594c0-2.4375 1.976563-4.414062 4.414063-4.414062zm0 0"/></g></svg>